<?xml version="1.0" encoding="utf-8"?>
<!-- Generator: Adobe Illustrator 22.0.0, SVG Export Plug-In . SVG Version: 6.00 Build 0)  -->
<svg version="1.1" id="Ńëîé_1" xmlns="http://www.w3.org/2000/svg" xmlns:xlink="http://www.w3.org/1999/xlink" x="0px" y="0px"
	 viewBox="0 0 600 450" style="enable-background:new 0 0 600 450;" xml:space="preserve">
<style type="text/css">
	.st0{opacity:0.5;}
	.st1{clip-path:url(#SVGID_2_);}
	.st2{fill:url(#SVGID_3_);}
	.st3{fill:url(#SVGID_4_);}
	.st4{fill:#FFFFFF;}
	.st5{fill:url(#SVGID_5_);}
	.st6{fill:url(#SVGID_6_);}
	.st7{fill:url(#SVGID_7_);}
	.st8{fill:url(#SVGID_8_);}
	.st9{fill:url(#SVGID_9_);}
	.st10{fill:url(#SVGID_10_);}
	.st11{opacity:0.2;}
	.st12{fill:url(#SVGID_11_);}
	.st13{fill:url(#SVGID_12_);}
	.st14{fill:url(#SVGID_13_);}
	.st15{fill:url(#SVGID_14_);}
	.st16{opacity:0.25;}
	.st17{fill:url(#SVGID_15_);}
	.st18{fill:url(#SVGID_16_);}
	.st19{fill:url(#SVGID_17_);}
	.st20{fill:url(#SVGID_18_);}
	.st21{opacity:0.3;fill:url(#SVGID_19_);}
	.st22{fill:url(#SVGID_20_);}
	.st23{fill:url(#SVGID_21_);}
	.st24{fill:url(#SVGID_22_);}
	.st25{fill:url(#SVGID_23_);}
	.st26{opacity:0.4;}
	.st27{fill:url(#SVGID_24_);}
	.st28{fill:url(#SVGID_25_);}
	.st29{fill:url(#SVGID_26_);}
	.st30{fill:url(#SVGID_27_);}
	.st31{fill:url(#SVGID_28_);}
	.st32{fill:url(#SVGID_29_);}
	.st33{fill:url(#SVGID_30_);}
	.st34{fill:url(#SVGID_31_);}
	.st35{fill:url(#SVGID_32_);}
	.st36{fill:url(#SVGID_33_);}
	.st37{fill:url(#SVGID_34_);}
	.st38{fill:url(#SVGID_35_);}
	.st39{fill:url(#SVGID_36_);}
	.st40{fill:url(#SVGID_37_);}
	.st41{fill:#FD7207;}
	.st42{opacity:0.3;fill:url(#SVGID_38_);}
	.st43{fill:url(#SVGID_39_);}
	.st44{fill:url(#SVGID_40_);}
	.st45{opacity:0.3;fill:url(#SVGID_41_);}
	.st46{fill:url(#SVGID_42_);}
	.st47{fill:url(#SVGID_43_);}
</style>
<g class="st0">
	<defs>
		<rect id="SVGID_1_" x="278.2" y="5.3" class="st0" width="309.9" height="261.5"/>
	</defs>
	<clipPath id="SVGID_2_">
		<use xlink:href="#SVGID_1_"  style="overflow:visible;"/>
	</clipPath>
	<g class="st1">
		<g>
			<linearGradient id="SVGID_3_" gradientUnits="userSpaceOnUse" x1="417.8992" y1="131.7957" x2="506.0785" y2="131.7957">
				<stop  offset="0.4032" style="stop-color:#FD5A05"/>
				<stop  offset="0.423" style="stop-color:#FA5505"/>
				<stop  offset="0.5505" style="stop-color:#EC3D03"/>
				<stop  offset="0.6846" style="stop-color:#E22C01"/>
				<stop  offset="0.8286" style="stop-color:#DC2100"/>
				<stop  offset="1" style="stop-color:#DA1E00"/>
			</linearGradient>
			<path class="st2" d="M506.1,41.6h-88.2v155h0c-0.1,1,0.5,1.9,1.6,2.5l38,21.9c2.5,1.4,6.8,1.2,9.6-0.4l36.6-21.1
				c1.5-0.8,2.2-1.9,2.3-2.9h0V41.6z"/>
			<linearGradient id="SVGID_4_" gradientUnits="userSpaceOnUse" x1="423.0943" y1="-17.0631" x2="517.2318" y2="124.9014">
				<stop  offset="0.4032" style="stop-color:#FC8B04"/>
				<stop  offset="0.5099" style="stop-color:#FC7904"/>
				<stop  offset="0.6558" style="stop-color:#FD6805"/>
				<stop  offset="0.813" style="stop-color:#FD5D05"/>
				<stop  offset="1" style="stop-color:#FD5A05"/>
			</linearGradient>
			<path class="st3" d="M457.5,66.1l-38-21.9c-2.5-1.4-2.1-3.9,0.7-5.5l36.6-21.1c2.8-1.6,7.1-1.8,9.6-0.4l38,21.9
				c2.5,1.4,2.2,3.9-0.7,5.5l-36.6,21.1C464.3,67.3,460,67.5,457.5,66.1z"/>
			<path class="st4" d="M503.7,42.9l-36.6,21.1c-2.8,1.6-7.1,1.8-9.6,0.4l-38-21.9c-0.8-0.4-1.2-1-1.5-1.6c-0.4,1.2,0,2.4,1.5,3.2
				l38,21.9c2.5,1.4,6.8,1.2,9.6-0.4l36.6-21.1c1.9-1.1,2.7-2.6,2.2-3.9C505.6,41.5,504.9,42.3,503.7,42.9z"/>
		</g>
		<g>
			<linearGradient id="SVGID_5_" gradientUnits="userSpaceOnUse" x1="487.5637" y1="135.5321" x2="575.7429" y2="135.5321">
				<stop  offset="0.4032" style="stop-color:#FD5A05"/>
				<stop  offset="0.423" style="stop-color:#FA5505"/>
				<stop  offset="0.5505" style="stop-color:#EC3D03"/>
				<stop  offset="0.6846" style="stop-color:#E22C01"/>
				<stop  offset="0.8286" style="stop-color:#DC2100"/>
				<stop  offset="1" style="stop-color:#DA1E00"/>
			</linearGradient>
			<path class="st5" d="M575.7,62.3h-88.2v121h0c-0.1,1,0.5,1.9,1.6,2.5l38,21.9c2.5,1.4,6.8,1.2,9.6-0.4l36.6-21.1
				c1.5-0.8,2.2-1.9,2.3-2.9h0V62.3z"/>
			<linearGradient id="SVGID_6_" gradientUnits="userSpaceOnUse" x1="492.7587" y1="3.6701" x2="586.8964" y2="145.6349">
				<stop  offset="0.4032" style="stop-color:#FC8B04"/>
				<stop  offset="0.5099" style="stop-color:#FC7904"/>
				<stop  offset="0.6558" style="stop-color:#FD6805"/>
				<stop  offset="0.813" style="stop-color:#FD5D05"/>
				<stop  offset="1" style="stop-color:#FD5A05"/>
			</linearGradient>
			<path class="st6" d="M527.2,86.8l-38-21.9c-2.5-1.4-2.1-3.9,0.7-5.5l36.6-21.1c2.8-1.6,7.1-1.8,9.6-0.4l38,21.9
				c2.5,1.4,2.1,3.9-0.7,5.5l-36.6,21.1C534,88.1,529.7,88.3,527.2,86.8z"/>
			<path class="st4" d="M573.4,63.7l-36.6,21.1c-2.8,1.6-7.1,1.8-9.6,0.4l-38-21.9c-0.8-0.5-1.2-1-1.5-1.6c-0.4,1.2,0,2.4,1.5,3.2
				l38,21.9c2.5,1.4,6.8,1.2,9.6-0.4l36.6-21.1c1.9-1.1,2.7-2.6,2.2-3.9C575.3,62.2,574.6,63,573.4,63.7z"/>
		</g>
		<g>
			<linearGradient id="SVGID_7_" gradientUnits="userSpaceOnUse" x1="366.881" y1="180.9331" x2="455.0602" y2="180.9331">
				<stop  offset="0.4032" style="stop-color:#FD5A05"/>
				<stop  offset="0.423" style="stop-color:#FA5505"/>
				<stop  offset="0.5505" style="stop-color:#EC3D03"/>
				<stop  offset="0.6846" style="stop-color:#E22C01"/>
				<stop  offset="0.8286" style="stop-color:#DC2100"/>
				<stop  offset="1" style="stop-color:#DA1E00"/>
			</linearGradient>
			<path class="st7" d="M455.1,154.4h-88.2V182h0c-0.1,1,0.5,1.9,1.6,2.5l38,21.9c2.5,1.4,6.8,1.2,9.6-0.4l36.6-21.1
				c1.5-0.8,2.2-1.9,2.3-2.9h0V154.4z"/>
			<linearGradient id="SVGID_8_" gradientUnits="userSpaceOnUse" x1="372.076" y1="95.7736" x2="466.2136" y2="237.7381">
				<stop  offset="0.4032" style="stop-color:#FC8B04"/>
				<stop  offset="0.5099" style="stop-color:#FC7904"/>
				<stop  offset="0.6558" style="stop-color:#FD6805"/>
				<stop  offset="0.813" style="stop-color:#FD5D05"/>
				<stop  offset="1" style="stop-color:#FD5A05"/>
			</linearGradient>
			<path class="st8" d="M406.5,178.9l-38-21.9c-2.5-1.4-2.1-3.9,0.7-5.5l36.6-21.1c2.8-1.6,7.1-1.8,9.6-0.4l38,21.9
				c2.5,1.4,2.2,3.9-0.7,5.5l-36.6,21.1C413.3,180.2,409,180.4,406.5,178.9z"/>
			<path class="st4" d="M452.7,155.8l-36.6,21.1c-2.8,1.6-7.1,1.8-9.6,0.4l-38-21.9c-0.8-0.4-1.2-1-1.5-1.6c-0.4,1.2,0,2.4,1.5,3.2
				l38,21.9c2.5,1.4,6.8,1.2,9.6-0.4l36.6-21.1c1.9-1.1,2.7-2.6,2.2-3.9C454.6,154.3,453.9,155.1,452.7,155.8z"/>
		</g>
		<g>
			<linearGradient id="SVGID_9_" gradientUnits="userSpaceOnUse" x1="427.2159" y1="189.7681" x2="515.3953" y2="189.7681">
				<stop  offset="0.4032" style="stop-color:#FD5A05"/>
				<stop  offset="0.423" style="stop-color:#FA5505"/>
				<stop  offset="0.5505" style="stop-color:#EC3D03"/>
				<stop  offset="0.6846" style="stop-color:#E22C01"/>
				<stop  offset="0.8286" style="stop-color:#DC2100"/>
				<stop  offset="1" style="stop-color:#DA1E00"/>
			</linearGradient>
			<path class="st9" d="M515.4,136.9h-88.2v80.2h0c-0.1,1,0.5,1.9,1.6,2.5l38,21.9c2.5,1.4,6.8,1.2,9.6-0.4l36.6-21.1
				c1.5-0.8,2.2-1.9,2.3-2.9h0V136.9z"/>
			<linearGradient id="SVGID_10_" gradientUnits="userSpaceOnUse" x1="432.4111" y1="78.2824" x2="526.5486" y2="220.247">
				<stop  offset="0.4032" style="stop-color:#FC8B04"/>
				<stop  offset="0.5099" style="stop-color:#FC7904"/>
				<stop  offset="0.6558" style="stop-color:#FD6805"/>
				<stop  offset="0.813" style="stop-color:#FD5D05"/>
				<stop  offset="1" style="stop-color:#FD5A05"/>
			</linearGradient>
			<path class="st10" d="M466.9,161.4l-38-21.9c-2.5-1.4-2.1-3.9,0.7-5.5l36.6-21.1c2.8-1.6,7.1-1.8,9.6-0.4l38,21.9
				c2.5,1.4,2.2,3.9-0.7,5.5l-36.6,21.1C473.6,162.7,469.3,162.9,466.9,161.4z"/>
			<path class="st4" d="M513.1,138.3l-36.6,21.1c-2.8,1.6-7.1,1.8-9.6,0.4l-38-21.9c-0.8-0.4-1.2-1-1.5-1.6c-0.4,1.2,0,2.4,1.5,3.2
				l38,21.9c2.5,1.4,6.8,1.2,9.6-0.4l36.6-21.1c1.9-1.1,2.7-2.6,2.2-3.9C514.9,136.8,514.2,137.6,513.1,138.3z"/>
		</g>
	</g>
</g>
<g class="st11">
	
		<linearGradient id="SVGID_11_" gradientUnits="userSpaceOnUse" x1="226.6575" y1="209.4639" x2="294.8282" y2="209.4639" gradientTransform="matrix(0.3477 -0.9376 0.9376 0.3477 5.2677 279.8251)">
		<stop  offset="0.4032" style="stop-color:#FD5A05"/>
		<stop  offset="0.423" style="stop-color:#FA5505"/>
		<stop  offset="0.5505" style="stop-color:#EC3D03"/>
		<stop  offset="0.6846" style="stop-color:#E22C01"/>
		<stop  offset="0.8286" style="stop-color:#DC2100"/>
		<stop  offset="1" style="stop-color:#DA1E00"/>
	</linearGradient>
	<path class="st12" d="M275.4,65.5l-23.7,63.9l39.2,14.5l0,0c0.7,0.3,1.5,0.2,2.3-0.5l26.1-21.6c1.7-1.4,2.7-4.6,2.3-7.1l-5.5-32.2
		c-0.2-1.3-0.8-2.1-1.5-2.5l0,0L275.4,65.5z"/>
	
		<linearGradient id="SVGID_12_" gradientUnits="userSpaceOnUse" x1="230.6739" y1="133.3853" x2="303.4505" y2="243.1363" gradientTransform="matrix(0.3477 -0.9376 0.9376 0.3477 5.2677 279.8251)">
		<stop  offset="0.4032" style="stop-color:#FC8B04"/>
		<stop  offset="0.5099" style="stop-color:#FC7904"/>
		<stop  offset="0.6558" style="stop-color:#FD6805"/>
		<stop  offset="0.813" style="stop-color:#FD5D05"/>
		<stop  offset="1" style="stop-color:#FD5A05"/>
	</linearGradient>
	<path class="st13" d="M280.1,107.3L254,128.9c-1.7,1.4-3.4,0.5-3.8-2l-5.5-32.2c-0.4-2.5,0.6-5.7,2.3-7.1L273.1,66
		c1.7-1.4,3.4-0.5,3.8,2l5.5,32.2C282.8,102.7,281.8,105.9,280.1,107.3z"/>
	<path class="st4" d="M275.7,67.6l5.5,32.2c0.4,2.5-0.6,5.7-2.3,7.1l-26.1,21.6c-0.5,0.4-1.1,0.6-1.6,0.6c0.7,0.6,1.7,0.6,2.8-0.2
		l26.1-21.6c1.7-1.4,2.7-4.6,2.3-7.1L276.9,68c-0.3-1.7-1.2-2.6-2.3-2.6C275.1,65.8,275.5,66.6,275.7,67.6z"/>
</g>
<g class="st0">
	
		<linearGradient id="SVGID_13_" gradientUnits="userSpaceOnUse" x1="24.6662" y1="508.7024" x2="92.8369" y2="508.7024" gradientTransform="matrix(0.3477 -0.9376 0.9376 0.3477 5.2677 279.8251)">
		<stop  offset="0.4032" style="stop-color:#FD5A05"/>
		<stop  offset="0.423" style="stop-color:#FA5505"/>
		<stop  offset="0.5505" style="stop-color:#EC3D03"/>
		<stop  offset="0.6846" style="stop-color:#E22C01"/>
		<stop  offset="0.8286" style="stop-color:#DC2100"/>
		<stop  offset="1" style="stop-color:#DA1E00"/>
	</linearGradient>
	<path class="st14" d="M485.7,359L462,422.9l39.2,14.5l0,0c0.7,0.3,1.5,0.2,2.3-0.5l26.1-21.6c1.7-1.4,2.7-4.6,2.3-7.1l-5.5-32.2
		c-0.2-1.3-0.8-2.1-1.5-2.5l0,0L485.7,359z"/>
	
		<linearGradient id="SVGID_14_" gradientUnits="userSpaceOnUse" x1="28.6827" y1="432.6238" x2="101.4591" y2="542.3746" gradientTransform="matrix(0.3477 -0.9376 0.9376 0.3477 5.2677 279.8251)">
		<stop  offset="0.4032" style="stop-color:#FC8B04"/>
		<stop  offset="0.5099" style="stop-color:#FC7904"/>
		<stop  offset="0.6558" style="stop-color:#FD6805"/>
		<stop  offset="0.813" style="stop-color:#FD5D05"/>
		<stop  offset="1" style="stop-color:#FD5A05"/>
	</linearGradient>
	<path class="st15" d="M490.4,400.7l-26.1,21.6c-1.7,1.4-3.4,0.5-3.8-2l-5.5-32.2c-0.4-2.5,0.6-5.7,2.3-7.1l26.1-21.6
		c1.7-1.4,3.4-0.5,3.8,2l5.5,32.2C493.1,396.2,492.1,399.3,490.4,400.7z"/>
	<path class="st4" d="M486,361l5.5,32.2c0.4,2.5-0.6,5.7-2.3,7.1l-26.1,21.6c-0.5,0.4-1.1,0.6-1.6,0.6c0.7,0.6,1.7,0.6,2.8-0.2
		l26.1-21.6c1.7-1.4,2.7-4.6,2.3-7.1l-5.5-32.2c-0.3-1.7-1.2-2.6-2.3-2.6C485.5,359.3,485.9,360,486,361z"/>
</g>
<g class="st16">
	
		<linearGradient id="SVGID_15_" gradientUnits="userSpaceOnUse" x1="-841.123" y1="349.9771" x2="-811.6348" y2="349.9771" gradientTransform="matrix(0.6045 0.7966 -0.7966 0.6045 1154.3276 872.3459)">
		<stop  offset="0.4032" style="stop-color:#FD5A05"/>
		<stop  offset="0.423" style="stop-color:#FA5505"/>
		<stop  offset="0.5505" style="stop-color:#EC3D03"/>
		<stop  offset="0.6846" style="stop-color:#E22C01"/>
		<stop  offset="0.8286" style="stop-color:#DC2100"/>
		<stop  offset="1" style="stop-color:#DA1E00"/>
	</linearGradient>
	<path class="st17" d="M395.5,429.3l-17.8-23.5l-14.4,10.9l0,0c-0.3,0.2-0.4,0.5-0.3,1l1.8,14.6c0.1,0.9,1,2,2,2.5l13,5.5
		c0.5,0.2,1,0.2,1.3,0l0,0L395.5,429.3z"/>
	
		<linearGradient id="SVGID_16_" gradientUnits="userSpaceOnUse" x1="-839.3858" y1="317.0681" x2="-807.9037" y2="364.5448" gradientTransform="matrix(0.6045 0.7966 -0.7966 0.6045 1154.3276 872.3459)">
		<stop  offset="0.4032" style="stop-color:#FC8B04"/>
		<stop  offset="0.5099" style="stop-color:#FC7904"/>
		<stop  offset="0.6558" style="stop-color:#FD6805"/>
		<stop  offset="0.813" style="stop-color:#FD5D05"/>
		<stop  offset="1" style="stop-color:#FD5A05"/>
	</linearGradient>
	<path class="st18" d="M379.2,421.3l-1.8-14.6c-0.1-0.9,0.6-1.4,1.6-0.9l13,5.5c1,0.4,1.9,1.5,2,2.5l1.8,14.6
		c0.1,0.9-0.6,1.4-1.6,0.9l-13-5.5C380.2,423.4,379.3,422.3,379.2,421.3z"/>
	<path class="st4" d="M394.7,429l-13-5.5c-1-0.4-1.9-1.5-2-2.5l-1.8-14.6c0-0.3,0-0.5,0.1-0.7c-0.4,0.1-0.6,0.5-0.6,1.1l1.8,14.6
		c0.1,0.9,1,2,2,2.5l13,5.5c0.7,0.3,1.2,0.2,1.5-0.2C395.4,429.2,395.1,429.1,394.7,429z"/>
</g>
<g>
	
		<linearGradient id="SVGID_17_" gradientUnits="userSpaceOnUse" x1="305.7403" y1="164.1716" x2="339.6566" y2="164.1716" gradientTransform="matrix(0.7842 0.6205 -0.6205 0.7842 158.987 -151.5635)">
		<stop  offset="0" style="stop-color:#3A9BD5"/>
		<stop  offset="0.1172" style="stop-color:#3490CE"/>
		<stop  offset="0.367" style="stop-color:#2C80C3"/>
		<stop  offset="0.6442" style="stop-color:#2776BC"/>
		<stop  offset="1" style="stop-color:#2573BA"/>
	</linearGradient>
	<path class="st19" d="M333,176l-26.6-21l-12.9,16.3l0,0c-0.2,0.3-0.3,0.7-0.1,1.2l6.2,15.7c0.4,1,1.7,2,3,2.2l16.1,2.4
		c0.6,0.1,1.1,0,1.4-0.3l0,0L333,176z"/>
	
		<linearGradient id="SVGID_18_" gradientUnits="userSpaceOnUse" x1="307.7385" y1="126.3209" x2="343.9478" y2="180.9266" gradientTransform="matrix(0.7842 0.6205 -0.6205 0.7842 158.987 -151.5635)">
		<stop  offset="0" style="stop-color:#59BDEF"/>
		<stop  offset="1" style="stop-color:#7BDAFF"/>
	</linearGradient>
	<path class="st20" d="M312.5,171.8l-6.2-15.7c-0.4-1,0.3-1.7,1.5-1.5l16.1,2.4c1.2,0.2,2.6,1.2,3,2.2l6.2,15.7
		c0.4,1-0.3,1.7-1.5,1.5l-16.1-2.4C314.2,173.7,312.9,172.8,312.5,171.8z"/>
	<path class="st4" d="M331.9,175.8l-16.1-2.4c-1.2-0.2-2.6-1.2-3-2.2l-6.2-15.7c-0.1-0.3-0.1-0.6-0.1-0.8c-0.4,0.3-0.6,0.7-0.3,1.3
		l6.2,15.7c0.4,1,1.7,2,3,2.2l16.1,2.4c0.9,0.1,1.4-0.2,1.6-0.7C332.9,175.8,332.4,175.9,331.9,175.8z"/>
</g>
<linearGradient id="SVGID_19_" gradientUnits="userSpaceOnUse" x1="249.7825" y1="279.0441" x2="504.8236" y2="279.0441">
	<stop  offset="0" style="stop-color:#59BDEF"/>
	<stop  offset="1" style="stop-color:#7BDAFF"/>
</linearGradient>
<path class="st21" d="M504.8,289c0-0.7-0.4-1.4-1.3-2l-141.4-82.2c-1.9-1.1-5.2-1-7.4,0.3l-12.2,7l-90.8,52.1
	c-1.2,0.7-1.8,1.6-1.8,2.4l0,0l0,2.6l0,0c0,0.7,0.4,1.4,1.3,1.9l141.4,82.2c1.9,1.1,5.2,1,7.4-0.3l90.8-52.1l12.2-7
	c1.2-0.7,1.8-1.6,1.8-2.4l0,0L504.8,289L504.8,289z"/>
<g>
	
		<linearGradient id="SVGID_20_" gradientUnits="userSpaceOnUse" x1="1290.5485" y1="689.8782" x2="1474.0713" y2="689.8782" gradientTransform="matrix(1 3.100000e-03 -3.100000e-03 1 -950.6147 -473.1815)">
		<stop  offset="0.4032" style="stop-color:#FD5A05"/>
		<stop  offset="0.423" style="stop-color:#FA5505"/>
		<stop  offset="0.5505" style="stop-color:#EC3D03"/>
		<stop  offset="0.6846" style="stop-color:#E22C01"/>
		<stop  offset="0.8286" style="stop-color:#DC2100"/>
		<stop  offset="1" style="stop-color:#DA1E00"/>
	</linearGradient>
	<path class="st22" d="M521.2,259.8l-3.1,1.4l-158-91.9c-2.1-1.3-5.9-1.1-8.4,0.3l-13.8,7.9l167.4,95.8l13.8-7.9
		c1.4-0.8,2.1-1.8,2.1-2.8l0,0L521.2,259.8z"/>
	<g>
		
			<linearGradient id="SVGID_21_" gradientUnits="userSpaceOnUse" x1="1186.2142" y1="724.5737" x2="1458.2285" y2="724.5737" gradientTransform="matrix(1 3.100000e-03 -3.100000e-03 1 -950.6147 -473.1815)">
			<stop  offset="0" style="stop-color:#3A9BD5"/>
			<stop  offset="0.3053" style="stop-color:#3A9BD5"/>
			<stop  offset="0.3555" style="stop-color:#3A9BD5"/>
			<stop  offset="0.5988" style="stop-color:#3999D4"/>
			<stop  offset="0.6883" style="stop-color:#3592CF"/>
			<stop  offset="0.7522" style="stop-color:#2F86C7"/>
			<stop  offset="0.8039" style="stop-color:#2676BC"/>
			<stop  offset="0.8102" style="stop-color:#2573BA"/>
		</linearGradient>
		<path class="st23" d="M495.1,269l-157.2-91.4l-100.2,57.4l-4.3-0.6l0,3l0,0c0,0.8,0.4,1.6,1.4,2.2l159.6,92.8
			c2.1,1.2,5.9,1.1,8.4-0.3l102.5-58.7l0-3L495.1,269z"/>
		
			<radialGradient id="SVGID_22_" cx="-866.9773" cy="-763.4985" r="252.9778" gradientTransform="matrix(0.8645 0.5026 -0.9761 0.5596 253.3395 1054.9009)" gradientUnits="userSpaceOnUse">
			<stop  offset="0" style="stop-color:#7BDAFF"/>
			<stop  offset="1" style="stop-color:#59BDEF"/>
		</radialGradient>
		<path class="st24" d="M394.5,329.5l-159.6-92.8c-2.1-1.2-1.9-3.4,0.6-4.8l102.5-58.7l167.4,97.3l-102.5,58.7
			C400.4,330.6,396.6,330.7,394.5,329.5z"/>
		
			<linearGradient id="SVGID_23_" gradientUnits="userSpaceOnUse" x1="-544.2465" y1="1106.8926" x2="-890.1241" y2="1254.4354" gradientTransform="matrix(0.8645 0.5026 -1.0018 0.5743 2244.3972 -98.3711)">
			<stop  offset="0" style="stop-color:#DA1E00"/>
			<stop  offset="0.4387" style="stop-color:#EA3A02"/>
			<stop  offset="1" style="stop-color:#FD5A05"/>
		</linearGradient>
		<path class="st25" d="M360.2,164.8l159.6,92.8c2.1,1.2,1.9,3.4-0.6,4.8l-13.8,7.9l-167.4-97.3l13.8-7.9
			C354.2,163.7,358,163.6,360.2,164.8z"/>
		<g>
			<g>
				<path class="st4" d="M490.8,251c-1.1,0.7-3,0.6-4.1,0s-1.1-1.7,0-2.4c1.1-0.7,3-0.6,4.1,0C492,249.3,491.9,250.3,490.8,251z"/>
			</g>
			<g>
				<path class="st4" d="M497.4,254.8c-1.1,0.7-3,0.6-4.1,0c-1.1-0.7-1.1-1.7,0-2.4c1.1-0.7,3-0.6,4.1,0S498.5,254.1,497.4,254.8z"
					/>
			</g>
			<g>
				<path class="st4" d="M504,258.6c-1.1,0.7-3,0.6-4.1,0c-1.1-0.7-1.1-1.7,0-2.4c1.1-0.7,3-0.6,4.1,0
					C505.1,256.9,505.1,258,504,258.6z"/>
			</g>
		</g>
	</g>
</g>
<g>
	<g class="st26">
		<g>
			<linearGradient id="SVGID_24_" gradientUnits="userSpaceOnUse" x1="382.9464" y1="265.8806" x2="436.2373" y2="265.8806">
				<stop  offset="0.4032" style="stop-color:#FD5A05"/>
				<stop  offset="0.423" style="stop-color:#FA5505"/>
				<stop  offset="0.5505" style="stop-color:#EC3D03"/>
				<stop  offset="0.6846" style="stop-color:#E22C01"/>
				<stop  offset="0.8286" style="stop-color:#DC2100"/>
				<stop  offset="1" style="stop-color:#DA1E00"/>
			</linearGradient>
			<path class="st27" d="M436.2,247.6h-53.3v21.1h0c0,0.6,0.3,1.1,1,1.5l23,13.3c1.5,0.9,4.1,0.8,5.8-0.2l22.1-12.8
				c0.9-0.5,1.4-1.2,1.4-1.8h0V247.6z"/>
			<linearGradient id="SVGID_25_" gradientUnits="userSpaceOnUse" x1="386.0861" y1="212.1923" x2="442.9779" y2="297.9883">
				<stop  offset="0.4032" style="stop-color:#FC8B04"/>
				<stop  offset="0.5099" style="stop-color:#FC7904"/>
				<stop  offset="0.6558" style="stop-color:#FD6805"/>
				<stop  offset="0.813" style="stop-color:#FD5D05"/>
				<stop  offset="1" style="stop-color:#FD5A05"/>
			</linearGradient>
			<path class="st28" d="M406.9,262.5l-23-13.3c-1.5-0.9-1.3-2.4,0.4-3.3l22.1-12.8c1.7-1,4.3-1.1,5.8-0.2l23,13.3
				c1.5,0.9,1.3,2.4-0.4,3.3l-22.1,12.8C411,263.2,408.4,263.3,406.9,262.5z"/>
			<path class="st4" d="M434.8,248.5l-22.1,12.8c-1.7,1-4.3,1.1-5.8,0.2l-23-13.3c-0.5-0.3-0.8-0.6-0.9-1c-0.3,0.7,0,1.5,0.9,2
				l23,13.3c1.5,0.9,4.1,0.8,5.8-0.2l22.1-12.8c1.2-0.7,1.6-1.6,1.3-2.4C436,247.6,435.5,248,434.8,248.5z"/>
		</g>
		<g>
			<linearGradient id="SVGID_26_" gradientUnits="userSpaceOnUse" x1="310.0082" y1="265.1859" x2="363.2993" y2="265.1859">
				<stop  offset="0.4032" style="stop-color:#FD5A05"/>
				<stop  offset="0.423" style="stop-color:#FA5505"/>
				<stop  offset="0.5505" style="stop-color:#EC3D03"/>
				<stop  offset="0.6846" style="stop-color:#E22C01"/>
				<stop  offset="0.8286" style="stop-color:#DC2100"/>
				<stop  offset="1" style="stop-color:#DA1E00"/>
			</linearGradient>
			<path class="st29" d="M363.3,247H310V268h0c0,0.6,0.3,1.1,1,1.5l23,13.3c1.5,0.9,4.1,0.8,5.8-0.2l22.1-12.8
				c0.9-0.5,1.4-1.2,1.4-1.8h0V247z"/>
			<linearGradient id="SVGID_27_" gradientUnits="userSpaceOnUse" x1="313.1479" y1="211.4976" x2="370.0398" y2="297.2936">
				<stop  offset="0.4032" style="stop-color:#FC8B04"/>
				<stop  offset="0.5099" style="stop-color:#FC7904"/>
				<stop  offset="0.6558" style="stop-color:#FD6805"/>
				<stop  offset="0.813" style="stop-color:#FD5D05"/>
				<stop  offset="1" style="stop-color:#FD5A05"/>
			</linearGradient>
			<path class="st30" d="M334,261.8l-23-13.3c-1.5-0.9-1.3-2.4,0.4-3.3l22.1-12.8c1.7-1,4.3-1.1,5.8-0.2l23,13.3
				c1.5,0.9,1.3,2.4-0.4,3.3l-22.1,12.8C338,262.5,335.5,262.6,334,261.8z"/>
			<path class="st4" d="M361.9,247.8l-22.1,12.8c-1.7,1-4.3,1.1-5.8,0.2l-23-13.3c-0.5-0.3-0.8-0.6-0.9-1c-0.3,0.7,0,1.5,0.9,2
				l23,13.3c1.5,0.9,4.1,0.8,5.8-0.2l22.1-12.8c1.2-0.7,1.6-1.6,1.3-2.4C363,246.9,362.6,247.4,361.9,247.8z"/>
		</g>
		<g>
			<linearGradient id="SVGID_28_" gradientUnits="userSpaceOnUse" x1="346.4792" y1="286.3435" x2="399.7703" y2="286.3435">
				<stop  offset="0.4032" style="stop-color:#FD5A05"/>
				<stop  offset="0.423" style="stop-color:#FA5505"/>
				<stop  offset="0.5505" style="stop-color:#EC3D03"/>
				<stop  offset="0.6846" style="stop-color:#E22C01"/>
				<stop  offset="0.8286" style="stop-color:#DC2100"/>
				<stop  offset="1" style="stop-color:#DA1E00"/>
			</linearGradient>
			<path class="st31" d="M399.8,268.1h-53.3v21.1h0c0,0.6,0.3,1.1,1,1.5l23,13.3c1.5,0.9,4.1,0.8,5.8-0.2l22.1-12.8
				c0.9-0.5,1.4-1.2,1.4-1.8h0V268.1z"/>
			<linearGradient id="SVGID_29_" gradientUnits="userSpaceOnUse" x1="349.619" y1="232.6554" x2="406.5107" y2="318.4511">
				<stop  offset="0.4032" style="stop-color:#FC8B04"/>
				<stop  offset="0.5099" style="stop-color:#FC7904"/>
				<stop  offset="0.6558" style="stop-color:#FD6805"/>
				<stop  offset="0.813" style="stop-color:#FD5D05"/>
				<stop  offset="1" style="stop-color:#FD5A05"/>
			</linearGradient>
			<path class="st32" d="M370.4,282.9l-23-13.3c-1.5-0.9-1.3-2.4,0.4-3.3l22.1-12.8c1.7-1,4.3-1.1,5.8-0.2l23,13.3
				c1.5,0.9,1.3,2.4-0.4,3.3l-22.1,12.8C374.5,283.7,371.9,283.8,370.4,282.9z"/>
			<path class="st4" d="M398.4,268.9l-22.1,12.8c-1.7,1-4.3,1.1-5.8,0.2l-23-13.3c-0.5-0.3-0.8-0.6-0.9-1c-0.3,0.7,0,1.5,0.9,2
				l23,13.3c1.5,0.9,4.1,0.8,5.8-0.2l22.1-12.8c1.2-0.7,1.6-1.6,1.3-2.4C399.5,268,399.1,268.5,398.4,268.9z"/>
		</g>
	</g>
	<g>
		<g>
			<linearGradient id="SVGID_30_" gradientUnits="userSpaceOnUse" x1="346.4803" y1="173.5766" x2="399.7729" y2="173.5766">
				<stop  offset="0.4032" style="stop-color:#FD5A05"/>
				<stop  offset="0.423" style="stop-color:#FA5505"/>
				<stop  offset="0.5505" style="stop-color:#EC3D03"/>
				<stop  offset="0.6846" style="stop-color:#E22C01"/>
				<stop  offset="0.8286" style="stop-color:#DC2100"/>
				<stop  offset="1" style="stop-color:#DA1E00"/>
			</linearGradient>
			<path class="st33" d="M399.8,119.1h-53.3v93.6h0c0,0.6,0.3,1.1,1,1.5l23,13.3c1.5,0.9,4.1,0.8,5.8-0.2l22.1-12.8
				c0.9-0.5,1.4-1.2,1.4-1.8h0V119.1z"/>
			<linearGradient id="SVGID_31_" gradientUnits="userSpaceOnUse" x1="349.6201" y1="83.6113" x2="406.5136" y2="169.4099">
				<stop  offset="0.4032" style="stop-color:#FC8B04"/>
				<stop  offset="0.5099" style="stop-color:#FC7904"/>
				<stop  offset="0.6558" style="stop-color:#FD6805"/>
				<stop  offset="0.813" style="stop-color:#FD5D05"/>
				<stop  offset="1" style="stop-color:#FD5A05"/>
			</linearGradient>
			<path class="st34" d="M370.4,133.9l-23-13.3c-1.5-0.9-1.3-2.4,0.4-3.3l22.1-12.8c1.7-1,4.3-1.1,5.8-0.2l23,13.3
				c1.5,0.9,1.3,2.4-0.4,3.3l-22.1,12.8C374.5,134.6,371.9,134.7,370.4,133.9z"/>
			<path class="st4" d="M398.4,119.9l-22.1,12.8c-1.7,1-4.3,1.1-5.8,0.2l-23-13.3c-0.5-0.3-0.8-0.6-0.9-1c-0.3,0.7,0,1.5,0.9,2
				l23,13.3c1.5,0.9,4.1,0.8,5.8-0.2l22.1-12.8c1.2-0.7,1.6-1.6,1.3-2.4C399.5,119,399.1,119.5,398.4,119.9z"/>
		</g>
		<g>
			<linearGradient id="SVGID_32_" gradientUnits="userSpaceOnUse" x1="382.9449" y1="205.099" x2="436.2373" y2="205.099">
				<stop  offset="0.4032" style="stop-color:#FD5A05"/>
				<stop  offset="0.423" style="stop-color:#FA5505"/>
				<stop  offset="0.5505" style="stop-color:#EC3D03"/>
				<stop  offset="0.6846" style="stop-color:#E22C01"/>
				<stop  offset="0.8286" style="stop-color:#DC2100"/>
				<stop  offset="1" style="stop-color:#DA1E00"/>
			</linearGradient>
			<path class="st35" d="M436.2,160.9h-53.3V234h0c0,0.6,0.3,1.1,1,1.5l23,13.3c1.5,0.9,4.1,0.8,5.8-0.2l22.1-12.8
				c0.9-0.5,1.4-1.2,1.4-1.8h0V160.9z"/>
			<linearGradient id="SVGID_33_" gradientUnits="userSpaceOnUse" x1="386.0846" y1="125.4061" x2="442.9782" y2="211.2048">
				<stop  offset="0.4032" style="stop-color:#FC8B04"/>
				<stop  offset="0.5099" style="stop-color:#FC7904"/>
				<stop  offset="0.6558" style="stop-color:#FD6805"/>
				<stop  offset="0.813" style="stop-color:#FD5D05"/>
				<stop  offset="1" style="stop-color:#FD5A05"/>
			</linearGradient>
			<path class="st36" d="M406.9,175.7l-23-13.3c-1.5-0.9-1.3-2.4,0.4-3.3l22.1-12.8c1.7-1,4.3-1.1,5.8-0.2l23,13.3
				c1.5,0.9,1.3,2.4-0.4,3.3l-22.1,12.8C411,176.4,408.4,176.5,406.9,175.7z"/>
			<path class="st4" d="M434.8,161.7l-22.1,12.8c-1.7,1-4.3,1.1-5.8,0.2l-23-13.3c-0.5-0.3-0.8-0.6-0.9-1c-0.3,0.7,0,1.5,0.9,2
				l23,13.3c1.5,0.9,4.1,0.8,5.8-0.2l22.1-12.8c1.2-0.7,1.6-1.6,1.3-2.4C436,160.8,435.5,161.3,434.8,161.7z"/>
		</g>
		<g>
			<linearGradient id="SVGID_34_" gradientUnits="userSpaceOnUse" x1="310.0082" y1="232.5378" x2="363.3008" y2="232.5378">
				<stop  offset="0.4032" style="stop-color:#FD5A05"/>
				<stop  offset="0.423" style="stop-color:#FA5505"/>
				<stop  offset="0.5505" style="stop-color:#EC3D03"/>
				<stop  offset="0.6846" style="stop-color:#E22C01"/>
				<stop  offset="0.8286" style="stop-color:#DC2100"/>
				<stop  offset="1" style="stop-color:#DA1E00"/>
			</linearGradient>
			<path class="st37" d="M363.3,216.5H310v16.7h0c0,0.6,0.3,1.1,1,1.5l23,13.3c1.5,0.9,4.1,0.8,5.8-0.2l22.1-12.8
				c0.9-0.5,1.4-1.2,1.4-1.8h0V216.5z"/>
			<linearGradient id="SVGID_35_" gradientUnits="userSpaceOnUse" x1="313.148" y1="181.0703" x2="370.0416" y2="266.8689">
				<stop  offset="0.4032" style="stop-color:#FC8B04"/>
				<stop  offset="0.5099" style="stop-color:#FC7904"/>
				<stop  offset="0.6558" style="stop-color:#FD6805"/>
				<stop  offset="0.813" style="stop-color:#FD5D05"/>
				<stop  offset="1" style="stop-color:#FD5A05"/>
			</linearGradient>
			<path class="st38" d="M334,231.3l-23-13.3c-1.5-0.9-1.3-2.4,0.4-3.3l22.1-12.8c1.7-1,4.3-1.1,5.8-0.2l23,13.3
				c1.5,0.9,1.3,2.4-0.4,3.3l-22.1,12.8C338,232.1,335.5,232.2,334,231.3z"/>
			<path class="st4" d="M361.9,217.3l-22.1,12.8c-1.7,1-4.3,1.1-5.8,0.2l-23-13.3c-0.5-0.3-0.8-0.6-0.9-1c-0.3,0.7,0,1.5,0.9,2
				l23,13.3c1.5,0.9,4.1,0.8,5.8-0.2l22.1-12.8c1.2-0.7,1.6-1.6,1.3-2.4C363,216.4,362.6,216.9,361.9,217.3z"/>
		</g>
		<g>
			<linearGradient id="SVGID_36_" gradientUnits="userSpaceOnUse" x1="346.4727" y1="237.8774" x2="399.7654" y2="237.8774">
				<stop  offset="0.4032" style="stop-color:#FD5A05"/>
				<stop  offset="0.423" style="stop-color:#FA5505"/>
				<stop  offset="0.5505" style="stop-color:#EC3D03"/>
				<stop  offset="0.6846" style="stop-color:#E22C01"/>
				<stop  offset="0.8286" style="stop-color:#DC2100"/>
				<stop  offset="1" style="stop-color:#DA1E00"/>
			</linearGradient>
			<path class="st39" d="M399.8,206h-53.3v48.5h0c0,0.6,0.3,1.1,1,1.5l23,13.3c1.5,0.9,4.1,0.8,5.8-0.2l22.1-12.8
				c0.9-0.5,1.4-1.2,1.4-1.8h0V206z"/>
			<linearGradient id="SVGID_37_" gradientUnits="userSpaceOnUse" x1="349.6125" y1="170.4993" x2="406.506" y2="256.2978">
				<stop  offset="0.4032" style="stop-color:#FC8B04"/>
				<stop  offset="0.5099" style="stop-color:#FC7904"/>
				<stop  offset="0.6558" style="stop-color:#FD6805"/>
				<stop  offset="0.813" style="stop-color:#FD5D05"/>
				<stop  offset="1" style="stop-color:#FD5A05"/>
			</linearGradient>
			<path class="st40" d="M370.4,220.8l-23-13.3c-1.5-0.9-1.3-2.4,0.4-3.3l22.1-12.8c1.7-1,4.3-1.1,5.8-0.2l23,13.3
				c1.5,0.9,1.3,2.4-0.4,3.3l-22.1,12.8C374.5,221.5,371.9,221.6,370.4,220.8z"/>
			<path class="st4" d="M398.4,206.8l-22.1,12.8c-1.7,1-4.3,1.1-5.8,0.2l-23-13.3c-0.5-0.3-0.8-0.6-0.9-1c-0.3,0.7,0,1.5,0.9,2
				l23,13.3c1.5,0.9,4.1,0.8,5.8-0.2l22.1-12.8c1.2-0.7,1.6-1.6,1.3-2.4C399.5,205.9,399.1,206.4,398.4,206.8z"/>
		</g>
	</g>
	<g>
		<polygon class="st41" points="429.6,183.5 418.5,189.9 418.5,186.7 429.6,180.3 		"/>
		<polygon class="st41" points="428.4,190.2 418.5,195.9 418.5,192.7 428.4,187 		"/>
		<polygon class="st41" points="424.1,198.6 418.5,201.8 418.5,198.6 424.1,195.4 		"/>
		<polygon class="st41" points="424.1,204.6 418.5,207.8 418.5,204.6 424.1,201.4 		"/>
		<polygon class="st41" points="422.8,211.3 418.5,213.7 418.5,210.5 422.8,208.1 		"/>
		<polygon class="st41" points="422.2,217.6 418.5,219.7 418.5,216.5 422.2,214.4 		"/>
		<polygon class="st41" points="423,223 418.5,225.6 418.5,222.4 423,219.9 		"/>
		<polygon class="st41" points="421.2,230 418.5,231.6 418.5,228.4 421.2,226.8 		"/>
	</g>
	<g>
		<polygon class="st41" points="392.8,227.7 383,233.4 383,230.2 392.8,224.5 		"/>
		<polygon class="st41" points="388.5,236.1 383,239.3 383,236.2 388.5,233 		"/>
		<polygon class="st41" points="388.5,242.1 383,245.3 383,242.1 388.5,238.9 		"/>
		<polygon class="st41" points="387.2,248.8 383,251.2 383,248.1 387.2,245.6 		"/>
	</g>
</g>
<linearGradient id="SVGID_38_" gradientUnits="userSpaceOnUse" x1="586.4667" y1="185.4235" x2="663.8022" y2="302.0498" gradientTransform="matrix(0.9999 1.480000e-02 -1.480000e-02 0.9999 -143.1755 105.036)">
	<stop  offset="0" style="stop-color:#59BDEF"/>
	<stop  offset="1" style="stop-color:#7BDAFF"/>
</linearGradient>
<path class="st42" d="M467.8,367.9l-30.9-18.5c-2-1.2-1.7-3.2,0.6-4.5l30.3-16.9c2.4-1.3,5.9-1.4,7.9-0.2l30.9,18.5
	c2,1.2,1.7,3.2-0.6,4.5l-30.3,16.9C473.3,369,469.8,369,467.8,367.9z"/>
<g>
	
		<linearGradient id="SVGID_39_" gradientUnits="userSpaceOnUse" x1="420.875" y1="-338.2865" x2="497.489" y2="-338.2865" gradientTransform="matrix(0.9386 0.3451 -0.3451 0.9386 -71.1452 482.2962)">
		<stop  offset="0" style="stop-color:#3A9BD5"/>
		<stop  offset="0.1172" style="stop-color:#3490CE"/>
		<stop  offset="0.367" style="stop-color:#2C80C3"/>
		<stop  offset="0.6442" style="stop-color:#2776BC"/>
		<stop  offset="1" style="stop-color:#2573BA"/>
	</linearGradient>
	<path class="st43" d="M524.5,304.1l-71.9-26.4l-16.2,44.1l0,0c-0.3,0.8-0.2,1.7,0.6,2.6l24.4,29.3c1.6,1.9,5.1,3,7.9,2.6l36.2-6.3
		c1.4-0.3,2.4-0.9,2.8-1.7l0,0L524.5,304.1z"/>
	
		<linearGradient id="SVGID_40_" gradientUnits="userSpaceOnUse" x1="425.3899" y1="-423.7844" x2="507.1762" y2="-300.4461" gradientTransform="matrix(0.9386 0.3451 -0.3451 0.9386 -71.1452 482.2962)">
		<stop  offset="0" style="stop-color:#59BDEF"/>
		<stop  offset="1" style="stop-color:#7BDAFF"/>
	</linearGradient>
	<path class="st44" d="M477.5,309.5l-24.4-29.3c-1.6-1.9-0.6-3.8,2.2-4.3l36.2-6.3c2.8-0.5,6.4,0.7,7.9,2.6l24.4,29.3
		c1.6,1.9,0.6,3.8-2.2,4.3l-36.2,6.3C482.7,312.5,479.1,311.4,477.5,309.5z"/>
	<path class="st4" d="M522.2,304.4l-36.2,6.3c-2.8,0.5-6.4-0.7-7.9-2.6l-24.4-29.3c-0.5-0.6-0.7-1.2-0.7-1.8c-0.7,0.8-0.7,2,0.2,3.1
		l24.4,29.3c1.6,1.9,5.1,3,7.9,2.6l36.2-6.3c1.9-0.3,3-1.3,2.9-2.5C524.1,303.8,523.3,304.2,522.2,304.4z"/>
</g>
<linearGradient id="SVGID_41_" gradientUnits="userSpaceOnUse" x1="669.2261" y1="-327.0194" x2="724.3609" y2="-243.8732" gradientTransform="matrix(0.9512 -0.3085 0.3085 0.9512 -309.4591 809.5408)">
	<stop  offset="0" style="stop-color:#59BDEF"/>
	<stop  offset="1" style="stop-color:#7BDAFF"/>
</linearGradient>
<path class="st45" d="M260.4,332.1l-25.1-5.4c-1.6-0.3-1.9-1.8-0.6-3.2l16.6-18.4c1.3-1.4,3.6-2.3,5.3-2l25.1,5.4
	c1.6,0.3,1.9,1.8,0.6,3.2l-16.6,18.4C264.4,331.6,262.1,332.5,260.4,332.1z"/>
<g>
	
		<linearGradient id="SVGID_42_" gradientUnits="userSpaceOnUse" x1="835.6696" y1="-261.8968" x2="887.3121" y2="-261.8968" gradientTransform="matrix(0.8403 -0.5421 0.5421 0.8403 -330.9732 991.7776)">
		<stop  offset="0.4032" style="stop-color:#FD5A05"/>
		<stop  offset="0.423" style="stop-color:#FA5505"/>
		<stop  offset="0.5505" style="stop-color:#EC3D03"/>
		<stop  offset="0.6846" style="stop-color:#E22C01"/>
		<stop  offset="0.8286" style="stop-color:#DC2100"/>
		<stop  offset="1" style="stop-color:#DA1E00"/>
	</linearGradient>
	<path class="st46" d="M260,271.1l-43.4,28l17.2,26.6l0,0c0.3,0.5,0.8,0.8,1.6,0.7l25.7-1.3c1.7-0.1,3.7-1.5,4.6-3.2l11.3-22
		c0.5-0.9,0.5-1.7,0.2-2.2l0,0L260,271.1z"/>
	
		<linearGradient id="SVGID_43_" gradientUnits="userSpaceOnUse" x1="838.7121" y1="-319.5301" x2="893.8467" y2="-236.3841" gradientTransform="matrix(0.8403 -0.5421 0.5421 0.8403 -330.9732 991.7776)">
		<stop  offset="0.4032" style="stop-color:#FC8B04"/>
		<stop  offset="0.5099" style="stop-color:#FC7904"/>
		<stop  offset="0.6558" style="stop-color:#FD6805"/>
		<stop  offset="0.813" style="stop-color:#FD5D05"/>
		<stop  offset="1" style="stop-color:#FD5A05"/>
	</linearGradient>
	<path class="st47" d="M243.9,298.6l-25.7,1.3c-1.7,0.1-2.3-1.2-1.4-2.9l11.3-22c0.9-1.7,2.9-3.2,4.6-3.2l25.7-1.3
		c1.7-0.1,2.3,1.2,1.4,2.9l-11.3,22C247.7,297.1,245.6,298.5,243.9,298.6z"/>
	<path class="st4" d="M259.3,272.5l-11.3,22c-0.9,1.7-2.9,3.2-4.6,3.2l-25.7,1.3c-0.5,0-0.9-0.1-1.2-0.3c0.2,0.7,0.8,1.2,1.8,1.1
		l25.7-1.3c1.7-0.1,3.7-1.5,4.6-3.2l11.3-22c0.6-1.2,0.5-2.1-0.2-2.6C259.8,271.2,259.7,271.8,259.3,272.5z"/>
</g>
</svg>
