<?xml version="1.0" encoding="utf-8"?>
<!-- Generator: Adobe Illustrator 22.0.0, SVG Export Plug-In . SVG Version: 6.00 Build 0)  -->
<svg version="1.1" xmlns="http://www.w3.org/2000/svg" xmlns:xlink="http://www.w3.org/1999/xlink" x="0px" y="0px"
	 viewBox="0 0 500 500" style="enable-background:new 0 0 500 500;" xml:space="preserve">
<style type="text/css">
	.st0{fill:#FFFFFF;}
	.st1{opacity:0.15;}
	.st2{fill:#BDCEFA;}
	.st3{fill:url(#SVGID_1_);}
	.st4{fill:url(#SVGID_2_);}
	.st5{fill:url(#SVGID_3_);}
	.st6{fill:url(#SVGID_4_);}
	.st7{fill:#E8F2FE;}
	.st8{fill:url(#SVGID_5_);}
	.st9{fill:#DDDDDD;}
	.st10{fill:url(#SVGID_6_);}
	.st11{fill:#E8D700;}
	.st12{fill:#F4F453;}
	.st13{fill:url(#SVGID_7_);}
	.st14{fill:url(#SVGID_8_);}
	.st15{fill:url(#SVGID_9_);}
	.st16{fill:url(#SVGID_10_);}
	.st17{fill:url(#SVGID_11_);}
	.st18{fill:url(#SVGID_12_);}
	.st19{fill:url(#SVGID_13_);}
	.st20{fill:#C9C9C9;}
	.st21{fill:url(#SVGID_14_);}
	.st22{fill:url(#SVGID_15_);}
	.st23{fill:url(#SVGID_16_);}
	.st24{fill:#9CE3F0;}
	.st25{fill:#39C2D1;}
	.st26{fill:#20A8AF;}
	.st27{fill:#FF9100;}
	.st28{fill:#D87600;}
	.st29{fill:#BC6200;}
	.st30{fill:#FFEC00;}
	.st31{fill:#D6C100;}
	.st32{fill:#938100;}
	.st33{fill:url(#SVGID_17_);}
	.st34{fill:#76B5CE;}
	.st35{fill:url(#SVGID_18_);}
	.st36{fill:#F9AB83;}
	.st37{fill:#010400;}
	.st38{fill:#484968;}
	.st39{fill:#F1AC85;}
	.st40{fill:#E28C66;}
	.st41{fill:#54A5F8;}
	.st42{fill:#DD936F;}
	.st43{fill:#3F4893;}
	.st44{fill:url(#SVGID_19_);}
	.st45{fill:url(#SVGID_20_);}
	.st46{fill:url(#SVGID_21_);}
	.st47{fill:url(#SVGID_22_);}
	.st48{fill:#B8D0F6;}
	.st49{fill:#99B6E0;}
	.st50{fill:#E4F2FF;}
	.st51{fill:url(#SVGID_23_);}
	.st52{fill:url(#SVGID_24_);}
	.st53{fill:url(#SVGID_25_);}
	.st54{fill:url(#SVGID_26_);}
	.st55{fill:url(#SVGID_27_);}
	.st56{fill:url(#SVGID_28_);}
	.st57{fill:url(#SVGID_29_);}
	.st58{fill:url(#SVGID_30_);}
	.st59{fill:url(#SVGID_31_);}
	.st60{fill:url(#SVGID_32_);}
	.st61{fill:url(#SVGID_33_);}
	.st62{fill:url(#SVGID_34_);}
	.st63{fill:url(#SVGID_35_);}
	.st64{fill:url(#SVGID_36_);}
	.st65{fill:url(#SVGID_37_);}
	.st66{fill:url(#SVGID_38_);}
	.st67{fill:url(#SVGID_39_);}
	.st68{fill:url(#SVGID_40_);}
	.st69{fill:url(#SVGID_41_);}
	.st70{fill:url(#SVGID_42_);}
	.st71{fill:url(#SVGID_43_);}
	.st72{fill:url(#SVGID_44_);}
	.st73{fill:url(#SVGID_45_);}
	.st74{fill:url(#SVGID_46_);}
	.st75{fill:url(#SVGID_47_);}
	.st76{fill:url(#SVGID_48_);}
	.st77{fill:#F7F993;}
	.st78{fill:#E8D100;}
	.st79{fill:#2D0D60;}
	.st80{fill:url(#SVGID_49_);}
	.st81{fill:#A29AFB;}
	.st82{fill:#FFFFEB;}
	.st83{fill:#943BBB;}
	.st84{fill:#FCC4B7;}
	.st85{fill:#293677;}
	.st86{fill:#55D1FF;}
	.st87{fill:#5258A6;}
	.st88{fill-rule:evenodd;clip-rule:evenodd;fill:#E58800;}
	.st89{fill:#1C1C38;}
	.st90{fill:#FCFDFF;}
	.st91{fill:#0382FF;}
	.st92{fill:#BBBEB5;}
	.st93{fill:#EAEEF1;}
	.st94{fill:#D13985;}
	.st95{fill:#46466C;}
	.st96{fill:#2D2D4F;}
	.st97{fill:#ED549C;}
	.st98{fill:#E5A89C;}
	.st99{fill-rule:evenodd;clip-rule:evenodd;fill:#52A3F6;}
	.st100{fill-rule:evenodd;clip-rule:evenodd;fill:#BBBEB5;}
	.st101{fill-rule:evenodd;clip-rule:evenodd;fill:#EAEEF1;}
</style>
<g id="BACKGROUND">
	<rect class="st0" width="500" height="500"/>
</g>
<g id="OBJECTS">
	<g class="st1">
		<path class="st2" d="M449.8,413.1l-66.5,37.2c-2.9,1.7-8.1,1.5-11.5-0.5l-22.1-13.2c-3.4-2-3.8-5-0.8-6.7l66.2-38
			c2.9-1.7,8.1-1.5,11.5,0.5l22.4,13.9C452.4,408.4,452.8,411.4,449.8,413.1z"/>
		<path class="st2" d="M422.2,380.6l-66.5,37.2c-2.9,1.7-8.1,1.5-11.5-0.5l-22.1-13.2c-3.4-2-3.8-5-0.8-6.7l66.2-38
			c2.9-1.7,8.1-1.5,11.5,0.5l22.4,13.9C424.7,375.9,425.1,378.9,422.2,380.6z"/>
		<path class="st2" d="M438.1,325.6L237.5,437.5c-8.9,5.1-24.5,4.5-34.8-1.4L85.8,368.6c-10.3-5.9-11.4-15-2.5-20.1l200.6-111.9
			c8.9-5.1,24.5-4.5,34.8,1.4l116.9,67.5C445.8,311.5,447,320.5,438.1,325.6z"/>
	</g>
	<g>
		<g>
			<linearGradient id="SVGID_1_" gradientUnits="userSpaceOnUse" x1="108.685" y1="71.8194" x2="61.7478" y2="172.0584">
				<stop  offset="0" style="stop-color:#E4F2FF"/>
				<stop  offset="0.3075" style="stop-color:#D7E6FD;stop-opacity:0.6923"/>
				<stop  offset="0.9993" style="stop-color:#BDCEFA;stop-opacity:0"/>
			</linearGradient>
			<path class="st3" d="M51.1,175.3c-1.1,0-2.4-0.9-2.4-2.4v-50.1c0-0.8,0.5-1.6,1.2-2L110.2,86c0.4-0.2,0.8-0.3,1.2-0.3
				c1.1,0,2.4,0.9,2.4,2.4v50.1c0,0.8-0.5,1.6-1.2,2L52.3,175C51.9,175.2,51.5,175.3,51.1,175.3z"/>
			<linearGradient id="SVGID_2_" gradientUnits="userSpaceOnUse" x1="140.5832" y1="71.0318" x2="176.2399" y2="215.8322">
				<stop  offset="0" style="stop-color:#E4F2FF"/>
				<stop  offset="0.3075" style="stop-color:#D7E6FD;stop-opacity:0.6923"/>
				<stop  offset="0.9993" style="stop-color:#BDCEFA;stop-opacity:0"/>
			</linearGradient>
			<path class="st4" d="M96.1,248.1c-2.4,0-5.1-1.9-5.1-5.1V135.8c0-1.8,1-3.5,2.5-4.4L222.5,57c0.8-0.5,1.6-0.7,2.5-0.7
				c2.4,0,5.1,1.9,5.1,5.1v107.3c0,1.8-1,3.5-2.5,4.4L98.6,247.4C97.8,247.9,97,248.1,96.1,248.1z"/>
			<linearGradient id="SVGID_3_" gradientUnits="userSpaceOnUse" x1="225.6337" y1="0.1859" x2="224.0426" y2="82.1274">
				<stop  offset="0" style="stop-color:#E4F2FF"/>
				<stop  offset="0.3075" style="stop-color:#D7E6FD;stop-opacity:0.6923"/>
				<stop  offset="0.9993" style="stop-color:#BDCEFA;stop-opacity:0"/>
			</linearGradient>
			<path class="st5" d="M197.7,104.8c-1,0-2.1-0.8-2.1-2.1V58.3c0-0.7,0.4-1.4,1-1.8L250,25.6c0.3-0.2,0.7-0.3,1-0.3
				c1,0,2.1,0.8,2.1,2.1v44.4c0,0.7-0.4,1.4-1,1.8l-53.4,30.8C198.4,104.7,198,104.8,197.7,104.8z"/>
			<linearGradient id="SVGID_4_" gradientUnits="userSpaceOnUse" x1="109.7181" y1="168.2331" x2="95.3983" y2="274.0407">
				<stop  offset="0" style="stop-color:#E4F2FF"/>
				<stop  offset="0.3075" style="stop-color:#D7E6FD;stop-opacity:0.6923"/>
				<stop  offset="0.9993" style="stop-color:#BDCEFA;stop-opacity:0"/>
			</linearGradient>
			<path class="st6" d="M73.1,281.4c-1,0-2.1-0.8-2.1-2.1v-44.4c0-0.7,0.4-1.4,1-1.8l53.4-30.8c0.3-0.2,0.7-0.3,1-0.3
				c1,0,2.1,0.8,2.1,2.1v44.4c0,0.7-0.4,1.4-1,1.8l-53.4,30.8C73.8,281.3,73.4,281.4,73.1,281.4z"/>
		</g>
		<g>
			<g>
				
					<ellipse transform="matrix(0.5157 -0.8568 0.8568 0.5157 8.1422 241.9088)" class="st2" cx="218.1" cy="113.8" rx="4.8" ry="2.8"/>
				<path class="st2" d="M233.5,104.8c0,2.1-1.5,4.8-3.4,5.8c-1.9,1.1-3.4,0.2-3.4-1.9c0-2.1,1.5-4.8,3.4-5.8
					C232,101.8,233.5,102.7,233.5,104.8z"/>
				<path class="st2" d="M245.6,97.9c0,2.1-1.5,4.8-3.4,5.8s-3.4,0.2-3.4-1.9s1.5-4.8,3.4-5.8C244,94.9,245.6,95.7,245.6,97.9z"/>
			</g>
			<g>
				<path class="st2" d="M133.7,169.4c-2.5,2.8-4.7,4.5-7.7,6.2c-7,4.1-13.2,1.8-13.2-7.8c0-10,6.3-22.2,15.8-27.8
					c7.4-4.3,12.8-1.5,12.8,6.7c0,7.1-3.5,13.6-8,16.3c-2,1.1-3.4,0.8-3.6-1.7l-0.1,0c-1.3,3.2-3.2,5.6-5.5,6.9
					c-2.8,1.6-4.7,0.4-4.7-3.6c0-6,3.8-13.6,9.9-17.1c1.9-1.1,4-1.8,5-1.7l-1.3,9.8c-0.4,3.1-0.1,4.3,1.1,3.6c1.8-1,4.1-5,4.1-10.6
					c0-6.4-3.6-9.2-10.1-5.4c-6.5,3.7-12.1,12.9-12.1,22.2c0,8.2,4.5,10.2,10.8,6.5c2.2-1.2,4.4-3.1,6.1-5.1L133.7,169.4z
					 M129.9,151.4c-0.3,0.1-0.8,0.2-1.3,0.6c-2.8,1.6-5,6.1-5,9.8c0,1.9,0.7,2.6,2.1,1.8c1.6-0.9,3.2-4.2,3.6-7.2L129.9,151.4z"/>
			</g>
			<g>
				<path class="st2" d="M152,107.8l14.8,4.1c0.5,0.1,1.2-0.3,1.6-0.9l14.8-21.1L152,107.8z"/>
				<path class="st2" d="M162.5,112.2l-10.3,17c-0.2-0.2-0.3-0.5-0.3-0.9v-19L162.5,112.2z"/>
				<path class="st2" d="M171.8,107.7l10.4,5.2c-0.3,0.3-0.6,0.6-1,0.8l-27,15.6c-0.3,0.2-0.6,0.3-0.9,0.3l10.3-17.1l4.1,1.1
					L171.8,107.7z"/>
				<path class="st2" d="M183.3,91.2v19c0,0.4-0.1,0.8-0.3,1.2l-10.2-5.2L183.3,91.2z"/>
			</g>
		</g>
		<g>
			<path class="st2" d="M286.8,116.8c-0.1,0-0.3-0.1-0.3-0.3V43.1l-100.1,57.9c-0.1,0.1-0.3,0-0.3-0.1c-0.1-0.1,0-0.3,0.1-0.3
				l100.8-58.3v74.4C287.1,116.7,287,116.8,286.8,116.8z"/>
			<g>
				<g>
					<path class="st2" d="M293.5,117.1c-0.3,0-0.5-0.2-0.5-0.5v-0.1c0-0.3,0.2-0.5,0.5-0.5c0.3,0,0.5,0.2,0.5,0.5
						C294,116.9,293.8,117.1,293.5,117.1z"/>
					<path class="st2" d="M293.5,113.3c-0.3,0-0.5-0.2-0.5-0.5v-0.1c0-0.3,0.2-0.5,0.5-0.5c0.3,0,0.5,0.2,0.5,0.5
						C294,113,293.8,113.3,293.5,113.3z M293.5,109.4c-0.3,0-0.5-0.2-0.5-0.5v-0.1c0-0.3,0.2-0.5,0.5-0.5c0.3,0,0.5,0.2,0.5,0.5
						C294,109.1,293.8,109.4,293.5,109.4z M293.5,105.5c-0.3,0-0.5-0.2-0.5-0.5V105c0-0.3,0.2-0.5,0.5-0.5c0.3,0,0.5,0.2,0.5,0.5
						C294,105.2,293.8,105.5,293.5,105.5z M293.5,101.6c-0.3,0-0.5-0.2-0.5-0.5v-0.1c0-0.3,0.2-0.5,0.5-0.5c0.3,0,0.5,0.2,0.5,0.5
						C294,101.4,293.8,101.6,293.5,101.6z M293.5,97.8c-0.3,0-0.5-0.2-0.5-0.5v-0.1c0-0.3,0.2-0.5,0.5-0.5c0.3,0,0.5,0.2,0.5,0.5
						S293.8,97.8,293.5,97.8z M293.5,93.9c-0.3,0-0.5-0.2-0.5-0.5v-0.1c0-0.3,0.2-0.5,0.5-0.5c0.3,0,0.5,0.2,0.5,0.5
						S293.8,93.9,293.5,93.9z M293.5,90c-0.3,0-0.5-0.2-0.5-0.5v-0.1c0-0.3,0.2-0.5,0.5-0.5c0.3,0,0.5,0.2,0.5,0.5
						C294,89.7,293.8,90,293.5,90z"/>
					<path class="st2" d="M293.5,86.2c-0.2,0-0.3-0.1-0.4-0.2c0,0,0,0,0-0.1c-0.1-0.2-0.1-0.5,0.2-0.7c0.2-0.1,0.4-0.1,0.5,0
						c0.2,0.1,0.3,0.2,0.3,0.4C294,85.9,293.8,86.2,293.5,86.2z"/>
					<path class="st2" d="M150.4,166c-0.2,0-0.3-0.1-0.4-0.3c-0.1-0.2,0-0.5,0.2-0.7l0.1,0c0.2-0.1,0.5,0,0.7,0.2
						c0.1,0.2,0,0.5-0.2,0.7l-0.1,0C150.6,166,150.5,166,150.4,166z M154,164c-0.2,0-0.3-0.1-0.4-0.3c-0.1-0.2,0-0.5,0.2-0.7l0.1,0
						c0.2-0.1,0.5,0,0.7,0.2c0.1,0.2,0,0.5-0.2,0.7l-0.1,0C154.2,164,154.1,164,154,164z M157.6,162c-0.2,0-0.3-0.1-0.4-0.3
						c-0.1-0.2,0-0.5,0.2-0.7c0.2-0.1,0.6-0.1,0.7,0.2c0.1,0.2,0.1,0.5-0.1,0.7l-0.1,0C157.8,162,157.7,162,157.6,162z M161.2,160
						c-0.2,0-0.3-0.1-0.4-0.3c-0.1-0.2,0-0.5,0.2-0.7l0.1,0c0.2-0.1,0.5,0,0.7,0.2c0.1,0.2,0,0.5-0.2,0.7l-0.1,0
						C161.3,160,161.3,160,161.2,160z M164.8,158c-0.2,0-0.3-0.1-0.4-0.3c-0.1-0.2,0-0.5,0.2-0.7l0.1,0c0.2-0.1,0.5,0,0.7,0.2
						c0.1,0.2,0,0.5-0.2,0.7l-0.1,0C164.9,158,164.8,158,164.8,158z M168.3,156c-0.2,0-0.3-0.1-0.4-0.3c-0.1-0.2,0-0.5,0.2-0.7
						c0.2-0.1,0.6-0.1,0.7,0.2c0.1,0.2,0.1,0.5-0.1,0.7l-0.1,0C168.5,156,168.4,156,168.3,156z M171.9,154c-0.2,0-0.3-0.1-0.4-0.3
						c-0.1-0.2,0-0.5,0.2-0.7c0.2-0.1,0.6-0.1,0.7,0.2c0.1,0.2,0.1,0.5-0.1,0.7l-0.1,0C172.1,154,172,154,171.9,154z M175.5,152
						c-0.2,0-0.3-0.1-0.4-0.3c-0.1-0.2,0-0.5,0.2-0.7l0.1,0c0.2-0.1,0.5,0,0.7,0.2c0.1,0.2,0,0.5-0.2,0.7l-0.1,0
						C175.6,152,175.6,152,175.5,152z M179.1,150c-0.2,0-0.3-0.1-0.4-0.3c-0.1-0.2,0-0.5,0.2-0.7l0.1,0c0.2-0.1,0.5,0,0.7,0.2
						c0.1,0.2,0,0.5-0.2,0.7l-0.1,0C179.2,150,179.1,150,179.1,150z M182.6,148c-0.2,0-0.3-0.1-0.4-0.3c-0.1-0.2,0-0.5,0.2-0.7
						c0.2-0.1,0.6-0.1,0.7,0.2c0.1,0.2,0.1,0.5-0.2,0.7l-0.1,0C182.8,148,182.7,148,182.6,148z M186.2,146c-0.2,0-0.3-0.1-0.4-0.3
						c-0.1-0.2,0-0.5,0.2-0.7c0.2-0.1,0.6-0.1,0.7,0.2c0.1,0.2,0.1,0.5-0.2,0.7l-0.1,0C186.4,146,186.3,146,186.2,146z M189.8,144
						c-0.2,0-0.3-0.1-0.4-0.3c-0.1-0.2,0-0.5,0.2-0.7c0.2-0.1,0.6-0.1,0.7,0.2c0.1,0.2,0.1,0.5-0.2,0.7l-0.1,0
						C189.9,144,189.9,144,189.8,144z M193.4,142c-0.2,0-0.3-0.1-0.4-0.3c-0.1-0.2,0-0.5,0.2-0.7c0.2-0.1,0.6-0.1,0.7,0.2
						c0.1,0.2,0.1,0.5-0.2,0.7l-0.1,0C193.5,142,193.4,142,193.4,142z M196.9,140.1c-0.2,0-0.3-0.1-0.4-0.3c-0.1-0.2,0-0.5,0.2-0.7
						c0.2-0.1,0.6-0.1,0.7,0.2c0.1,0.2,0.1,0.5-0.2,0.7l-0.1,0C197.1,140,197,140.1,196.9,140.1z M200.5,138.1
						c-0.2,0-0.3-0.1-0.4-0.3c-0.1-0.2,0-0.5,0.2-0.7c0.2-0.1,0.6-0.1,0.7,0.2c0.1,0.2,0.1,0.5-0.2,0.7l-0.1,0
						C200.7,138,200.6,138.1,200.5,138.1z M204.1,136.1c-0.2,0-0.3-0.1-0.4-0.3c-0.1-0.2,0-0.5,0.2-0.7l0.1,0c0.2-0.1,0.5,0,0.7,0.2
						c0.1,0.2,0,0.5-0.2,0.7l-0.1,0C204.2,136,204.2,136.1,204.1,136.1z M207.7,134.1c-0.2,0-0.3-0.1-0.4-0.3
						c-0.1-0.2,0-0.5,0.2-0.7c0.2-0.1,0.6-0.1,0.7,0.2c0.1,0.2,0.1,0.5-0.1,0.7l-0.1,0C207.8,134,207.7,134.1,207.7,134.1z
						 M211.2,132.1c-0.2,0-0.3-0.1-0.4-0.3c-0.1-0.2,0-0.5,0.2-0.7l0.1,0c0.2-0.1,0.5,0,0.7,0.2c0.1,0.2,0,0.5-0.2,0.7l-0.1,0
						C211.4,132,211.3,132.1,211.2,132.1z M214.8,130.1c-0.2,0-0.3-0.1-0.4-0.3c-0.1-0.2,0-0.5,0.2-0.7l0.1,0c0.2-0.1,0.5,0,0.7,0.2
						c0.1,0.2,0,0.5-0.2,0.7l-0.1,0C215,130.1,214.9,130.1,214.8,130.1z M218.4,128.1c-0.2,0-0.3-0.1-0.4-0.3
						c-0.1-0.2,0-0.5,0.2-0.7c0.2-0.1,0.6-0.1,0.7,0.2c0.1,0.2,0.1,0.5-0.1,0.7l-0.1,0C218.6,128.1,218.5,128.1,218.4,128.1z
						 M222,126.1c-0.2,0-0.3-0.1-0.4-0.3c-0.1-0.2,0-0.5,0.2-0.7c0.2-0.1,0.6-0.1,0.7,0.2c0.1,0.2,0.1,0.5-0.1,0.7l-0.1,0
						C222.1,126.1,222,126.1,222,126.1z M225.5,124.1c-0.2,0-0.3-0.1-0.4-0.3c-0.1-0.2,0-0.5,0.2-0.7l0.1,0c0.2-0.1,0.5,0,0.7,0.2
						c0.1,0.2,0,0.5-0.2,0.7l-0.1,0C225.7,124.1,225.6,124.1,225.5,124.1z M229.1,122.1c-0.2,0-0.3-0.1-0.4-0.3
						c-0.1-0.2,0-0.5,0.2-0.7l0.1,0c0.2-0.1,0.5,0,0.7,0.2c0.1,0.2,0,0.5-0.2,0.7l-0.1,0C229.3,122.1,229.2,122.1,229.1,122.1z
						 M232.7,120.1c-0.2,0-0.3-0.1-0.4-0.3c-0.1-0.2,0-0.5,0.2-0.7c0.2-0.1,0.6-0.1,0.7,0.2c0.1,0.2,0.1,0.5-0.1,0.7l-0.1,0
						C232.9,120.1,232.8,120.1,232.7,120.1z M236.3,118.1c-0.2,0-0.3-0.1-0.4-0.3c-0.1-0.2,0-0.5,0.2-0.7c0.2-0.1,0.6-0.1,0.7,0.2
						c0.1,0.2,0.1,0.5-0.1,0.7l-0.1,0C236.4,118.1,236.3,118.1,236.3,118.1z M239.8,116.1c-0.2,0-0.3-0.1-0.4-0.3
						c-0.1-0.2,0-0.5,0.2-0.7l0.1,0c0.2-0.1,0.5,0,0.7,0.2c0.1,0.2,0,0.5-0.2,0.7l-0.1,0C240,116.1,239.9,116.1,239.8,116.1z
						 M243.4,114.1c-0.2,0-0.3-0.1-0.4-0.3c-0.1-0.2,0-0.5,0.2-0.7l0.1,0c0.2-0.1,0.5,0,0.7,0.2c0.1,0.2,0,0.5-0.2,0.7l-0.1,0
						C243.6,114.1,243.5,114.1,243.4,114.1z M247,112.1c-0.2,0-0.3-0.1-0.4-0.3c-0.1-0.2,0-0.5,0.2-0.7c0.2-0.1,0.6-0.1,0.7,0.2
						c0.1,0.2,0.1,0.5-0.1,0.7l-0.1,0C247.2,112.1,247.1,112.1,247,112.1z M250.6,110.1c-0.2,0-0.3-0.1-0.4-0.3
						c-0.1-0.2,0-0.5,0.2-0.7c0.2-0.1,0.6-0.1,0.7,0.2c0.1,0.2,0.1,0.5-0.1,0.7l-0.1,0C250.7,110.1,250.6,110.1,250.6,110.1z
						 M254.1,108.1c-0.2,0-0.3-0.1-0.4-0.3c-0.1-0.2,0-0.5,0.2-0.7c0.2-0.1,0.6-0.1,0.7,0.2c0.1,0.2,0.1,0.5-0.2,0.7l-0.1,0
						C254.3,108.1,254.2,108.1,254.1,108.1z M257.7,106.1c-0.2,0-0.3-0.1-0.4-0.3c-0.1-0.2,0-0.5,0.2-0.7l0.1,0
						c0.2-0.1,0.5,0,0.7,0.2c0.1,0.2,0,0.5-0.2,0.7l-0.1,0C257.9,106.1,257.8,106.1,257.7,106.1z M261.3,104.1
						c-0.2,0-0.3-0.1-0.4-0.3c-0.1-0.2,0-0.5,0.2-0.7c0.2-0.1,0.6-0.1,0.7,0.2c0.1,0.2,0.1,0.5-0.2,0.7l-0.1,0
						C261.5,104.1,261.4,104.1,261.3,104.1z M264.9,102.1c-0.2,0-0.3-0.1-0.4-0.3c-0.1-0.2,0-0.5,0.2-0.7c0.2-0.1,0.6-0.1,0.7,0.2
						c0.1,0.2,0.1,0.5-0.2,0.7l-0.1,0C265,102.1,264.9,102.1,264.9,102.1z M268.4,100.1c-0.2,0-0.3-0.1-0.4-0.3
						c-0.1-0.2,0-0.5,0.2-0.7c0.2-0.1,0.6-0.1,0.7,0.2c0.1,0.2,0.1,0.5-0.2,0.7l-0.1,0C268.6,100.1,268.5,100.1,268.4,100.1z
						 M272,98.1c-0.2,0-0.3-0.1-0.4-0.3c-0.1-0.2,0-0.5,0.2-0.7c0.2-0.1,0.6-0.1,0.7,0.2c0.1,0.2,0.1,0.5-0.2,0.7l-0.1,0
						C272.2,98.1,272.1,98.1,272,98.1z M275.6,96.1c-0.2,0-0.3-0.1-0.4-0.3c-0.1-0.2,0-0.5,0.2-0.7l0.1,0c0.2-0.1,0.5,0,0.7,0.2
						c0.1,0.2,0,0.5-0.2,0.7l-0.1,0C275.8,96.1,275.7,96.1,275.6,96.1z M279.2,94.1c-0.2,0-0.3-0.1-0.4-0.3c-0.1-0.2,0-0.5,0.2-0.7
						c0.2-0.1,0.6-0.1,0.7,0.2c0.1,0.2,0.1,0.5-0.1,0.7l-0.1,0C279.3,94.1,279.3,94.1,279.2,94.1z M282.7,92.1
						c-0.2,0-0.3-0.1-0.4-0.3c-0.1-0.2,0-0.5,0.2-0.7c0.2-0.1,0.6-0.1,0.7,0.2c0.1,0.2,0.1,0.5-0.1,0.7l-0.1,0
						C282.9,92.1,282.8,92.1,282.7,92.1z M286.3,90.2c-0.2,0-0.3-0.1-0.4-0.3c-0.1-0.2,0-0.5,0.2-0.7l0.1,0c0.2-0.1,0.5,0,0.7,0.2
						c0.1,0.2,0,0.5-0.2,0.7l-0.1,0C286.5,90.1,286.4,90.2,286.3,90.2z M289.9,88.2c-0.2,0-0.3-0.1-0.4-0.3c-0.1-0.2,0-0.5,0.2-0.7
						c0.2-0.1,0.6-0.1,0.7,0.2c0.1,0.2,0.1,0.5-0.1,0.7l-0.1,0C290.1,88.1,290,88.2,289.9,88.2z"/>
					<path class="st2" d="M146.9,168c-0.3,0-0.5-0.2-0.5-0.5c0-0.2,0.1-0.4,0.3-0.5c0.2-0.1,0.6-0.1,0.7,0.2
						c0.1,0.2,0.1,0.5-0.1,0.6C147.2,167.9,147.1,168,146.9,168z"/>
					<path class="st2" d="M146.9,197.8c-0.3,0-0.5-0.2-0.5-0.5v-0.1c0-0.3,0.2-0.5,0.5-0.5c0.3,0,0.5,0.2,0.5,0.5v0.1
						C147.4,197.5,147.2,197.8,146.9,197.8z M146.9,193.5c-0.3,0-0.5-0.2-0.5-0.5v-0.1c0-0.3,0.2-0.5,0.5-0.5c0.3,0,0.5,0.2,0.5,0.5
						v0.1C147.4,193.3,147.2,193.5,146.9,193.5z M146.9,189.3c-0.3,0-0.5-0.2-0.5-0.5v-0.1c0-0.3,0.2-0.5,0.5-0.5
						c0.3,0,0.5,0.2,0.5,0.5v0.1C147.4,189,147.2,189.3,146.9,189.3z M146.9,185c-0.3,0-0.5-0.2-0.5-0.5v-0.1c0-0.3,0.2-0.5,0.5-0.5
						c0.3,0,0.5,0.2,0.5,0.5v0.1C147.4,184.8,147.2,185,146.9,185z M146.9,180.8c-0.3,0-0.5-0.2-0.5-0.5v-0.1c0-0.3,0.2-0.5,0.5-0.5
						c0.3,0,0.5,0.2,0.5,0.5v0.1C147.4,180.5,147.2,180.8,146.9,180.8z M146.9,176.5c-0.3,0-0.5-0.2-0.5-0.5v-0.1
						c0-0.3,0.2-0.5,0.5-0.5c0.3,0,0.5,0.2,0.5,0.5v0.1C147.4,176.3,147.2,176.5,146.9,176.5z M146.9,172.3c-0.3,0-0.5-0.2-0.5-0.5
						v-0.1c0-0.3,0.2-0.5,0.5-0.5c0.3,0,0.5,0.2,0.5,0.5v0.1C147.4,172,147.2,172.3,146.9,172.3z"/>
					<path class="st2" d="M146.9,202c-0.3,0-0.5-0.2-0.5-0.5c0-0.3,0.2-0.5,0.5-0.5c0.3,0,0.5,0.2,0.5,0.5v0
						C147.4,201.7,147.2,202,146.9,202z"/>
				</g>
				<path class="st2" d="M84.3,221.7c-0.1,0-0.3-0.1-0.3-0.3v-40l0.1-0.1l23.5-12.4c0.1-0.1,0.3,0,0.3,0.1c0.1,0.1,0,0.3-0.1,0.3
					l-23.3,12.4v39.7C84.5,221.6,84.4,221.7,84.3,221.7z"/>
				<path class="st2" d="M101.2,286c-0.3,0-0.5-0.2-0.5-0.5v-0.1c0-0.3,0.2-0.5,0.5-0.5c0.3,0,0.5,0.2,0.5,0.5
					C101.7,285.7,101.4,286,101.2,286z M101.2,281.9c-0.3,0-0.5-0.2-0.5-0.5v-0.1c0-0.3,0.2-0.5,0.5-0.5c0.3,0,0.5,0.2,0.5,0.5v0.1
					C101.7,281.7,101.4,281.9,101.2,281.9z M101.2,277.8c-0.3,0-0.5-0.2-0.5-0.5v-0.1c0-0.3,0.2-0.5,0.5-0.5c0.3,0,0.5,0.2,0.5,0.5
					C101.7,277.5,101.4,277.8,101.2,277.8z M101.2,273.7c-0.3,0-0.5-0.2-0.5-0.5v-0.1c0-0.3,0.2-0.5,0.5-0.5c0.3,0,0.5,0.2,0.5,0.5
					v0.1C101.7,273.5,101.4,273.7,101.2,273.7z M101.2,269.6c-0.3,0-0.5-0.2-0.5-0.5V269c0-0.3,0.2-0.5,0.5-0.5
					c0.3,0,0.5,0.2,0.5,0.5C101.7,269.3,101.4,269.6,101.2,269.6z M101.2,265.5c-0.3,0-0.5-0.2-0.5-0.5v-0.1c0-0.3,0.2-0.5,0.5-0.5
					c0.3,0,0.5,0.2,0.5,0.5C101.7,265.2,101.4,265.5,101.2,265.5z M101.2,261.4c-0.3,0-0.5-0.2-0.5-0.5v-0.1c0-0.3,0.2-0.5,0.5-0.5
					c0.3,0,0.5,0.2,0.5,0.5v0.1C101.7,261.2,101.4,261.4,101.2,261.4z M101.2,257.3c-0.3,0-0.5-0.2-0.5-0.5v-0.1
					c0-0.3,0.2-0.5,0.5-0.5c0.3,0,0.5,0.2,0.5,0.5C101.7,257,101.4,257.3,101.2,257.3z M101.2,253.2c-0.3,0-0.5-0.2-0.5-0.5v-0.1
					c0-0.3,0.2-0.5,0.5-0.5c0.3,0,0.5,0.2,0.5,0.5v0.1C101.7,253,101.4,253.2,101.2,253.2z M101.2,249.1c-0.3,0-0.5-0.2-0.5-0.5
					v-0.1c0-0.3,0.2-0.5,0.5-0.5c0.3,0,0.5,0.2,0.5,0.5C101.7,248.8,101.4,249.1,101.2,249.1z M101.2,245c-0.3,0-0.5-0.2-0.5-0.5
					v-0.1c0-0.3,0.2-0.5,0.5-0.5c0.3,0,0.5,0.2,0.5,0.5v0.1C101.7,244.8,101.4,245,101.2,245z M101.2,240.9c-0.3,0-0.5-0.2-0.5-0.5
					v-0.1c0-0.3,0.2-0.5,0.5-0.5c0.3,0,0.5,0.2,0.5,0.5v0.1C101.7,240.7,101.4,240.9,101.2,240.9z M101.2,236.8
					c-0.3,0-0.5-0.2-0.5-0.5v-0.1c0-0.3,0.2-0.5,0.5-0.5c0.3,0,0.5,0.2,0.5,0.5C101.7,236.5,101.4,236.8,101.2,236.8z M101.2,232.7
					c-0.3,0-0.5-0.2-0.5-0.5v-0.1c0-0.3,0.2-0.5,0.5-0.5c0.3,0,0.5,0.2,0.5,0.5v0.1C101.7,232.5,101.4,232.7,101.2,232.7z
					 M101.2,228.6c-0.3,0-0.5-0.2-0.5-0.5V228c0-0.3,0.2-0.5,0.5-0.5c0.3,0,0.5,0.2,0.5,0.5v0.1
					C101.7,228.4,101.4,228.6,101.2,228.6z M101.2,224.5c-0.3,0-0.5-0.2-0.5-0.5v-0.1c0-0.3,0.2-0.5,0.5-0.5c0.3,0,0.5,0.2,0.5,0.5
					v0.1C101.7,224.3,101.4,224.5,101.2,224.5z M101.2,220.4c-0.3,0-0.5-0.2-0.5-0.5v-0.1c0-0.3,0.2-0.5,0.5-0.5
					c0.3,0,0.5,0.2,0.5,0.5v0.1C101.7,220.2,101.4,220.4,101.2,220.4z M101.2,216.3c-0.3,0-0.5-0.2-0.5-0.5v-0.1
					c0-0.3,0.2-0.5,0.5-0.5c0.3,0,0.5,0.2,0.5,0.5C101.7,216,101.4,216.3,101.2,216.3z M101.2,212.2c-0.3,0-0.5-0.2-0.5-0.5v-0.1
					c0-0.3,0.2-0.5,0.5-0.5c0.3,0,0.5,0.2,0.5,0.5v0.1C101.7,212,101.4,212.2,101.2,212.2z M101.2,208.1c-0.3,0-0.5-0.2-0.5-0.5
					v-0.1c0-0.3,0.2-0.5,0.5-0.5c0.3,0,0.5,0.2,0.5,0.5v0.1C101.7,207.9,101.4,208.1,101.2,208.1z M101.2,204
					c-0.3,0-0.5-0.2-0.5-0.5v-0.1c0-0.3,0.2-0.5,0.5-0.5c0.3,0,0.5,0.2,0.5,0.5v0.1C101.7,203.8,101.4,204,101.2,204z M101.2,199.9
					c-0.3,0-0.5-0.2-0.5-0.5v-0.1c0-0.3,0.2-0.5,0.5-0.5c0.3,0,0.5,0.2,0.5,0.5v0.1C101.7,199.7,101.4,199.9,101.2,199.9z
					 M101.2,195.8c-0.3,0-0.5-0.2-0.5-0.5v-0.1c0-0.3,0.2-0.5,0.5-0.5c0.3,0,0.5,0.2,0.5,0.5C101.7,195.5,101.4,195.8,101.2,195.8z
					 M101.2,191.7c-0.3,0-0.5-0.2-0.5-0.5v-0.1c0-0.3,0.2-0.5,0.5-0.5c0.3,0,0.5,0.2,0.5,0.5v0.1
					C101.7,191.5,101.4,191.7,101.2,191.7z M101.2,187.6c-0.3,0-0.5-0.2-0.5-0.5V187c0-0.3,0.2-0.5,0.5-0.5c0.3,0,0.5,0.2,0.5,0.5
					v0.1C101.7,187.4,101.4,187.6,101.2,187.6z M101.2,183.5c-0.3,0-0.5-0.2-0.5-0.5v-0.1c0-0.3,0.2-0.5,0.5-0.5
					c0.3,0,0.5,0.2,0.5,0.5v0.1C101.7,183.3,101.4,183.5,101.2,183.5z M101.2,179.4c-0.3,0-0.5-0.2-0.5-0.5v-0.1
					c0-0.3,0.2-0.5,0.5-0.5c0.3,0,0.5,0.2,0.5,0.5v0.1C101.7,179.2,101.4,179.4,101.2,179.4z M101.2,175.3c-0.3,0-0.5-0.2-0.5-0.5
					v-0.1c0-0.3,0.2-0.5,0.5-0.5c0.3,0,0.5,0.2,0.5,0.5C101.7,175,101.4,175.3,101.2,175.3z M101.2,171.2c-0.3,0-0.5-0.2-0.5-0.5
					v-0.1c0-0.3,0.2-0.5,0.5-0.5c0.3,0,0.5,0.2,0.5,0.5v0.1C101.7,171,101.4,171.2,101.2,171.2z M101.2,167.1
					c-0.3,0-0.5-0.2-0.5-0.5v-0.1c0-0.3,0.2-0.5,0.5-0.5c0.3,0,0.5,0.2,0.5,0.5v0.1C101.7,166.9,101.4,167.1,101.2,167.1z
					 M101.2,163c-0.3,0-0.5-0.2-0.5-0.5v-0.1c0-0.3,0.2-0.5,0.5-0.5c0.3,0,0.5,0.2,0.5,0.5v0.1C101.7,162.8,101.4,163,101.2,163z
					 M101.2,158.9c-0.3,0-0.5-0.2-0.5-0.5v-0.1c0-0.3,0.2-0.5,0.5-0.5c0.3,0,0.5,0.2,0.5,0.5v0.1
					C101.7,158.7,101.4,158.9,101.2,158.9z M101.2,154.8c-0.3,0-0.5-0.2-0.5-0.5v-0.1c0-0.3,0.2-0.5,0.5-0.5c0.3,0,0.5,0.2,0.5,0.5
					C101.7,154.5,101.4,154.8,101.2,154.8z M101.2,150.7c-0.3,0-0.5-0.2-0.5-0.5v-0.1c0-0.3,0.2-0.5,0.5-0.5c0.3,0,0.5,0.2,0.5,0.5
					v0.1C101.7,150.5,101.4,150.7,101.2,150.7z M101.2,146.6c-0.3,0-0.5-0.2-0.5-0.5V146c0-0.3,0.2-0.5,0.5-0.5
					c0.3,0,0.5,0.2,0.5,0.5v0.1C101.7,146.4,101.4,146.6,101.2,146.6z M101.2,142.5c-0.3,0-0.5-0.2-0.5-0.5v-0.1
					c0-0.3,0.2-0.5,0.5-0.5c0.3,0,0.5,0.2,0.5,0.5v0.1C101.7,142.3,101.4,142.5,101.2,142.5z M101.2,138.4c-0.3,0-0.5-0.2-0.5-0.5
					v-0.1c0-0.3,0.2-0.5,0.5-0.5c0.3,0,0.5,0.2,0.5,0.5v0.1C101.7,138.2,101.4,138.4,101.2,138.4z M103.1,135.5
					c-0.2,0-0.3-0.1-0.4-0.3c-0.1-0.2-0.1-0.5,0.2-0.7l0.1,0c0.2-0.1,0.5-0.1,0.7,0.2c0.1,0.2,0.1,0.5-0.2,0.7l-0.1,0
					C103.3,135.4,103.2,135.5,103.1,135.5z M106.7,133.4c-0.2,0-0.4-0.1-0.4-0.2c-0.1-0.2-0.1-0.5,0.1-0.7l0.1,0
					c0.2-0.1,0.5-0.1,0.7,0.2c0.1,0.2,0.1,0.5-0.2,0.7C106.9,133.4,106.8,133.4,106.7,133.4z M110.3,131.4c-0.2,0-0.4-0.1-0.4-0.2
					c-0.1-0.2-0.1-0.5,0.1-0.7l0.1,0c0.2-0.1,0.5-0.1,0.7,0.2c0.1,0.2,0.1,0.5-0.2,0.7C110.5,131.3,110.4,131.4,110.3,131.4z
					 M113.8,129.4c-0.2,0-0.3-0.1-0.4-0.3c-0.1-0.2-0.1-0.5,0.2-0.7l0.1,0c0.2-0.1,0.5-0.1,0.7,0.2c0.1,0.2,0.1,0.5-0.2,0.7l-0.1,0
					C113.9,129.3,113.9,129.4,113.8,129.4z M117.4,127.3c-0.2,0-0.4-0.1-0.4-0.2c-0.1-0.2-0.1-0.5,0.1-0.7l0.1,0
					c0.2-0.1,0.5-0.1,0.7,0.2c0.1,0.2,0.1,0.5-0.2,0.7C117.6,127.3,117.5,127.3,117.4,127.3z M120.9,125.3c-0.2,0-0.4-0.1-0.4-0.2
					c-0.1-0.2-0.1-0.5,0.1-0.7l0.1,0c0.2-0.1,0.5-0.1,0.7,0.2c0.1,0.2,0.1,0.5-0.2,0.7C121.1,125.2,121,125.3,120.9,125.3z
					 M124.5,123.3c-0.2,0-0.3-0.1-0.4-0.3c-0.1-0.2-0.1-0.5,0.2-0.7l0.1,0c0.2-0.1,0.5-0.1,0.7,0.2c0.1,0.2,0.1,0.5-0.2,0.7l-0.1,0
					C124.6,123.3,124.5,123.3,124.5,123.3z M128.1,121.2c-0.2,0-0.4-0.1-0.4-0.2c-0.1-0.2-0.1-0.5,0.1-0.7l0.1,0
					c0.2-0.1,0.5-0.1,0.7,0.2c0.1,0.2,0.1,0.5-0.2,0.7C128.3,121.2,128.2,121.2,128.1,121.2z M131.6,119.2c-0.2,0-0.4-0.1-0.4-0.2
					c-0.1-0.2-0.1-0.5,0.1-0.7l0.1,0c0.2-0.1,0.5-0.1,0.7,0.2c0.1,0.2,0.1,0.5-0.2,0.7C131.8,119.1,131.7,119.2,131.6,119.2z
					 M135.1,117.2c-0.2,0-0.3-0.1-0.4-0.3c-0.1-0.2-0.1-0.5,0.2-0.7l0.1,0c0.2-0.1,0.5-0.1,0.7,0.2c0.1,0.2,0.1,0.5-0.2,0.7l-0.1,0
					C135.3,117.2,135.2,117.2,135.1,117.2z M138.8,115.1c-0.2,0-0.4-0.1-0.4-0.2c-0.1-0.2-0.1-0.5,0.1-0.7l0.1,0
					c0.2-0.1,0.5-0.1,0.7,0.2c0.1,0.2,0.1,0.5-0.2,0.7C138.9,115.1,138.8,115.1,138.8,115.1z M142.3,113.1c-0.2,0-0.4-0.1-0.4-0.2
					c-0.1-0.2-0.1-0.5,0.1-0.7l0.1,0c0.2-0.1,0.5-0.1,0.7,0.2c0.1,0.2,0.1,0.5-0.2,0.7C142.5,113,142.4,113.1,142.3,113.1z
					 M145.8,111.1c-0.2,0-0.3-0.1-0.4-0.3c-0.1-0.2-0.1-0.5,0.2-0.7l0.1,0c0.2-0.1,0.5-0.1,0.7,0.2c0.1,0.2,0.1,0.5-0.2,0.7l-0.1,0
					C146,111.1,145.9,111.1,145.8,111.1z"/>
				<path class="st2" d="M172.5,140.3c-0.2,0-0.4-0.1-0.4-0.2c-0.1-0.2-0.1-0.5,0.1-0.7l0.1,0c0.2-0.1,0.5-0.1,0.7,0.2
					c0.1,0.2,0.1,0.5-0.2,0.7C172.7,140.3,172.6,140.3,172.5,140.3z M170.8,139.1c-0.3,0-0.5-0.2-0.5-0.5v-0.1
					c0-0.3,0.2-0.5,0.5-0.5c0.3,0,0.5,0.2,0.5,0.5v0.1C171.3,138.9,171.1,139.1,170.8,139.1z M176,138.2c-0.2,0-0.4-0.1-0.4-0.2
					c-0.1-0.2-0.1-0.5,0.1-0.7l0.1,0c0.2-0.1,0.5-0.1,0.7,0.2c0.1,0.2,0.1,0.5-0.2,0.7C176.2,138.2,176.1,138.2,176,138.2z
					 M179.6,136.2c-0.2,0-0.4-0.1-0.4-0.2c-0.1-0.2-0.1-0.5,0.1-0.7l0.1,0c0.2-0.1,0.5-0.1,0.7,0.2c0.1,0.2,0.1,0.5-0.2,0.7
					C179.8,136.2,179.7,136.2,179.6,136.2z M170.8,135c-0.3,0-0.5-0.2-0.5-0.5v-0.1c0-0.3,0.2-0.5,0.5-0.5c0.3,0,0.5,0.2,0.5,0.5
					v0.1C171.3,134.8,171.1,135,170.8,135z M183.1,134.1c-0.2,0-0.4-0.1-0.4-0.2c-0.1-0.2-0.1-0.5,0.1-0.7l0.1,0
					c0.2-0.1,0.5-0.1,0.7,0.2c0.1,0.2,0.1,0.5-0.2,0.7C183.3,134.1,183.2,134.1,183.1,134.1z M186.6,132.1c-0.2,0-0.3-0.1-0.4-0.2
					c-0.1-0.2-0.1-0.5,0.2-0.7l0.1-0.1c0.2-0.1,0.5-0.1,0.7,0.2c0.1,0.2,0.1,0.5-0.2,0.7l-0.1,0.1
					C186.8,132.1,186.7,132.1,186.6,132.1z M170.8,130.9c-0.3,0-0.5-0.2-0.5-0.5c0-0.3,0.2-0.5,0.5-0.5c0.3,0,0.5,0.2,0.5,0.5v0.1
					C171.3,130.7,171.1,130.9,170.8,130.9z M190.2,130c-0.2,0-0.4-0.1-0.4-0.2c-0.1-0.2-0.1-0.5,0.1-0.7l0.1-0.1
					c0.2-0.1,0.5-0.1,0.7,0.2c0.1,0.2,0.1,0.5-0.2,0.7C190.4,130,190.3,130,190.2,130z M193.8,128c-0.2,0-0.4-0.1-0.4-0.2
					c-0.1-0.2-0.1-0.5,0.1-0.7l0.1-0.1c0.2-0.1,0.5-0.1,0.7,0.2c0.1,0.2,0.1,0.5-0.2,0.7C194,127.9,193.9,128,193.8,128z
					 M170.8,126.8c-0.3,0-0.5-0.2-0.5-0.5v-0.1c0-0.3,0.2-0.5,0.5-0.5c0.3,0,0.5,0.2,0.5,0.5v0.1
					C171.3,126.6,171.1,126.8,170.8,126.8z M197.3,126c-0.2,0-0.3-0.1-0.4-0.2c-0.1-0.2-0.1-0.5,0.2-0.7l0.1-0.1
					c0.2-0.1,0.5-0.1,0.7,0.2c0.1,0.2,0.1,0.5-0.2,0.7l-0.1,0.1C197.5,125.9,197.4,126,197.3,126z M200.9,123.9
					c-0.2,0-0.4-0.1-0.4-0.2c-0.1-0.2-0.1-0.5,0.1-0.7l0.1-0.1c0.2-0.1,0.5-0.1,0.7,0.2c0.1,0.2,0.1,0.5-0.2,0.7
					C201.1,123.8,201,123.9,200.9,123.9z M170.8,122.7c-0.3,0-0.5-0.2-0.5-0.5v-0.1c0-0.3,0.2-0.5,0.5-0.5c0.3,0,0.5,0.2,0.5,0.5
					v0.1C171.3,122.5,171.1,122.7,170.8,122.7z M204.4,121.8c-0.2,0-0.4-0.1-0.4-0.2c-0.1-0.2-0.1-0.5,0.1-0.7l0.1,0
					c0.2-0.1,0.5-0.1,0.7,0.2c0.1,0.2,0.1,0.5-0.2,0.7C204.6,121.8,204.5,121.8,204.4,121.8z M207.9,119.8c-0.2,0-0.3-0.1-0.4-0.3
					c-0.1-0.2-0.1-0.5,0.2-0.7l0.1,0c0.2-0.1,0.5-0.1,0.7,0.2c0.1,0.2,0.1,0.5-0.2,0.7l-0.1,0C208.1,119.8,208,119.8,207.9,119.8z
					 M211.5,117.7c-0.2,0-0.4-0.1-0.4-0.2c-0.1-0.2-0.1-0.5,0.1-0.7l0.1,0c0.2-0.1,0.5-0.1,0.7,0.2c0.1,0.2,0.1,0.5-0.2,0.7
					C211.7,117.7,211.6,117.7,211.5,117.7z"/>
			</g>
		</g>
	</g>
	<g>
		<g>
			<path class="st7" d="M421.7,117.2l-36.3,21c-2.6,1.5-7.3,1.3-10.4-0.4l-34.8-20.1c-3.1-1.8-3.4-4.5-0.7-6l36.3-21
				c2.6-1.5,7.3-1.3,10.4,0.4l34.8,20.1C424.1,113,424.4,115.7,421.7,117.2z"/>
			<g>
				<linearGradient id="SVGID_5_" gradientUnits="userSpaceOnUse" x1="434.9393" y1="127.8716" x2="363.9391" y2="268.8716">
					<stop  offset="0" style="stop-color:#E4F2FF"/>
					<stop  offset="5.554383e-02" style="stop-color:#E1EFFF"/>
					<stop  offset="0.6478" style="stop-color:#C7D7FB"/>
					<stop  offset="0.9993" style="stop-color:#BDCEFA"/>
				</linearGradient>
				<path class="st8" d="M423.5,246V115.1l0,0c0,0,0,0,0,0c-0.2,0.8-0.7,1.5-1.7,2.1l-36.3,21c-1.3,0.7-3,1.1-4.8,1V271
					c1.8,0,3.5-0.3,4.8-1l36.3-21C423.1,248.3,423.7,247.2,423.5,246z"/>
				<path class="st9" d="M375.1,137.8l-34.8-20.1c-1.5-0.8-2.3-1.9-2.5-2.9v130.9c-0.3,1.3,0.6,2.8,2.5,3.9l34.8,20.1
					c1.6,0.9,3.6,1.4,5.6,1.4V139.2C378.7,139.2,376.7,138.7,375.1,137.8z"/>
				<linearGradient id="SVGID_6_" gradientUnits="userSpaceOnUse" x1="449.9102" y1="57.9038" x2="335.2437" y2="228.5699">
					<stop  offset="0" style="stop-color:#E4F2FF"/>
					<stop  offset="5.554383e-02" style="stop-color:#E1EFFF"/>
					<stop  offset="0.6478" style="stop-color:#C7D7FB"/>
					<stop  offset="0.9993" style="stop-color:#BDCEFA"/>
				</linearGradient>
				<path class="st10" d="M375.1,137.8l-34.8-20.1c-1.5-0.8-2.3-1.9-2.5-2.9v130.9c-0.3,1.3,0.6,2.8,2.5,3.9l34.8,20.1
					c1.6,0.9,3.6,1.4,5.6,1.4V139.2C378.7,139.2,376.7,138.7,375.1,137.8z"/>
			</g>
		</g>
		<g>
			<g>
				<path class="st11" d="M410.8,129.5c0,7.4-3.9,11.5-9.5,11c-1.3,0.1-2.7-0.2-4.3-1.1l-46.4-26.8c-0.4-0.2-0.8-0.5-1.1-0.7
					c-7.8-5.4-13.9-16.6-13.9-25.8c0-9,5.8-13.1,13.3-10c1.1-6.4,6.5-8.7,12.9-4.9c2.1,1.2,4.2,3,6,5.1c3.4-2.9,8.6-3,14.5,0.4
					c8.8,5.1,16.1,16.3,18.1,26.9c2.7,1.9,4.7,5.7,4.8,8.9C408.6,117.6,410.8,123.9,410.8,129.5z"/>
				<g>
					<path class="st12" d="M415.1,106.6c-0.1-3.2-2.1-7-4.8-8.9c-2-10.6-9.3-21.9-18.1-26.9c-5.1-3-9.8-3.2-13.2-1.3l-1.4,0.8
						c-1.8-2-3.7-3.8-5.9-5c-3.6-2.1-6.9-2.3-9.3-0.9l-8.4,4.8c-1.4,0-2.6,0.3-3.7,0.9l-9.9,5.7c2.3-1.2,5.2-1.2,8.5,0.1
						c1.1-6.4,6.5-8.7,12.9-4.9c2.1,1.2,4.2,3,6,5.1c3.4-2.9,8.6-3,14.5,0.4c8.8,5.1,16.1,16.3,18.1,26.9c2.7,1.9,4.7,5.7,4.8,8.9
						c3.5,5.3,5.7,11.5,5.7,17.1c0,5.1-1.8,8.6-4.8,10.1l9.9-5.7c3-1.5,4.9-5.1,4.9-10.2C420.8,118.2,418.6,111.9,415.1,106.6z"/>
				</g>
			</g>
			<g>
				<path class="st0" d="M356.7,106c0,1.8-1.3,2.6-2.9,1.7s-2.9-3.1-2.9-5c0-1.8,1.3-2.6,2.9-1.7S356.7,104.2,356.7,106z"/>
				<path class="st0" d="M365.6,111.2c0,1.8-1.3,2.6-2.9,1.7c-1.6-0.9-2.9-3.1-2.9-5s1.3-2.6,2.9-1.7S365.6,109.3,365.6,111.2z"/>
				<path class="st0" d="M374.6,116.3c0,1.8-1.3,2.6-2.9,1.7c-1.6-0.9-2.9-3.1-2.9-5c0-1.8,1.3-2.6,2.9-1.7
					C373.3,112.3,374.6,114.5,374.6,116.3z"/>
				<path class="st0" d="M383.5,121.5c0,1.8-1.3,2.6-2.9,1.7c-1.6-0.9-2.9-3.1-2.9-5c0-1.8,1.3-2.6,2.9-1.7
					C382.2,117.5,383.5,119.7,383.5,121.5z"/>
				<path class="st0" d="M392.5,126.7c0,1.8-1.3,2.6-2.9,1.7s-2.9-3.1-2.9-5c0-1.8,1.3-2.6,2.9-1.7
					C391.2,122.6,392.5,124.8,392.5,126.7z"/>
			</g>
		</g>
	</g>
	<linearGradient id="SVGID_7_" gradientUnits="userSpaceOnUse" x1="301.8968" y1="574.3636" x2="301.8968" y2="404.2741">
		<stop  offset="0" style="stop-color:#DEEBFE"/>
		<stop  offset="0.6004" style="stop-color:#C7D7FB"/>
		<stop  offset="0.9993" style="stop-color:#BDCEFA"/>
	</linearGradient>
	<path class="st13" d="M301.9,481.2c0,0-0.1,0-0.1,0L301.9,481.2C301.9,481.2,301.9,481.2,301.9,481.2z"/>
	<linearGradient id="SVGID_8_" gradientUnits="userSpaceOnUse" x1="130.2946" y1="519.2006" x2="130.7083" y2="519.6003">
		<stop  offset="0" style="stop-color:#FCFDFF"/>
		<stop  offset="0.2913" style="stop-color:#E7F2FF"/>
		<stop  offset="0.7355" style="stop-color:#CDE5FE"/>
		<stop  offset="0.9993" style="stop-color:#C3E0FE"/>
	</linearGradient>
	<polygon class="st14" points="130.5,519.4 130.5,519.4 130.5,519.4 	"/>
	<g>
		<path class="st7" d="M422.2,343.3l-66.5,37.2c-2.9,1.7-8.1,1.5-11.5-0.5l-22.1-13.2c-3.4-2-3.8-5-0.8-6.7l66.2-38
			c2.9-1.7,8.1-1.5,11.5,0.5l22.4,13.9C424.7,338.6,425.1,341.6,422.2,343.3z"/>
		<g>
			<linearGradient id="SVGID_9_" gradientUnits="userSpaceOnUse" x1="424.04" y1="337.1526" x2="272.6514" y2="453.9059">
				<stop  offset="0" style="stop-color:#E4F2FF"/>
				<stop  offset="5.554383e-02" style="stop-color:#E1EFFF"/>
				<stop  offset="0.6478" style="stop-color:#C7D7FB"/>
				<stop  offset="0.9993" style="stop-color:#BDCEFA"/>
			</linearGradient>
			<path class="st15" d="M424.1,347.5v-6.5c0,0,0,0,0,0v0c-0.2,0.9-0.8,1.7-1.9,2.4l-66.5,37.2c-1.4,0.8-3.4,1.2-5.4,1.1v7.6
				c2,0,3.9-0.3,5.4-1.1l66.5-37.2C423.7,350,424.3,348.7,424.1,347.5z"/>
			<linearGradient id="SVGID_10_" gradientUnits="userSpaceOnUse" x1="379.2111" y1="336.1799" x2="325.5827" y2="384.7806">
				<stop  offset="0" style="stop-color:#E4F2FF"/>
				<stop  offset="5.554383e-02" style="stop-color:#E1EFFF"/>
				<stop  offset="0.6478" style="stop-color:#C7D7FB"/>
				<stop  offset="0.9993" style="stop-color:#BDCEFA"/>
			</linearGradient>
			<path class="st16" d="M344.2,380.1l-22.1-13.2c-1.6-0.9-2.5-2.1-2.8-3.3v6.5c-0.3,1.5,0.6,3.1,2.8,4.3l22.1,13.2
				c1.8,1,4,1.6,6.2,1.6v-7.6C348.2,381.6,345.9,381.1,344.2,380.1z"/>
		</g>
	</g>
	<g>
		<path class="st7" d="M449.8,384.3l-66.5,37.2c-2.9,1.7-8.1,1.5-11.5-0.5l-22.1-13.2c-3.4-2-3.8-5-0.8-6.7l66.2-38
			c2.9-1.7,8.1-1.5,11.5,0.5l22.4,13.9C452.4,379.6,452.8,382.6,449.8,384.3z"/>
		<g>
			<linearGradient id="SVGID_11_" gradientUnits="userSpaceOnUse" x1="448.0615" y1="383.1402" x2="306.0397" y2="483.3909">
				<stop  offset="0" style="stop-color:#E4F2FF"/>
				<stop  offset="5.554383e-02" style="stop-color:#E1EFFF"/>
				<stop  offset="0.6478" style="stop-color:#C7D7FB"/>
				<stop  offset="0.9993" style="stop-color:#BDCEFA"/>
			</linearGradient>
			<path class="st17" d="M451.8,388.4v-6.5l0,0v0c-0.2,0.9-0.8,1.7-1.9,2.4l-66.5,37.2c-1.4,0.8-3.4,1.2-5.4,1.1v7.6
				c2,0,3.9-0.3,5.4-1.1l66.5-37.2C451.4,390.9,452,389.7,451.8,388.4z"/>
			<linearGradient id="SVGID_12_" gradientUnits="userSpaceOnUse" x1="425.3823" y1="377.6009" x2="358.5486" y2="419.8633">
				<stop  offset="0" style="stop-color:#E4F2FF"/>
				<stop  offset="5.554383e-02" style="stop-color:#E1EFFF"/>
				<stop  offset="0.6478" style="stop-color:#C7D7FB"/>
				<stop  offset="0.9993" style="stop-color:#BDCEFA"/>
			</linearGradient>
			<path class="st18" d="M371.8,421l-22.1-13.2c-1.6-0.9-2.5-2.1-2.8-3.3v6.5c-0.3,1.5,0.6,3.1,2.8,4.3l22.1,13.2
				c1.8,1,4,1.6,6.2,1.6v-7.6C375.8,422.6,373.6,422,371.8,421z"/>
		</g>
	</g>
	<g>
		<g>
			<path class="st7" d="M438.1,278.9L240.9,392.5c-8.9,5.1-24.5,4.5-34.8-1.4L85.8,321.9c-10.3-5.9-11.4-15-2.5-20.1l200.6-111.9
				c8.9-5.1,24.5-4.5,34.8,1.4l116.9,67.5C445.8,264.7,447,273.8,438.1,278.9z"/>
			<g>
				<linearGradient id="SVGID_13_" gradientUnits="userSpaceOnUse" x1="462.8652" y1="240.5473" x2="209.7014" y2="435.4738">
					<stop  offset="0" style="stop-color:#E4F2FF"/>
					<stop  offset="5.554383e-02" style="stop-color:#E1EFFF"/>
					<stop  offset="0.6478" style="stop-color:#C7D7FB"/>
					<stop  offset="0.9993" style="stop-color:#BDCEFA"/>
				</linearGradient>
				<path class="st19" d="M443.9,277.2v-5.4l0,0c0,0,0,0,0,0c-0.5,2.7-2.5,5.2-5.8,7.1L240.9,392.5c-4.3,2.5-10.1,3.6-16.2,3.4v8.6
					c6,0.1,11.9-0.9,16.2-3.4l197.2-113.6C442.7,284.8,444.6,281,443.9,277.2z"/>
				<path class="st20" d="M206.1,391L85.8,321.9c-4.9-2.8-7.7-6.4-8.3-9.8v5.4c-0.9,4.4,1.9,9.3,8.3,13l120.3,69.2
					c5.3,3.1,12.1,4.7,18.6,4.9v-8.6C218.2,395.7,211.4,394.1,206.1,391z"/>
				<linearGradient id="SVGID_14_" gradientUnits="userSpaceOnUse" x1="317.2557" y1="381.8609" x2="216.923" y2="367.6834">
					<stop  offset="0" style="stop-color:#E4F2FF"/>
					<stop  offset="5.554383e-02" style="stop-color:#E1EFFF"/>
					<stop  offset="0.6478" style="stop-color:#C7D7FB"/>
					<stop  offset="0.9993" style="stop-color:#BDCEFA"/>
				</linearGradient>
				<path class="st21" d="M206.1,391L85.8,321.9c-4.9-2.8-7.7-6.4-8.3-9.8v5.4c-0.9,4.4,1.9,9.3,8.3,13l120.3,69.2
					c5.3,3.1,12.1,4.7,18.6,4.9v-8.6C218.2,395.7,211.4,394.1,206.1,391z"/>
			</g>
		</g>
		<g>
			<g>
				<polygon class="st0" points="252.9,341.4 211.7,365.2 107,304.7 148.1,280.9 				"/>
				<linearGradient id="SVGID_15_" gradientUnits="userSpaceOnUse" x1="251.3433" y1="343.0504" x2="127.8433" y2="465.0503">
					<stop  offset="0" style="stop-color:#E4F2FF"/>
					<stop  offset="5.554383e-02" style="stop-color:#E1EFFF"/>
					<stop  offset="0.6478" style="stop-color:#C7D7FB"/>
					<stop  offset="0.9993" style="stop-color:#BDCEFA"/>
				</linearGradient>
				<polygon class="st22" points="252.9,341.4 252.9,358.5 211.7,382.3 211.7,365.2 				"/>
				<linearGradient id="SVGID_16_" gradientUnits="userSpaceOnUse" x1="313.5993" y1="388.2859" x2="127.5995" y2="334.286">
					<stop  offset="0" style="stop-color:#E4F2FF"/>
					<stop  offset="5.554383e-02" style="stop-color:#E1EFFF"/>
					<stop  offset="0.6478" style="stop-color:#C7D7FB"/>
					<stop  offset="0.9993" style="stop-color:#BDCEFA"/>
				</linearGradient>
				<polygon class="st23" points="107,304.7 107,321.8 211.7,382.3 211.7,365.2 				"/>
			</g>
			<g>
				<g>
					<path class="st24" d="M167.4,299.2l-18.1,10.4c-1.3,0.8-3.6,0.7-5.2-0.2l-17.3-10c-1.5-0.9-1.7-2.2-0.4-3l18.1-10.4
						c1.3-0.8,3.6-0.7,5.2,0.2l17.3,10C168.5,297.1,168.7,298.5,167.4,299.2z"/>
					<g>
						<path class="st25" d="M168.2,306.1v-8v0v0c-0.1,0.4-0.4,0.8-0.9,1.1l-18.1,10.4c-0.6,0.4-1.5,0.5-2.4,0.5v8.4
							c0.9,0,1.8-0.1,2.4-0.5l18.1-10.4C168.1,307.3,168.3,306.7,168.2,306.1z"/>
						<path class="st26" d="M144.2,309.5l-17.3-10c-0.7-0.4-1.1-0.9-1.2-1.5v8c-0.1,0.7,0.3,1.4,1.2,1.9l17.3,10
							c0.8,0.5,1.8,0.7,2.8,0.7v-8.4C145.9,310.2,144.9,309.9,144.2,309.5z"/>
					</g>
				</g>
				<g>
					<path class="st27" d="M199.2,317.7l-18.1,10.4c-1.3,0.8-3.6,0.7-5.2-0.2l-17.3-10c-1.5-0.9-1.7-2.2-0.4-3l18.1-10.4
						c1.3-0.8,3.6-0.7,5.2,0.2l17.3,10C200.4,315.6,200.6,316.9,199.2,317.7z"/>
					<g>
						<path class="st28" d="M200.1,324.6v-8v0v0c-0.1,0.4-0.4,0.8-0.9,1.1l-18.1,10.4c-0.6,0.4-1.5,0.5-2.4,0.5v8.4
							c0.9,0,1.8-0.1,2.4-0.5l18.1-10.4C199.9,325.7,200.2,325.2,200.1,324.6z"/>
						<path class="st29" d="M176,327.9l-17.3-10c-0.7-0.4-1.1-0.9-1.2-1.5v8c-0.1,0.7,0.3,1.4,1.2,1.9l17.3,10
							c0.8,0.5,1.8,0.7,2.8,0.7v-8.4C177.8,328.6,176.8,328.4,176,327.9z"/>
					</g>
				</g>
				<g>
					<path class="st30" d="M231.8,336.4l-18.1,10.4c-1.3,0.8-3.6,0.7-5.2-0.2l-17.3-10c-1.5-0.9-1.7-2.2-0.4-3l18.1-10.4
						c1.3-0.8,3.6-0.7,5.2,0.2l17.3,10C232.9,334.3,233.1,335.7,231.8,336.4z"/>
					<g>
						<path class="st31" d="M232.6,343.3v-8l0,0v0c-0.1,0.4-0.4,0.8-0.9,1.1l-18.1,10.4c-0.6,0.4-1.5,0.5-2.4,0.5v8.4
							c0.9,0,1.8-0.1,2.4-0.5l18.1-10.4C232.5,344.4,232.7,343.9,232.6,343.3z"/>
						<path class="st32" d="M208.5,346.6l-17.3-10c-0.7-0.4-1.1-0.9-1.2-1.5v8c-0.1,0.7,0.3,1.4,1.2,1.9l17.3,10
							c0.8,0.5,1.8,0.7,2.8,0.7v-8.4C210.3,347.3,209.3,347.1,208.5,346.6z"/>
					</g>
				</g>
			</g>
		</g>
		<g>
			<g>
				<ellipse class="st0" cx="402.5" cy="249.2" rx="27.9" ry="16.1"/>
				<g>
					<linearGradient id="SVGID_17_" gradientUnits="userSpaceOnUse" x1="450.7581" y1="263.976" x2="375.2581" y2="266.4759">
						<stop  offset="0" style="stop-color:#E4F2FF"/>
						<stop  offset="5.554383e-02" style="stop-color:#E1EFFF"/>
						<stop  offset="0.6478" style="stop-color:#C7D7FB"/>
						<stop  offset="0.9993" style="stop-color:#BDCEFA"/>
					</linearGradient>
					<path class="st33" d="M422.2,260.6c-10.9,6.3-28.5,6.3-39.4,0c-5.4-3.1-8.1-7.2-8.2-11.3v17.3c0,4.1,2.7,8.3,8.2,11.5
						c10.9,6.3,28.5,6.3,39.4,0c5.5-3.2,8.2-7.3,8.2-11.5v-17.3C430.3,253.4,427.6,257.5,422.2,260.6z"/>
				</g>
			</g>
			<g>
				<path class="st34" d="M402.5,237l17,9.8c-9.3,5.4-24.7,5.4-34,0c-9.3-5.4-9.3-14.3,0-19.6c5.2-3,12.5-4.5,19.9-4L402.5,237z"/>
				<g>
					<path class="st26" d="M385.4,246.8c-4.6-2.7-7-6.2-7-9.8v9.9c0,3.6,2.3,7.2,7,9.9c9.3,5.4,24.7,5.4,34,0v-10
						C410.1,252.2,394.8,252.2,385.4,246.8z"/>
				</g>
				<path class="st24" d="M402.5,237l17,9.8c-9.3,5.4-24.7,5.4-34,0c-9.3-5.4-9.3-14.3,0-19.6c5.2-3,12.5-4.5,19.9-4L402.5,237z"/>
				<path class="st27" d="M402.5,226.8l2.8-13.8c5.4,0.4,10.3,1.8,14.2,4c9.3,5.4,9.3,14.3,0,19.6L402.5,226.8z"/>
				<polygon class="st29" points="402.5,226.8 402.5,237 419.5,246.8 419.5,236.6 				"/>
				<path class="st28" d="M426.5,246.8v-20c0,3.5-2.4,7.1-7,9.7v10.2v10C424.2,254.1,426.5,250.4,426.5,246.8z"/>
			</g>
		</g>
		<g>
			<g>
				<g>
					<path class="st0" d="M345.2,221.6l-39.6-22.9c-4.7-2.7-4.1-7.4,1.3-10.5v0c5.4-3.1,13.6-3.5,18.3-0.8l39.6,22.9
						c4.7,2.7,4.1,7.4-1.3,10.5l0,0C358,223.9,349.8,224.3,345.2,221.6z"/>
				</g>
				<g>
					<linearGradient id="SVGID_18_" gradientUnits="userSpaceOnUse" x1="368.3892" y1="230.8553" x2="309.8892" y2="197.6052">
						<stop  offset="0" style="stop-color:#E4F2FF"/>
						<stop  offset="5.554383e-02" style="stop-color:#E1EFFF"/>
						<stop  offset="0.6478" style="stop-color:#C7D7FB"/>
						<stop  offset="0.9993" style="stop-color:#BDCEFA"/>
					</linearGradient>
					<path class="st35" d="M363.4,220.8c-5.4,3.1-13.6,3.5-18.3,0.8l-39.6-22.9c-2-1.2-3.1-2.7-3.2-4.4l0,0V206c0,0,0,0.1,0,0.1
						c0,1.7,1.1,3.3,3.2,4.5l39.6,22.9c4.7,2.7,12.9,2.4,18.3-0.8c3.1-1.8,4.6-4,4.5-6.2v-11.8C367.9,216.9,366.4,219.1,363.4,220.8
						z"/>
				</g>
			</g>
			<g>
				<path class="st2" d="M322.4,195.3c-2,1.2-5.3,1.2-7.4,0c-2-1.2-2-3.1,0-4.2c2-1.2,5.3-1.2,7.4,0
					C324.5,192.2,324.5,194.1,322.4,195.3z"/>
				<path class="st2" d="M333.9,201.9c-2,1.2-5.3,1.2-7.4,0c-2-1.2-2-3.1,0-4.2c2-1.2,5.3-1.2,7.4,0
					C335.9,198.8,335.9,200.7,333.9,201.9z"/>
				<path class="st2" d="M345.4,208.5c-2,1.2-5.3,1.2-7.4,0c-2-1.2-2-3.1,0-4.2c2-1.2,5.3-1.2,7.4,0
					C347.4,205.5,347.4,207.4,345.4,208.5z"/>
				<path class="st2" d="M356.9,215.2c-2,1.2-5.3,1.2-7.4,0c-2-1.2-2-3.1,0-4.2c2-1.2,5.3-1.2,7.4,0
					C358.9,212.1,358.9,214,356.9,215.2z"/>
			</g>
		</g>
	</g>
	<g>
		<g>
			<path class="st36" d="M328.6,201L328.6,201c1.4,0.2,2.7-0.7,2.9-2.1l2.5-14.2c0.2-1.4-0.7-2.7-2.1-2.9h0
				c-1.4-0.2-2.7,0.7-2.9,2.1l-2.5,14.2C326.3,199.4,327.2,200.7,328.6,201z"/>
			<path class="st36" d="M317.2,201.9L317.2,201.9c0.4,1.3,1.9,2.1,3.2,1.7l8.8-2.6c1.4-0.1,2.5-1.3,2.4-2.7l0,0
				c-0.1-1.4-1.3-2.5-2.7-2.4l-10,2.8C317.6,199.1,316.8,200.5,317.2,201.9z"/>
		</g>
		<g>
			<g>
				<g>
					<path class="st37" d="M343.6,243.8c0,0.3-0.2,0.6-0.7,0.9c-0.1,0.1,0-1.8-0.4-1.5c-0.1,0.1-6.2,4.9-9.7,4
						c-0.4-0.1-0.5-0.4-0.5-0.7l0-0.8c0-0.9,1.2-2.2,3.2-4.1c2.2-2.1,3.5-3.4,6.7-1.6c0.9,0.5,1.3,0.9,1.3,1.3L343.6,243.8z"/>
					<path class="st38" d="M335.5,241.6c-2.6,2.5-4,4-2.7,4.8c1.3,0.8,4-0.4,6.7-2.5c2.4-1.8,5.9-2,2.7-3.9
						C339,238.2,337.6,239.5,335.5,241.6z"/>
				</g>
			</g>
			<path class="st39" d="M338.1,240.4l0.2-23.4l7.7,2.5l-1.3,3.8c0,0,0.6,5.1-1,10.3c0,0-1.1,2.3-0.9,7.5
				C342.8,241.1,340,242.7,338.1,240.4z"/>
		</g>
		<g>
			<g>
				<g>
					<path class="st37" d="M336.1,237.7c0,0.3-0.2,0.6-0.7,0.9c-0.1,0.1,0-1.8-0.4-1.5c-0.1,0.1-6.2,4.9-9.7,4
						c-0.4-0.1-0.5-0.4-0.5-0.7l0-0.8c0-0.9,1.2-2.2,3.2-4.1c2.2-2.1,3.5-3.4,6.7-1.6c0.9,0.5,1.3,0.9,1.3,1.3L336.1,237.7z"/>
					<path class="st38" d="M328,235.5c-2.6,2.5-4,4-2.7,4.8c1.3,0.8,4-0.4,6.7-2.5c2.4-1.8,5.9-2,2.7-3.9
						C331.5,232.1,330.2,233.4,328,235.5z"/>
				</g>
			</g>
			<path class="st40" d="M330.6,234.3l0.2-23.4l7.7,2.5l-1.3,3.8c0,0,0.6,5.1-1,10.3c0,0-1.1,2.3-0.9,7.5
				C335.4,234.9,332.5,236.5,330.6,234.3z"/>
		</g>
		<path class="st24" d="M348.8,211.5v8.6c0,0-10.1,3.4-19.7-8.6v-8.4L348.8,211.5z"/>
		<path class="st41" d="M343.9,214.8c-0.1,0.1-0.2,0.1-0.3,0.1c-1.7,0.1-7.8-1.2-13.9-8.1c-0.5-0.6-0.8-1.3-0.8-2v-19.5
			c0-1.5,0.5-2.5,1.4-3l4.6-2.7c0.8-0.5,2-0.4,3.3,0.3l6.3,3.6c2.5,1.5,4.6,5,4.6,8v19.7c0,0.5-0.2,0.8-0.4,0.9L343.9,214.8z"/>
		<path class="st42" d="M342.2,184.8c0,0.5-0.3,1-0.9,1.3c-1.3,0.7-3.3,0.7-4.6,0c-0.6-0.4-1-0.9-0.9-1.3v-4.3c0-0.5,0.3-1,0.9-1.3
			c1.3-0.7,3.3-0.7,4.6,0c0.6,0.4,1,0.9,0.9,1.3V184.8z"/>
		<path class="st36" d="M341.9,178.8c0,1.1,0.7,1.5,1.7,1c0.9-0.5,1.7-1.8,1.7-2.9c0-1.1-0.7-1.5-1.7-1
			C342.7,176.4,341.9,177.7,341.9,178.8z"/>
		<path class="st43" d="M333.2,190.2c0,0-8.6-7.8-3.4-21.8l4,14.5L333.2,190.2z"/>
		<ellipse transform="matrix(0.973 -0.2306 0.2306 0.973 -30.9226 82.8629)" class="st39" cx="339" cy="173.7" rx="8.9" ry="8.9"/>
		<path class="st43" d="M336.3,190.2c0,0,6.6-7.3,2-20.9l-8.3,2.8c0,0-2.8-7,6.5-9.1c0,0,6.2-1.4,8.4,3.8c0,0,5,0.4,3.1,10.7
			C348.1,177.7,347.8,187.4,336.3,190.2z"/>
		<g>
			<path class="st36" d="M342.2,206.7L342.2,206.7c1.3,0.4,2.8-0.4,3.1-1.8l3.9-14.6c0.4-1.3-0.4-2.8-1.8-3.1l0,0
				c-1.3-0.4-2.8,0.4-3.1,1.8l-3.9,14.6C340.1,204.9,340.8,206.3,342.2,206.7z"/>
			<path class="st36" d="M328,207.2L328,207.2c0.3,1.4,1.6,2.2,3,2l11.8-2.4c1.4,0,2.6-1.1,2.6-2.5l0,0c0-1.4-1.1-2.6-2.5-2.6
				l-13,2.5C328.5,204.5,327.7,205.8,328,207.2z"/>
		</g>
	</g>
	<g>
		<g>
			<path class="st0" d="M167.6,266.9v-87.6c0-2.2,1.2-4.3,3.1-5.4L276,113.2c4.1-2.4,9.3,0.6,9.3,5.4v87.6c0,2.2-1.2,4.3-3.1,5.4
				L177,272.3C172.8,274.6,167.6,271.7,167.6,266.9z"/>
			<linearGradient id="SVGID_19_" gradientUnits="userSpaceOnUse" x1="135.1889" y1="341.9095" x2="306.0456" y2="62.6681">
				<stop  offset="0" style="stop-color:#FF2763"/>
				<stop  offset="5.901441e-02" style="stop-color:#FF4156"/>
				<stop  offset="0.1749" style="stop-color:#FF6E3F"/>
				<stop  offset="0.2955" style="stop-color:#FF952C"/>
				<stop  offset="0.4194" style="stop-color:#FFB41C"/>
				<stop  offset="0.5476" style="stop-color:#FFCD10"/>
				<stop  offset="0.682" style="stop-color:#FFDE07"/>
				<stop  offset="0.8265" style="stop-color:#FFE902"/>
				<stop  offset="0.9993" style="stop-color:#FFEC00"/>
			</linearGradient>
			<path class="st44" d="M173.9,271c-2,0-4.1-1.6-4.1-4.1v-87.6c0-1.5,0.8-2.8,2.1-3.6L277,115c0.6-0.4,1.3-0.6,2.1-0.6
				c2,0,4.1,1.6,4.1,4.1v87.6c0,1.5-0.8,2.8-2.1,3.6l-105.2,60.8C175.3,270.8,174.6,271,173.9,271z"/>
			<g>
				<linearGradient id="SVGID_20_" gradientUnits="userSpaceOnUse" x1="270.5063" y1="100.1243" x2="153.0061" y2="240.1242">
					<stop  offset="0" style="stop-color:#E4F2FF"/>
					<stop  offset="5.554383e-02" style="stop-color:#E1EFFF"/>
					<stop  offset="0.6478" style="stop-color:#C7D7FB"/>
					<stop  offset="0.9993" style="stop-color:#BDCEFA"/>
				</linearGradient>
				<path class="st45" d="M167.6,266.9v-87.6c0-2.2,1.2-4.3,3.1-5.4L276,113.2c1.7-1,3.7-1.1,5.3-0.4l0,0l-2.5-1.3
					c-1.9-1.4-4.5-1.7-6.8-0.4l-105.2,60.8c-1.9,1.1-3.1,3.2-3.1,5.4v87.6c0,2.1,1,3.9,2.6,5v0l0.1,0c0.4,0.3,0.9,0.5,1.3,0.7
					l2.8,1.5C168.8,270.9,167.6,269.1,167.6,266.9z"/>
				<linearGradient id="SVGID_21_" gradientUnits="userSpaceOnUse" x1="196.8676" y1="242.4583" x2="146.2182" y2="302.8063">
					<stop  offset="0" style="stop-color:#E4F2FF"/>
					<stop  offset="5.554383e-02" style="stop-color:#E1EFFF"/>
					<stop  offset="0.6478" style="stop-color:#C7D7FB"/>
					<stop  offset="0.9993" style="stop-color:#BDCEFA"/>
				</linearGradient>
				<path class="st46" d="M171.5,272.6L171.5,272.6L171.5,272.6C171.5,272.6,171.5,272.6,171.5,272.6z"/>
			</g>
		</g>
		<g>
			<path class="st0" d="M177,283l75.8,43.8c1.9,1.1,4.3,1.1,6.2,0L364.3,266c4.1-2.4,4.1-8.4,0-10.8l-75.8-43.8
				c-1.9-1.1-4.3-1.1-6.2,0L177,272.3C172.8,274.6,172.8,280.6,177,283z"/>
			<linearGradient id="SVGID_22_" gradientUnits="userSpaceOnUse" x1="397.0303" y1="281.6067" x2="216.0753" y2="305.3457">
				<stop  offset="0" style="stop-color:#E4F2FF"/>
				<stop  offset="5.554383e-02" style="stop-color:#E1EFFF"/>
				<stop  offset="0.6478" style="stop-color:#C7D7FB"/>
				<stop  offset="0.9993" style="stop-color:#BDCEFA"/>
			</linearGradient>
			<path class="st47" d="M364.3,266L259,326.8c-1.9,1.1-4.3,1.1-6.2,0L177,283c-2.1-1.2-3.1-3.3-3.1-5.4v5.7c0,2.1,1,4.2,3.1,5.4
				l75.8,43.8c1.9,1.1,4.3,1.1,6.2,0l105.2-60.8c2-1.1,3-3.1,3.1-5.1l0,0v-0.1c0-0.1,0-0.3,0-0.4v-5.2
				C367.3,262.9,366.3,264.9,364.3,266z M367.3,260.4C367.3,260.4,367.3,260.4,367.3,260.4L367.3,260.4L367.3,260.4z"/>
			<path class="st48" d="M325,248.9L234.6,301c-3.5,2-9.7,1.8-13.8-0.6l-27.2-15.7c-4.1-2.4-4.5-5.9-1-7.9l90.4-52.2
				c3.5-2,9.7-1.8,13.8,0.6l27.2,15.7C328.1,243.3,328.5,246.8,325,248.9z"/>
			<path class="st49" d="M192.7,278.1l90.4-52.2c3.5-2,9.7-1.8,13.8,0.6l27.2,15.7c1.9,1.1,3,2.5,3.3,3.9c0.4-1.7-0.8-3.7-3.3-5.1
				l-27.2-15.7c-4.1-2.4-10.2-2.6-13.8-0.6l-90.4,52.2c-1.8,1.1-2.6,2.5-2.3,4.1C190.6,279.8,191.4,278.8,192.7,278.1z"/>
			<path class="st49" d="M265.6,248.5l-4.8-2.8l-4.8,2.8l4.8,2.8L265.6,248.5z M256.2,253.9l-4.8-2.8l-4.8,2.8l4.8,2.8L256.2,253.9z
				 M275.1,243.1l-4.8-2.8l-4.8,2.8l4.8,2.8L275.1,243.1z M302.4,246l10-5.8l-4.8-2.8l-10,5.8L302.4,246z M304.3,235.5l-4.8-2.8
				l-4.8,2.8l4.8,2.8L304.3,235.5z M284.5,237.6l-4.8-2.8l-4.8,2.8l4.8,2.8L284.5,237.6z M246.8,259.4l-4.8-2.8l-4.8,2.8l4.8,2.8
				L246.8,259.4z M296,244.1l-82.6,47.7l4.8,2.8l82.6-47.7L296,244.1z M237.4,264.8l-4.8-2.8l-4.8,2.8l4.8,2.8L237.4,264.8z
				 M292.2,237l-86.9,50.2l4.8,2.8l86.9-50.2L292.2,237z M315.7,242.1l-94.2,54.4l4.8,2.8l94.2-54.4L315.7,242.1z M218.5,275.7
				l-4.8-2.8l-4.8,2.8l4.8,2.8L218.5,275.7z M227.9,270.3l-4.8-2.8l-4.8,2.8l4.8,2.8L227.9,270.3z"/>
			<path class="st50" d="M265.6,247.7l-4.8-2.8l-4.8,2.8l4.8,2.8L265.6,247.7z M256.2,253.1l-4.8-2.8l-4.8,2.8l4.8,2.8L256.2,253.1z
				 M275.1,242.2l-4.8-2.8l-4.8,2.8l4.8,2.8L275.1,242.2z M302.4,245.1l10-5.8l-4.8-2.8l-10,5.8L302.4,245.1z M304.3,234.7l-4.8-2.8
				l-4.8,2.8l4.8,2.8L304.3,234.7z M284.5,236.8l-4.8-2.8l-4.8,2.8l4.8,2.8L284.5,236.8z M246.8,258.5l-4.8-2.8l-4.8,2.8l4.8,2.8
				L246.8,258.5z M296,243.3L213.4,291l4.8,2.8l82.6-47.7L296,243.3z M237.4,264l-4.8-2.8l-4.8,2.8l4.8,2.8L237.4,264z M292.2,236.1
				l-86.9,50.2l4.8,2.8l86.9-50.2L292.2,236.1z M315.7,241.3l-94.2,54.4l4.8,2.8l94.2-54.4L315.7,241.3z M218.5,274.9l-4.8-2.8
				l-4.8,2.8l4.8,2.8L218.5,274.9z M227.9,269.4l-4.8-2.8l-4.8,2.8l4.8,2.8L227.9,269.4z"/>
			<path class="st0" d="M270.3,239.9l4.4,2.6l0.4-0.2l-4.8-2.8l-4.8,2.8l0.4,0.2L270.3,239.9z M279.7,234.4l4.4,2.6l0.4-0.2
				l-4.8-2.8l-4.8,2.8l0.4,0.2L279.7,234.4z M260.8,245.3l4.4,2.6l0.4-0.2l-4.8-2.8l-4.8,2.8l0.4,0.2L260.8,245.3z M298,242.6
				l9.6-5.6l4.4,2.6l0.4-0.2l-4.8-2.8l-10,5.8L298,242.6z M251.4,250.8l4.4,2.6l0.4-0.2l-4.8-2.8l-4.8,2.8l0.4,0.2L251.4,250.8z
				 M299.5,232.3l4.4,2.6l0.4-0.2l-4.8-2.8l-4.8,2.8l0.4,0.2L299.5,232.3z M315.7,241.3l-94.2,54.4l0.4,0.2l93.9-54.2l4.4,2.6
				l0.4-0.2L315.7,241.3z M296.6,239.1l0.4-0.2l-4.8-2.8l-86.9,50.2l0.4,0.2l86.5-50L296.6,239.1z M213.7,272.5l4.4,2.6l0.4-0.2
				l-4.8-2.8l-4.8,2.8l0.4,0.2L213.7,272.5z M300.4,246.3l0.4-0.2l-4.8-2.8L213.4,291l0.4,0.2l82.2-47.5L300.4,246.3z M223.2,267.1
				l4.4,2.6l0.4-0.2l-4.8-2.8l-4.8,2.8l0.4,0.2L223.2,267.1z M242,256.2l4.4,2.6l0.4-0.2l-4.8-2.8l-4.8,2.8l0.4,0.2L242,256.2z
				 M232.6,261.6l4.4,2.6l0.4-0.2l-4.8-2.8l-4.8,2.8l0.4,0.2L232.6,261.6z"/>
			<path class="st48" d="M317.6,279.5l-28.2,16.3c-1.7,1-4.8,0.9-6.8-0.3l-6.2-3.6c-2-1.2-2.2-2.9-0.5-4l28.2-16.3
				c1.7-1,4.8-0.9,6.8,0.3l6.2,3.6C319.1,276.7,319.4,278.5,317.6,279.5z"/>
			<path class="st49" d="M275.9,288.8l28.2-16.3c1.7-1,4.8-0.9,6.8,0.3l6.2,3.6c0.9,0.5,1.4,1.2,1.6,1.8c0.2-0.9-0.3-1.9-1.6-2.7
				l-6.2-3.6c-2-1.2-5.1-1.3-6.8-0.3L275.9,288c-1,0.6-1.3,1.3-1.1,2.1C275,289.6,275.3,289.1,275.9,288.8z"/>
		</g>
		<g>
			<g>
				<path class="st0" d="M268.3,145v-3.2c0-2.8-2-3.9-4.4-2.5l-75,43.3c-2.4,1.4-4.4,4.8-4.4,7.6v3.2L268.3,145z"/>
				<g>
					<path class="st0" d="M192.3,184.8c0,1.1-0.8,2.5-1.8,3c-1,0.6-1.8,0.1-1.8-1c0-1.1,0.8-2.5,1.8-3
						C191.6,183.2,192.3,183.6,192.3,184.8z"/>
					<path class="st0" d="M198.5,181.2c0,1.1-0.8,2.5-1.8,3c-1,0.6-1.8,0.1-1.8-1c0-1.1,0.8-2.5,1.8-3
						C197.7,179.6,198.5,180.1,198.5,181.2z"/>
					<path class="st0" d="M204.7,177.6c0,1.1-0.8,2.5-1.8,3c-1,0.6-1.8,0.1-1.8-1c0-1.1,0.8-2.5,1.8-3
						C203.9,176.1,204.7,176.5,204.7,177.6z"/>
				</g>
				<polygon class="st30" points="197.9,201.4 184.6,209 184.6,197 197.9,189.3 				"/>
				<polygon class="st27" points="214.4,191.8 201.2,199.5 201.2,187.4 214.4,179.8 				"/>
				<polygon class="st24" points="231,182.2 217.7,189.9 217.7,177.8 231,170.2 				"/>
				<linearGradient id="SVGID_23_" gradientUnits="userSpaceOnUse" x1="235.5595" y1="168.889" x2="268.3224" y2="168.889">
					<stop  offset="0" style="stop-color:#FCFDFF;stop-opacity:0"/>
					<stop  offset="0.1209" style="stop-color:#FCFAD7;stop-opacity:0.121"/>
					<stop  offset="0.3661" style="stop-color:#FDF58C;stop-opacity:0.3663"/>
					<stop  offset="0.5853" style="stop-color:#FEF150;stop-opacity:0.5857"/>
					<stop  offset="0.7704" style="stop-color:#FFEE24;stop-opacity:0.771"/>
					<stop  offset="0.9143" style="stop-color:#FFED0A;stop-opacity:0.9149"/>
					<stop  offset="0.9993" style="stop-color:#FFEC00"/>
				</linearGradient>
				<polygon class="st51" points="235.6,179.6 268.3,160.7 268.3,158.2 235.6,177.1 				"/>
				<linearGradient id="SVGID_24_" gradientUnits="userSpaceOnUse" x1="235.5595" y1="164.1295" x2="268.3224" y2="164.1295">
					<stop  offset="0" style="stop-color:#FCFDFF;stop-opacity:0"/>
					<stop  offset="0.1209" style="stop-color:#FCFAD7;stop-opacity:0.121"/>
					<stop  offset="0.3661" style="stop-color:#FDF58C;stop-opacity:0.3663"/>
					<stop  offset="0.5853" style="stop-color:#FEF150;stop-opacity:0.5857"/>
					<stop  offset="0.7704" style="stop-color:#FFEE24;stop-opacity:0.771"/>
					<stop  offset="0.9143" style="stop-color:#FFED0A;stop-opacity:0.9149"/>
					<stop  offset="0.9993" style="stop-color:#FFEC00"/>
				</linearGradient>
				<polygon class="st52" points="235.6,174.9 268.3,155.9 268.3,153.4 235.6,172.3 				"/>
				<linearGradient id="SVGID_25_" gradientUnits="userSpaceOnUse" x1="235.5595" y1="159.3701" x2="268.3224" y2="159.3701">
					<stop  offset="0" style="stop-color:#FCFDFF;stop-opacity:0"/>
					<stop  offset="0.1209" style="stop-color:#FCFAD7;stop-opacity:0.121"/>
					<stop  offset="0.3661" style="stop-color:#FDF58C;stop-opacity:0.3663"/>
					<stop  offset="0.5853" style="stop-color:#FEF150;stop-opacity:0.5857"/>
					<stop  offset="0.7704" style="stop-color:#FFEE24;stop-opacity:0.771"/>
					<stop  offset="0.9143" style="stop-color:#FFED0A;stop-opacity:0.9149"/>
					<stop  offset="0.9993" style="stop-color:#FFEC00"/>
				</linearGradient>
				<polygon class="st53" points="235.6,170.1 268.3,151.2 268.3,148.6 235.6,167.6 				"/>
				<path class="st0" d="M265.4,188.2l-77.9,45c-1.6,0.9-2.9-0.1-2.9-2.2v-14.5c0-2.1,1.3-4.6,2.9-5.5l77.9-45
					c1.6-0.9,2.9,0.1,2.9,2.2v14.5C268.3,184.9,267,187.3,265.4,188.2z"/>
				<g>
					<polygon class="st30" points="218.8,211.9 208.7,217.8 208.7,205.2 218.8,199.3 					"/>
					<polygon class="st24" points="231.6,204.6 221.4,210.4 221.4,199.9 231.6,194 					"/>
					<polygon class="st27" points="244.3,197.2 234.1,203.1 234.1,187.7 244.3,181.8 					"/>
				</g>
				<linearGradient id="SVGID_26_" gradientUnits="userSpaceOnUse" x1="246.0187" y1="194.1364" x2="270.9511" y2="178.8133">
					<stop  offset="0" style="stop-color:#FCFDFF;stop-opacity:0"/>
					<stop  offset="0.2768" style="stop-color:#FDB2C9;stop-opacity:0.277"/>
					<stop  offset="0.5268" style="stop-color:#FE779D;stop-opacity:0.5272"/>
					<stop  offset="0.7381" style="stop-color:#FE4B7E;stop-opacity:0.7386"/>
					<stop  offset="0.9023" style="stop-color:#FF316A;stop-opacity:0.9029"/>
					<stop  offset="0.9993" style="stop-color:#FF2763"/>
				</linearGradient>
				<polygon class="st54" points="262.6,185.1 265.4,183.6 265.4,181 262.6,182.6 				"/>
				<linearGradient id="SVGID_27_" gradientUnits="userSpaceOnUse" x1="243.8955" y1="190.6818" x2="268.828" y2="175.3587">
					<stop  offset="0" style="stop-color:#FCFDFF;stop-opacity:0"/>
					<stop  offset="0.2768" style="stop-color:#FDB2C9;stop-opacity:0.277"/>
					<stop  offset="0.5268" style="stop-color:#FE779D;stop-opacity:0.5272"/>
					<stop  offset="0.7381" style="stop-color:#FE4B7E;stop-opacity:0.7386"/>
					<stop  offset="0.9023" style="stop-color:#FF316A;stop-opacity:0.9029"/>
					<stop  offset="0.9993" style="stop-color:#FF2763"/>
				</linearGradient>
				<polygon class="st55" points="262.6,180.4 265.4,178.8 265.4,176.3 262.6,177.8 				"/>
				<linearGradient id="SVGID_28_" gradientUnits="userSpaceOnUse" x1="241.7724" y1="187.2271" x2="266.7048" y2="171.904">
					<stop  offset="0" style="stop-color:#FCFDFF;stop-opacity:0"/>
					<stop  offset="0.2768" style="stop-color:#FDB2C9;stop-opacity:0.277"/>
					<stop  offset="0.5268" style="stop-color:#FE779D;stop-opacity:0.5272"/>
					<stop  offset="0.7381" style="stop-color:#FE4B7E;stop-opacity:0.7386"/>
					<stop  offset="0.9023" style="stop-color:#FF316A;stop-opacity:0.9029"/>
					<stop  offset="0.9993" style="stop-color:#FF2763"/>
				</linearGradient>
				<polygon class="st56" points="262.6,175.6 265.4,174 265.4,171.5 262.6,173.1 				"/>
				<linearGradient id="SVGID_29_" gradientUnits="userSpaceOnUse" x1="245.8564" y1="193.8724" x2="270.7889" y2="178.5493">
					<stop  offset="0" style="stop-color:#FCFDFF;stop-opacity:0"/>
					<stop  offset="0.2768" style="stop-color:#FDB2C9;stop-opacity:0.277"/>
					<stop  offset="0.5268" style="stop-color:#FE779D;stop-opacity:0.5272"/>
					<stop  offset="0.7381" style="stop-color:#FE4B7E;stop-opacity:0.7386"/>
					<stop  offset="0.9023" style="stop-color:#FF316A;stop-opacity:0.9029"/>
					<stop  offset="0.9993" style="stop-color:#FF2763"/>
				</linearGradient>
				<polygon class="st57" points="247.2,194.1 261.3,185.9 261.3,183.4 247.2,191.5 				"/>
				<linearGradient id="SVGID_30_" gradientUnits="userSpaceOnUse" x1="243.7333" y1="190.4178" x2="268.6658" y2="175.0947">
					<stop  offset="0" style="stop-color:#FCFDFF;stop-opacity:0"/>
					<stop  offset="0.2768" style="stop-color:#FDB2C9;stop-opacity:0.277"/>
					<stop  offset="0.5268" style="stop-color:#FE779D;stop-opacity:0.5272"/>
					<stop  offset="0.7381" style="stop-color:#FE4B7E;stop-opacity:0.7386"/>
					<stop  offset="0.9023" style="stop-color:#FF316A;stop-opacity:0.9029"/>
					<stop  offset="0.9993" style="stop-color:#FF2763"/>
				</linearGradient>
				<polygon class="st58" points="247.2,189.3 261.3,181.1 261.3,178.6 247.2,186.8 				"/>
				<linearGradient id="SVGID_31_" gradientUnits="userSpaceOnUse" x1="241.6101" y1="186.9632" x2="266.5426" y2="171.6401">
					<stop  offset="0" style="stop-color:#FCFDFF;stop-opacity:0"/>
					<stop  offset="0.2768" style="stop-color:#FDB2C9;stop-opacity:0.277"/>
					<stop  offset="0.5268" style="stop-color:#FE779D;stop-opacity:0.5272"/>
					<stop  offset="0.7381" style="stop-color:#FE4B7E;stop-opacity:0.7386"/>
					<stop  offset="0.9023" style="stop-color:#FF316A;stop-opacity:0.9029"/>
					<stop  offset="0.9993" style="stop-color:#FF2763"/>
				</linearGradient>
				<polygon class="st59" points="247.2,184.5 261.3,176.4 261.3,173.8 247.2,182 				"/>
				<linearGradient id="SVGID_32_" gradientUnits="userSpaceOnUse" x1="208.6399" y1="203.555" x2="180.4385" y2="222.6745">
					<stop  offset="0" style="stop-color:#FCFDFF;stop-opacity:0"/>
					<stop  offset="0.1209" style="stop-color:#FCFAD7;stop-opacity:0.121"/>
					<stop  offset="0.3661" style="stop-color:#FDF58C;stop-opacity:0.3663"/>
					<stop  offset="0.5853" style="stop-color:#FEF150;stop-opacity:0.5857"/>
					<stop  offset="0.7704" style="stop-color:#FFEE24;stop-opacity:0.771"/>
					<stop  offset="0.9143" style="stop-color:#FFED0A;stop-opacity:0.9149"/>
					<stop  offset="0.9993" style="stop-color:#FFEC00"/>
				</linearGradient>
				<polygon class="st60" points="190.4,214.8 187.7,216.4 187.7,218.9 190.4,217.3 				"/>
				<linearGradient id="SVGID_33_" gradientUnits="userSpaceOnUse" x1="210.8505" y1="206.8157" x2="182.6492" y2="225.9352">
					<stop  offset="0" style="stop-color:#FCFDFF;stop-opacity:0"/>
					<stop  offset="0.1209" style="stop-color:#FCFAD7;stop-opacity:0.121"/>
					<stop  offset="0.3661" style="stop-color:#FDF58C;stop-opacity:0.3663"/>
					<stop  offset="0.5853" style="stop-color:#FEF150;stop-opacity:0.5857"/>
					<stop  offset="0.7704" style="stop-color:#FFEE24;stop-opacity:0.771"/>
					<stop  offset="0.9143" style="stop-color:#FFED0A;stop-opacity:0.9149"/>
					<stop  offset="0.9993" style="stop-color:#FFEC00"/>
				</linearGradient>
				<polygon class="st61" points="190.4,219.6 187.7,221.1 187.7,223.7 190.4,222.1 				"/>
				<linearGradient id="SVGID_34_" gradientUnits="userSpaceOnUse" x1="213.0612" y1="210.0764" x2="184.8599" y2="229.196">
					<stop  offset="0" style="stop-color:#FCFDFF;stop-opacity:0"/>
					<stop  offset="0.1209" style="stop-color:#FCFAD7;stop-opacity:0.121"/>
					<stop  offset="0.3661" style="stop-color:#FDF58C;stop-opacity:0.3663"/>
					<stop  offset="0.5853" style="stop-color:#FEF150;stop-opacity:0.5857"/>
					<stop  offset="0.7704" style="stop-color:#FFEE24;stop-opacity:0.771"/>
					<stop  offset="0.9143" style="stop-color:#FFED0A;stop-opacity:0.9149"/>
					<stop  offset="0.9993" style="stop-color:#FFEC00"/>
				</linearGradient>
				<polygon class="st62" points="190.4,224.3 187.7,225.9 187.7,228.4 190.4,226.8 				"/>
				<linearGradient id="SVGID_35_" gradientUnits="userSpaceOnUse" x1="209.0963" y1="204.2282" x2="180.895" y2="223.3477">
					<stop  offset="0" style="stop-color:#FCFDFF;stop-opacity:0"/>
					<stop  offset="0.1209" style="stop-color:#FCFAD7;stop-opacity:0.121"/>
					<stop  offset="0.3661" style="stop-color:#FDF58C;stop-opacity:0.3663"/>
					<stop  offset="0.5853" style="stop-color:#FEF150;stop-opacity:0.5857"/>
					<stop  offset="0.7704" style="stop-color:#FFEE24;stop-opacity:0.771"/>
					<stop  offset="0.9143" style="stop-color:#FFED0A;stop-opacity:0.9149"/>
					<stop  offset="0.9993" style="stop-color:#FFEC00"/>
				</linearGradient>
				<polygon class="st63" points="205.9,205.9 191.7,214 191.7,216.6 205.9,208.4 				"/>
				<linearGradient id="SVGID_36_" gradientUnits="userSpaceOnUse" x1="211.307" y1="207.489" x2="183.1057" y2="226.6085">
					<stop  offset="0" style="stop-color:#FCFDFF;stop-opacity:0"/>
					<stop  offset="0.1209" style="stop-color:#FCFAD7;stop-opacity:0.121"/>
					<stop  offset="0.3661" style="stop-color:#FDF58C;stop-opacity:0.3663"/>
					<stop  offset="0.5853" style="stop-color:#FEF150;stop-opacity:0.5857"/>
					<stop  offset="0.7704" style="stop-color:#FFEE24;stop-opacity:0.771"/>
					<stop  offset="0.9143" style="stop-color:#FFED0A;stop-opacity:0.9149"/>
					<stop  offset="0.9993" style="stop-color:#FFEC00"/>
				</linearGradient>
				<polygon class="st64" points="205.9,210.6 191.7,218.8 191.7,221.3 205.9,213.1 				"/>
				<linearGradient id="SVGID_37_" gradientUnits="userSpaceOnUse" x1="213.5177" y1="210.7497" x2="185.3163" y2="229.8692">
					<stop  offset="0" style="stop-color:#FCFDFF;stop-opacity:0"/>
					<stop  offset="0.1209" style="stop-color:#FCFAD7;stop-opacity:0.121"/>
					<stop  offset="0.3661" style="stop-color:#FDF58C;stop-opacity:0.3663"/>
					<stop  offset="0.5853" style="stop-color:#FEF150;stop-opacity:0.5857"/>
					<stop  offset="0.7704" style="stop-color:#FFEE24;stop-opacity:0.771"/>
					<stop  offset="0.9143" style="stop-color:#FFED0A;stop-opacity:0.9149"/>
					<stop  offset="0.9993" style="stop-color:#FFEC00"/>
				</linearGradient>
				<polygon class="st65" points="205.9,215.4 191.7,223.5 191.7,226.1 205.9,217.9 				"/>
			</g>
			<path class="st0" d="M262.7,202.1l-71.3,41.2c-1.5,0.9-2.7-0.1-2.7-2l0,0c0-2,1.2-4.3,2.7-5.1l71.3-41.2c1.5-0.9,2.7,0.1,2.7,2
				l0,0C265.4,198.9,264.2,201.3,262.7,202.1z"/>
		</g>
	</g>
	<g>
		<g>
			<linearGradient id="SVGID_38_" gradientUnits="userSpaceOnUse" x1="195.1891" y1="166.3411" x2="119.1003" y2="300.1711">
				<stop  offset="0" style="stop-color:#E4F2FF"/>
				<stop  offset="0.3075" style="stop-color:#D7E6FD;stop-opacity:0.6923"/>
				<stop  offset="0.9993" style="stop-color:#BDCEFA;stop-opacity:0"/>
			</linearGradient>
			<path class="st66" d="M188.5,255.1l-67.6,39c-2.1,1.2-3.8-0.1-3.8-2.9v-63.9c0-2.8,1.7-6.1,3.8-7.3l67.6-39
				c2.1-1.2,3.8,0.1,3.8,2.9v63.9C192.3,250.7,190.6,253.9,188.5,255.1z"/>
			<g>
				<linearGradient id="SVGID_39_" gradientUnits="userSpaceOnUse" x1="201.062" y1="184.8929" x2="147.2034" y2="277.3213">
					<stop  offset="0" style="stop-color:#E4F2FF"/>
					<stop  offset="5.554383e-02" style="stop-color:#E1EFFF"/>
					<stop  offset="0.6478" style="stop-color:#C7D7FB"/>
					<stop  offset="0.9993" style="stop-color:#BDCEFA"/>
				</linearGradient>
				<polygon class="st67" points="186.4,248.6 122.9,285.2 122.9,280.5 186.4,243.8 				"/>
				<linearGradient id="SVGID_40_" gradientUnits="userSpaceOnUse" x1="186.4814" y1="176.3967" x2="132.6228" y2="268.8251">
					<stop  offset="0" style="stop-color:#E4F2FF"/>
					<stop  offset="5.554383e-02" style="stop-color:#E1EFFF"/>
					<stop  offset="0.6478" style="stop-color:#C7D7FB"/>
					<stop  offset="0.9993" style="stop-color:#BDCEFA"/>
				</linearGradient>
				<path class="st68" d="M174.3,219.7c0,12.5-8.8,27.7-19.6,34c-10.8,6.3-19.6,1.2-19.6-11.3c0-12.5,8.8-27.7,19.6-34
					S174.3,207.2,174.3,219.7z"/>
			</g>
		</g>
		<g>
			<linearGradient id="SVGID_41_" gradientUnits="userSpaceOnUse" x1="328.7641" y1="73.3028" x2="266.974" y2="201.8658">
				<stop  offset="0" style="stop-color:#E4F2FF"/>
				<stop  offset="0.3075" style="stop-color:#D7E6FD;stop-opacity:0.6923"/>
				<stop  offset="0.9993" style="stop-color:#BDCEFA;stop-opacity:0"/>
			</linearGradient>
			<path class="st69" d="M327.3,157.1l-67.6,39c-2.1,1.2-3.8-0.1-3.8-2.9v-49.9c0-2.8,1.7-6.1,3.8-7.3l67.6-39
				c2.1-1.2,3.8,0.1,3.8,2.9v49.9C331.1,152.7,329.4,155.9,327.3,157.1z"/>
			<g>
				<linearGradient id="SVGID_42_" gradientUnits="userSpaceOnUse" x1="341.1238" y1="122.615" x2="258.7181" y2="195.3775">
					<stop  offset="0" style="stop-color:#E4F2FF"/>
					<stop  offset="5.554383e-02" style="stop-color:#E1EFFF"/>
					<stop  offset="0.6478" style="stop-color:#C7D7FB"/>
					<stop  offset="0.9993" style="stop-color:#BDCEFA"/>
				</linearGradient>
				<polygon class="st70" points="325.2,148.7 261.8,185.4 261.8,180.6 325.2,144 				"/>
				<linearGradient id="SVGID_43_" gradientUnits="userSpaceOnUse" x1="336.2868" y1="117.137" x2="253.8811" y2="189.8995">
					<stop  offset="0" style="stop-color:#E4F2FF"/>
					<stop  offset="5.554383e-02" style="stop-color:#E1EFFF"/>
					<stop  offset="0.6478" style="stop-color:#C7D7FB"/>
					<stop  offset="0.9993" style="stop-color:#BDCEFA"/>
				</linearGradient>
				<polygon class="st71" points="325.2,139 261.8,175.6 261.8,170.8 325.2,134.2 				"/>
				<g>
					<linearGradient id="SVGID_44_" gradientUnits="userSpaceOnUse" x1="323.6131" y1="102.7836" x2="241.2076" y2="175.5459">
						<stop  offset="0" style="stop-color:#E4F2FF"/>
						<stop  offset="5.554383e-02" style="stop-color:#E1EFFF"/>
						<stop  offset="0.6478" style="stop-color:#C7D7FB"/>
						<stop  offset="0.9993" style="stop-color:#BDCEFA"/>
					</linearGradient>
					<polygon class="st72" points="280.1,153.6 263.1,163.5 263.1,143.8 280.1,134 					"/>
					<linearGradient id="SVGID_45_" gradientUnits="userSpaceOnUse" x1="326.9376" y1="106.5487" x2="244.5321" y2="179.3109">
						<stop  offset="0" style="stop-color:#E4F2FF"/>
						<stop  offset="5.554383e-02" style="stop-color:#E1EFFF"/>
						<stop  offset="0.6478" style="stop-color:#C7D7FB"/>
						<stop  offset="0.9993" style="stop-color:#BDCEFA"/>
					</linearGradient>
					<polygon class="st73" points="302,141 285,150.8 285,131.1 302,121.3 					"/>
					<linearGradient id="SVGID_46_" gradientUnits="userSpaceOnUse" x1="330.2621" y1="110.3137" x2="247.8564" y2="183.0761">
						<stop  offset="0" style="stop-color:#E4F2FF"/>
						<stop  offset="5.554383e-02" style="stop-color:#E1EFFF"/>
						<stop  offset="0.6478" style="stop-color:#C7D7FB"/>
						<stop  offset="0.9993" style="stop-color:#BDCEFA"/>
					</linearGradient>
					<polygon class="st74" points="324,128.3 306.9,138.2 306.9,118.5 324,108.6 					"/>
				</g>
			</g>
		</g>
	</g>
	<g>
		<g>
			<path class="st7" d="M137.1,375.3l-36.3,21c-2.6,1.5-7.3,1.3-10.4-0.4l-34.8-20.1c-3.1-1.8-3.4-4.5-0.7-6l36.3-21
				c2.6-1.5,7.3-1.3,10.4,0.4l34.8,20.1C139.4,371.1,139.8,373.8,137.1,375.3z"/>
			<g>
				<linearGradient id="SVGID_47_" gradientUnits="userSpaceOnUse" x1="140.9032" y1="371.5236" x2="57.4985" y2="539.6465">
					<stop  offset="0" style="stop-color:#E4F2FF"/>
					<stop  offset="5.554383e-02" style="stop-color:#E1EFFF"/>
					<stop  offset="0.6478" style="stop-color:#C7D7FB"/>
					<stop  offset="0.9993" style="stop-color:#BDCEFA"/>
				</linearGradient>
				<path class="st75" d="M138.8,439.3v-66.1l0,0v0c-0.2,0.8-0.7,1.5-1.7,2.1l-36.3,21c-1.3,0.7-3,1.1-4.8,1v67c1.8,0,3.5-0.3,4.8-1
					l36.3-21C138.5,441.5,139.1,440.4,138.8,439.3z"/>
				<linearGradient id="SVGID_48_" gradientUnits="userSpaceOnUse" x1="130.7607" y1="338.9843" x2="55.2026" y2="446.0251">
					<stop  offset="0" style="stop-color:#E4F2FF"/>
					<stop  offset="5.554383e-02" style="stop-color:#E1EFFF"/>
					<stop  offset="0.6478" style="stop-color:#C7D7FB"/>
					<stop  offset="0.9993" style="stop-color:#BDCEFA"/>
				</linearGradient>
				<path class="st76" d="M90.5,395.9l-34.8-20.1c-1.5-0.8-2.3-1.9-2.5-2.9v66.1c-0.3,1.3,0.6,2.8,2.5,3.9l34.8,20.1
					c1.6,0.9,3.6,1.4,5.6,1.4v-67C94.1,397.3,92,396.8,90.5,395.9z"/>
			</g>
		</g>
		<g>
			<ellipse transform="matrix(0.866 -0.5 0.5 0.866 -164.8375 90.3988)" class="st77" cx="86.3" cy="352.8" rx="19.9" ry="34.5"/>
			<ellipse transform="matrix(0.866 -0.5 0.5 0.866 -164.8376 90.399)" class="st78" cx="86.3" cy="352.8" rx="17.9" ry="31"/>
			<g>
				<path class="st12" d="M98.9,317.3c-6.8-3.9-12.9-4.3-17.3-1.7l-12.5,7.2l0,0c4.4-2.5,10.5-2.1,17.2,1.7
					c13.5,7.8,24.4,26.7,24.4,42.2c0,7.7-2.7,13.2-7.1,15.7l0,0l12.5-7.2c4.4-2.5,7.2-8,7.2-15.8C123.3,344,112.4,325.1,98.9,317.3z
					"/>
			</g>
			<g>
				<path class="st0" d="M80.1,357.6c1,0,2.1,0.3,3.2,0.6c0.1,0,0.2,0.1,0.3,0.1c0.7,0.2,1.3,0.5,2,0.9v-6.1l-6.6-3.8
					C79.2,352.1,79.5,354.9,80.1,357.6z"/>
				<path class="st0" d="M93,347c0.1,0,0.3,0,0.4,0c0.1,0,0.2,0,0.3,0c0.8-0.1,1.5-0.2,2.2-0.5c-1.7-2.8-3.6-5.2-5.8-7.1
					c0.7,1.2,1.3,2.6,1.9,4.2C92.4,344.7,92.7,345.9,93,347z"/>
				<path class="st0" d="M84.5,335.6c-1.2,0-2.3,0.8-3.2,2.4c-0.3,0.5-0.6,1.2-0.9,1.9c1,1.1,2,2.1,3.1,3c0.1,0.1,0.2,0.2,0.3,0.2
					c0.6,0.5,1.2,0.9,1.9,1.4v-8.3c-0.1-0.1-0.1,0-0.1-0.1C85.2,336,84.9,335.8,84.5,335.6z"/>
				<path class="st0" d="M83.5,359.5c-1.1-0.4-2.1-0.5-3.1-0.6c0.3,1,0.5,1.9,0.9,2.8c0.9,2.6,2,4.8,3.2,6.2
					c0.4,0.3,0.7,0.5,1.1,0.7c0,0,0,0,0.1,0.1v-8.3c-0.7-0.3-1.3-0.6-1.9-0.8C83.7,359.5,83.6,359.5,83.5,359.5z"/>
				<path class="st0" d="M83.3,344c-1.1-0.9-2.2-2-3.2-3.1c-0.6,2-0.9,4.5-1,7.2l6.6,3.8v-6.1c-0.8-0.5-1.4-0.9-2-1.5
					C83.6,344.2,83.5,344.1,83.3,344z"/>
				<path class="st0" d="M79.3,340c-0.2-0.2-0.4-0.4-0.5-0.6c-0.1-0.1-0.2-0.2-0.3-0.4c-0.8-1.1-1.6-2.2-2.3-3.3
					c-2.5,1.5-3.9,4.4-4,8.4l6.1,3.5C78.3,344.6,78.7,342.1,79.3,340z"/>
				<path class="st0" d="M79.6,358.9c-0.1,0-0.2,0-0.4,0c-0.1,0-0.2,0-0.3,0c-0.7,0.1-1.4,0.3-2.1,0.6c1.6,2.5,3.4,4.8,5.5,6.6
					c-0.7-1.2-1.3-2.6-1.9-4.2C80.2,361,79.9,360,79.6,358.9z"/>
				<path class="st0" d="M78.8,357.6c0.2,0,0.3,0,0.5,0c-0.6-2.8-1-5.8-1-8.8l-6.1-3.5c0.1,4.3,1.6,8.9,4,13
					c0.7-0.3,1.5-0.6,2.3-0.7C78.6,357.6,78.7,357.6,78.8,357.6z"/>
				<path class="st0" d="M79.3,338.5c0.1,0.2,0.2,0.3,0.4,0.4c0.3-0.7,0.6-1.4,0.9-2c0.6-0.9,1.2-1.6,1.9-2.1
					c-2-0.5-3.9-0.4-5.5,0.3c0.6,1,1.3,2,2.1,3C79.1,338.3,79.2,338.4,79.3,338.5z"/>
				<path class="st0" d="M93.3,365.3c0.2,0.2,0.4,0.4,0.5,0.7c0.1,0.1,0.2,0.2,0.3,0.4c0.9,1.1,1.7,2.2,2.5,3.5
					c2.2-1.5,3.6-4.3,3.7-8.2l-6.1-3.5C94.2,360.8,93.9,363.3,93.3,365.3z"/>
				<path class="st0" d="M89,346.2c1.1,0.4,2.2,0.7,3.2,0.8c-0.3-1.1-0.6-2.2-0.9-3.2c-0.9-2.6-2-4.8-3.3-6.2
					c-0.4-0.3-0.7-0.5-1.1-0.7c0,0-0.1-0.1-0.1-0.1v8.4c0.7,0.4,1.3,0.7,1.9,0.9C88.8,346.2,88.9,346.2,89,346.2z"/>
				<path class="st0" d="M93.4,366.8c-0.1-0.2-0.3-0.3-0.4-0.5c-0.3,0.8-0.6,1.6-1,2.3c-0.6,0.9-1.2,1.6-1.9,2.1
					c2.2,0.6,4.2,0.4,5.8-0.4c-0.7-1.1-1.5-2.1-2.2-3.1C93.6,367,93.5,366.9,93.4,366.8z"/>
				<path class="st0" d="M94.1,348.3c-0.1,0-0.2,0-0.3,0c-0.2,0-0.4,0-0.5,0c0.6,2.7,0.9,5.7,0.9,8.4l6.1,3.5
					c-0.1-3.9-1.4-8.4-3.7-12.6C95.9,348.1,95,348.3,94.1,348.3z"/>
				<path class="st0" d="M92.5,348.3c-1.1-0.1-2.2-0.4-3.3-0.8c-0.1,0-0.2-0.1-0.3-0.1c-0.7-0.3-1.4-0.6-2.1-1v6.1l6.6,3.8
					C93.4,353.6,93,350.9,92.5,348.3z"/>
				<path class="st0" d="M89.2,361.4c1.1,0.9,2.3,1.9,3.3,3c0.5-1.9,0.8-4.3,0.9-6.9l-6.6-3.8v6.1c0.7,0.4,1.4,0.9,2.1,1.4
					C89,361.3,89.1,361.3,89.2,361.4z"/>
				<path class="st0" d="M92.2,365.4c-1-1.1-2.1-2.1-3.2-2.9c-0.1-0.1-0.2-0.2-0.3-0.2c-0.6-0.5-1.3-0.9-1.9-1.3v8.4
					c0,0,0.1,0.1,0.1,0.1c0.4,0.2,0.7,0.4,1.1,0.5c1.2,0,2.3-0.8,3.3-2.4C91.6,366.9,91.9,366.2,92.2,365.4z"/>
			</g>
		</g>
	</g>
	<g>
		<g>
			<g>
				<g>
					<g>
						<path class="st37" d="M361,337.2c-0.3,0.1-0.4,0.5-0.5,1c0,0.2,1.6-0.9,1.5-0.4c0,0.2-1.2,7.8,1.3,10.3
							c0.3,0.3,0.6,0.2,0.9,0.1l0.7-0.4c0.8-0.4,1.3-2.1,2-4.8c0.8-2.9,1.2-4.7-2-6.6c-0.9-0.5-1.4-0.7-1.7-0.5L361,337.2z"/>
						<path class="st38" d="M366.9,343.1c-0.9,3.5-1.5,5.5-2.9,4.7c-1.3-0.8-1.6-3.7-1.2-7.1c0.4-3-1.1-6.1,2.1-4.2
							C368.1,338.4,367.7,340.2,366.9,343.1z"/>
					</g>
				</g>
				<path class="st40" d="M387.5,320.7l-6.6,2.4l-2.7,3c0,0-4.7,2-8.4,5.9c0,0-1.4,2.1-6.1,4.4c0,0,0,3.3,2.9,3.8l18.7-10.8
					c1.3-0.8,2.2-2.1,2.3-3.6C387.8,324.7,387.8,323,387.5,320.7z"/>
			</g>
		</g>
		<g>
			<g>
				<g>
					<path class="st79" d="M373.7,353.7c0,0.3,0.2,0.6,0.7,0.9c0.1,0.1,0-1.8,0.4-1.5c0.1,0.1,6.2,4.8,9.6,4
						c0.4-0.1,0.5-0.4,0.5-0.7l0-0.8c0-0.9-1.2-2.2-3.2-4.1c-2.1-2.1-3.5-3.4-6.7-1.5c-0.9,0.5-1.3,0.9-1.3,1.3L373.7,353.7z"/>
					<path class="st38" d="M381.8,351.5c2.6,2.5,4,4,2.7,4.8c-1.3,0.8-4-0.4-6.7-2.5c-2.4-1.8-5.9-2-2.7-3.9
						C378.2,348.1,379.6,349.4,381.8,351.5z"/>
				</g>
			</g>
			<path class="st39" d="M379.2,350.3L379,327l-6.3,2.1l-0.1,4.3c0,0-0.6,5.1,1,10.2c0,0,1.1,2.2,0.9,7.5
				C374.4,351,377.3,352.6,379.2,350.3z"/>
		</g>
		<g>
			<path class="st40" d="M396.4,317.6L396.4,317.6c-1.3,0.6-2.8,0-3.3-1.3l-10-22.1c-0.6-1.3,0-2.8,1.3-3.3l0,0
				c1.3-0.6,2.8,0,3.3,1.3l10,22.1C398.3,315.5,397.7,317.1,396.4,317.6z"/>
		</g>
		<g>
			<linearGradient id="SVGID_49_" gradientUnits="userSpaceOnUse" x1="399.4011" y1="308.1033" x2="380.1291" y2="300.5825">
				<stop  offset="0" style="stop-color:#E8E9FF"/>
				<stop  offset="0.9996" style="stop-color:#C0C0F6"/>
			</linearGradient>
			<polygon class="st80" points="397.4,315.1 381.7,306.1 381.7,293.4 397.4,302.5 			"/>
			<g>
				<polygon class="st81" points="393.5,311.7 393.5,302.1 393.9,302.3 393.9,311.9 				"/>
				<polygon class="st81" points="392.8,308.4 392.8,301.7 393.1,301.9 393.1,308.6 				"/>
				<polygon class="st81" points="392,310.1 392,301.2 392.4,301.4 392.4,310.3 				"/>
				<polygon class="st81" points="391.3,310.4 391.3,300.8 391.6,301 391.6,310.6 				"/>
				<polygon class="st81" points="390.5,303.9 390.5,300.3 390.8,300.5 390.8,304.1 				"/>
			</g>
		</g>
		<path class="st27" d="M368.5,321.5v8.6c0,0,10.1,3.4,19.6-8.6v-8.3L368.5,321.5z"/>
		<path class="st82" d="M373.1,324.2c0.1,0.1,0.2,0.1,0.3,0.1c1.7,0.1,7.8-1.2,13.9-8.1c0.5-0.6,0.8-1.3,0.8-2v-19.5
			c0-1.5-0.5-2.5-1.4-3l-4.6-2.7c-0.8-0.5-2-0.4-3.3,0.3l-6.2,3.6c-2.5,1.5-4.6,5-4.6,7.9v19.6c0,0.5,0.2,0.8,0.4,0.9L373.1,324.2z"
			/>
		<path class="st42" d="M374.9,294.3c0,0.5,0.3,1,0.9,1.3c1.3,0.7,3.3,0.7,4.6,0c0.6-0.4,1-0.9,0.9-1.3V290c0-0.5-0.3-1-0.9-1.3
			c-1.3-0.7-3.3-0.7-4.6,0c-0.6,0.4-1,0.9-0.9,1.3V294.3z"/>
		<g>
			<path class="st36" d="M357.6,322.1L357.6,322.1c-1.2-0.6-1.7-2.2-1.1-3.4l11-21.8c0.6-1.2,2.2-1.7,3.4-1.1l0,0
				c1.2,0.6,1.7,2.2,1.1,3.4L361,321C360.4,322.3,358.9,322.8,357.6,322.1z"/>
		</g>
		<g>
			<path class="st83" d="M386.3,280.9l3.2,12.4c0.3,1.2-0.9,2.2-2,1.7l-7.3-3.1c-0.6-0.3-1-0.9-0.9-1.6l2.4-12.2
				c0.3-1.3,2-1.6,2.7-0.5l1.7,2.9C386.2,280.6,386.3,280.7,386.3,280.9z"/>
			<path class="st36" d="M375.1,288.3c0,1.1-0.7,1.5-1.7,1c-0.9-0.5-1.7-1.8-1.7-2.9c0-1.1,0.7-1.5,1.7-1
				C374.4,285.9,375.1,287.2,375.1,288.3z"/>
			<circle class="st36" cx="378.1" cy="283.2" r="8.9"/>
			<path class="st83" d="M369.4,284.4c0,0,7.5,4.1,11.2-6.6c0,0,2,4.5,6.8,3.5c0,0,0-7-7.3-8.4C380.2,272.9,367.3,271.6,369.4,284.4
				z"/>
			<path class="st83" d="M373.6,284.8l3.2,12.4c0.3,1.2-0.9,2.2-2,1.7l-7.3-3.1c-0.6-0.3-1-0.9-0.9-1.6L369,282
				c0.3-1.3,2-1.6,2.7-0.5l1.7,2.9C373.5,284.5,373.5,284.6,373.6,284.8z"/>
		</g>
	</g>
	<g>
		<g>
			<path d="M302.6,322.8c-0.1,1,1.5,2.5,3.9,3.9c3.2,1.8,4.3,4.1,8.2,1.9c1.1-0.6,1.6-1.2,1.6-1.6v-2.4c0.1-1.1-2.6-1.8-4.9-3.2
				c-3.2-1.8-6.6-2.8-8.2-1.9c-0.4,0.2-0.6,0.5-0.6,0.9V322.8z"/>
			<path class="st79" d="M306.5,324.2c-3.2-1.8-4.9-3.8-3.3-4.7c1.6-0.9,5,0.1,8.2,1.9c3.2,1.8,7.2,2.5,3.3,4.7
				C310.8,328.3,309.6,326,306.5,324.2z"/>
		</g>
		<g>
			<path d="M311.4,316.7c-0.1,1,1.5,2.5,3.9,3.9c3.2,1.8,4.3,4.1,8.2,1.9c1.1-0.6,1.6-1.2,1.6-1.6v-2.4c0.1-1.1-2.6-1.8-4.9-3.2
				c-3.2-1.8-6.6-2.8-8.2-1.9c-0.4,0.2-0.6,0.5-0.6,0.9V316.7z"/>
			<path class="st79" d="M315.3,318.1c-3.2-1.8-4.9-3.8-3.3-4.7c1.6-0.9,5,0.1,8.2,1.9c3.2,1.8,7.2,2.5,3.3,4.7
				C319.6,322.3,318.4,319.9,315.3,318.1z"/>
		</g>
		<g>
			<path class="st84" d="M307.9,244L307.9,244c1.2-0.8,2.8-0.4,3.6,0.8l10.8,17.2c0.8,1.2,0.4,2.8-0.8,3.6l0,0
				c-1.2,0.8-2.8,0.4-3.6-0.8l-10.8-17.2C306.3,246.4,306.7,244.7,307.9,244z"/>
			<path class="st85" d="M315,262.8l3.5,5.5c1.2,1.9,3.7,2.4,5.5,1.3l0,0c1.9-1.2,2.4-3.7,1.3-5.5l-3.5-5.5
				C321.8,258.5,317.4,256.9,315,262.8z"/>
		</g>
		<g>
			<path class="st86" d="M316.2,323.4c0.1-0.2,0.2-0.5,0.2-0.8v-27.2c0-1.7-1.8-3.1-3.9-3.1l0,0c-2.2,0-3.9,1.4-3.9,3.1V325
				c0,0.4,0.3,0.8,0.7,0.9C310.7,326.4,314.3,327,316.2,323.4z"/>
		</g>
		<g>
			<path class="st86" d="M325,317c0.1-0.2,0.2-0.5,0.2-0.8l-0.6-27.2c0-1.7-1.8-3.1-4-3l0,0c-2.2,0-3.9,1.5-3.9,3.2l0.6,29.5
				c0,0.4,0.3,0.8,0.7,0.9C319.6,320.1,323.2,320.7,325,317z"/>
		</g>
		<path class="st87" d="M309.8,300.3c0.1,0.1,0.2,0.1,0.3,0.1c1.7,0.1,8-1.2,14.3-8.3c0.5-0.6,0.8-1.4,0.8-2v-20
			c0-1.5-0.5-2.6-1.4-3.1l-4.7-2.7c-0.9-0.5-2-0.4-3.4,0.3l-6.4,3.7c-2.6,1.5-4.7,5.2-4.7,8.2v20.1c0,0.5,0.2,0.8,0.5,1L309.8,300.3
			z"/>
		<path class="st39" d="M311.6,269.5c0,0.5,0.3,1,1,1.4c1.3,0.7,3.4,0.7,4.7,0c0.7-0.4,1-0.9,1-1.4v-4.4c0-0.5-0.3-1-1-1.4
			c-1.3-0.7-3.4-0.7-4.7,0c-0.7,0.4-1,0.9-1,1.4V269.5z"/>
		<circle class="st84" cx="314.9" cy="258.2" r="9.1"/>
		<g>
			<path class="st84" d="M299.1,298.6L299.1,298.6c-1.4-0.5-2.1-1.9-1.6-3.3l6.9-18.6c0.5-1.4,1.9-2.1,3.3-1.6l0,0
				c1.4,0.5,2.1,1.9,1.6,3.3l-6.9,18.6C301.9,298.4,300.5,299.1,299.1,298.6z"/>
			<path class="st85" d="M309.6,281.9l2.1-6.2c0.7-2.1-0.4-4.4-2.5-5.1l0,0c-2.1-0.7-4.4,0.4-5.1,2.5l-2.1,6.2
				C302,279.3,303.5,283.7,309.6,281.9z"/>
		</g>
		<path class="st88" d="M320.1,266.5c-2.9,1.7-5.1,0.4-5.9-0.8c-2-3.1-2.3-1-3.5-2.5c-1.5-2.5-1.2-6-3.3-7.6
			c-3.1-2.3-2.2-6.8,5.8-8.9c10.7-2.7,15,10.8,8.3,18.6C321,266,320.7,266.2,320.1,266.5z"/>
		<path class="st84" d="M311.7,263.7c-0.8,0.8-1.6,0.5-1.9-0.5c-0.3-1.1,0.1-2.5,0.9-3.3s1.6-0.5,1.9,0.5
			C312.9,261.4,312.5,262.9,311.7,263.7z"/>
	</g>
	<g>
		<g>
			<g>
				<g>
					<path class="st84" d="M265.2,371.5L265.2,371.5c-1,0.7-2.5,0.5-3.2-0.6l-10.4-14.7c-0.7-1-0.5-2.5,0.6-3.2l0,0
						c1-0.7,2.5-0.5,3.2,0.6l10.4,14.7C266.5,369.3,266.2,370.7,265.2,371.5z"/>
					<path class="st2" d="M258,355.1l-3.4-4.7c-1.1-1.6-3.4-2-5-0.9l0,0c-1.6,1.1-2,3.4-0.9,5l3.4,4.7
						C252.2,359.3,256.1,360.5,258,355.1z"/>
				</g>
				<g>
					<path class="st87" d="M246.3,374c0.1,0.2,0.3,0.4,0.5,0.5l12.1,6.9c1.3,0.8,3.2,0,4.1-1.6l0,0c1-1.7,0.7-3.6-0.7-4.4l-14-8
						c-0.3-0.2-0.8-0.1-1,0.1C246.4,368.5,244.4,370.9,246.3,374z"/>
				</g>
				<g>
					<path class="st87" d="M238.3,378.1c0.1,0.2,0.3,0.4,0.5,0.5l12.1,6.9c1.3,0.8,3.2,0,4.1-1.6l0,0c1-1.7,0.7-3.6-0.7-4.4l-14-8
						c-0.3-0.2-0.8-0.1-1,0.1C238.4,372.6,236.3,375,238.3,378.1z"/>
				</g>
				<g>
					<g>
						<path class="st37" d="M257.3,399c-0.1,1,2.3,1.6,4.3,2.8c2.8,1.6,5.8,2.5,7.3,1.7c0.4-0.2,0.5-0.5,0.5-0.8l0-1.6
							c0.1-0.9-1.3-2.4-3.4-4.4c-2.3-2.3-3.8-3.7-7.3-1.7c-1,0.6-1.4,1-1.4,1.4L257.3,399z"/>
						<path class="st89" d="M266,396.6c2.8,2.7,4.3,4.3,2.9,5.2c-1.4,0.8-4.3-0.4-7.3-2.7c-2.6-2-6.4-2.2-2.9-4.2
							C262.2,392.9,263.6,394.3,266,396.6z"/>
					</g>
					<path class="st87" d="M263.7,394.6c0.1-0.2,0.2-0.5,0.2-0.7v-16.2c0-1.5-1.6-2.8-3.5-2.8l0,0c-1.9,0-3.5,1.2-3.5,2.8V396
						c0,0.4,0.3,0.7,0.6,0.8C258.9,397.3,262,397.8,263.7,394.6z"/>
				</g>
				<path class="st90" d="M239.5,379.5c0.1,0.1,0.2,0.1,0.3,0.1c1.5,0.1,7.1-1.1,12.6-7.3c0.5-0.5,0.8-1.2,0.8-1.8v-17.7
					c0-1.3-0.5-2.3-1.2-2.7l-4.2-2.4c-0.8-0.5-1.8-0.4-3,0.3l-5.7,3.3c-2.3,1.3-4.2,4.6-4.2,7.2v17.8c0,0.4,0.1,0.7,0.4,0.9
					L239.5,379.5z"/>
				<g>
					<g>
						<path class="st37" d="M248.9,402.6c-0.1,1,2.3,1.6,4.3,2.8c2.8,1.6,5.8,2.5,7.3,1.7c0.4-0.2,0.5-0.5,0.5-0.8l0-1.6
							c0.1-0.9-1.3-2.4-3.4-4.4c-2.3-2.3-3.8-3.7-7.3-1.7c-1,0.6-1.4,1-1.4,1.4L248.9,402.6z"/>
						<path class="st89" d="M257.6,400.3c2.8,2.7,4.3,4.3,2.9,5.2c-1.4,0.8-4.3-0.4-7.3-2.7c-2.6-2-6.4-2.2-2.9-4.2
							C253.8,396.6,255.3,398,257.6,400.3z"/>
					</g>
					<path class="st87" d="M255.4,398.3c0.1-0.2,0.2-0.5,0.2-0.7v-16.2c0-1.5-1.6-2.8-3.5-2.8l0,0c-1.9,0-3.5,1.2-3.5,2.8v18.3
						c0,0.4,0.3,0.7,0.6,0.8C250.5,400.9,253.7,401.5,255.4,398.3z"/>
				</g>
				<path class="st39" d="M240.1,352.2c0,0.4,0.3,0.9,0.9,1.2c1.1,0.7,3,0.7,4.2,0c0.6-0.3,0.9-0.8,0.9-1.2v-3.9
					c0-0.4-0.3-0.9-0.9-1.2c-1.1-0.7-3-0.7-4.2,0c-0.6,0.3-0.9,0.8-0.9,1.2V352.2z"/>
				<circle class="st84" cx="243.1" cy="342.2" r="8.1"/>
				<path class="st91" d="M238.7,348.6c0.5-0.5,1.3-1.5,1.7-2.7c0-0.1,0-0.1,0-0.2v-3.9c0-0.8,0.2-1.5,0.6-2.2c0.3-0.6,0.9-1,1.6-1
					c0,0,6.5,2.8,8.9-2.5c0.2-0.4,0-0.9-0.5-1c-0.5-0.1-1.1-0.5-1.8-1.6c-0.2-0.3-0.5-0.4-0.8-0.3c-0.6,0.2-1.8,0.2-2.9-1.1
					c-0.1-0.2-0.3-0.2-0.5-0.2c-1.2,0-5.5,0.2-7.8,1.9c0,0,0,0,0,0c-0.5,0.4-8.5,7.3,0.6,14.8C238,348.8,238.5,348.8,238.7,348.6z"
					/>
				<path class="st84" d="M240.4,346.8c0,1-0.7,1.4-1.5,0.9c-0.8-0.5-1.5-1.7-1.5-2.6c0-1,0.7-1.4,1.5-0.9
					C239.7,344.6,240.4,345.8,240.4,346.8z"/>
			</g>
			<g>
				<polygon class="st92" points="263.3,374.5 248.9,382.8 237.8,376.7 252.6,368.3 				"/>
				<polygon class="st93" points="263.3,374.5 265.6,360 249.6,369.2 248.9,382.8 				"/>
			</g>
		</g>
		<g>
			<path class="st84" d="M250.7,376.9L250.7,376.9c-1,0.7-2.5,0.5-3.2-0.5l-10.4-14.7c-0.7-1-0.5-2.5,0.5-3.2l0,0
				c1-0.7,2.5-0.5,3.2,0.5l10.4,14.7C252,374.7,251.7,376.2,250.7,376.9z"/>
			<path class="st2" d="M243,361.3l-2.9-5c-1-1.7-3.2-2.3-4.9-1.3l0,0c-1.7,1-2.3,3.2-1.3,4.9l2.9,5
				C236.9,364.8,240.7,366.4,243,361.3z"/>
		</g>
	</g>
	<g>
		<g>
			<path class="st36" d="M456.9,326.1L456.9,326.1c1.3,0.2,2.6-0.7,2.8-2l1.8-9.9c0.2-1.3-0.7-2.6-2-2.8l0,0c-1.3-0.2-2.6,0.7-2.8,2
				l-1.8,9.9C454.7,324.6,455.6,325.9,456.9,326.1z"/>
			<path class="st94" d="M454.9,316.1l1.1-6c0.4-2,2.3-3.4,4.4-3l0,0c2,0.4,3.4,2.3,3,4.4l-1.1,6
				C462.3,317.4,459.1,320.3,454.9,316.1z"/>
			<path class="st36" d="M446,327L446,327c0.4,1.3,1.8,2,3.1,1.6l8.4-2.5c1.3-0.1,2.4-1.3,2.3-2.6l0,0c-0.1-1.3-1.3-2.4-2.6-2.3
				l-9.6,2.7C446.4,324.3,445.6,325.7,446,327z"/>
		</g>
		<g>
			<g>
				<path class="st37" d="M472.2,365.7c0.1,1.1-2.4,1.7-4.6,3c-3,1.7-6.2,2.6-7.7,1.8c-0.4-0.2-0.6-0.5-0.6-0.8l0-1.7
					c-0.1-1,1.4-2.5,3.6-4.7c2.5-2.4,4-3.9,7.7-1.8c1,0.6,1.5,1.1,1.5,1.4L472.2,365.7z"/>
				<path class="st89" d="M463,363.2c-3,2.9-4.6,4.6-3.1,5.5c1.5,0.9,4.6-0.4,7.7-2.8c2.7-2.1,6.7-2.3,3.1-4.4
					C467.1,359.3,465.5,360.8,463,363.2z"/>
			</g>
			<path class="st95" d="M465.4,361.1c-0.1-0.2-0.2-0.5-0.2-0.7v-25.5c0-1.6,1.7-2.9,3.7-2.9l0,0c2,0,3.7,1.3,3.7,2.9v27.7
				c0,0.4-0.3,0.8-0.7,0.9C470.5,363.9,467.2,364.5,465.4,361.1z"/>
		</g>
		<g>
			<g>
				<path class="st37" d="M464.3,359.8c0.1,1.1-2.4,1.7-4.6,3c-3,1.7-6.2,2.6-7.7,1.8c-0.4-0.2-0.6-0.5-0.6-0.8l0-1.7
					c-0.1-1,1.4-2.5,3.6-4.7c2.5-2.4,4-3.9,7.7-1.8c1,0.6,1.5,1.1,1.5,1.4L464.3,359.8z"/>
				<path class="st89" d="M455,357.3c-3,2.9-4.6,4.6-3.1,5.5c1.5,0.9,4.6-0.4,7.7-2.8c2.7-2.1,6.7-2.3,3.1-4.4
					C459.1,353.4,457.5,354.9,455,357.3z"/>
			</g>
			<path class="st96" d="M457.4,355.2c-0.1-0.2-0.2-0.5-0.2-0.7V329c0-1.6,1.7-2.9,3.7-2.9l0,0c2,0,3.7,1.3,3.7,2.9v27.7
				c0,0.4-0.3,0.8-0.7,0.9C462.6,358,459.2,358.6,457.4,355.2z"/>
		</g>
		<path class="st97" d="M471.4,339.4c-0.1,0.1-0.2,0.1-0.3,0.1c-1.6,0.1-7.5-1.2-13.4-7.8c-0.5-0.5-0.8-1.3-0.8-1.9v-18.8
			c0-1.4,0.5-2.4,1.3-2.9l4.4-2.6c0.8-0.5,1.9-0.4,3.1,0.3l6,3.5c2.4,1.4,4.4,4.8,4.4,7.7v18.9c0,0.4-0.2,0.8-0.4,0.9L471.4,339.4z"
			/>
		<path class="st98" d="M469.7,310.6c0,0.5-0.3,0.9-0.9,1.3c-1.2,0.7-3.2,0.7-4.4,0c-0.6-0.4-0.9-0.8-0.9-1.3v-4.1
			c0-0.5,0.3-0.9,0.9-1.3c1.2-0.7,3.2-0.7,4.4,0c0.6,0.4,0.9,0.8,0.9,1.3V310.6z"/>
		<circle class="st84" cx="466.6" cy="300" r="8.6"/>
		<path class="st99" d="M473.7,289.8c7.3,2.5,3.7,13.2-1.6,17.1c-2.6-1.4,0.6-4-3-2.2c-0.7-3.4,0.9-2.4-0.1-6.7
			c-3.7,1.9-11-0.4-12.1-4c1.3-0.6,2.7-4.3,5.7-5.6C466.5,286.6,471.5,287.4,473.7,289.8z"/>
		<path class="st84" d="M469.4,304.8c0,1,0.7,1.4,1.6,0.9c0.9-0.5,1.6-1.8,1.6-2.8c0-1-0.7-1.4-1.6-0.9
			C470.2,302.5,469.4,303.8,469.4,304.8z"/>
		<polygon class="st100" points="472.6,327 459.2,334.7 445.8,327 445.8,321.1 459.2,313.3 472.6,321.1 		"/>
		<polygon class="st101" points="459.2,313.3 472.6,321.1 459.2,328.7 445.8,321.1 		"/>
		<g>
			<path class="st36" d="M472.2,332.1L472.2,332.1c1.3,0.2,2.6-0.7,2.8-2.1l1.4-10c0.2-1.3-0.7-2.6-2.1-2.8l0,0
				c-1.3-0.2-2.6,0.7-2.8,2.1l-1.4,10C469.9,330.6,470.9,331.9,472.2,332.1z"/>
			<path class="st94" d="M469.8,322.1l0.9-6.1c0.3-2.1,2.2-3.5,4.3-3.2l0,0c2.1,0.3,3.5,2.2,3.2,4.3l-0.9,6.1
				C477.3,323.2,474.2,326.2,469.8,322.1z"/>
			<path class="st36" d="M458.7,334.3L458.7,334.3c0.4,1.3,1.8,1.9,3.1,1.5l11-3.8c1.3-0.1,2.3-1.3,2.2-2.7l0,0
				c-0.1-1.3-1.3-2.3-2.7-2.2l-12.1,4C458.9,331.6,458.3,333,458.7,334.3z"/>
		</g>
	</g>
</g>
</svg>
