<?xml version="1.0" encoding="utf-8"?>
<!-- Generator: Adobe Illustrator 22.0.0, SVG Export Plug-In . SVG Version: 6.00 Build 0)  -->
<svg version="1.1" id="OBJECTS" xmlns="http://www.w3.org/2000/svg" xmlns:xlink="http://www.w3.org/1999/xlink" x="0px" y="0px"
	 viewBox="0 0 500 500" style="enable-background:new 0 0 500 500;" xml:space="preserve">
<style type="text/css">
	.st0{fill:#E6A984;}
	.st1{fill:#B43C82;}
	.st2{fill:#080C01;}
	.st3{fill:#22223A;}
	.st4{fill:#48486A;}
	.st5{fill:#31314F;}
	.st6{fill:#CF5598;}
	.st7{fill:#CD8B68;}
	.st8{fill:#70A1F3;}
	.st9{fill:url(#SVGID_1_);}
	.st10{fill:#C1CDF8;}
	.st11{fill:url(#SVGID_2_);}
	.st12{fill:url(#SVGID_3_);}
	.st13{fill:url(#SVGID_4_);}
	.st14{fill:url(#SVGID_5_);}
	.st15{fill:url(#SVGID_6_);}
	.st16{fill:#FFFFFF;}
	.st17{fill:#E69022;}
	.st18{fill:#FAEB37;}
	.st19{fill:#A0EAFE;}
	.st20{fill:#C1751B;}
	.st21{fill:url(#SVGID_7_);}
	.st22{fill:url(#SVGID_8_);}
	.st23{fill:#CFC02D;}
	.st24{fill:url(#SVGID_9_);}
	.st25{fill:#76C1CF;}
	.st26{fill:url(#SVGID_10_);}
	.st27{fill:url(#SVGID_11_);}
	.st28{fill:url(#SVGID_12_);}
	.st29{fill:#EAF2FD;}
	.st30{fill:url(#SVGID_13_);}
	.st31{fill:#8D801E;}
	.st32{fill:url(#SVGID_14_);}
	.st33{fill:#A76217;}
	.st34{fill:#62A6AD;}
	.st35{fill:url(#SVGID_15_);}
	.st36{fill:url(#SVGID_16_);}
	.st37{fill:url(#SVGID_17_);}
	.st38{fill:url(#SVGID_18_);}
	.st39{fill:url(#SVGID_19_);}
	.st40{fill:url(#SVGID_20_);}
	.st41{fill-rule:evenodd;clip-rule:evenodd;fill:url(#SVGID_21_);}
	.st42{fill-rule:evenodd;clip-rule:evenodd;fill:url(#SVGID_22_);}
	.st43{fill-rule:evenodd;clip-rule:evenodd;fill:url(#SVGID_23_);}
	.st44{fill:#A3E6E7;}
	.st45{fill:url(#SVGID_24_);}
	.st46{fill:#CF8720;}
	.st47{fill:url(#SVGID_25_);}
	.st48{fill:url(#SVGID_26_);}
	.st49{fill:#DFAA86;}
	.st50{fill:#39355F;}
	.st51{fill:#FFFFEB;}
	.st52{fill:#6D3F91;}
	.st53{fill:url(#SVGID_27_);}
	.st54{fill:url(#SVGID_28_);}
	.st55{fill:url(#SVGID_29_);}
	.st56{fill:url(#SVGID_30_);}
	.st57{fill:#27007F;}
	.st58{fill:url(#SVGID_31_);}
	.st59{fill:url(#SVGID_32_);}
	.st60{fill:url(#SVGID_33_);}
	.st61{fill:url(#SVGID_34_);}
	.st62{fill:url(#SVGID_35_);}
	.st63{fill:url(#SVGID_36_);}
	.st64{fill:url(#SVGID_37_);}
	.st65{fill:#313974;}
	.st66{fill:#5786D4;}
	.st67{fill:#73A1F9;}
	.st68{fill:#42498F;}
	.st69{fill:#D5A69B;}
	.st70{fill:#EDC3B6;}
	.st71{fill-rule:evenodd;clip-rule:evenodd;fill:#CF8720;}
	.st72{fill:#4981FB;}
	.st73{fill:#620E95;}
	.st74{fill:#E7F2FE;}
	.st75{fill:#CA9270;}
	.st76{fill-rule:evenodd;clip-rule:evenodd;fill:#4981FB;}
	.st77{fill:#4A4A67;}
	.st78{fill:#72A3F5;}
	.st79{fill:#444990;}
</style>
<g>
	<g>
		<path class="st0" d="M120.4,118.3L120.4,118.3c-1.7,0.3-3.4-0.8-3.7-2.6l-2.3-12.9c-0.3-1.7,0.8-3.4,2.6-3.7l0,0
			c1.7-0.3,3.4,0.8,3.7,2.6l2.3,12.9C123.2,116.4,122.1,118,120.4,118.3z"/>
		<path class="st1" d="M123,105.3l-1.4-7.8c-0.5-2.6-3-4.4-5.7-3.9l0,0c-2.6,0.5-4.4,3-3.9,5.7l1.4,7.8
			C113.4,107,117.6,110.9,123,105.3z"/>
		<path class="st0" d="M134.5,119.4L134.5,119.4c-0.5,1.7-2.3,2.6-4,2.1l-10.9-3.2c-1.7-0.1-3.1-1.6-2.9-3.4l0,0
			c0.1-1.7,1.6-3.1,3.4-2.9l12.4,3.5C134.1,116,135,117.8,134.5,119.4z"/>
	</g>
	<g>
		<g>
			<path class="st2" d="M101,169.9c-0.1,1.4,3.2,2.2,5.9,3.8c3.8,2.2,8,3.4,10,2.3c0.5-0.3,0.7-0.7,0.8-1.1l0-2.3
				c0.1-1.3-1.8-3.2-4.7-6c-3.2-3.1-5.2-5-10-2.3c-1.4,0.8-1.9,1.4-1.9,1.9L101,169.9z"/>
			<path class="st3" d="M113,166.6c3.8,3.7,5.9,6,4,7.1c-2,1.1-5.9-0.6-10-3.6c-3.5-2.7-8.7-3-4-5.8
				C107.8,161.6,109.8,163.5,113,166.6z"/>
		</g>
		<path class="st4" d="M109.9,163.9c0.2-0.3,0.2-0.6,0.2-1v-33c0-2.1-2.2-3.8-4.8-3.8l0,0c-2.6,0-4.8,1.7-4.8,3.8v35.9
			c0,0.5,0.3,1,0.8,1.2C103.2,167.5,107.6,168.3,109.9,163.9z"/>
	</g>
	<g>
		<g>
			<path class="st2" d="M111.4,162.3c-0.1,1.4,3.2,2.2,5.9,3.8c3.8,2.2,8,3.4,10,2.3c0.5-0.3,0.7-0.7,0.8-1.1l0-2.3
				c0.1-1.3-1.8-3.2-4.7-6c-3.2-3.1-5.2-5-10-2.3c-1.4,0.8-1.9,1.4-1.9,1.9L111.4,162.3z"/>
			<path class="st3" d="M123.3,159c3.8,3.7,5.9,6,4,7.1c-2,1.1-5.9-0.6-10-3.6c-3.5-2.7-8.7-3-4-5.8
				C118.1,154,120.1,155.9,123.3,159z"/>
		</g>
		<path class="st5" d="M120.2,156.3c0.2-0.3,0.2-0.6,0.2-1v-33c0-2.1-2.2-3.8-4.8-3.8l0,0c-2.6,0-4.8,1.7-4.8,3.8v35.9
			c0,0.5,0.3,1,0.8,1.2C113.6,159.9,117.9,160.7,120.2,156.3z"/>
	</g>
	<path class="st6" d="M102.1,135.9c0.1,0.1,0.3,0.1,0.4,0.1c2.1,0.2,9.7-1.5,17.3-10.1c0.6-0.7,1-1.7,1-2.5V99.2
		c0-1.8-0.7-3.1-1.7-3.7l-5.7-3.3c-1-0.6-2.5-0.5-4.1,0.4l-7.8,4.5c-3.1,1.8-5.7,6.3-5.7,9.9v24.4c0,0.6,0.2,1,0.6,1.2L102.1,135.9z
		"/>
	<path class="st7" d="M104.3,98.6c0,0.6,0.4,1.2,1.2,1.7c1.6,0.9,4.1,0.9,5.7,0c0.8-0.5,1.2-1.1,1.2-1.7v-5.3c0-0.6-0.4-1.2-1.2-1.7
		c-1.6-0.9-4.1-0.9-5.7,0c-0.8,0.5-1.2,1.1-1.2,1.7V98.6z"/>
	
		<ellipse transform="matrix(0.2233 -0.9747 0.9747 0.2233 1.4874 171.5099)" class="st0" cx="108.4" cy="84.8" rx="11.1" ry="11.1"/>
	<g>
		<path class="st0" d="M105.1,125.6L105.1,125.6c-1.7,0.5-3.4-0.5-3.9-2.1l-3.7-12.5c-0.5-1.7,0.5-3.4,2.1-3.9l0,0
			c1.7-0.5,3.4,0.5,3.9,2.1l3.7,12.5C107.8,123.3,106.8,125.1,105.1,125.6z"/>
		<path class="st1" d="M106.3,112.3l-2.3-7.6c-0.8-2.6-3.5-4-6.1-3.3l0,0c-2.6,0.8-4,3.5-3.3,6.1l2.3,7.6
			C96.9,115.1,101.5,118.5,106.3,112.3z"/>
		<path class="st0" d="M122.8,125.9L122.8,125.9c-0.3,1.7-2,2.8-3.7,2.5l-14.7-2.7c-1.7,0.1-3.2-1.3-3.3-3l0,0
			c-0.1-1.7,1.3-3.2,3-3.3l16.3,2.8C122.1,122.5,123.2,124.2,122.8,125.9z"/>
	</g>
	<path class="st8" d="M102.4,93.5c0.7-0.7,1.8-2,2.3-3.7c0-0.1,0-0.2,0-0.3v-5.3c0-1.1,0.3-2.1,0.8-3c0.5-0.8,1.2-1.4,2.2-1.4
		c0,0,8.9,3.9,12.2-3.4c0.3-0.6,0-1.2-0.6-1.4c-0.6-0.2-1.5-0.7-2.4-2.2c-0.2-0.4-0.6-0.6-1.1-0.5c-0.9,0.2-2.5,0.3-4-1.5
		c-0.2-0.2-0.5-0.3-0.7-0.3c-1.7,0-7.6,0.3-10.7,2.6c0,0,0,0-0.1,0.1c-0.7,0.6-11.7,10,0.8,20.2C101.5,93.9,102,93.9,102.4,93.5z"/>
	<path class="st0" d="M104.7,91.1c0,1.3-0.9,1.9-2.1,1.2c-1.1-0.7-2.1-2.3-2.1-3.6c0-1.3,0.9-1.9,2.1-1.2
		C103.7,88.1,104.7,89.7,104.7,91.1z"/>
</g>
<g>
	<g>
		<linearGradient id="SVGID_1_" gradientUnits="userSpaceOnUse" x1="132.6861" y1="276.3426" x2="404.0402" y2="276.3426">
			<stop  offset="0" style="stop-color:#E69022"/>
			<stop  offset="1" style="stop-color:#FAEB37"/>
		</linearGradient>
		<ellipse class="st9" cx="268.4" cy="276.3" rx="135.7" ry="78.3"/>
		<path class="st10" d="M268.4,360.3c-37.2,0-74.4-8.2-102.7-24.5c-27.5-15.9-42.6-37-42.6-59.4c0-22.4,15.1-43.5,42.6-59.4
			c56.6-32.7,148.7-32.7,205.4,0c27.5,15.9,42.6,37,42.6,59.4c0,22.4-15.1,43.5-42.6,59.4l-0.1-0.2l0.1,0.2
			C342.7,352.1,305.6,360.3,268.4,360.3z M268.4,192.8c-37.1,0-74.2,8.2-102.5,24.5c-27.3,15.8-42.4,36.8-42.4,59
			c0,22.3,15.1,43.3,42.4,59c56.5,32.6,148.4,32.6,205,0c27.3-15.8,42.4-36.8,42.4-59c0-22.3-15.1-43.3-42.4-59
			C342.6,201,305.5,192.8,268.4,192.8z"/>
		<linearGradient id="SVGID_2_" gradientUnits="userSpaceOnUse" x1="151.0747" y1="220.3862" x2="397.3785" y2="290.2834">
			<stop  offset="0" style="stop-color:#E7F2FE"/>
			<stop  offset="5.113650e-02" style="stop-color:#E5EFFE"/>
			<stop  offset="0.6462" style="stop-color:#CAD6FA"/>
			<stop  offset="0.9993" style="stop-color:#C1CDF8"/>
		</linearGradient>
		<path class="st11" d="M172.4,228c53-30.6,138.9-30.6,191.9,0c24.9,14.4,38.1,33,39.6,51.9c1.6-21.2-11.6-42.7-39.6-58.9
			c-53-30.6-138.9-30.6-191.9,0c-28,16.2-41.2,37.7-39.6,58.9C134.3,261,147.5,242.4,172.4,228z"/>
	</g>
	<g>
		<g>
			<g>
				<linearGradient id="SVGID_3_" gradientUnits="userSpaceOnUse" x1="240.911" y1="299.21" x2="273.7502" y2="299.21">
					<stop  offset="0" style="stop-color:#FCFDFF;stop-opacity:0"/>
					<stop  offset="0.2654" style="stop-color:#F1B7CA;stop-opacity:0.2655"/>
					<stop  offset="0.5194" style="stop-color:#E87B9D;stop-opacity:0.5197"/>
					<stop  offset="0.7339" style="stop-color:#E1507D;stop-opacity:0.7344"/>
					<stop  offset="0.9007" style="stop-color:#DD3569;stop-opacity:0.9013"/>
					<stop  offset="0.9993" style="stop-color:#DC2B61"/>
				</linearGradient>
				<polygon class="st12" points="273.8,291.4 243.8,308.7 240.9,307 270.9,289.7 				"/>
				<linearGradient id="SVGID_4_" gradientUnits="userSpaceOnUse" x1="276.0566" y1="279.1208" x2="308.1958" y2="279.1208">
					<stop  offset="0" style="stop-color:#FCFDFF;stop-opacity:0"/>
					<stop  offset="0.2414" style="stop-color:#FBF8C2;stop-opacity:0.2416"/>
					<stop  offset="0.5017" style="stop-color:#FBF287;stop-opacity:0.5021"/>
					<stop  offset="0.7242" style="stop-color:#FAEF5C;stop-opacity:0.7247"/>
					<stop  offset="0.8971" style="stop-color:#FAEC41;stop-opacity:0.8977"/>
					<stop  offset="0.9993" style="stop-color:#FAEB37"/>
				</linearGradient>
				<polygon class="st13" points="308.2,271.5 278.9,288.4 276.1,286.7 305.3,269.8 				"/>
			</g>
			
				<linearGradient id="SVGID_5_" gradientUnits="userSpaceOnUse" x1="266.2574" y1="257.8644" x2="266.2574" y2="215.4576" gradientTransform="matrix(0.866 -0.5 1 0.5774 -231.2888 261.3788)">
				<stop  offset="0" style="stop-color:#FCFDFF;stop-opacity:0"/>
				<stop  offset="0.2414" style="stop-color:#FBF8C2;stop-opacity:0.2416"/>
				<stop  offset="0.5017" style="stop-color:#FBF287;stop-opacity:0.5021"/>
				<stop  offset="0.7242" style="stop-color:#FAEF5C;stop-opacity:0.7247"/>
				<stop  offset="0.8971" style="stop-color:#FAEC41;stop-opacity:0.8977"/>
				<stop  offset="0.9993" style="stop-color:#FAEB37"/>
			</linearGradient>
			<path class="st14" d="M184.1,302.2l14.3-1.3c8.5-0.7,15-4.8,15.6-9.7l2.6-20.3c0.5-4.3,5.4-7.9,12.5-9.3l23.8-4.7
				c8.4-1.7,13.6-6.5,12.3-11.6l0,0c-1.8-7.1,8.7-13.1,21-12.1l13.4,1.2l19.4,11.2l-116.4,67.2L184.1,302.2z"/>
			
				<linearGradient id="SVGID_6_" gradientUnits="userSpaceOnUse" x1="266.2578" y1="255.3165" x2="266.2578" y2="211.9561" gradientTransform="matrix(0.866 -0.5 1 0.5774 -231.2888 261.3788)">
				<stop  offset="0" style="stop-color:#FCFDFF;stop-opacity:0"/>
				<stop  offset="0.2654" style="stop-color:#F1B7CA;stop-opacity:0.2655"/>
				<stop  offset="0.5194" style="stop-color:#E87B9D;stop-opacity:0.5197"/>
				<stop  offset="0.7339" style="stop-color:#E1507D;stop-opacity:0.7344"/>
				<stop  offset="0.9007" style="stop-color:#DD3569;stop-opacity:0.9013"/>
				<stop  offset="0.9993" style="stop-color:#DC2B61"/>
			</linearGradient>
			<path class="st15" d="M202.5,312.8l-4.8-22.7c-1.5-7.1,6-14.1,17.9-16c0.5-0.1,0.9-0.1,1.4-0.2l0,0c13.2-1.8,23.2-8,25.3-15.7
				l2.1-7.6c1.1-4.2,4.9-7.8,10.3-10.4c6.6-3.1,15.5-4,23.6-2.4l40.6,7.8L202.5,312.8z"/>
			<g>
				<rect x="175.3" y="266.3" transform="matrix(0.5 -0.866 0.866 0.5 -169.6478 300.7509)" class="st16" width="0.6" height="62"/>
				<rect x="192" y="256.7" transform="matrix(0.5 -0.866 0.866 0.5 -153.0155 310.3483)" class="st16" width="0.6" height="62"/>
				<rect x="208.6" y="247.1" transform="matrix(0.5 -0.866 0.866 0.5 -136.3825 319.9563)" class="st16" width="0.6" height="62"/>
				<rect x="225.2" y="237.5" transform="matrix(0.5 -0.866 0.866 0.5 -119.7506 329.5544)" class="st16" width="0.6" height="62"/>
				<rect x="241.9" y="227.9" transform="matrix(0.5 -0.866 0.866 0.5 -103.1168 339.1628)" class="st16" width="0.6" height="62"/>
				<rect x="258.5" y="218.3" transform="matrix(0.5 -0.866 0.866 0.5 -86.4861 348.7582)" class="st16" width="0.6" height="62"/>
				<rect x="275.1" y="208.7" transform="matrix(0.5 -0.866 0.866 0.5 -69.852 358.3659)" class="st16" width="0.6" height="62"/>
				<rect x="291.8" y="199" transform="matrix(0.5 -0.866 0.866 0.5 -53.2195 367.9678)" class="st16" width="0.6" height="62"/>
				<polygon class="st16" points="167.5,276.8 156.7,283 152.9,280.8 163.7,274.6 				"/>
				<polygon class="st16" points="210.5,315 206.4,317.4 202.6,315.2 206.7,312.8 				"/>
				<polygon class="st16" points="227.1,305.4 223,307.8 219.1,305.6 223.3,303.2 				"/>
				<polygon class="st16" points="243.6,295.8 239.5,298.2 235.7,296 239.8,293.6 				"/>
				<polygon class="st16" points="260.2,286.3 256.1,288.6 252.3,286.4 256.4,284.1 				"/>
				<polygon class="st16" points="276.8,276.7 272.7,279.1 268.9,276.9 273,274.5 				"/>
				<polygon class="st16" points="293.4,267.1 289.3,269.5 285.5,267.3 289.6,264.9 				"/>
				<polygon class="st16" points="310,257.6 305.8,259.9 302,257.7 306.1,255.4 				"/>
				<polygon class="st16" points="326.5,248 322.4,250.4 318.6,248.2 322.7,245.8 				"/>
				<polygon class="st16" points="200.8,257.6 190,263.8 186.2,261.6 197,255.4 				"/>
				<polygon class="st16" points="234.1,238.3 223.2,244.6 219.4,242.4 230.3,236.2 				"/>
				<polygon class="st16" points="267.3,219.1 256.5,225.4 252.7,223.2 263.5,216.9 				"/>
			</g>
		</g>
		<g>
			<path class="st16" d="M146.4,285.9c-0.9,0.5-2.4,0.5-3.3,0c-0.9-0.5-0.9-1.4,0-1.9c0.9-0.5,2.4-0.5,3.3,0
				C147.3,284.5,147.3,285.4,146.4,285.9z"/>
			<path class="st16" d="M151.5,288.9c-0.9,0.5-2.4,0.5-3.3,0c-0.9-0.5-0.9-1.4,0-1.9c0.9-0.5,2.4-0.5,3.3,0
				C152.5,287.5,152.5,288.3,151.5,288.9z"/>
			<path class="st16" d="M156.7,291.8c-0.9,0.5-2.4,0.5-3.3,0c-0.9-0.5-0.9-1.4,0-1.9c0.9-0.5,2.4-0.5,3.3,0
				C157.6,290.5,157.6,291.3,156.7,291.8z"/>
			<path class="st16" d="M161.9,294.8c-0.9,0.5-2.4,0.5-3.3,0c-0.9-0.5-0.9-1.4,0-1.9c0.9-0.5,2.4-0.5,3.3,0
				S162.8,294.3,161.9,294.8z"/>
			<path class="st16" d="M167,297.8c-0.9,0.5-2.4,0.5-3.3,0c-0.9-0.5-0.9-1.4,0-1.9c0.9-0.5,2.4-0.5,3.3,0
				C167.9,296.4,167.9,297.3,167,297.8z"/>
			<path class="st16" d="M172.2,300.8c-0.9,0.5-2.4,0.5-3.3,0c-0.9-0.5-0.9-1.4,0-1.9c0.9-0.5,2.4-0.5,3.3,0
				C173.1,299.4,173.1,300.2,172.2,300.8z"/>
			<path class="st16" d="M177.3,303.8c-0.9,0.5-2.4,0.5-3.3,0c-0.9-0.5-0.9-1.4,0-1.9c0.9-0.5,2.4-0.5,3.3,0
				C178.3,302.4,178.3,303.2,177.3,303.8z"/>
		</g>
		<g>
			<path class="st16" d="M274.7,212.7c-0.9,0.5-2.4,0.5-3.3,0c-0.9-0.5-0.9-1.4,0-1.9c0.9-0.5,2.4-0.5,3.3,0
				C275.6,211.3,275.6,212.2,274.7,212.7z"/>
			<path class="st16" d="M279.9,215.7c-0.9,0.5-2.4,0.5-3.3,0c-0.9-0.5-0.9-1.4,0-1.9c0.9-0.5,2.4-0.5,3.3,0
				C280.8,214.3,280.8,215.2,279.9,215.7z"/>
			<path class="st16" d="M285,218.7c-0.9,0.5-2.4,0.5-3.3,0c-0.9-0.5-0.9-1.4,0-1.9c0.9-0.5,2.4-0.5,3.3,0
				C286,217.3,286,218.1,285,218.7z"/>
			<ellipse class="st16" cx="288.5" cy="220.7" rx="2.3" ry="1.3"/>
			<path class="st16" d="M295.4,224.6c-0.9,0.5-2.4,0.5-3.3,0c-0.9-0.5-0.9-1.4,0-1.9c0.9-0.5,2.4-0.5,3.3,0
				C296.3,223.2,296.3,224.1,295.4,224.6z"/>
			<path class="st16" d="M300.5,227.6c-0.9,0.5-2.4,0.5-3.3,0c-0.9-0.5-0.9-1.4,0-1.9c0.9-0.5,2.4-0.5,3.3,0
				C301.4,226.2,301.4,227.1,300.5,227.6z"/>
			<path class="st16" d="M305.7,230.6c-0.9,0.5-2.4,0.5-3.3,0c-0.9-0.5-0.9-1.4,0-1.9c0.9-0.5,2.4-0.5,3.3,0
				C306.6,229.2,306.6,230.1,305.7,230.6z"/>
		</g>
	</g>
	<g>
		<g>
			<path class="st17" d="M269.8,322.6l17.6,13c-11.3,5.1-27.6,4.5-37.7-1.3c-4.3-2.5-7.1-5.6-8-9.1L269.8,322.6z"/>
			<path class="st18" d="M269.8,322.6l3.5-16.3c6.3,0.4,12.2,2.1,16.7,4.7c11.1,6.4,11.1,16.9,0,23.3c-0.8,0.5-1.7,0.9-2.6,1.3
				L269.8,322.6z"/>
			<path class="st19" d="M269.8,322.6l-28.1,2.6c-1.4-5.2,1.6-10.5,8-14.2c6.2-3.6,14.9-5.3,23.6-4.7L269.8,322.6z"/>
			<path class="st20" d="M249.6,334.2c-4.3-2.5-7.1-5.6-8-9.1v9.3c0.9,3.4,3.7,6.6,8,9.1c10.1,5.9,26.4,6.4,37.7,1.3v-9.3
				C276.1,340.6,259.8,340.1,249.6,334.2z"/>
			<linearGradient id="SVGID_7_" gradientUnits="userSpaceOnUse" x1="266.1178" y1="281.3235" x2="226.5566" y2="347.1494">
				<stop  offset="0" style="stop-color:#FFFFFF"/>
				<stop  offset="9.982518e-02" style="stop-color:#EFEFEE;stop-opacity:0.9002"/>
				<stop  offset="0.2974" style="stop-color:#C4C5C2;stop-opacity:0.7026"/>
				<stop  offset="0.574" style="stop-color:#7F817B;stop-opacity:0.426"/>
				<stop  offset="0.9159" style="stop-color:#21241A;stop-opacity:8.403546e-02"/>
				<stop  offset="1" style="stop-color:#080C01;stop-opacity:0"/>
			</linearGradient>
			<path class="st21" d="M241.3,322.4v0.5l0,0C241.3,322.7,241.3,322.5,241.3,322.4z"/>
			<linearGradient id="SVGID_8_" gradientUnits="userSpaceOnUse" x1="307.8028" y1="310.1099" x2="274.9466" y2="364.7793">
				<stop  offset="0" style="stop-color:#FFFFFF"/>
				<stop  offset="9.982518e-02" style="stop-color:#EFEFEE;stop-opacity:0.9002"/>
				<stop  offset="0.2974" style="stop-color:#C4C5C2;stop-opacity:0.7026"/>
				<stop  offset="0.574" style="stop-color:#7F817B;stop-opacity:0.426"/>
				<stop  offset="0.9159" style="stop-color:#21241A;stop-opacity:8.403546e-02"/>
				<stop  offset="1" style="stop-color:#080C01;stop-opacity:0"/>
			</linearGradient>
			<path class="st22" d="M289.9,334.2c-0.8,0.5-1.7,0.9-2.6,1.3v9.3c0.9-0.4,1.8-0.9,2.6-1.3c5.6-3.2,8.3-7.5,8.3-11.7v-9
				c0,0,0-0.1,0-0.1C298.2,326.9,295.4,331,289.9,334.2z"/>
			<path class="st23" d="M289.9,334.2c-0.8,0.5-1.7,0.9-2.6,1.3v9.3c0.9-0.4,1.8-0.9,2.6-1.3c5.6-3.2,8.3-7.5,8.3-11.7v-9
				c0,0,0-0.1,0-0.1C298.2,326.9,295.4,331,289.9,334.2z"/>
			<linearGradient id="SVGID_9_" gradientUnits="userSpaceOnUse" x1="260.4155" y1="297.0909" x2="234.31" y2="340.5276">
				<stop  offset="0" style="stop-color:#FFFFFF"/>
				<stop  offset="9.982518e-02" style="stop-color:#EFEFEE;stop-opacity:0.9002"/>
				<stop  offset="0.2974" style="stop-color:#C4C5C2;stop-opacity:0.7026"/>
				<stop  offset="0.574" style="stop-color:#7F817B;stop-opacity:0.426"/>
				<stop  offset="0.9159" style="stop-color:#21241A;stop-opacity:8.403546e-02"/>
				<stop  offset="1" style="stop-color:#080C01;stop-opacity:0"/>
			</linearGradient>
			<path class="st24" d="M241.3,322.9L241.3,322.9l0,8.6c0,1,0.1,2,0.3,2.9v-9.3C241.4,324.4,241.3,323.6,241.3,322.9z"/>
			<path class="st25" d="M241.3,322.9L241.3,322.9l0,8.6c0,1,0.1,2,0.3,2.9v-9.3C241.4,324.4,241.3,323.6,241.3,322.9z"/>
		</g>
		<g>
			<path class="st16" d="M303.9,309.6l10.5-6c1.9-1.1,1.7-3.1-0.5-4.4l-2.5-1.4c-2.2-1.3-5.6-1.4-7.5-0.3l-10.5,6
				c-1.9,1.1-1.7,3.1,0.5,4.4l2.5,1.4C298.6,310.5,302,310.7,303.9,309.6z"/>
			<path class="st16" d="M337.9,277.8l-23.5,13.6c-1.9,1.1-1.7,3.1,0.5,4.4l2.5,1.4c2.2,1.3,5.6,1.4,7.5,0.3l23.5-13.6
				c1.9-1.1,1.7-3.1-0.5-4.4l-2.5-1.4C343.2,276.8,339.8,276.6,337.9,277.8z"/>
			<polygon class="st16" points="307.1,315.4 358.6,285.7 356.2,284.3 304.7,314 			"/>
			<polygon class="st16" points="310.5,317.4 346.8,296.5 344.4,295.1 308.1,316 			"/>
		</g>
		<g>
			<linearGradient id="SVGID_10_" gradientUnits="userSpaceOnUse" x1="370.0874" y1="282.3981" x2="344.4214" y2="266.9985">
				<stop  offset="0" style="stop-color:#FCFDFF;stop-opacity:0"/>
				<stop  offset="0.2414" style="stop-color:#FBF8C2;stop-opacity:0.2416"/>
				<stop  offset="0.5017" style="stop-color:#FBF287;stop-opacity:0.5021"/>
				<stop  offset="0.7242" style="stop-color:#FAEF5C;stop-opacity:0.7247"/>
				<stop  offset="0.8971" style="stop-color:#FAEC41;stop-opacity:0.8977"/>
				<stop  offset="0.9993" style="stop-color:#FAEB37"/>
			</linearGradient>
			<polygon class="st26" points="371.9,280.4 367.2,283.2 342.2,268.7 346.9,266 			"/>
			<linearGradient id="SVGID_11_" gradientUnits="userSpaceOnUse" x1="381.2895" y1="278.8685" x2="360.3288" y2="266.8909">
				<stop  offset="0" style="stop-color:#FCFDFF;stop-opacity:0"/>
				<stop  offset="0.2654" style="stop-color:#F1B7CA;stop-opacity:0.2655"/>
				<stop  offset="0.5194" style="stop-color:#E87B9D;stop-opacity:0.5197"/>
				<stop  offset="0.7339" style="stop-color:#E1507D;stop-opacity:0.7344"/>
				<stop  offset="0.9007" style="stop-color:#DD3569;stop-opacity:0.9013"/>
				<stop  offset="0.9993" style="stop-color:#DC2B61"/>
			</linearGradient>
			<polygon class="st27" points="380.3,275.6 375.6,278.3 360.2,269.5 364.9,266.8 			"/>
			<linearGradient id="SVGID_12_" gradientUnits="userSpaceOnUse" x1="386.3105" y1="272.3347" x2="365.3542" y2="259.9515">
				<stop  offset="0" style="stop-color:#FCFDFF;stop-opacity:0"/>
				<stop  offset="0.1091" style="stop-color:#EFFAFF;stop-opacity:0.1092"/>
				<stop  offset="0.5056" style="stop-color:#C4F2FE;stop-opacity:0.506"/>
				<stop  offset="0.8157" style="stop-color:#AAECFE;stop-opacity:0.8163"/>
				<stop  offset="0.9993" style="stop-color:#A0EAFE"/>
			</linearGradient>
			<polygon class="st28" points="388.6,270.8 383.9,273.5 363.6,261.8 368.2,259.1 			"/>
		</g>
	</g>
</g>
<g>
	<g>
		<g>
			<path class="st10" d="M362.5,149.8L318.7,175c-0.7,0.4-1.9,0.3-2.7-0.1l0,0c-0.8-0.5-0.9-1.1-0.2-1.5l43.7-25.3
				c0.7-0.4,1.9-0.3,2.7,0.1l0,0C363.1,148.7,363.2,149.4,362.5,149.8z"/>
			<path class="st10" d="M363.6,169.1L336,185c-0.7,0.4-1.9,0.3-2.7-0.1h0c-0.8-0.5-0.9-1.1-0.2-1.5l27.5-15.9
				c0.7-0.4,1.9-0.3,2.7,0.1l0,0C364.2,168.1,364.3,168.8,363.6,169.1z"/>
			<path class="st10" d="M359,158.2l-34.7,20c-0.7,0.4-1.9,0.3-2.7-0.1l0,0c-0.8-0.5-0.9-1.1-0.2-1.5l34.7-20
				c0.7-0.4,1.9-0.3,2.7,0.1l0,0C359.6,157.1,359.6,157.8,359,158.2z"/>
			<path class="st10" d="M369.1,158.8l-39.2,22.7c-0.7,0.4-1.9,0.3-2.7-0.1l0,0c-0.8-0.5-0.9-1.1-0.2-1.5l39.2-22.7
				c0.7-0.4,1.9-0.3,2.7,0.1l0,0C369.7,157.7,369.8,158.4,369.1,158.8z"/>
		</g>
		<path class="st10" d="M330.6,191.4c-1.9,0-3.9-0.5-5.4-1.4l-17.3-10c-1.6-0.9-2.5-2.1-2.5-3.4c0-1.1,0.6-2,1.8-2.7l50.9-29.4
			c2.5-1.4,6.8-1.3,9.7,0.4l17.3,10c1.6,0.9,2.5,2.1,2.5,3.4c0,1.1-0.6,2-1.8,2.7l-50.9,29.4C333.6,191.1,332.1,191.4,330.6,191.4z
			 M362.3,144.5c-1.4,0-2.8,0.3-3.8,0.9l-50.9,29.4c-0.9,0.5-1.4,1.2-1.4,2c0,0.9,0.7,1.9,2.1,2.7l17.3,10c2.6,1.5,6.6,1.7,8.8,0.4
			l50.9-29.4c0.9-0.5,1.4-1.2,1.4-2c0-0.9-0.7-1.9-2.1-2.7l-17.3-10C365.9,144.9,364.1,144.5,362.3,144.5z"/>
	</g>
	<g>
		<g>
			<polygon class="st10" points="374.7,199.3 355.3,198 355.4,197.4 373.6,198.5 374.2,183.7 392.8,181.7 393.6,170.1 394.7,170.1 
				393.9,182.2 375.3,184.3 			"/>
			<g>
				<polygon class="st10" points="398.3,170.9 394.4,166.6 390,170.7 				"/>
			</g>
		</g>
		<path class="st10" d="M358,196.2c1.5,0.9,1.5,2.2,0,3.1c-1.5,0.9-3.9,0.9-5.4,0c-1.5-0.9-1.5-2.2,0-3.1
			C354.1,195.3,356.6,195.3,358,196.2z"/>
		<path class="st10" d="M376.8,197.4c1.5,0.9,1.5,2.2,0,3.1c-1.5,0.9-3.9,0.9-5.4,0c-1.5-0.9-1.5-2.2,0-3.1
			C373,196.5,375.4,196.5,376.8,197.4z"/>
		<path class="st10" d="M377.5,182.4c1.5,0.9,1.5,2.2,0,3.1c-1.5,0.9-3.9,0.9-5.4,0c-1.5-0.9-1.5-2.2,0-3.1
			C373.6,181.6,376,181.6,377.5,182.4z"/>
		<path class="st10" d="M396.1,180.4c1.5,0.9,1.5,2.2,0,3.1c-1.5,0.9-3.9,0.9-5.4,0c-1.5-0.9-1.5-2.2,0-3.1
			C392.2,179.6,394.6,179.6,396.1,180.4z"/>
	</g>
</g>
<g>
	<path class="st10" d="M254.7,209h-0.8v-7.8c0-1-0.5-1.9-1.4-2.4l-21.2-12.4c-1.1-0.7-1.8-1.8-1.8-3.1c0-1.3,0.7-2.5,1.8-3.1
		l23.5-13.7l0.4,0.7l-23.5,13.7c-0.9,0.5-1.4,1.4-1.4,2.4c0,1,0.5,1.9,1.4,2.4l21.2,12.4c1.1,0.7,1.8,1.9,1.8,3.1V209z"/>
	<g>
		<path class="st29" d="M363,122.4l-85.1,49.1c-2.7,1.6-7.6,1.4-10.7-0.4l-21.7-12.6c-3.2-1.8-3.5-4.6-0.8-6.2l85.1-49.1
			c2.7-1.6,7.6-1.4,10.7,0.4l21.7,12.6C365.4,118,365.7,120.8,363,122.4z"/>
		<g>
			<linearGradient id="SVGID_13_" gradientUnits="userSpaceOnUse" x1="389.5643" y1="107.2407" x2="235.7095" y2="177.3401">
				<stop  offset="0" style="stop-color:#E7F2FE"/>
				<stop  offset="5.113650e-02" style="stop-color:#E5EFFE"/>
				<stop  offset="0.6462" style="stop-color:#CAD6FA"/>
				<stop  offset="0.9993" style="stop-color:#C1CDF8"/>
			</linearGradient>
			<path class="st30" d="M363,122.4l-85.1,49.1c-2.7,1.6-7.6,1.4-10.7-0.4l-21.7-12.6c-1.8-1-2.6-2.3-2.6-3.6v5.6c0,0,0,0,0,0.1
				c-0.1,1.3,0.8,2.6,2.6,3.6l21.7,12.6c3.2,1.8,8,2,10.7,0.4l85.1-49.1c1.2-0.7,1.8-1.6,1.8-2.6v-5.6c0,0,0,0,0-0.1
				C364.8,120.8,364.2,121.7,363,122.4z"/>
		</g>
	</g>
	<g>
		<g>
			<path class="st18" d="M346.2,67.6l-15.7,9.1c-1.1,0.7-3.2,0.6-4.5-0.2l-15.1-8.7c-1.3-0.8-1.5-1.9-0.3-2.6l15.7-9.1
				c1.1-0.7,3.2-0.6,4.5,0.2l15.1,8.7C347.2,65.8,347.4,66.9,346.2,67.6z"/>
			<g>
				<path class="st23" d="M347,124.2V66.7c0,0,0,0,0,0c0,0,0,0,0,0c-0.1,0.3-0.3,0.7-0.8,0.9l-15.7,9.1c-0.6,0.3-1.3,0.5-2.1,0.4
					V135c0.8,0,1.5-0.1,2.1-0.4l15.7-9.1C346.8,125.1,347.1,124.7,347,124.2z"/>
				<path class="st23" d="M326,76.5l-15.1-8.7c-0.6-0.4-1-0.8-1.1-1.3V124c-0.1,0.6,0.3,1.2,1.1,1.7l15.1,8.7
					c0.7,0.4,1.6,0.6,2.4,0.6V77.1C327.6,77.1,326.7,76.9,326,76.5z"/>
				<path class="st31" d="M326,76.5l-15.1-8.7c-0.6-0.4-1-0.8-1.1-1.3V124c-0.1,0.6,0.3,1.2,1.1,1.7l15.1,8.7
					c0.7,0.4,1.6,0.6,2.4,0.6V77.1C327.6,77.1,326.7,76.9,326,76.5z"/>
			</g>
		</g>
		<g>
			<path class="st17" d="M321.4,101.9l-15.7,9.1c-1.1,0.7-3.2,0.6-4.5-0.2l-15.1-8.7c-1.3-0.8-1.5-1.9-0.3-2.6l15.7-9.1
				c1.1-0.7,3.2-0.6,4.5,0.2l15.1,8.7C322.4,100,322.6,101.2,321.4,101.9z"/>
			<g>
				<path class="st20" d="M322.2,138.4v-37.5c0,0,0,0,0,0c0,0,0,0,0,0c-0.1,0.3-0.3,0.7-0.8,0.9l-15.7,9.1c-0.6,0.3-1.3,0.5-2.1,0.4
					v37.9c0.8,0,1.5-0.1,2.1-0.4l15.7-9.1C322,139.4,322.2,138.9,322.2,138.4z"/>
				<linearGradient id="SVGID_14_" gradientUnits="userSpaceOnUse" x1="294.283" y1="159.3128" x2="294.283" y2="96.5728">
					<stop  offset="7.151770e-02" style="stop-color:#87D0FD"/>
					<stop  offset="0.1647" style="stop-color:#7EC3EC;stop-opacity:0.8996"/>
					<stop  offset="0.3493" style="stop-color:#68A0C0;stop-opacity:0.7009"/>
					<stop  offset="0.6076" style="stop-color:#456979;stop-opacity:0.4226"/>
					<stop  offset="0.927" style="stop-color:#141E18;stop-opacity:7.864356e-02"/>
					<stop  offset="1" style="stop-color:#080C01;stop-opacity:0"/>
				</linearGradient>
				<path class="st32" d="M301.2,110.8l-15.1-8.7c-0.6-0.4-1-0.8-1.1-1.3v37.5c-0.1,0.6,0.3,1.2,1.1,1.7l15.1,8.7
					c0.7,0.4,1.6,0.6,2.4,0.6v-37.9C302.7,111.4,301.9,111.2,301.2,110.8z"/>
				<path class="st33" d="M301.2,110.8l-15.1-8.7c-0.6-0.4-1-0.8-1.1-1.3v37.5c-0.1,0.6,0.3,1.2,1.1,1.7l15.1,8.7
					c0.7,0.4,1.6,0.6,2.4,0.6v-37.9C302.7,111.4,301.9,111.2,301.2,110.8z"/>
			</g>
		</g>
		<g>
			<path class="st19" d="M297.1,130.3l-15.7,9.1c-1.1,0.7-3.2,0.6-4.5-0.2l-15.1-8.7c-1.3-0.8-1.5-1.9-0.3-2.6l15.7-9.1
				c1.1-0.7,3.2-0.6,4.5,0.2l15.1,8.7C298.1,128.5,298.3,129.6,297.1,130.3z"/>
			<g>
				<path class="st25" d="M297.9,152.5v-23.1c0,0,0,0,0,0c0,0,0,0,0,0c-0.1,0.3-0.3,0.7-0.8,0.9l-15.7,9.1c-0.6,0.3-1.3,0.5-2.1,0.4
					v23.5c0.8,0,1.5-0.1,2.1-0.4l15.7-9.1C297.7,153.4,298,153,297.9,152.5z"/>
				<path class="st25" d="M276.9,139.2l-15.1-8.7c-0.6-0.4-1-0.8-1.1-1.3v23.1c-0.1,0.6,0.3,1.2,1.1,1.7l15.1,8.7
					c0.7,0.4,1.6,0.6,2.4,0.6v-23.5C278.5,139.8,277.6,139.6,276.9,139.2z"/>
				<path class="st34" d="M276.9,139.2l-15.1-8.7c-0.6-0.4-1-0.8-1.1-1.3v23.1c-0.1,0.6,0.3,1.2,1.1,1.7l15.1,8.7
					c0.7,0.4,1.6,0.6,2.4,0.6v-23.5C278.5,139.8,277.6,139.6,276.9,139.2z"/>
			</g>
		</g>
	</g>
</g>
<g>
	<g>
		<path class="st29" d="M304.6,408.8c3,1.7,3,4.5,0,6.2c-3,1.7-7.8,1.7-10.8,0c-3-1.7-3-4.5,0-6.2C296.8,407,301.6,407,304.6,408.8z
			"/>
		<g>
			<linearGradient id="SVGID_15_" gradientUnits="userSpaceOnUse" x1="307.4571" y1="416.5333" x2="290.838" y2="416.2255">
				<stop  offset="0" style="stop-color:#E7F2FE"/>
				<stop  offset="5.113650e-02" style="stop-color:#E5EFFE"/>
				<stop  offset="0.6462" style="stop-color:#CAD6FA"/>
				<stop  offset="0.9993" style="stop-color:#C1CDF8"/>
			</linearGradient>
			<path class="st35" d="M304.6,415c-3,1.7-7.8,1.7-10.8,0c-1.5-0.9-2.2-2-2.2-3.1v4.7c0,1.1,0.7,2.3,2.2,3.1c3,1.7,7.8,1.7,10.8,0
				c1.5-0.9,2.2-2,2.2-3.1v-4.7C306.8,413,306,414.1,304.6,415z"/>
		</g>
	</g>
	<g>
		<path class="st29" d="M338.9,391.6c3,1.7,3,4.5,0,6.2c-3,1.7-7.8,1.7-10.8,0c-3-1.7-3-4.5,0-6.2
			C331.1,389.8,335.9,389.8,338.9,391.6z"/>
		<g>
			<linearGradient id="SVGID_16_" gradientUnits="userSpaceOnUse" x1="341.7623" y1="399.3295" x2="325.1432" y2="399.0217">
				<stop  offset="0" style="stop-color:#E7F2FE"/>
				<stop  offset="5.113650e-02" style="stop-color:#E5EFFE"/>
				<stop  offset="0.6462" style="stop-color:#CAD6FA"/>
				<stop  offset="0.9993" style="stop-color:#C1CDF8"/>
			</linearGradient>
			<path class="st36" d="M338.9,397.8c-3,1.7-7.8,1.7-10.8,0c-1.5-0.9-2.2-2-2.2-3.1v4.7c0,1.1,0.7,2.3,2.2,3.1
				c3,1.7,7.8,1.7,10.8,0c1.5-0.9,2.2-2,2.2-3.1v-4.7C341.1,395.8,340.3,396.9,338.9,397.8z"/>
		</g>
	</g>
	<g>
		<path class="st29" d="M372.1,372.2c3,1.7,3,4.5,0,6.2c-3,1.7-7.8,1.7-10.8,0c-3-1.7-3-4.5,0-6.2
			C364.4,370.5,369.2,370.5,372.1,372.2z"/>
		<g>
			<linearGradient id="SVGID_17_" gradientUnits="userSpaceOnUse" x1="375.0318" y1="379.9723" x2="358.4128" y2="379.6645">
				<stop  offset="0" style="stop-color:#E7F2FE"/>
				<stop  offset="5.113650e-02" style="stop-color:#E5EFFE"/>
				<stop  offset="0.6462" style="stop-color:#CAD6FA"/>
				<stop  offset="0.9993" style="stop-color:#C1CDF8"/>
			</linearGradient>
			<path class="st37" d="M372.1,378.4c-3,1.7-7.8,1.7-10.8,0c-1.5-0.9-2.2-2-2.2-3.1v4.7c0,1.1,0.7,2.3,2.2,3.1
				c3,1.7,7.8,1.7,10.8,0c1.5-0.9,2.2-2,2.2-3.1v-4.7C374.4,376.4,373.6,377.6,372.1,378.4z"/>
		</g>
	</g>
	<path class="st10" d="M299.4,413.2c-0.2,0-0.4-0.2-0.4-0.4v-16.7c0-1.3,0.7-2.5,1.8-3.2l26.4-15.2c1.1-0.7,2.5-0.7,3.7,0
		c1.1,0.7,1.8,1.8,1.8,3.2v14.1c0,0.2-0.2,0.4-0.4,0.4s-0.4-0.2-0.4-0.4v-14.1c0-1-0.5-1.9-1.4-2.4c-0.9-0.5-1.9-0.5-2.8,0
		l-26.4,15.2c-0.9,0.5-1.4,1.4-1.4,2.5v16.7C299.8,413,299.6,413.2,299.4,413.2z"/>
	<path class="st10" d="M333.5,395.1c-0.2,0-0.4-0.2-0.4-0.4v-18.2c0-1.3,0.7-2.5,1.8-3.2l26.4-15.2c1.1-0.7,2.5-0.7,3.7,0
		c1.1,0.7,1.8,1.8,1.8,3.2v14.1c0,0.2-0.2,0.4-0.4,0.4c-0.2,0-0.4-0.2-0.4-0.4v-14.1c0-1-0.5-1.9-1.4-2.5c-0.9-0.5-1.9-0.5-2.8,0
		L335.3,374c-0.9,0.5-1.4,1.4-1.4,2.5v18.2C333.9,394.9,333.7,395.1,333.5,395.1z"/>
</g>
<g>
	<g>
		<g>
			<path class="st29" d="M202.5,145.6l-85.1,49.1c-2.7,1.6-7.6,1.4-10.7-0.4l-32.2-19.4c-3.2-1.8-3.5-4.6-0.8-6.2l85.1-49.1
				c2.7-1.6,7.6-1.4,10.7,0.4l32.2,19.4C204.8,141.2,205.2,144,202.5,145.6z"/>
			<g>
				<linearGradient id="SVGID_18_" gradientUnits="userSpaceOnUse" x1="237.028" y1="139.8505" x2="64.384" y2="218.5107">
					<stop  offset="0" style="stop-color:#E7F2FE"/>
					<stop  offset="5.113650e-02" style="stop-color:#E5EFFE"/>
					<stop  offset="0.6462" style="stop-color:#CAD6FA"/>
					<stop  offset="0.9993" style="stop-color:#C1CDF8"/>
				</linearGradient>
				<path class="st38" d="M202.5,145.6l-85.1,49.1c-2.7,1.6-7.6,1.4-10.7-0.4l-32.2-19.4c-1.8-1-2.6-2.3-2.6-3.6l10.6,50.2
					c0,0,0,0,0,0.1c-0.1,1.3,0.8,2.6,2.6,3.6l21.7,12.6c3.2,1.8,8,2,10.7,0.4l85.1-49.1c1.2-0.7,1.8-1.6,1.8-2.6V143c0,0,0,0,0-0.1
					C204.2,144,203.6,144.9,202.5,145.6z"/>
			</g>
		</g>
		<linearGradient id="SVGID_19_" gradientUnits="userSpaceOnUse" x1="206.2022" y1="139.6651" x2="-11.1381" y2="266.5449">
			<stop  offset="0" style="stop-color:#E7F2FE"/>
			<stop  offset="5.113650e-02" style="stop-color:#E5EFFE"/>
			<stop  offset="0.6462" style="stop-color:#CAD6FA"/>
			<stop  offset="0.9993" style="stop-color:#C1CDF8"/>
		</linearGradient>
		<path class="st39" d="M76,191.3l30.6,18.4c3.2,1.8,8,2,10.7,0.4l85.1-49.1c1.2-0.7,1.8-1.6,1.8-2.6l0,5.1c0,1-0.6,2-1.8,2.7
			l-85.1,49.1c-2.7,1.6-7.6,1.4-10.7-0.4l-29.4-17.7L76,191.3z"/>
	</g>
	<g>
		<g>
			<g>
				<path class="st29" d="M166.8,136.8l-36.5,21.1c-1.2,0.7-3.2,0.6-4.6-0.2l-22.8-13.1c-1.4-0.8-1.5-2-0.3-2.7l36.5-21.1
					c1.2-0.7,3.2-0.6,4.6,0.2l22.8,13.1C167.8,134.9,167.9,136.1,166.8,136.8z"/>
				<g>
					<linearGradient id="SVGID_20_" gradientUnits="userSpaceOnUse" x1="182.2033" y1="130.5546" x2="96.3977" y2="169.6494">
						<stop  offset="0" style="stop-color:#E7F2FE"/>
						<stop  offset="5.113650e-02" style="stop-color:#E5EFFE"/>
						<stop  offset="0.6462" style="stop-color:#CAD6FA"/>
						<stop  offset="0.9993" style="stop-color:#C1CDF8"/>
					</linearGradient>
					<path class="st40" d="M166.8,136.8l-36.5,21.1c-1.2,0.7-3.2,0.6-4.6-0.2l-22.8-13.1c-0.8-0.4-1.1-1-1.1-1.5v20.5c0,0,0,0,0,0
						c0,0.5,0.4,1.1,1.1,1.6l22.8,13.1c1.4,0.8,3.4,0.9,4.6,0.2l36.5-21.1c0.5-0.3,0.8-0.7,0.8-1.1v-20.5c0,0,0,0,0,0
						C167.5,136.1,167.3,136.5,166.8,136.8z"/>
				</g>
			</g>
			<g>
				<linearGradient id="SVGID_21_" gradientUnits="userSpaceOnUse" x1="131.391" y1="167.5358" x2="151.7802" y2="157.467">
					<stop  offset="7.185140e-02" style="stop-color:#BECFF4"/>
					<stop  offset="0.648" style="stop-color:#ADC0E7"/>
					<stop  offset="0.9996" style="stop-color:#A0B5DE"/>
				</linearGradient>
				<path class="st41" d="M137.1,160.9l23.3-13.4c2.5-1.4,5.6,0.4,5.6,3.2v1.2c0,1.3-0.7,2.6-1.9,3.2l-23.3,13.4
					c-2.5,1.4-5.6-0.4-5.6-3.2v-1.2C135.2,162.8,135.9,161.6,137.1,160.9z"/>
				<g>
					<linearGradient id="SVGID_22_" gradientUnits="userSpaceOnUse" x1="156.622" y1="147.9171" x2="115.1485" y2="181.3635">
						<stop  offset="0" style="stop-color:#FFFFFF"/>
						<stop  offset="0.3377" style="stop-color:#E5EAFC"/>
						<stop  offset="0.7528" style="stop-color:#CAD5F9"/>
						<stop  offset="0.9993" style="stop-color:#C1CDF8"/>
					</linearGradient>
					<path class="st42" d="M135.2,165.3v-1.2c0-1.3,0.7-2.6,1.9-3.2l23.3-13.4c1.4-0.8,3-0.6,4.1,0.3c-0.1-0.1-0.3-0.2-0.4-0.3
						l-2.3-1.5c-1.1-0.6-2.5-0.7-3.8,0l-23.3,13.4c-1.2,0.7-1.9,1.9-1.9,3.2v1.2c0,1.4,0.8,2.6,1.9,3.2l2.3,1.5l0,0
						C136,167.9,135.2,166.8,135.2,165.3z"/>
				</g>
				<linearGradient id="SVGID_23_" gradientUnits="userSpaceOnUse" x1="132.944" y1="167.7394" x2="167.178" y2="150.3535">
					<stop  offset="0" style="stop-color:#E7F2FE"/>
					<stop  offset="5.113650e-02" style="stop-color:#E5EFFE"/>
					<stop  offset="0.6462" style="stop-color:#CAD6FA"/>
					<stop  offset="0.9993" style="stop-color:#C1CDF8"/>
				</linearGradient>
				<path class="st43" d="M163.7,147.3c0.2,0.4,0.3,0.9,0.3,1.4v1.2c0,1.3-0.7,2.6-1.9,3.2l-23.3,13.4c-1.1,0.6-2.3,0.6-3.3,0.2
					c0.8,2,3.3,3,5.4,1.8l23.3-13.4c1.2-0.7,1.9-1.9,1.9-3.2v-1.2C166,149.1,165,147.8,163.7,147.3z"/>
			</g>
		</g>
		<g>
			<polygon class="st44" points="159.6,136.8 132.8,152.2 112.3,141 139.7,125.3 			"/>
			
				<linearGradient id="SVGID_24_" gradientUnits="userSpaceOnUse" x1="201.1547" y1="109.9598" x2="201.1547" y2="152.1909" gradientTransform="matrix(-1 0 0 1 349.4409 0)">
				<stop  offset="0" style="stop-color:#A3E6E7"/>
				<stop  offset="0.1589" style="stop-color:#91D2E7"/>
				<stop  offset="0.5332" style="stop-color:#6BA7E6"/>
				<stop  offset="0.826" style="stop-color:#538DE5"/>
				<stop  offset="0.9993" style="stop-color:#4A83E5"/>
			</linearGradient>
			<polygon class="st45" points="159.6,136.8 163.8,110 137.1,125.3 132.8,152.2 			"/>
		</g>
	</g>
	<g>
		<g>
			<path class="st46" d="M180.5,236.7c2.4,1.4,2.4,3.6,0,5c-2.4,1.4-6.3,1.4-8.6,0c-2.4-1.4-2.4-3.6,0-5
				C174.3,235.4,178.1,235.4,180.5,236.7z"/>
			<path class="st46" d="M176.6,239.2h-0.8v-5.4c0-2.4-1.3-4.7-3.4-5.9l-13.8-8c-2.3-1.4-3.8-3.9-3.8-6.6V177c0-2.4-1.3-4.7-3.4-5.9
				l-15.2-8.8l0.4-0.7l15.2,8.8c2.3,1.4,3.8,3.9,3.8,6.6v36.5c0,2.4,1.3,4.7,3.4,5.9l13.8,8c2.3,1.4,3.8,3.9,3.8,6.6V239.2z"/>
		</g>
		<g>
			<path class="st18" d="M191.4,230.8c2.4,1.4,2.4,3.6,0,5c-2.4,1.4-6.3,1.4-8.6,0s-2.4-3.6,0-5C185.1,229.4,189,229.4,191.4,230.8z
				"/>
			<path class="st18" d="M187.5,233.3h-0.8v-5.4c0-2.4-1.3-4.7-3.4-5.9l-13.8-8c-2.3-1.4-3.8-3.9-3.8-6.6V171c0-2.4-1.3-4.7-3.4-5.9
				l-15.7-9.1l0.4-0.7l15.7,9.1c2.3,1.4,3.8,3.9,3.8,6.6v36.5c0,2.4,1.3,4.7,3.4,5.9l13.8,8c2.3,1.4,3.8,3.9,3.8,6.6V233.3z"/>
		</g>
		<g>
			<path class="st19" d="M202.3,224.8c2.4,1.4,2.4,3.6,0,5c-2.4,1.4-6.3,1.4-8.6,0c-2.4-1.4-2.4-3.6,0-5
				C196,223.5,199.9,223.5,202.3,224.8z"/>
			<path class="st19" d="M198.4,227.3h-0.8V222c0-2.4-1.3-4.7-3.4-5.9l-13.8-8c-2.3-1.4-3.8-3.9-3.8-6.6v-36.5
				c0-2.4-1.3-4.7-3.4-5.9l-15.9-9.2l0.4-0.7l15.9,9.2c2.3,1.4,3.8,3.9,3.8,6.6v36.5c0,2.4,1.3,4.7,3.4,5.9l13.8,8
				c2.3,1.4,3.8,3.9,3.8,6.6V227.3z"/>
		</g>
	</g>
	<g>
		<linearGradient id="SVGID_25_" gradientUnits="userSpaceOnUse" x1="225.8004" y1="18.0966" x2="117.2816" y2="169.1076">
			<stop  offset="0" style="stop-color:#E7F2FE"/>
			<stop  offset="0.3037" style="stop-color:#DBE5FC;stop-opacity:0.6961"/>
			<stop  offset="0.9993" style="stop-color:#C1CDF8;stop-opacity:0"/>
		</linearGradient>
		<path class="st47" d="M189.6,149.1l-70.3,40.6c-4.8,2.8-10.8-0.7-10.8-6.2v-81.6c0-2.6,1.4-4.9,3.6-6.2l70.3-40.6
			c4.8-2.8,10.8,0.7,10.8,6.2v81.6C193.2,145.4,191.8,147.8,189.6,149.1z"/>
		<linearGradient id="SVGID_26_" gradientUnits="userSpaceOnUse" x1="107.9015" y1="108.9553" x2="185.9431" y2="61.2384">
			<stop  offset="0" style="stop-color:#E7F2FE"/>
			<stop  offset="5.113650e-02" style="stop-color:#E5EFFE"/>
			<stop  offset="0.6462" style="stop-color:#CAD6FA"/>
			<stop  offset="0.9993" style="stop-color:#C1CDF8"/>
		</linearGradient>
		<path class="st48" d="M185.8,65.1L116,105.5c-1.1,0.6-2,0-2-1.5l0,0c0-1.4,0.9-3.1,2-3.8l69.9-40.3c1.1-0.6,2,0,2,1.5l0,0
			C187.8,62.8,186.9,64.5,185.8,65.1z"/>
	</g>
</g>
<g>
	<g>
		<path class="st49" d="M96,225.2L96,225.2c-1.8,0.2-3.4-1.1-3.6-2.9L89,190.8c-0.2-1.8,1.1-3.4,2.9-3.6l0,0
			c1.8-0.2,3.4,1.1,3.6,2.9l3.4,31.4C99.1,223.4,97.8,225,96,225.2z"/>
	</g>
	<g>
		<g>
			<g>
				<path class="st2" d="M77,268.3c0,0.4,0.3,0.8,0.9,1.2c0.2,0.1,0-2.4,0.6-1.9c0.2,0.1,8.1,6.3,12.5,5.1c0.5-0.1,0.6-0.6,0.7-0.9
					l0-1c0.1-1.1-1.6-2.8-4.1-5.3c-2.8-2.7-4.6-4.4-8.7-2c-1.2,0.7-1.7,1.2-1.7,1.6L77,268.3z"/>
				<path class="st50" d="M87.5,265.5c3.4,3.3,5.2,5.2,3.5,6.2c-1.7,1-5.2-0.5-8.7-3.2c-3.1-2.3-7.6-2.6-3.5-5
					C82.9,261.1,84.7,262.8,87.5,265.5z"/>
			</g>
		</g>
		<path class="st49" d="M84.1,263.9l-0.2-30.2l-8.4,2.7l0.1,5.5c0,0-0.8,6.6,1.3,13.2c0,0,1.4,2.9,1.1,9.7
			C78,264.8,81.6,266.9,84.1,263.9z"/>
	</g>
	<g>
		<g>
			<g>
				<path class="st2" d="M86.7,260.4c0,0.4,0.3,0.8,0.9,1.2c0.2,0.1,0-2.4,0.6-1.9c0.2,0.1,8.1,6.3,12.5,5.1
					c0.5-0.1,0.6-0.6,0.7-0.9l0-1c0.1-1.1-1.6-2.8-4.1-5.3c-2.8-2.7-4.6-4.4-8.7-2c-1.2,0.7-1.7,1.2-1.7,1.6L86.7,260.4z"/>
				<path class="st50" d="M97.1,257.5c3.4,3.3,5.2,5.2,3.5,6.2c-1.7,1-5.2-0.5-8.7-3.2c-3.1-2.3-7.6-2.6-3.5-5
					C92.5,253.1,94.3,254.8,97.1,257.5z"/>
			</g>
		</g>
		<path class="st49" d="M93.7,256l-0.2-30.2l-10,3.2l1.7,4.9c0,0-0.8,6.6,1.3,13.2c0,0,1.4,2.9,1.1,9.7
			C87.6,256.8,91.3,258.9,93.7,256z"/>
	</g>
	<path class="st17" d="M70.3,226.6v11.2c0,0,13.1,4.4,25.4-11.2v-10.8L70.3,226.6z"/>
	<path class="st51" d="M76.5,230.9c0.1,0.1,0.3,0.1,0.4,0.1c2.2,0.2,10.1-1.5,18-10.4c0.6-0.7,1.1-1.7,1.1-2.6v-25.2
		c0-1.9-0.7-3.2-1.8-3.8l-5.9-3.5c-1.1-0.6-2.6-0.6-4.2,0.4l-8.1,4.7c-3.3,1.9-5.9,6.5-5.9,10.3v25.4c0,0.6,0.2,1,0.6,1.2
		L76.5,230.9z"/>
	<g>
		<path class="st49" d="M104.4,214.3L104.4,214.3c-0.8,1.6-2.8,2.2-4.4,1.4l-27.9-14.7c-1.6-0.8-2.2-2.8-1.4-4.4l0,0
			c0.8-1.6,2.8-2.2,4.4-1.4l27.9,14.7C104.6,210.7,105.2,212.7,104.4,214.3z"/>
	</g>
	<path class="st7" d="M78.8,192.2c0,0.6,0.4,1.3,1.2,1.7c1.6,0.9,4.3,0.9,5.9,0c0.8-0.5,1.2-1.1,1.2-1.7v-5.5c0-0.6-0.4-1.3-1.2-1.7
		c-1.6-0.9-4.3-0.9-5.9,0c-0.8,0.5-1.2,1.1-1.2,1.7V192.2z"/>
	<g>
		<path class="st52" d="M93.6,174.8l4.1,16c0.4,1.5-1.1,2.8-2.5,2.2l-9.5-4c-0.8-0.3-1.3-1.2-1.1-2.1l3.1-15.8
			c0.3-1.7,2.5-2.1,3.4-0.6l2.3,3.7C93.5,174.4,93.6,174.6,93.6,174.8z"/>
		<path class="st0" d="M79.1,184.4c0,1.4-1,1.9-2.2,1.2c-1.2-0.7-2.2-2.4-2.2-3.7s1-1.9,2.2-1.2C78.2,181.3,79.1,183,79.1,184.4z"/>
		<circle class="st49" cx="82.9" cy="177.8" r="11.5"/>
		<path class="st52" d="M71.7,179.4c0,0,9.7,5.3,14.5-8.5c0,0,2.5,5.9,8.9,4.6c0,0,0-9.1-9.4-10.9C85.7,164.5,69,162.8,71.7,179.4z"
			/>
		<path class="st52" d="M77.1,179.8l4.1,16c0.4,1.5-1.1,2.8-2.5,2.2l-9.5-4c-0.8-0.3-1.3-1.2-1.1-2.1l3.1-15.8
			c0.3-1.7,2.5-2.1,3.4-0.6l2.3,3.7C77,179.5,77.1,179.6,77.1,179.8z"/>
	</g>
</g>
<g>
	<g>
		<path class="st10" d="M151.7,350.8L99.3,381c-0.8,0.5-2.2,0.4-3.2-0.1l0,0c-0.9-0.5-1-1.4-0.2-1.8l52.4-30.3
			c0.8-0.5,2.2-0.4,3.2,0.1l0,0C152.4,349.5,152.5,350.3,151.7,350.8z"/>
		<path class="st10" d="M147.5,360.9l-41.5,24c-0.8,0.5-2.2,0.4-3.2-0.1l0,0c-0.9-0.5-1-1.4-0.2-1.8l41.5-24
			c0.8-0.5,2.2-0.4,3.2,0.1l0,0C148.2,359.6,148.3,360.4,147.5,360.9z"/>
		<g>
			<g>
				<path class="st10" d="M84.9,365.9c-0.1-0.1-0.2-0.1-0.4,0c-2.2,0.8-4.5,1.3-7.1,1.5c-0.1,0-0.1,0-0.2,0l0,0l0,0
					c0,0-0.1,0.1-0.1,0.1c-0.2,0.5-0.3,1-0.6,1.5c-0.5,1-1.1,1.9-2.1,2.7c-0.1,0.1-0.1,0.1,0,0.2c1,0.6,2,1.1,3.1,1.5
					c0.5,0.2,1.1,0.4,1.6,0.5l0,0l0,0c1.8,0.5,3.8,0.8,5.8,0.9c1.6,0.1,3.2,0,4.7-0.1l0,0c0.5-1.5,0.4-3-0.3-4.5
					c-0.3-0.6-0.6-1.1-1-1.6l0,0C87.7,367.6,86.5,366.7,84.9,365.9z"/>
				<path class="st10" d="M83.6,379.5c-3.7,0-7.3-0.8-10.1-2.4c-2.8-1.6-4.3-3.7-4.3-6c0-2.3,1.5-4.4,4.3-6c5.6-3.2,14.6-3.2,20.2,0
					l0,0c2.8,1.6,4.3,3.7,4.3,6c0,2.3-1.5,4.4-4.3,6C90.9,378.7,87.3,379.5,83.6,379.5z M83.6,363.4c-3.5,0-7.1,0.8-9.7,2.3
					c-2.5,1.5-3.9,3.4-3.9,5.4c0,2,1.4,4,3.9,5.4c5.4,3.1,14.1,3.1,19.5,0c2.5-1.5,3.9-3.4,3.9-5.4c0-2-1.4-4-3.9-5.4
					C90.7,364.1,87.1,363.4,83.6,363.4z"/>
			</g>
			<g>
				<path class="st10" d="M110.2,353.4c-0.4-0.2-0.8-0.5-1.2-0.7c-1-0.6-2.2-0.9-3.6-0.8c-0.8,0-1.6,0.2-2.2,0.5
					c-0.1,0-0.2,0.1-0.3,0.2c-0.1,0.1-0.2,0.1-0.3,0.2c-0.1,0.1-0.2,0.1-0.3,0.2c-1.1,0.9-1.2,1.8-0.4,2.7c0.2,0.3,0.5,0.5,0.9,0.7
					c0.4,0.2,0.8,0.5,1.2,0.7c-0.8,0.5-0.8,1.3,0.1,1.9l5.2,3c0.9,0.5,2.4,0.5,3.3,0l6.1-3.5c0.9-0.5,0.9-1.4,0-1.9l-5.2-3
					C112.5,353,111.1,352.9,110.2,353.4z M104.1,354c0.4-0.4,1.1-0.6,1.9-0.5c0.3,0,0.7,0.1,0.9,0.3c0.5,0.3,0.9,0.5,1.4,0.8
					l-2.5,1.4c-0.4-0.3-0.9-0.5-1.3-0.8C103.9,354.9,103.8,354.4,104.1,354z M112.5,357.6l1.8,1c0.4,0.2,0.4,0.5,0,0.8
					c-0.4,0.2-0.9,0.2-1.3,0l-1.8-1c-0.7,0.1-1.6,0.1-2.1-0.3c-0.8-0.5-0.8-1.2,0-1.7c0.8-0.5,2.1-0.5,2.9,0
					C112.6,356.7,112.7,357.2,112.5,357.6z"/>
				<path class="st10" d="M109,364.9c-3.7,0-7.3-0.8-10.1-2.4c-2.8-1.6-4.3-3.7-4.3-6c0-2.3,1.5-4.4,4.3-6c5.6-3.2,14.6-3.2,20.2,0
					c2.8,1.6,4.3,3.7,4.3,6c0,2.3-1.5,4.4-4.3,6C116.4,364.1,112.7,364.9,109,364.9z M109,348.7c-3.5,0-7.1,0.8-9.7,2.3
					c-2.5,1.5-3.9,3.4-3.9,5.4c0,2,1.4,4,3.9,5.4c5.4,3.1,14.1,3.1,19.5,0c2.5-1.5,3.9-3.4,3.9-5.4c0-2-1.4-4-3.9-5.4
					C116.1,349.4,112.6,348.7,109,348.7z"/>
			</g>
			<g>
				<g>
					<path class="st10" d="M133.5,338.3l-1.8-0.3c-0.2,0-0.5,0.1-0.5,0.2l-0.3,0.6l0,0c-0.5,0-1.2,0-1.8,0.1l-0.5-0.5
						c-0.1-0.1-0.4-0.2-0.6-0.1l-1.6,0.5c-0.2,0.1-0.3,0.2-0.2,0.3l0.5,0.5l0,0c-0.4,0.2-0.8,0.5-1.1,0.8l-1-0.2
						c-0.2,0-0.5,0-0.5,0.2l-0.5,1c-0.1,0.1,0.1,0.2,0.3,0.3l1,0.2l0,0c0,0.4,0,0.7,0.2,1l-0.9,0.3c-0.2,0.1-0.3,0.2-0.2,0.3
						l0.9,0.9c0.1,0.1,0.4,0.2,0.6,0.1l0.9-0.3l0,0c0.4,0.2,0.8,0.5,1.4,0.6l-0.3,0.6c-0.1,0.1,0.1,0.2,0.3,0.3l1.8,0.3
						c0.2,0,0.4,0,0.4-0.1l0.3-0.6l0,0c0.7,0,1.2,0,1.8-0.1l0.5,0.5c0.1,0.1,0.4,0.2,0.6,0.1l1.6-0.5c0.2-0.1,0.3-0.2,0.2-0.3
						l-0.5-0.5l0,0c0.4-0.2,0.8-0.5,1.1-0.8l1,0.2c0.2,0,0.4,0,0.5-0.1l0.5-1c0.1-0.1,0-0.3-0.3-0.3l-1-0.2l0,0c0-0.4-0.1-0.7-0.2-1
						l0.9-0.3c0.2-0.1,0.3-0.2,0.2-0.3l-0.9-0.9c-0.1-0.1-0.4-0.2-0.6-0.1l-0.9,0.3l0,0c-0.4-0.2-0.8-0.5-1.4-0.6l0.3-0.6
						C133.7,338.5,133.7,338.4,133.5,338.3z M128.1,342.3c0-0.2,0-0.4,0.1-0.6c0.1-0.2,0.3-0.5,0.6-0.6c0,0,0.1,0,0.1-0.1
						c0,0,0,0,0,0c0,0,0.1,0,0.1,0c0,0,0.1,0,0.1,0c0,0,0,0,0.1,0c0.1,0,0.1-0.1,0.2-0.1c0,0,0,0,0.1,0c0,0,0.1,0,0.1,0
						c0,0,0,0,0.1,0c0,0,0.1,0,0.1,0c0,0,0,0,0.1,0c0,0,0.1,0,0.1,0c0,0,0.1,0,0.1,0c0,0,0.1,0,0.1,0c0.1,0,0.1,0,0.2,0
						c0,0,0.1,0,0.1,0c0,0,0.1,0,0.1,0c0.1,0,0.1,0,0.2,0c0,0,0.1,0,0.1,0c0.2,0,0.4,0,0.7,0.1c0.4,0.1,0.7,0.2,1,0.3
						c0,0,0.1,0,0.1,0.1c0,0,0.1,0,0.1,0.1c0,0,0.1,0,0.1,0.1c0.1,0,0.1,0.1,0.2,0.1c0,0,0,0,0.1,0.1c0,0,0.1,0.1,0.1,0.1
						c0,0,0,0,0.1,0.1c0,0,0,0,0,0c0,0,0,0,0,0.1c0,0,0,0.1,0.1,0.1c0,0,0,0,0,0.1c0.1,0.2,0.1,0.5,0,0.7c-0.1,0.2-0.3,0.4-0.5,0.5
						c0,0-0.1,0-0.1,0.1c-0.1,0.1-0.2,0.1-0.3,0.2c0,0-0.1,0-0.1,0c0,0,0,0-0.1,0c-0.1,0-0.1,0-0.2,0.1c-0.6,0.2-1.4,0.3-2.1,0.2
						c-0.4-0.1-0.7-0.1-0.9-0.3c-0.1-0.1-0.2-0.1-0.3-0.2c0,0-0.1,0-0.1-0.1c-0.1-0.1-0.1-0.1-0.2-0.2c-0.1-0.1-0.1-0.1-0.2-0.2
						c0,0,0,0,0,0c0,0,0,0,0-0.1c0,0,0,0,0-0.1C128.2,342.5,128.2,342.5,128.1,342.3C128.1,342.4,128.1,342.4,128.1,342.3
						C128.1,342.3,128.1,342.3,128.1,342.3z"/>
					<path class="st10" d="M141.9,338.7l-1.1,0.1c-0.1,0-0.2,0.1-0.2,0.2l0.1,0.4l0,0c-0.3,0.1-0.7,0.2-1,0.3l-0.5-0.2
						c-0.1-0.1-0.3,0-0.4,0l-0.7,0.5c-0.1,0.1-0.1,0.2,0,0.2l0.5,0.2l0,0c-0.2,0.2-0.3,0.4-0.3,0.6l-0.7,0c-0.1,0-0.3,0.1-0.2,0.2
						l0.1,0.7c0,0.1,0.2,0.1,0.3,0.1l0.7,0l0,0c0.1,0.2,0.3,0.4,0.5,0.6l-0.4,0.3c-0.1,0.1-0.1,0.2,0,0.2l0.9,0.4
						c0.1,0.1,0.3,0,0.4,0l0.4-0.3l0,0c0.3,0.1,0.7,0.2,1.1,0.2l0.1,0.4c0,0.1,0.1,0.1,0.3,0.1l1.1-0.1c0.1,0,0.2-0.1,0.2-0.1
						l-0.1-0.4l0,0c0.4-0.1,0.7-0.2,1-0.3l0.5,0.2c0.1,0.1,0.3,0,0.4,0l0.7-0.5c0.1-0.1,0.1-0.2,0-0.2l-0.5-0.2l0,0
						c0.2-0.2,0.3-0.4,0.3-0.6l0.7,0c0.1,0,0.2,0,0.2-0.1l-0.1-0.7c0-0.1-0.1-0.2-0.3-0.1l-0.7,0l0,0c-0.1-0.2-0.3-0.4-0.5-0.6
						l0.4-0.3c0.1-0.1,0.1-0.2,0-0.2l-0.9-0.4c-0.1-0.1-0.3,0-0.4,0l-0.4,0.3l0,0c-0.3-0.1-0.7-0.1-1.1-0.2l-0.1-0.4
						C142.2,338.8,142.1,338.7,141.9,338.7z M140.5,341.8c-0.1-0.1-0.2-0.2-0.2-0.3c0-0.2,0-0.3,0.1-0.4c0,0,0,0,0,0c0,0,0,0,0,0
						c0,0,0,0,0,0c0,0,0,0,0,0c0,0,0,0,0,0c0,0,0.1-0.1,0.1-0.1c0,0,0,0,0,0c0,0,0,0,0.1,0c0,0,0,0,0,0c0,0,0,0,0.1,0c0,0,0,0,0,0
						c0,0,0,0,0,0c0,0,0,0,0,0c0,0,0,0,0.1,0c0,0,0.1,0,0.1,0c0,0,0,0,0,0c0,0,0,0,0.1,0c0,0,0.1,0,0.1,0c0,0,0,0,0.1,0
						c0.1,0,0.3,0,0.4-0.1c0.3,0,0.5,0,0.7,0c0,0,0.1,0,0.1,0c0,0,0,0,0.1,0c0,0,0,0,0.1,0c0.1,0,0.1,0,0.2,0.1c0,0,0,0,0.1,0
						c0,0,0.1,0,0.1,0c0,0,0,0,0.1,0c0,0,0,0,0,0c0,0,0,0,0.1,0c0,0,0.1,0,0.1,0.1c0,0,0,0,0,0c0.1,0.1,0.2,0.3,0.3,0.4
						c0,0.1,0,0.3,0,0.4c0,0,0,0,0,0c0,0-0.1,0.1-0.1,0.1c0,0,0,0,0,0c0,0,0,0,0,0c0,0,0,0-0.1,0.1c-0.3,0.2-0.7,0.4-1.1,0.4
						c-0.2,0-0.5,0-0.7,0c-0.1,0-0.2,0-0.3-0.1c0,0-0.1,0-0.1,0c-0.1,0-0.1,0-0.2-0.1c-0.1,0-0.1-0.1-0.2-0.1c0,0,0,0,0,0
						c0,0,0,0-0.1,0c0,0,0,0-0.1,0C140.6,341.9,140.5,341.8,140.5,341.8C140.5,341.8,140.5,341.8,140.5,341.8
						C140.5,341.8,140.5,341.8,140.5,341.8z"/>
				</g>
				<path class="st10" d="M134.5,350.2c-3.7,0-7.3-0.8-10.1-2.4c-2.8-1.6-4.3-3.7-4.3-6c0-2.3,1.5-4.4,4.3-6
					c5.6-3.2,14.6-3.2,20.2,0l0,0c2.8,1.6,4.3,3.7,4.3,6c0,2.3-1.5,4.4-4.3,6C141.8,349.4,138.2,350.2,134.5,350.2z M134.5,334
					c-3.5,0-7.1,0.8-9.7,2.3c-2.5,1.5-3.9,3.4-3.9,5.4c0,2,1.4,4,3.9,5.4c5.4,3.1,14.1,3.1,19.5,0c2.5-1.5,3.9-3.4,3.9-5.4
					c0-2-1.4-4-3.9-5.4l0,0C141.6,334.7,138,334,134.5,334z"/>
			</g>
		</g>
	</g>
	<g>
		<path class="st10" d="M178,355.6c-0.2,0-0.4-0.2-0.4-0.4v-38l-97.1-56.3l0,36.8c0,0.2-0.2,0.4-0.4,0.4c-0.2,0-0.4-0.2-0.4-0.4
			l0-37.5c0-0.1,0.1-0.3,0.2-0.4c0.1-0.1,0.3-0.1,0.4,0l97.9,56.8c0.1,0.1,0.2,0.2,0.2,0.4v38.3C178.4,355.4,178.2,355.6,178,355.6z
			"/>
		<linearGradient id="SVGID_27_" gradientUnits="userSpaceOnUse" x1="149.3395" y1="279.403" x2="120.2013" y2="319.9507">
			<stop  offset="0" style="stop-color:#E7F2FE"/>
			<stop  offset="0.3037" style="stop-color:#DBE5FC;stop-opacity:0.6961"/>
			<stop  offset="0.9993" style="stop-color:#C1CDF8;stop-opacity:0"/>
		</linearGradient>
		<polygon class="st53" points="80,260.1 178,316.9 178,355.2 80,297.6 		"/>
	</g>
	<g>
		<g>
			<g>
				<path class="st29" d="M99.7,303.3l-17.3,10c-1.3,0.7-3.5,0.6-5-0.2l-16.6-9.6c-1.5-0.8-1.6-2.1-0.4-2.9l17.3-10
					c1.3-0.7,3.5-0.6,5,0.2l16.6,9.6C100.8,301.3,101,302.6,99.7,303.3z"/>
				<g>
					<linearGradient id="SVGID_28_" gradientUnits="userSpaceOnUse" x1="103.5805" y1="319.0246" x2="33.8009" y2="353.626">
						<stop  offset="0" style="stop-color:#E7F2FE"/>
						<stop  offset="5.113650e-02" style="stop-color:#E5EFFE"/>
						<stop  offset="0.6462" style="stop-color:#CAD6FA"/>
						<stop  offset="0.9993" style="stop-color:#C1CDF8"/>
					</linearGradient>
					<path class="st54" d="M100.5,336.3v-34c0,0,0,0,0,0c0,0,0,0,0,0c-0.1,0.4-0.4,0.7-0.8,1l-17.3,10c-0.6,0.4-1.4,0.5-2.3,0.5
						v34.5c0.9,0,1.7-0.1,2.3-0.5l17.3-10C100.4,337.4,100.6,336.9,100.5,336.3z"/>
					<linearGradient id="SVGID_29_" gradientUnits="userSpaceOnUse" x1="69.799" y1="357.8193" x2="69.799" y2="298.1032">
						<stop  offset="7.151770e-02" style="stop-color:#87D0FD"/>
						<stop  offset="0.1647" style="stop-color:#7EC3EC;stop-opacity:0.8996"/>
						<stop  offset="0.3493" style="stop-color:#68A0C0;stop-opacity:0.7009"/>
						<stop  offset="0.6076" style="stop-color:#456979;stop-opacity:0.4226"/>
						<stop  offset="0.927" style="stop-color:#141E18;stop-opacity:7.864356e-02"/>
						<stop  offset="1" style="stop-color:#080C01;stop-opacity:0"/>
					</linearGradient>
					<path class="st55" d="M77.4,313.1l-16.6-9.6c-0.7-0.4-1.1-0.9-1.2-1.4v34c-0.1,0.6,0.3,1.3,1.2,1.8l16.6,9.6
						c0.8,0.4,1.7,0.7,2.7,0.7v-34.5C79.1,313.8,78.2,313.5,77.4,313.1z"/>
					<linearGradient id="SVGID_30_" gradientUnits="userSpaceOnUse" x1="115.3823" y1="343.6324" x2="69.8887" y2="325.435">
						<stop  offset="0" style="stop-color:#E7F2FE"/>
						<stop  offset="5.113650e-02" style="stop-color:#E5EFFE"/>
						<stop  offset="0.6462" style="stop-color:#CAD6FA"/>
						<stop  offset="0.9993" style="stop-color:#C1CDF8"/>
					</linearGradient>
					<path class="st56" d="M77.4,313.1l-16.6-9.6c-0.7-0.4-1.1-0.9-1.2-1.4v34c-0.1,0.6,0.3,1.3,1.2,1.8l16.6,9.6
						c0.8,0.4,1.7,0.7,2.7,0.7v-34.5C79.1,313.8,78.2,313.5,77.4,313.1z"/>
				</g>
			</g>
			<g>
				<g>
					<g>
						<polygon class="st16" points="75.6,319.6 77,320.3 77,321.9 75.6,321.1 						"/>
						<polygon class="st16" points="72.9,318 74.2,318.8 74.2,320.3 72.9,319.5 						"/>
						<polygon class="st16" points="70.2,316.4 71.5,317.2 71.5,318.7 70.2,317.9 						"/>
						<polygon class="st16" points="67.4,314.8 68.8,315.6 68.8,317.1 67.4,316.4 						"/>
						<polygon class="st16" points="64.7,313.2 66,314 66,315.6 64.7,314.8 						"/>
						<polygon class="st16" points="62,311.7 63.3,312.4 63.3,314 62,313.2 						"/>
					</g>
					<g>
						<polygon class="st16" points="70,314.7 77,318.7 77,319.5 70,315.4 						"/>
						<polygon class="st16" points="62,310 68.8,314 68.8,314.7 62,310.8 						"/>
					</g>
					<g>
						<polygon class="st16" points="72.5,320.2 76.2,322.3 76.2,322.9 72.5,320.8 						"/>
						<polygon class="st16" points="67.6,317.4 71.3,319.5 71.3,320.1 67.6,318 						"/>
						<polygon class="st16" points="62.8,314.6 66.4,316.7 66.4,317.3 62.8,315.2 						"/>
					</g>
				</g>
				<g>
					<g>
						<g>
							<path class="st57" d="M95.4,327.9c0,3.3-2.3,7.3-5.1,8.9c-2.8,1.6-5.1,0.3-5.1-3c0-3.3,2.3-7.3,5.1-8.9
								C93.1,323.2,95.4,324.6,95.4,327.9z"/>
							<linearGradient id="SVGID_31_" gradientUnits="userSpaceOnUse" x1="85.5614" y1="330.8235" x2="95.4432" y2="330.8235">
								<stop  offset="0" style="stop-color:#E7F2FE"/>
								<stop  offset="5.113650e-02" style="stop-color:#E5EFFE"/>
								<stop  offset="0.6462" style="stop-color:#CAD6FA"/>
								<stop  offset="0.9993" style="stop-color:#C1CDF8"/>
							</linearGradient>
							<path class="st58" d="M92.4,324.2c0.3,0.6,0.4,1.3,0.4,2.1c0,3.3-2.3,7.3-5.2,8.9c-0.7,0.4-1.4,0.6-2.1,0.7
								c0.8,1.6,2.6,2.1,4.7,0.8c2.9-1.6,5.2-5.6,5.2-8.9C95.4,325.4,94.2,324,92.4,324.2z"/>
						</g>
					</g>
				</g>
			</g>
			<g>
				<path class="st16" d="M85.4,294.5c3,1.7,3,4.5,0,6.2c-3,1.7-7.8,1.7-10.8,0c-3-1.7-3-4.5,0-6.2
					C77.6,292.8,82.5,292.8,85.4,294.5z"/>
				<g>
					<linearGradient id="SVGID_32_" gradientUnits="userSpaceOnUse" x1="88.316" y1="302.2825" x2="71.6971" y2="301.9747">
						<stop  offset="0" style="stop-color:#E7F2FE"/>
						<stop  offset="5.113650e-02" style="stop-color:#E5EFFE"/>
						<stop  offset="0.6462" style="stop-color:#CAD6FA"/>
						<stop  offset="0.9993" style="stop-color:#C1CDF8"/>
					</linearGradient>
					<path class="st59" d="M85.4,300.7c-3,1.7-7.8,1.7-10.8,0c-1.5-0.9-2.2-2-2.2-3.1v4.7c0,1.1,0.7,2.3,2.2,3.1
						c3,1.7,7.8,1.7,10.8,0c1.5-0.9,2.2-2,2.2-3.1v-4.7C87.6,298.7,86.9,299.9,85.4,300.7z"/>
				</g>
			</g>
		</g>
		<g>
			<path class="st10" d="M178.2,364l-0.4-0.7l32.7-18.4c1-0.6,2.2-0.6,3.2,0c1,0.6,1.6,1.6,1.6,2.8v0.6h-0.8v-0.6
				c0-0.9-0.4-1.6-1.2-2.1c-0.7-0.4-1.6-0.4-2.4,0L178.2,364z"/>
			<g>
				<g>
					<path class="st29" d="M197.6,360.1l-17.3,10c-1.3,0.7-3.5,0.6-5-0.2l-16.6-9.6c-1.5-0.8-1.6-2.1-0.4-2.9l17.3-10
						c1.3-0.7,3.5-0.6,5,0.2l16.6,9.6C198.7,358.1,198.9,359.4,197.6,360.1z"/>
					<g>
						<linearGradient id="SVGID_33_" gradientUnits="userSpaceOnUse" x1="201.5253" y1="375.8641" x2="131.7457" y2="410.4655">
							<stop  offset="0" style="stop-color:#E7F2FE"/>
							<stop  offset="5.113650e-02" style="stop-color:#E5EFFE"/>
							<stop  offset="0.6462" style="stop-color:#CAD6FA"/>
							<stop  offset="0.9993" style="stop-color:#C1CDF8"/>
						</linearGradient>
						<path class="st60" d="M198.5,393.2v-34c0,0,0,0,0,0c0,0,0,0,0,0c-0.1,0.4-0.4,0.7-0.8,1l-17.3,10c-0.6,0.4-1.4,0.5-2.3,0.5
							v34.5c0.9,0,1.7-0.1,2.3-0.5l17.3-10C198.3,394.2,198.6,393.7,198.5,393.2z"/>
						<linearGradient id="SVGID_34_" gradientUnits="userSpaceOnUse" x1="167.7437" y1="414.6588" x2="167.7437" y2="354.9428">
							<stop  offset="7.151770e-02" style="stop-color:#87D0FD"/>
							<stop  offset="0.1647" style="stop-color:#7EC3EC;stop-opacity:0.8996"/>
							<stop  offset="0.3493" style="stop-color:#68A0C0;stop-opacity:0.7009"/>
							<stop  offset="0.6076" style="stop-color:#456979;stop-opacity:0.4226"/>
							<stop  offset="0.927" style="stop-color:#141E18;stop-opacity:7.864356e-02"/>
							<stop  offset="1" style="stop-color:#080C01;stop-opacity:0"/>
						</linearGradient>
						<path class="st61" d="M175.3,369.9l-16.6-9.6c-0.7-0.4-1.1-0.9-1.2-1.4v34c-0.1,0.6,0.3,1.3,1.2,1.8l16.6,9.6
							c0.8,0.4,1.7,0.7,2.7,0.7v-34.5C177.1,370.6,176.1,370.4,175.3,369.9z"/>
						<linearGradient id="SVGID_35_" gradientUnits="userSpaceOnUse" x1="213.3271" y1="400.472" x2="167.8334" y2="382.2746">
							<stop  offset="0" style="stop-color:#E7F2FE"/>
							<stop  offset="5.113650e-02" style="stop-color:#E5EFFE"/>
							<stop  offset="0.6462" style="stop-color:#CAD6FA"/>
							<stop  offset="0.9993" style="stop-color:#C1CDF8"/>
						</linearGradient>
						<path class="st62" d="M175.3,369.9l-16.6-9.6c-0.7-0.4-1.1-0.9-1.2-1.4v34c-0.1,0.6,0.3,1.3,1.2,1.8l16.6,9.6
							c0.8,0.4,1.7,0.7,2.7,0.7v-34.5C177.1,370.6,176.1,370.4,175.3,369.9z"/>
					</g>
				</g>
				<g>
					<g>
						<g>
							<polygon class="st16" points="173.9,376.1 175.3,376.9 175.3,378.4 173.9,377.7 							"/>
							<polygon class="st16" points="171.2,374.5 172.5,375.3 172.5,376.8 171.2,376.1 							"/>
							<polygon class="st16" points="168.4,372.9 169.8,373.7 169.8,375.3 168.4,374.5 							"/>
							<polygon class="st16" points="165.7,371.4 167,372.1 167,373.7 165.7,372.9 							"/>
							<polygon class="st16" points="163,369.8 164.3,370.6 164.3,372.1 163,371.3 							"/>
							<polygon class="st16" points="160.2,368.2 161.6,369 161.6,370.5 160.2,369.8 							"/>
						</g>
						<g>
							<polygon class="st16" points="168.3,371.2 175.3,375.2 175.3,376 168.3,372 							"/>
							<polygon class="st16" points="160.2,366.6 167.1,370.5 167.1,371.3 160.2,367.4 							"/>
						</g>
						<g>
							<polygon class="st16" points="170.8,376.8 174.5,378.9 174.5,379.5 170.8,377.4 							"/>
							<polygon class="st16" points="165.9,373.9 169.6,376.1 169.6,376.7 165.9,374.6 							"/>
							<polygon class="st16" points="161,371.1 164.7,373.3 164.7,373.9 161,371.7 							"/>
						</g>
					</g>
					<g>
						<g>
							<g>
								<path class="st57" d="M193.7,384.4c0,3.3-2.3,7.3-5.1,8.9c-2.8,1.6-5.1,0.3-5.1-3c0-3.3,2.3-7.3,5.1-8.9
									C191.4,379.8,193.7,381.1,193.7,384.4z"/>
								<linearGradient id="SVGID_36_" gradientUnits="userSpaceOnUse" x1="183.842" y1="387.3713" x2="193.7237" y2="387.3713">
									<stop  offset="0" style="stop-color:#E7F2FE"/>
									<stop  offset="5.113650e-02" style="stop-color:#E5EFFE"/>
									<stop  offset="0.6462" style="stop-color:#CAD6FA"/>
									<stop  offset="0.9993" style="stop-color:#C1CDF8"/>
								</linearGradient>
								<path class="st63" d="M190.6,380.7c0.3,0.6,0.4,1.3,0.4,2.1c0,3.3-2.3,7.3-5.2,8.9c-0.7,0.4-1.4,0.6-2.1,0.7
									c0.8,1.6,2.6,2.1,4.7,0.8c2.9-1.6,5.2-5.6,5.2-8.9C193.7,382,192.5,380.6,190.6,380.7z"/>
							</g>
						</g>
					</g>
				</g>
				<g>
					<path class="st16" d="M183.4,352.1c3,1.7,3,4.5,0,6.2c-3,1.7-7.8,1.7-10.8,0c-3-1.7-3-4.5,0-6.2
						C175.6,350.4,180.4,350.4,183.4,352.1z"/>
					<g>
						<linearGradient id="SVGID_37_" gradientUnits="userSpaceOnUse" x1="186.2914" y1="359.8628" x2="169.6725" y2="359.555">
							<stop  offset="0" style="stop-color:#E7F2FE"/>
							<stop  offset="5.113650e-02" style="stop-color:#E5EFFE"/>
							<stop  offset="0.6462" style="stop-color:#CAD6FA"/>
							<stop  offset="0.9993" style="stop-color:#C1CDF8"/>
						</linearGradient>
						<path class="st64" d="M183.4,358.3c-3,1.7-7.8,1.7-10.8,0c-1.5-0.9-2.2-2-2.2-3.1v4.7c0,1.1,0.7,2.3,2.2,3.1
							c3,1.7,7.8,1.7,10.8,0c1.5-0.9,2.2-2,2.2-3.1v-4.7C185.6,356.3,184.9,357.4,183.4,358.3z"/>
					</g>
				</g>
			</g>
		</g>
	</g>
</g>
<g>
	<g>
		<path class="st0" d="M242.4,89.3L242.4,89.3c-0.6,1.4,0.1,3,1.6,3.6l20.2,8c1.4,0.6,3-0.1,3.6-1.6l0,0c0.6-1.4-0.1-3-1.6-3.6
			l-20.2-8C244.6,87.2,243,87.9,242.4,89.3z"/>
		<path class="st65" d="M263.6,93.1l6.5,2.6c2.2,0.9,3.3,3.4,2.4,5.6l0,0c-0.9,2.2-3.4,3.3-5.6,2.4l-6.5-2.6
			C260.5,101.1,257.9,96.8,263.6,93.1z"/>
	</g>
	<g>
		<path class="st66" d="M276.3,128.6c-0.2,0.2-0.4,0.4-0.6,0.6l-14.6,8.4c-1.6,0.9-3.8,0-5-2l0,0c-1.2-2-0.8-4.4,0.8-5.3l16.8-9.6
			c0.4-0.2,0.9-0.2,1.3,0.1C276.2,122,278.7,124.9,276.3,128.6z"/>
	</g>
	<g>
		<path class="st67" d="M286,133.6c-0.2,0.2-0.4,0.4-0.6,0.6l-14.6,8.4c-1.6,0.9-3.8,0-5-2l0,0c-1.2-2-0.8-4.4,0.8-5.3l16.8-9.6
			c0.4-0.2,0.9-0.2,1.3,0.1C285.9,126.9,288.4,129.9,286,133.6z"/>
	</g>
	<g>
		<g>
			<path class="st2" d="M263.1,158.8c0.1,1.2-2.8,2-5.2,3.4c-3.4,2-7,3-8.8,2c-0.4-0.3-0.6-0.6-0.7-1l0-2c-0.1-1.1,1.6-2.8,4.2-5.3
				c2.8-2.7,4.6-4.4,8.8-2c1.2,0.7,1.7,1.2,1.7,1.7L263.1,158.8z"/>
			<path class="st3" d="M252.6,155.9c-3.4,3.3-5.2,5.3-3.5,6.3s5.2-0.5,8.8-3.2c3.1-2.4,7.7-2.7,3.5-5.1
				C257.2,151.5,255.4,153.2,252.6,155.9z"/>
		</g>
		<path class="st66" d="M255.3,153.5c-0.1-0.3-0.2-0.6-0.2-0.8v-19.6c0-1.8,1.9-3.3,4.2-3.3l0,0c2.3,0,4.2,1.5,4.2,3.3v22.1
			c0,0.5-0.3,0.9-0.7,1C261.2,156.7,257.3,157.4,255.3,153.5z"/>
	</g>
	<path class="st68" d="M284.6,135.3c-0.1,0.1-0.2,0.1-0.4,0.1c-1.9,0.1-8.6-1.3-15.3-8.9c-0.6-0.6-0.9-1.5-0.9-2.2V103
		c0-1.6,0.6-2.7,1.5-3.3l5-2.9c0.9-0.5,2.2-0.5,3.6,0.3l6.9,4c2.8,1.6,5,5.5,5,8.7v21.6c0,0.5-0.2,0.9-0.5,1L284.6,135.3z"/>
	<g>
		<path class="st0" d="M287.7,137.3L287.7,137.3c1.5,0,2.8-1.3,2.8-2.8v-21.7c0-1.5-1.3-2.8-2.8-2.8l0,0c-1.5,0-2.8,1.3-2.8,2.8
			v21.7C284.9,136.1,286.2,137.3,287.7,137.3z"/>
		<path class="st65" d="M283.4,116.2v-7c0-2.4,1.9-4.3,4.3-4.3h0c2.4,0,4.3,1.9,4.3,4.3v7C292,116.2,289,120.2,283.4,116.2z"/>
	</g>
	<g>
		<g>
			<path class="st2" d="M273.2,163.2c0.1,1.2-2.8,2-5.2,3.4c-3.4,2-7,3-8.8,2c-0.4-0.3-0.6-0.6-0.7-1l0-2c-0.1-1.1,1.6-2.8,4.2-5.3
				c2.8-2.7,4.6-4.4,8.8-2c1.2,0.7,1.7,1.2,1.7,1.7L273.2,163.2z"/>
			<path class="st3" d="M262.6,160.4c-3.4,3.3-5.2,5.3-3.5,6.3c1.7,1,5.2-0.5,8.8-3.2c3.1-2.4,7.7-2.7,3.5-5.1
				C267.2,155.9,265.4,157.6,262.6,160.4z"/>
		</g>
		<path class="st67" d="M265.4,158c-0.1-0.3-0.2-0.6-0.2-0.8v-19.6c0-1.8,1.9-3.3,4.2-3.3l0,0c2.3,0,4.2,1.5,4.2,3.3v22.1
			c0,0.5-0.3,0.9-0.7,1C271.2,161.2,267.4,161.9,265.4,158z"/>
	</g>
	<path class="st69" d="M283.8,102.4c0,0.5-0.3,1.1-1,1.5c-1.4,0.8-3.6,0.8-5,0c-0.7-0.4-1-0.9-1-1.5v-4.7c0-0.5,0.3-1.1,1-1.5
		c1.4-0.8,3.6-0.8,5,0c0.7,0.4,1,0.9,1,1.5V102.4z"/>
	<circle class="st70" cx="280.2" cy="90.3" r="9.8"/>
	<path class="st71" d="M288.3,78.7c8.4,2.9,4.2,15.1-1.9,19.5c-3-1.6,0.6-4.5-3.4-2.5c-0.8-3.9,1-2.7-0.1-7.7
		c-4.3,2.2-12.5-0.5-13.8-4.6c1.5-0.7,3-4.9,6.5-6.4C280.1,75,285.8,75.9,288.3,78.7z"/>
	<path class="st70" d="M283.4,95.8c0,1.2,0.8,1.6,1.8,1.1c1-0.6,1.8-2,1.8-3.2c0-1.2-0.8-1.6-1.8-1.1
		C284.2,93.2,283.4,94.6,283.4,95.8z"/>
	<path class="st46" d="M270,93.4c0,2,1.4,4.3,3.1,5.3c1.7,1,3.1,0.2,3.1-1.8c0-2-1.4-4.3-3.1-5.3C271.4,90.7,270,91.5,270,93.4z
		 M270.7,92.8c0-0.5,1.1-0.4,2.4,0.4c1.3,0.8,2.4,1.8,2.4,2.3c0,0.5-1.1,0.4-2.4-0.4C271.8,94.4,270.7,93.4,270.7,92.8z"/>
	<path class="st46" d="M283.3,90.7c0,0-2.2,6.5-7.6,4.7v2.7c0,0,5.4,2.2,7.3-2.4C283,95.7,284.1,90.6,283.3,90.7z"/>
</g>
<g>
	<g>
		<path d="M401.8,337.9c-0.1,1.3,1.8,3,4.7,4.7c3.9,2.2,5.2,5,10,2.3c1.4-0.8,1.9-1.4,2-2v-3c0.1-1.4-3.2-2.2-5.9-3.8
			c-3.9-2.2-8-3.4-10-2.3c-0.5,0.3-0.7,0.7-0.8,1.1V337.9z"/>
		<path class="st72" d="M406.5,339.6c-3.9-2.2-6-4.6-4-5.8c2-1.1,6.1,0.1,10,2.3c3.9,2.2,8.7,3,4,5.8
			C411.7,344.6,410.4,341.8,406.5,339.6z"/>
	</g>
	<g>
		<path d="M412.5,330.5c-0.1,1.3,1.8,3,4.7,4.7c3.9,2.2,5.2,5,10,2.3c1.4-0.8,1.9-1.4,2-2v-3c0.1-1.4-3.2-2.2-5.9-3.8
			c-3.9-2.2-8-3.4-10-2.3c-0.5,0.3-0.7,0.7-0.8,1.1V330.5z"/>
		<path class="st72" d="M417.2,332.2c-3.9-2.2-6-4.6-4-5.8c2-1.1,6.1,0.1,10,2.3c3.9,2.2,8.7,3,4,5.8
			C422.4,337.2,421.1,334.4,417.2,332.2z"/>
	</g>
	<g>
		<path class="st49" d="M393.4,270.2L393.4,270.2c0.2-1.7,1.7-3,3.4-2.9l24.6,2.2c1.7,0.2,3,1.7,2.9,3.4l0,0c-0.2,1.7-1.7,3-3.4,2.9
			l-24.6-2.2C394.6,273.4,393.3,271.9,393.4,270.2z"/>
		<path class="st10" d="M416.9,277.2l7.9,0.7c2.7,0.2,5.1-1.8,5.3-4.4l0,0c0.2-2.7-1.8-5.1-4.4-5.3l-7.9-0.7
			C417.7,267.4,412.9,270.5,416.9,277.2z"/>
	</g>
	<g>
		<path class="st52" d="M418.3,338.6c0.2-0.3,0.2-0.6,0.2-1v-33.1c0-2.1-2.2-3.8-4.8-3.8l0,0c-2.6,0-4.8,1.7-4.8,3.8v35.9
			c0,0.5,0.3,1,0.9,1.2C411.6,342.2,416,343,418.3,338.6z"/>
	</g>
	<g>
		<path class="st73" d="M428.7,330.9c0.2-0.3,0.2-0.6,0.2-1v-33.1c0-2.1-2.2-3.8-4.8-3.8l0,0c-2.6,0-4.8,1.7-4.8,3.8v35.9
			c0,0.5,0.3,1,0.9,1.2C422,334.6,426.4,335.4,428.7,330.9z"/>
	</g>
	<path class="st74" d="M410.5,310.5c0.1,0.1,0.3,0.1,0.4,0.1c2.1,0.2,9.7-1.5,17.3-10.1c0.6-0.7,1-1.7,1-2.5v-24.4
		c0-1.8-0.7-3.1-1.7-3.7l-5.7-3.3c-1-0.6-2.5-0.5-4.1,0.4l-7.8,4.5c-3.2,1.8-5.7,6.3-5.7,9.9V306c0,0.6,0.2,1,0.6,1.2L410.5,310.5z"
		/>
	<path class="st75" d="M412.8,273.1c0,0.6,0.4,1.2,1.2,1.7c1.6,0.9,4.1,0.9,5.7,0c0.8-0.5,1.2-1.1,1.2-1.7v-5.3
		c0-0.6-0.4-1.2-1.2-1.7c-1.6-0.9-4.1-0.9-5.7,0c-0.8,0.5-1.2,1.1-1.2,1.7V273.1z"/>
	
		<ellipse transform="matrix(0.9228 -0.3853 0.3853 0.9228 -67.7269 180.6059)" class="st49" cx="416.8" cy="259.3" rx="11.1" ry="11.1"/>
	<g>
		<path class="st49" d="M403.6,313.4L403.6,313.4c-1.7-0.2-3-1.8-2.8-3.5l3.4-23.9c0.2-1.7,1.8-3,3.5-2.8l0,0c1.7,0.2,3,1.8,2.8,3.5
			l-3.4,23.9C406.9,312.4,405.3,313.6,403.6,313.4z"/>
		<path class="st10" d="M411.7,290.8l0.9-7.9c0.3-2.7-1.6-5.1-4.3-5.4l0,0c-2.7-0.3-5.1,1.6-5.4,4.3l-0.9,7.9
			C402,289.7,404.9,294.6,411.7,290.8z"/>
	</g>
	<path class="st76" d="M423.1,269.4c-3.5,2-6.2,0.5-7.1-1c-2.4-3.7-2.8-1.2-4.2-3c-1.9-3.1-1.5-7.3-4.1-9.2c-3.7-2.8-2.7-8.3,7-10.8
		c13.1-3.3,18.2,13.1,10.1,22.7C424.1,268.8,423.8,269,423.1,269.4z"/>
	<path class="st49" d="M412.9,265.9c-0.9,0.9-2,0.7-2.3-0.6c-0.3-1.3,0.1-3.1,1.1-4c0.9-0.9,2-0.7,2.3,0.6
		C414.3,263.2,413.8,265,412.9,265.9z"/>
</g>
<g>
	<g>
		<path class="st49" d="M403.7,190.4L403.7,190.4c1.6,0.2,3.1-1,3.3-2.6l3.4-28c0.2-1.6-1-3.1-2.6-3.3l0,0c-1.6-0.2-3.1,1-3.3,2.6
			l-3.4,28C401,188.8,402.1,190.2,403.7,190.4z"/>
	</g>
	<g>
		<g>
			<g>
				<path class="st2" d="M420.8,229.9c0,0.4-0.3,0.7-0.8,1.1c-0.1,0.1,0-2.1-0.5-1.7c-0.1,0.1-7.2,5.6-11.1,4.6
					c-0.4-0.1-0.6-0.5-0.6-0.8l0-0.9c-0.1-1,1.4-2.5,3.7-4.7c2.5-2.4,4.1-3.9,7.8-1.8c1.1,0.6,1.5,1.1,1.5,1.5L420.8,229.9z"/>
				<path class="st77" d="M411.5,227.4c-3,2.9-4.6,4.7-3.1,5.5c1.5,0.9,4.6-0.5,7.8-2.8c2.8-2.1,6.8-2.3,3.1-4.5
					C415.6,223.5,414,225,411.5,227.4z"/>
			</g>
		</g>
		<path class="st49" d="M414.5,226l0.2-27l8.9,2.9l-1.5,4.4c0,0,0.7,5.9-1.1,11.8c0,0-1.3,2.6-1,8.7
			C420,226.8,416.7,228.6,414.5,226z"/>
	</g>
	<g>
		<g>
			<g>
				<path class="st2" d="M412.2,222.9c0,0.4-0.3,0.7-0.8,1.1c-0.1,0.1,0-2.1-0.5-1.7c-0.1,0.1-7.2,5.6-11.1,4.6
					c-0.4-0.1-0.6-0.5-0.6-0.8l0-0.9c-0.1-1,1.4-2.5,3.7-4.7c2.5-2.4,4.1-3.9,7.8-1.8c1.1,0.6,1.5,1.1,1.5,1.5L412.2,222.9z"/>
				<path class="st77" d="M402.9,220.3c-3,2.9-4.6,4.7-3.1,5.5c1.5,0.9,4.6-0.5,7.8-2.8c2.8-2.1,6.8-2.3,3.1-4.5
					S405.4,217.9,402.9,220.3z"/>
			</g>
		</g>
		<path class="st49" d="M405.9,218.9l0.2-27l8.9,2.9l-1.5,4.4c0,0,0.7,5.9-1.1,11.8c0,0-1.3,2.6-1,8.7
			C411.4,219.7,408.1,221.6,405.9,218.9z"/>
	</g>
	<path class="st78" d="M426.9,192.7v10c0,0-11.7,3.9-22.7-10V183L426.9,192.7z"/>
	<path class="st78" d="M421.3,196.5c-0.1,0.1-0.2,0.1-0.4,0.1c-2,0.2-9-1.4-16.1-9.3c-0.6-0.7-1-1.5-1-2.3v-22.5
		c0-1.7,0.6-2.9,1.6-3.4l5.3-3.1c1-0.6,2.3-0.5,3.8,0.3l7.2,4.2c2.9,1.7,5.3,5.8,5.3,9.2v22.7c0,0.5-0.2,0.9-0.5,1.1L421.3,196.5z"
		/>
	<path class="st75" d="M419.2,161.9c0,0.6-0.4,1.1-1.1,1.6c-1.5,0.8-3.8,0.8-5.3,0c-0.7-0.4-1.1-1-1.1-1.6V157
		c0-0.6,0.4-1.1,1.1-1.6c1.5-0.8,3.8-0.8,5.3,0c0.7,0.4,1.1,1,1.1,1.6V161.9z"/>
	<g>
		<path class="st49" d="M424.6,198.6L424.6,198.6c1.6,0,2.9-1.3,2.9-2.9v-28.2c0-1.6-1.3-2.9-2.9-2.9l0,0c-1.6,0-2.9,1.3-2.9,2.9
			v28.2C421.7,197.3,423,198.6,424.6,198.6z"/>
	</g>
	<path class="st0" d="M418.9,154.9c0,1.2,0.9,1.7,1.9,1.1c1.1-0.6,1.9-2.1,1.9-3.3c0-1.2-0.9-1.7-1.9-1.1
		C419.8,152.2,418.9,153.7,418.9,154.9z"/>
	<path class="st79" d="M408.9,168.2c0,0-9.9-9-3.9-25.1l4.7,16.7L408.9,168.2z"/>
	
		<ellipse transform="matrix(0.9735 -0.2287 0.2287 0.9735 -23.0793 99.01)" class="st49" cx="415.6" cy="149.1" rx="10.3" ry="10.3"/>
	<path class="st79" d="M412.5,168.2c0,0,7.7-8.4,2.3-24.1l-9.5,3.3c0,0-3.3-8.1,7.5-10.5c0,0,7.2-1.6,9.7,4.4c0,0,5.8,0.5,3.6,12.3
		C426.1,153.6,425.8,164.9,412.5,168.2z"/>
</g>
</svg>
