<?xml version="1.0" encoding="utf-8"?>
<!-- Generator: Adobe Illustrator 22.0.0, SVG Export Plug-In . SVG Version: 6.00 Build 0)  -->
<svg version="1.1" xmlns="http://www.w3.org/2000/svg" xmlns:xlink="http://www.w3.org/1999/xlink" x="0px" y="0px"
	 viewBox="0 0 500 500" style="enable-background:new 0 0 500 500;" xml:space="preserve">
<style type="text/css">
	.st0{opacity:0.27;}
	.st1{fill:url(#XMLID_2_);}
	.st2{enable-background:new    ;}
	.st3{fill:#AFB9BC;}
	.st4{fill:url(#XMLID_3_);}
	.st5{fill:#1D2220;}
	.st6{fill:#6F849B;}
	.st7{fill:#2A312F;}
	.st8{fill:url(#XMLID_4_);}
	.st9{fill:#FFFFFF;}
	.st10{fill:#072593;}
	.st11{fill:#2F3735;}
	.st12{fill:#1F261D;}
	.st13{fill:#212624;}
	.st14{fill:url(#XMLID_5_);}
	.st15{fill:url(#XMLID_6_);}
	.st16{fill:url(#XMLID_7_);}
	.st17{fill:url(#XMLID_8_);}
	.st18{fill:url(#XMLID_9_);}
	.st19{fill:url(#XMLID_10_);}
	.st20{fill:#7F7F7F;}
	.st21{fill:#8A6100;}
	.st22{fill:#EAAA28;}
	.st23{fill:url(#XMLID_11_);}
	.st24{fill:url(#XMLID_12_);}
	.st25{fill:url(#XMLID_13_);}
</style>
<g id="OBJECTS">
	<g id="XMLID_116_">
		<g id="XMLID_137_" class="st0">
			
				<linearGradient id="XMLID_2_" gradientUnits="userSpaceOnUse" x1="465.4565" y1="383.9415" x2="130.0351" y2="310.0875" gradientTransform="matrix(0.9969 -1.650000e-02 -1.450000e-02 0.9758 5.585 8.7429)">
				<stop  offset="0.1192" style="stop-color:#473F58"/>
				<stop  offset="0.829" style="stop-color:#2F3735"/>
			</linearGradient>
			<polygon id="XMLID_138_" class="st1" points="250.5,428.6 115.3,359.2 290.4,245.6 419.9,311.1 			"/>
		</g>
		<g id="XMLID_117_">
			<g id="XMLID_30_">
				<g id="XMLID_35_" class="st2">
					<g id="XMLID_40_">
						<path id="XMLID_41_" class="st3" d="M249.9,396.1l-131.1-66.4c-2.5-1.9-3.8-4.9-3.4-8l0,0l135.2,69.4L249.9,396.1z"/>
					</g>
					<g id="XMLID_38_">
						
							<linearGradient id="XMLID_3_" gradientUnits="userSpaceOnUse" x1="464.8975" y1="345.5039" x2="129.476" y2="271.6499" gradientTransform="matrix(0.9969 -1.650000e-02 -1.450000e-02 0.9758 5.585 8.7429)">
							<stop  offset="0.1192" style="stop-color:#473F58"/>
							<stop  offset="0.829" style="stop-color:#2F3735"/>
						</linearGradient>
						<polygon id="XMLID_39_" class="st4" points="250.5,391.1 115.3,321.7 290.4,208.1 419.9,273.6 						"/>
					</g>
					<g id="XMLID_36_">
						<path id="XMLID_37_" class="st3" d="M419.9,273.6L419.9,273.6c-0.4,3.1-2.3,6-5.1,7.8L249.9,396.1l0.7-5L419.9,273.6z"/>
					</g>
				</g>
			</g>
			<g id="XMLID_131_">
			</g>
			<g id="XMLID_32_">
				<g id="XMLID_43_" class="st2">
					<g id="XMLID_49_">
						<path id="XMLID_50_" class="st5" d="M114.9,321.8L114.9,321.8c-2.8-1.2-4.6-3.8-4.8-6.8l-5.7-125.5l4.5,1.9L114.9,321.8z"/>
					</g>
					<g id="XMLID_46_">
						<path id="XMLID_48_" class="st6" d="M109,191.4l-4.5-1.9L278.7,77c2.6-1.7,5.8-2,8.7-0.8l0,0L109,191.4z"/>
					</g>
					<g id="XMLID_44_">
						<polygon id="XMLID_45_" class="st7" points="287.3,76.2 293.3,206.6 114.9,321.8 109,191.4 						"/>
					</g>
					<g id="XMLID_51_">
						<g id="XMLID_73_">
							
								<linearGradient id="XMLID_4_" gradientUnits="userSpaceOnUse" x1="113.6707" y1="-16172.9248" x2="353.8107" y2="-15919.6855" gradientTransform="matrix(1 0 0 -1 0 -15881.8896)">
								<stop  offset="6.217620e-02" style="stop-color:#B964FF"/>
								<stop  offset="0.8083" style="stop-color:#4A7EE6"/>
							</linearGradient>
							<polygon id="XMLID_74_" class="st8" points="281.4,87.1 286,204.4 120.7,310.4 115.4,194.1 							"/>
						</g>
					</g>
					<path id="XMLID_55_" class="st9" d="M231.5,177.7l-0.2-5.2c-0.1-1.5-1.8-2.4-3.1-1.6l-48.9,31.5c-0.6,0.4-0.9,1.1-0.9,1.8
						l0.2,5.2c0.1,1.5,1.8,2.4,3.1,1.6l48.8-31.5C231.2,179.1,231.6,178.4,231.5,177.7z"/>
					<path id="XMLID_54_" class="st9" d="M231.5,195.7l-0.2-5.2c-0.1-1.5-1.8-2.4-3.1-1.6l-48.9,31.5c-0.6,0.4-0.9,1.1-0.9,1.8
						l0.2,5.2c0.1,1.5,1.8,2.4,3.1,1.6l48.8-31.5C231.2,197.1,231.6,196.4,231.5,195.7z"/>
					<path id="XMLID_92_" class="st10" d="M212.9,215.3l-13.6,8.7c-0.6,0.4-1,1.1-1,1.9v4.8c0,1.8,1.9,2.8,3.4,1.9l13.6-8.7
						c0.6-0.4,1-1.1,1-1.9v-4.8C216.4,215.4,214.4,214.4,212.9,215.3z"/>
				</g>
			</g>
			<path id="XMLID_56_" class="st9" d="M203.5,171c1.5-2,2.5-4.4,2.5-6.4c0-3.1-2.5-4-5.6-1.9s-5.6,6.3-5.6,9.4c0,2,1,3,2.5,3
				c-3.4,3.5-5.9,8.5-5.9,12.4l1.5-1c0-4.1,3.4-9.7,7.5-12.5c4.1-2.7,7.5-1.6,7.5,2.5l1.5-1C209.4,171.6,207,170,203.5,171z
				 M200.4,172.5c-2.3,1.5-4.1,0.9-4.1-1.4c0-2.3,1.9-5.4,4.1-6.9c2.3-1.5,4.1-0.9,4.1,1.4C204.5,167.9,202.7,171,200.4,172.5z"/>
			<g id="XMLID_57_">
				<circle id="XMLID_53_" class="st11" cx="186.9" cy="203.2" r="1.5"/>
				<circle id="XMLID_58_" class="st11" cx="192.4" cy="199.7" r="1.5"/>
				<circle id="XMLID_59_" class="st11" cx="197.9" cy="196.2" r="1.5"/>
				<circle id="XMLID_60_" class="st11" cx="203.4" cy="192.7" r="1.5"/>
				<circle id="XMLID_61_" class="st11" cx="208.9" cy="189.2" r="1.5"/>
			</g>
			<g id="XMLID_78_">
				<circle id="XMLID_83_" class="st11" cx="186.9" cy="220.4" r="1.5"/>
				<circle id="XMLID_82_" class="st11" cx="192.4" cy="216.9" r="1.5"/>
				<circle id="XMLID_81_" class="st11" cx="197.9" cy="213.4" r="1.5"/>
				<circle id="XMLID_80_" class="st11" cx="203.4" cy="209.9" r="1.5"/>
				<circle id="XMLID_79_" class="st11" cx="208.9" cy="206.4" r="1.5"/>
			</g>
			<path id="XMLID_84_" class="st12" d="M358.4,252.6l-160,101c-1.4,0.9-4,0.6-5.7-0.6L150,331.8c-1.8-1.2-2.1-3-0.7-3.8
				l157.7-100.8c1.4-0.9,4-0.6,5.7,0.6l45,21C359.4,249.9,359.8,251.7,358.4,252.6z"/>
			<g id="XMLID_42_">
				<path id="XMLID_85_" class="st13" d="M335.8,318.2l-26.2,18c-1.4,1-3.5,0.9-5.1,0l-25-14.5c-2.3-1.4-2.7-4-0.7-5.4l26.2-18
					c1.4-1,3.5-0.9,5.1,0l25,14.5C337.5,314.2,337.8,316.9,335.8,318.2z"/>
				
					<linearGradient id="XMLID_5_" gradientUnits="userSpaceOnUse" x1="330.2889" y1="307.4322" x2="274.7575" y2="338.5542" gradientTransform="matrix(1.0051 -5.970000e-02 0.1649 0.8649 -52.0665 57.2249)">
					<stop  offset="0.1503" style="stop-color:#574D6C"/>
					<stop  offset="0.829" style="stop-color:#404B48"/>
				</linearGradient>
				<path id="XMLID_87_" class="st14" d="M334.5,318.3l-25.1,17.2c-1.3,0.9-3.4,0.9-4.9,0l-23.9-14.1c-2.2-1.3-2.6-3.9-0.7-5.2
					l25.1-17.2c1.3-0.9,3.4-0.9,4.9,0l23.9,14.1C336.1,314.5,336.4,317,334.5,318.3z"/>
			</g>
			
				<linearGradient id="XMLID_6_" gradientUnits="userSpaceOnUse" x1="299.157" y1="187.9992" x2="243.6598" y2="189.4991" gradientTransform="matrix(1 0.2857 0 1 0 -81.9562)">
				<stop  offset="6.217620e-02" style="stop-color:#D400C3"/>
				<stop  offset="0.9689" style="stop-color:#F6F8FC;stop-opacity:0"/>
			</linearGradient>
			<polygon id="XMLID_88_" class="st15" points="284.9,241 246,229.9 246,124.6 284.9,135.7 			"/>
			
				<linearGradient id="XMLID_7_" gradientUnits="userSpaceOnUse" x1="159.73" y1="341.662" x2="118.6974" y2="342.771" gradientTransform="matrix(1 0.2857 0 1 0 -81.9562)">
				<stop  offset="6.217620e-02" style="stop-color:#D400C3"/>
				<stop  offset="0.9689" style="stop-color:#F6F8FC;stop-opacity:0"/>
			</linearGradient>
			<polygon id="XMLID_127_" class="st16" points="150.5,327.3 120.7,311.1 118.7,270.4 149.8,286.8 			"/>
			
				<linearGradient id="XMLID_8_" gradientUnits="userSpaceOnUse" x1="204.3966" y1="307.5674" x2="163.3642" y2="308.6764" gradientTransform="matrix(1 0.2857 0 1 0 -81.9562)">
				<stop  offset="6.217620e-02" style="stop-color:#D400C3"/>
				<stop  offset="0.9689" style="stop-color:#F6F8FC;stop-opacity:0"/>
			</linearGradient>
			<polygon id="XMLID_130_" class="st17" points="195.2,306 165.4,289.8 163.4,249.1 194.5,265.5 			"/>
			
				<linearGradient id="XMLID_9_" gradientUnits="userSpaceOnUse" x1="337.065" y1="140.8231" x2="253.7182" y2="143.0758" gradientTransform="matrix(1 0.2857 0 1 0 -81.9562)">
				<stop  offset="6.217620e-02" style="stop-color:#D400C3"/>
				<stop  offset="0.9689" style="stop-color:#F6F8FC;stop-opacity:0"/>
			</linearGradient>
			<polygon id="XMLID_91_" class="st18" points="340.4,209.5 280.4,192.3 280.4,87.1 340.4,104.2 			"/>
			<g id="XMLID_114_">
				
					<linearGradient id="XMLID_10_" gradientUnits="userSpaceOnUse" x1="361.0125" y1="-15935.2783" x2="280.2175" y2="-16137.2666" gradientTransform="matrix(1 0 0 -1 0 -15881.8896)">
					<stop  offset="6.217620e-02" style="stop-color:#A59AFF"/>
					<stop  offset="0.8083" style="stop-color:#F6F8FC"/>
				</linearGradient>
				<polygon id="XMLID_98_" class="st19" points="341.9,103 341.9,209.1 284.9,241.4 284.9,135.5 				"/>
				<path id="XMLID_90_" class="st20" d="M304.8,147.6c1.2-1.6,2-3.4,2-5c0-2.4-2-3.1-4.4-1.5c-2.4,1.6-4.4,4.9-4.4,7.3
					c0,1.5,0.8,2.4,2,2.4c-2.7,2.8-4.6,6.6-4.6,9.6l1.2-0.8c0-3.2,2.6-7.6,5.9-9.7c3.2-2.1,5.9-1.2,5.9,2l1.2-0.8
					C309.4,148.1,307.4,146.8,304.8,147.6z M302.3,148.7c-1.8,1.2-3.2,0.7-3.2-1.1s1.4-4.2,3.2-5.3s3.2-0.7,3.2,1.1
					S304.1,147.6,302.3,148.7z"/>
				<g id="XMLID_94_">
					<g id="XMLID_93_">
						<path id="XMLID_113_" class="st20" d="M316,140.7c-0.3,0-0.7-0.2-0.9-0.5c-0.3-0.5-0.1-1.1,0.4-1.4l17.3-10
							c0.5-0.3,1.1-0.1,1.4,0.4c0.3,0.5,0.1,1.1-0.4,1.4l-17.3,10C316.4,140.7,316.2,140.7,316,140.7z"/>
					</g>
					<g id="XMLID_96_">
						<path id="XMLID_112_" class="st20" d="M297.4,172.1c-0.3,0-0.7-0.2-0.9-0.5c-0.3-0.5-0.1-1.1,0.3-1.4l37.1-22.8
							c0.5-0.3,1.1-0.1,1.4,0.3c0.3,0.5,0.1,1.1-0.3,1.4l-37.1,22.8C297.7,172,297.5,172.1,297.4,172.1z"/>
					</g>
					<g id="XMLID_97_">
						<path id="XMLID_111_" class="st20" d="M297.4,183.4c-0.3,0-0.7-0.2-0.9-0.5c-0.3-0.5-0.1-1.1,0.3-1.4l37.1-22.8
							c0.5-0.3,1.1-0.1,1.4,0.3c0.3,0.5,0.1,1.1-0.3,1.4l-37.1,22.8C297.7,183.3,297.5,183.4,297.4,183.4z"/>
					</g>
					<g id="XMLID_99_">
						<path id="XMLID_110_" class="st20" d="M297.4,194.7c-0.3,0-0.7-0.2-0.9-0.5c-0.3-0.5-0.1-1.1,0.3-1.4l37.1-22.8
							c0.5-0.3,1.1-0.1,1.4,0.3c0.3,0.5,0.1,1.1-0.3,1.4l-37.1,22.8C297.7,194.7,297.5,194.7,297.4,194.7z"/>
					</g>
					<g id="XMLID_106_">
						<path id="XMLID_109_" class="st20" d="M297.4,206.1c-0.3,0-0.7-0.2-0.9-0.5c-0.3-0.5-0.1-1.1,0.3-1.4l37.1-22.8
							c0.5-0.3,1.1-0.1,1.4,0.3c0.3,0.5,0.1,1.1-0.3,1.4l-37.1,22.8C297.7,206,297.5,206.1,297.4,206.1z"/>
					</g>
					<g id="XMLID_107_">
						<path id="XMLID_108_" class="st20" d="M297.4,217.4c-0.3,0-0.7-0.2-0.9-0.5c-0.3-0.5-0.1-1.1,0.3-1.4l37.1-22.8
							c0.5-0.3,1.1-0.1,1.4,0.3c0.3,0.5,0.1,1.1-0.3,1.4l-37.1,22.8C297.7,217.3,297.5,217.4,297.4,217.4z"/>
					</g>
				</g>
			</g>
			<g id="XMLID_86_">
				<g id="XMLID_65_">
					<g id="XMLID_115_">
						<g id="XMLID_118_" class="st2">
							<g id="XMLID_123_">
								<polygon id="XMLID_124_" class="st21" points="162.6,332.2 150.5,327.3 149.8,286.8 161.9,291.7 								"/>
							</g>
							<g id="XMLID_121_">
								<polygon id="XMLID_122_" class="st22" points="161.9,291.7 149.8,286.8 188.3,262.6 200.4,267.5 								"/>
							</g>
							<g id="XMLID_119_">
								
									<linearGradient id="XMLID_11_" gradientUnits="userSpaceOnUse" x1="146.3614" y1="-16230.7012" x2="214.7235" y2="-16135.4092" gradientTransform="matrix(1 0 0 -1 0 -15881.8896)">
									<stop  offset="4.663210e-02" style="stop-color:#FED600"/>
									<stop  offset="0.8342" style="stop-color:#CD9000"/>
								</linearGradient>
								<polygon id="XMLID_120_" class="st23" points="200.4,267.5 201,308 162.6,332.2 161.9,291.7 								"/>
							</g>
						</g>
					</g>
					
						<linearGradient id="XMLID_12_" gradientUnits="userSpaceOnUse" x1="190.2895" y1="299.4059" x2="176.1711" y2="307.3201" gradientTransform="matrix(0.8523 -0.554 0 1 26.7837 99.4516)">
						<stop  offset="0.1192" style="stop-color:#473F58"/>
						<stop  offset="0.829" style="stop-color:#2F3735"/>
					</linearGradient>
					<path id="XMLID_71_" class="st24" d="M187.2,294.2c0-2.5-1.7-3.4-3.8-2c-2.1,1.4-3.8,4.5-3.8,7c0,1.9,1.1,2.9,2.5,2.6l-1.3,8.1
						l5.2-3.4l-1.3-6.4C186.2,298.5,187.2,296.2,187.2,294.2z"/>
				</g>
				<g id="XMLID_67_">
					<path id="XMLID_77_" class="st9" d="M159.4,287.6c-1.4,0-2.5-1.1-2.5-2.5v-16.3c0-7.9,7.2-18.6,16.4-24.4
						c5.8-3.7,11.3-4.6,15-2.5c2.6,1.4,4.1,4.2,4.1,7.7v8.7c0,1.4-1.1,2.5-2.5,2.5c-1.4,0-2.5-1.1-2.5-2.5v-8.7
						c0-1.7-0.5-2.8-1.5-3.3c-1.5-0.8-5-0.7-9.9,2.4c-7.6,4.8-14.1,14-14.1,20.2v16.3C161.9,286.5,160.7,287.6,159.4,287.6z"/>
				</g>
				
					<linearGradient id="XMLID_13_" gradientUnits="userSpaceOnUse" x1="183.86" y1="-16151.4453" x2="192.86" y2="-16151.4453" gradientTransform="matrix(1 0 0 -1 0 -15881.8896)">
					<stop  offset="0.1192" style="stop-color:#473F58"/>
					<stop  offset="0.829" style="stop-color:#2F3735"/>
				</linearGradient>
				<ellipse id="XMLID_68_" class="st25" cx="188.4" cy="269.6" rx="4.5" ry="2.5"/>
			</g>
		</g>
	</g>
</g>
<g id="DESIGN_BY_FREEPICK">
</g>
</svg>
