<?xml version="1.0" encoding="utf-8"?>
<!-- Generator: Adobe Illustrator 22.0.0, SVG Export Plug-In . SVG Version: 6.00 Build 0)  -->
<svg version="1.1" xmlns="http://www.w3.org/2000/svg" xmlns:xlink="http://www.w3.org/1999/xlink" x="0px" y="0px"
	 viewBox="0 0 500 500" style="enable-background:new 0 0 500 500;" xml:space="preserve">
<style type="text/css">
	.st0{fill:url(#SVGID_1_);}
	.st1{fill:url(#SVGID_2_);}
	.st2{fill:#DAD0EA;}
	.st3{fill:url(#SVGID_3_);}
	.st4{fill:#E2E2E2;}
	.st5{fill:url(#SVGID_4_);}
	.st6{fill:url(#SVGID_5_);}
	.st7{fill:url(#SVGID_6_);}
	.st8{fill:url(#SVGID_7_);}
	.st9{fill:url(#SVGID_8_);}
	.st10{fill:url(#SVGID_9_);}
	.st11{fill:#FFFFFF;}
	.st12{fill:#ED647C;}
	.st13{fill:url(#SVGID_10_);}
	.st14{fill:url(#SVGID_11_);}
	.st15{fill:url(#SVGID_12_);}
	.st16{fill:url(#SVGID_13_);}
	.st17{fill:url(#SVGID_14_);}
	.st18{fill:url(#SVGID_15_);}
	.st19{fill:url(#SVGID_16_);}
	.st20{fill:url(#SVGID_17_);}
	.st21{fill:url(#SVGID_18_);}
	.st22{fill:url(#SVGID_19_);}
	.st23{fill:url(#SVGID_20_);}
	.st24{fill:url(#SVGID_21_);}
	.st25{fill:url(#SVGID_22_);}
	.st26{fill:url(#SVGID_23_);}
	.st27{fill:url(#SVGID_24_);}
	.st28{fill:url(#SVGID_25_);}
	.st29{fill:url(#SVGID_26_);}
	.st30{fill:url(#SVGID_27_);}
	.st31{fill:url(#SVGID_28_);}
	.st32{fill:url(#SVGID_29_);}
	.st33{opacity:0.25;fill:url(#SVGID_30_);}
	.st34{fill:url(#SVGID_31_);}
	.st35{opacity:0.4;fill:url(#SVGID_32_);}
	.st36{fill:#7D7D7D;}
	.st37{fill:#FFF5C5;}
	.st38{fill:url(#SVGID_33_);}
	.st39{opacity:0.4;fill:#74579E;}
	.st40{fill:url(#SVGID_34_);}
	.st41{opacity:0.45;fill:url(#SVGID_35_);}
	.st42{fill:#F2CEB6;}
	.st43{fill:#E5BDA8;}
	.st44{fill:#FFE8DC;}
	.st45{fill:url(#SVGID_36_);}
	.st46{fill:#FECFAE;}
	.st47{filter:url(#Adobe_OpacityMaskFilter);}
	.st48{mask:url(#SVGID_37_);}
	.st49{fill:#5E4675;}
	.st50{fill:#513C68;}
	.st51{fill:#8361AA;}
	.st52{fill:#F96EA0;}
	.st53{fill:#E55791;}
	.st54{fill:#80679E;}
	.st55{fill:#FFA9CC;}
	.st56{fill:#9E7DCC;}
	.st57{fill:#684F3E;}
	.st58{fill:#74579E;}
	.st59{fill:#DB5A8F;}
	.st60{fill:#7A649B;}
	.st61{opacity:0.25;fill:url(#SVGID_38_);}
	.st62{opacity:0.25;fill:url(#SVGID_39_);}
	.st63{fill:url(#SVGID_40_);}
	.st64{fill:url(#SVGID_41_);}
	.st65{fill:url(#SVGID_42_);}
	.st66{fill:url(#SVGID_43_);}
	.st67{fill:url(#SVGID_44_);}
	.st68{fill:url(#SVGID_45_);}
	.st69{fill:url(#SVGID_46_);}
</style>
<g id="OBJECTS">
	<g>
		<g>
			<linearGradient id="SVGID_1_" gradientUnits="userSpaceOnUse" x1="106.7092" y1="253.7772" x2="382.7629" y2="253.7772">
				<stop  offset="0" style="stop-color:#D79FF3"/>
				<stop  offset="1" style="stop-color:#48FFC2"/>
			</linearGradient>
			<path class="st0" d="M361.5,319c-24.5,53.9-68.3,95.5-140,95.5S92.2,362.1,110,256.7c16.7-99.1,169.6-189.9,227-156.6
				C399,136.1,388.3,259.9,361.5,319z"/>
			
				<linearGradient id="SVGID_2_" gradientUnits="userSpaceOnUse" x1="173.2477" y1="215.1022" x2="449.2952" y2="215.1022" gradientTransform="matrix(-0.8761 -0.4822 0.4822 -0.8761 431.3287 605.3531)">
				<stop  offset="0" style="stop-color:#D79FF3"/>
				<stop  offset="1" style="stop-color:#48FFC2"/>
			</linearGradient>
			<path class="st1" d="M191.5,153.4c47.5-35.4,105.8-50.7,168.7-16.1s88,108.2,21.6,191.9C319.4,408,141.7,413.8,107.5,357
				C70.4,295.5,139.5,192.2,191.5,153.4z"/>
		</g>
		<g>
			<ellipse class="st2" cx="166.3" cy="411.4" rx="48.3" ry="30.5"/>
			<ellipse class="st2" cx="194.4" cy="428.1" rx="31.4" ry="19.9"/>
		</g>
		<g>
			<g>
				<linearGradient id="SVGID_3_" gradientUnits="userSpaceOnUse" x1="185.7793" y1="265.2874" x2="363.1093" y2="265.2874">
					<stop  offset="0" style="stop-color:#FF9FD4"/>
					<stop  offset="1" style="stop-color:#C9A4FF"/>
				</linearGradient>
				<polygon class="st3" points="363.1,235.7 185.8,133.3 185.8,294.9 363.1,397.3 				"/>
				<polygon class="st4" points="185.8,133.3 195.1,127.9 372.4,230.3 363.1,235.7 				"/>
				<linearGradient id="SVGID_4_" gradientUnits="userSpaceOnUse" x1="367.7759" y1="397.2952" x2="367.7759" y2="230.2726">
					<stop  offset="0" style="stop-color:#AE89E8"/>
					<stop  offset="1" style="stop-color:#EF8BC7"/>
				</linearGradient>
				<polygon class="st5" points="372.4,230.3 372.4,391.9 363.1,397.3 363.1,235.7 				"/>
			</g>
			<g>
				<linearGradient id="SVGID_5_" gradientUnits="userSpaceOnUse" x1="185.7793" y1="171.8504" x2="363.1093" y2="171.8504">
					<stop  offset="0" style="stop-color:#F779B8"/>
					<stop  offset="1" style="stop-color:#9361CE"/>
				</linearGradient>
				<polygon class="st6" points="363.1,210.1 185.8,107.8 185.8,133.6 363.1,235.9 				"/>
				<linearGradient id="SVGID_6_" gradientUnits="userSpaceOnUse" x1="185.7793" y1="265.2874" x2="363.1093" y2="265.2874">
					<stop  offset="0" style="stop-color:#FF9FD4"/>
					<stop  offset="1" style="stop-color:#C9A4FF"/>
				</linearGradient>
				<polygon class="st7" points="363.1,235.7 185.8,133.3 185.8,294.9 363.1,397.3 				"/>
				<linearGradient id="SVGID_7_" gradientUnits="userSpaceOnUse" x1="185.7793" y1="171.8504" x2="363.1093" y2="171.8504">
					<stop  offset="0" style="stop-color:#F779B8"/>
					<stop  offset="1" style="stop-color:#9361CE"/>
				</linearGradient>
				<polygon class="st8" points="363.1,210.1 185.8,107.8 185.8,133.6 363.1,235.9 				"/>
				<linearGradient id="SVGID_8_" gradientUnits="userSpaceOnUse" x1="185.7793" y1="156.2534" x2="372.4425" y2="156.2534">
					<stop  offset="0" style="stop-color:#FFA4D6"/>
					<stop  offset="1" style="stop-color:#A777ED"/>
				</linearGradient>
				<polygon class="st9" points="185.8,107.8 195.1,102.4 372.4,204.8 363.1,210.1 				"/>
				<linearGradient id="SVGID_9_" gradientUnits="userSpaceOnUse" x1="367.7759" y1="235.9439" x2="367.7759" y2="204.75">
					<stop  offset="0" style="stop-color:#F779B8"/>
					<stop  offset="1" style="stop-color:#9361CE"/>
				</linearGradient>
				<polygon class="st10" points="372.4,204.8 372.4,230.6 363.1,235.9 363.1,210.1 				"/>
			</g>
			<g>
				<polygon class="st11" points="195.1,153.5 195.1,175 213.8,185.8 213.8,164.2 				"/>
				<polygon class="st11" points="218.4,166.9 218.4,188.5 237.1,199.3 237.1,177.7 				"/>
				<polygon class="st11" points="241.8,180.4 241.8,202 260.4,212.7 260.4,191.2 				"/>
				<polygon class="st11" points="265.1,193.9 265.1,215.4 283.8,226.2 283.8,204.7 				"/>
				<polygon class="st11" points="288.4,207.3 288.4,228.9 307.1,239.7 307.1,218.1 				"/>
				<polygon class="st11" points="311.8,220.8 311.8,242.4 330.4,253.2 330.4,231.6 				"/>
				<polygon class="st11" points="335.1,234.3 335.1,255.9 353.8,266.6 353.8,245.1 				"/>
				<polygon class="st11" points="195.1,182.1 195.1,203.6 213.8,214.4 213.8,192.8 				"/>
				<polygon class="st11" points="218.4,195.5 218.4,217.1 237.1,227.9 237.1,206.3 				"/>
				<polygon class="st11" points="241.8,209 241.8,230.6 260.4,241.3 260.4,219.8 				"/>
				<polygon class="st11" points="265.1,222.5 265.1,244 283.8,254.8 283.8,233.3 				"/>
				<polygon class="st11" points="288.4,235.9 288.4,257.5 307.1,268.3 307.1,246.7 				"/>
				<polygon class="st11" points="311.8,249.4 311.8,271 330.4,281.8 330.4,260.2 				"/>
				<path class="st12" d="M227.4,203.6c2,0.6,3.6,2,4.7,3.7c1.1,1.7,1.7,3.7,1.9,5.7c0.1,1,0.1,2-0.1,3c-0.1,1-0.5,2.1-1.3,3
					c-0.8,0.9-1.9,1.4-3,1.5c-1.1,0.2-2.1,0-3.1-0.2c-2-0.5-3.9-1.7-5.1-3.5c-0.6-0.9-1-1.9-1.1-2.9c-0.1-0.5-0.2-1-0.3-1.5
					c-0.1-0.5-0.1-1-0.1-1.5c0-1,0.2-2.1,0.6-3c0.2-0.5,0.5-1,0.8-1.4c0.4-0.4,0.8-0.8,1.3-1c0.5-0.3,1.2-0.3,1.7-0.2
					c0.6,0.1,1.1,0.4,1.5,0.7c0.8,0.7,1.3,1.5,1.8,2.4c0,0,0,0,0,0.1c0,0,0,0,0,0c-0.7-0.7-1.4-1.4-2.2-1.8
					c-0.8-0.4-1.6-0.5-2.2-0.1c-1.4,0.8-2,2.7-2,4.4c0,0.9,0.1,1.8,0.3,2.7c0.2,0.9,0.5,1.7,1,2.4c1,1.5,2.5,2.4,4.3,2.9
					c1.7,0.4,3.6,0.3,4.7-0.8c1.1-1.1,1.1-3.2,1-5c-0.1-1.8-0.6-3.6-1.6-5.2c-1-1.5-2.4-2.8-4-3.4c-0.3-0.1-0.4-0.4-0.3-0.7
					C226.8,203.7,227.1,203.5,227.4,203.6z"/>
				<polygon class="st11" points="335.1,262.9 335.1,284.5 353.8,295.2 353.8,273.7 				"/>
				<polygon class="st11" points="195.1,210.7 195.1,232.2 213.8,243 213.8,221.4 				"/>
				<polygon class="st11" points="218.4,224.1 218.4,245.7 237.1,256.5 237.1,234.9 				"/>
				<polygon class="st11" points="241.8,237.6 241.8,259.2 260.4,269.9 260.4,248.4 				"/>
				<polygon class="st11" points="265.1,251.1 265.1,272.6 283.8,283.4 283.8,261.9 				"/>
				<polygon class="st11" points="288.4,264.5 288.4,286.1 307.1,296.9 307.1,275.3 				"/>
				<polygon class="st11" points="311.8,278 311.8,299.6 330.4,310.4 330.4,288.8 				"/>
				<polygon class="st11" points="335.1,291.5 335.1,313.1 353.8,323.8 353.8,302.3 				"/>
				<polygon class="st11" points="195.1,239.3 195.1,260.8 213.8,271.6 213.8,250 				"/>
				<polygon class="st11" points="218.4,252.7 218.4,274.3 237.1,285.1 237.1,263.5 				"/>
				<polygon class="st11" points="241.8,266.2 241.8,287.8 260.4,298.5 260.4,277 				"/>
				<polygon class="st11" points="265.1,279.7 265.1,301.2 283.8,312 283.8,290.5 				"/>
				<polygon class="st11" points="288.4,293.1 288.4,314.7 307.1,325.5 307.1,303.9 				"/>
				<polygon class="st11" points="311.8,306.6 311.8,328.2 330.4,339 330.4,317.4 				"/>
				<polygon class="st11" points="335.1,320.1 335.1,341.7 353.8,352.4 353.8,330.9 				"/>
				<polygon class="st11" points="195.1,267.9 195.1,289.4 213.8,300.2 213.8,278.6 				"/>
				<polygon class="st11" points="218.4,281.3 218.4,302.9 237.1,313.7 237.1,292.1 				"/>
				<polygon class="st11" points="241.8,294.8 241.8,316.4 260.4,327.1 260.4,305.6 				"/>
				<polygon class="st11" points="265.1,308.3 265.1,329.8 283.8,340.6 283.8,319.1 				"/>
				<polygon class="st11" points="288.4,321.7 288.4,343.3 307.1,354.1 307.1,332.5 				"/>
				<polygon class="st11" points="311.8,335.2 311.8,356.8 330.4,367.6 330.4,346 				"/>
				<polygon class="st11" points="335.1,348.7 335.1,370.3 353.8,381 353.8,359.5 				"/>
				<g>
					<g>
						<path class="st11" d="M200,150.8c0.2,0.6,0.6,1,1,1.3c0.4,0.2,0.9,0.2,0.9-0.6c0-1.5-2.3-1.9-2.3-4.4c0-0.8,0.5-1.6,1.6-0.9
							c0.5,0.3,1,0.7,1.3,1.5L202,148c-0.2-0.4-0.5-0.8-0.8-1c-0.7-0.4-0.9,0.1-0.9,0.5c0,1.6,2.3,2,2.3,4.3c0,1.3-0.7,1.6-1.6,1.1
							c-0.6-0.3-1.2-1-1.5-1.7L200,150.8z"/>
						<path class="st11" d="M204,148v4c0,0.8,0.3,2,1.2,2.5c0.9,0.5,1.2-0.4,1.2-1.2v-4l0.6,0.4v4.1c0,1.5-0.8,2.1-1.8,1.5
							c-1-0.6-1.8-2.1-1.8-3.6v-4.1L204,148z"/>
						<path class="st11" d="M208,150.3l0.8,0.5l2.5,6.8l0,0v-5.3l0.6,0.4v6.5l-0.8-0.5l-2.6-6.8l0,0v5.3l-0.6-0.4V150.3z"/>
					</g>
					<g>
						<path class="st11" d="M220.4,158.2l0.9,0.5l1.5,5.8l0,0l1.4-4.1l0.9,0.5v6.5l-0.6-0.4v-5.3l0,0l-1.5,4.4l-0.4-0.2l-1.5-6.2
							l0,0v5.3l-0.6-0.4V158.2z"/>
						<path class="st11" d="M226.1,164.7c0-1.9,1-2.8,2.4-2c1.4,0.8,2.4,2.9,2.4,4.8s-1,2.8-2.4,2
							C227,168.7,226.1,166.7,226.1,164.7z M230.2,167.1c0-1.4-0.7-3-1.7-3.6c-1.1-0.6-1.7,0.2-1.7,1.6c0,1.4,0.7,3,1.7,3.6
							C229.5,169.3,230.2,168.6,230.2,167.1z"/>
						<path class="st11" d="M231.7,164.8l0.8,0.5l2.5,6.8l0,0v-5.3l0.6,0.4v6.5l-0.8-0.5l-2.6-6.8l0,0v5.3l-0.6-0.4V164.8z"/>
					</g>
					<g>
						<path class="st11" d="M248,174.1l-1.5-0.9v-0.8l3.6,2.1v0.8l-1.5-0.9v5.7l-0.6-0.4V174.1z"/>
						<path class="st11" d="M251.3,175.1v4c0,0.8,0.3,2,1.2,2.5c0.9,0.5,1.2-0.4,1.2-1.2v-4l0.6,0.4v4.1c0,1.5-0.8,2.1-1.8,1.5
							c-1-0.6-1.8-2.1-1.8-3.6v-4.1L251.3,175.1z"/>
						<path class="st11" d="M255.4,177.5l3,1.7v0.8l-2.3-1.4v1.9l2.2,1.3v0.8l-2.2-1.3v2.1l2.5,1.4v0.8l-3.1-1.8V177.5z"/>
					</g>
					<g>
						<path class="st11" d="M267.8,185.8l0.6,0.4l1,5.8l0,0l1.1-4.6l0.7,0.4l1.1,5.8l0,0l1-4.6l0.6,0.4l-1.3,5.7l-0.7-0.4l-1.1-5.9
							l0,0l-1.1,4.7l-0.7-0.4L267.8,185.8z"/>
						<path class="st11" d="M274.6,189.7l3,1.7v0.8l-2.3-1.4v1.9l2.2,1.3v0.8l-2.2-1.3v2.1l2.5,1.4v0.8l-3.1-1.8V189.7z"/>
						<path class="st11" d="M278.5,192l1.6,0.9c1.9,1.1,2.4,3.4,2.4,4.6c0,1.7-0.9,2.7-2.5,1.8l-1.5-0.9V192z M279.1,198l0.8,0.5
							c1.1,0.6,1.9,0.3,1.9-1.3c0-0.8-0.3-2.6-1.8-3.5l-0.9-0.5V198z"/>
					</g>
					<g>
						<path class="st11" d="M293,201l-1.5-0.9v-0.8l3.6,2.1v0.8l-1.5-0.9v5.7l-0.6-0.4V201z"/>
						<path class="st11" d="M295.8,201.7l0.6,0.4v2.7l2.4,1.4v-2.7l0.6,0.4v6.5l-0.6-0.4v-3l-2.4-1.4v3l-0.6-0.4V201.7z"/>
						<path class="st11" d="M301.1,204.8v4c0,0.8,0.3,2,1.2,2.5c0.9,0.5,1.2-0.4,1.2-1.2v-4l0.6,0.4v4.1c0,1.5-0.8,2.1-1.8,1.5
							c-1-0.6-1.8-2.1-1.8-3.6v-4.1L301.1,204.8z"/>
					</g>
					<g>
						<path class="st11" d="M317.8,215.2l2.9,1.7v0.8l-2.3-1.3v2l2.1,1.2v0.8l-2.1-1.2v2.8l-0.6-0.4V215.2z"/>
						<path class="st11" d="M321.5,217.3l1.6,0.9c1.2,0.7,1.5,1.8,1.5,2.7c0,0.8-0.4,1.4-1.1,1.1l1.3,3.7l-0.8-0.4l-1.2-3.5
							l-0.7-0.4v2.9l-0.6-0.4V217.3z M322.1,220.6l0.8,0.5c0.5,0.3,1,0.4,1-0.5c0-0.9-0.5-1.3-1-1.6l-0.8-0.5V220.6z"/>
						<path class="st11" d="M325.5,219.6l0.6,0.4v6.5l-0.6-0.4V219.6z"/>
					</g>
					<g>
						<path class="st11" d="M340.3,232.5c0.2,0.6,0.6,1,1,1.3c0.4,0.2,0.9,0.2,0.9-0.6c0-1.5-2.3-1.9-2.3-4.4c0-0.8,0.5-1.6,1.6-0.9
							c0.5,0.3,1,0.7,1.3,1.5l-0.5,0.4c-0.2-0.4-0.5-0.8-0.8-1c-0.7-0.4-0.9,0.1-0.9,0.5c0,1.6,2.3,2,2.3,4.3c0,1.3-0.7,1.6-1.6,1.1
							c-0.6-0.3-1.2-1-1.5-1.7L340.3,232.5z"/>
						<path class="st11" d="M345.2,230.2l0.6,0.3l2,7.6l-0.7-0.4l-0.5-1.9l-2.2-1.3l-0.5,1.3l-0.7-0.4L345.2,230.2z M346.3,234.9
							l-0.9-3.5l0,0l-0.9,2.5L346.3,234.9z"/>
						<path class="st11" d="M348.7,233l-1.5-0.9v-0.8l3.6,2.1v0.8l-1.5-0.9v5.7l-0.6-0.4V233z"/>
					</g>
				</g>
			</g>
			<g>
				<g>
					<linearGradient id="SVGID_10_" gradientUnits="userSpaceOnUse" x1="338.9379" y1="211.1192" x2="351.5653" y2="211.1192">
						<stop  offset="0" style="stop-color:#DD62A6"/>
						<stop  offset="0.4007" style="stop-color:#A5539B"/>
						<stop  offset="0.8018" style="stop-color:#734592"/>
						<stop  offset="1" style="stop-color:#60408E"/>
					</linearGradient>
					<path class="st13" d="M340.6,213.9c2.4,4,6.4,6,8.9,4.5c2.6-1.5,2.7-6,0.3-10c-2.4-4-6.4-6-8.9-4.5
						C338.4,205.4,338.3,209.9,340.6,213.9z"/>
					<g>
						<linearGradient id="SVGID_11_" gradientUnits="userSpaceOnUse" x1="329.1544" y1="193.9047" x2="365.7144" y2="193.9047">
							<stop  offset="0" style="stop-color:#3D43B2"/>
							<stop  offset="1" style="stop-color:#9361CE"/>
						</linearGradient>
						<path class="st14" d="M351.5,212.5c-0.5,0.3-1.1,0.6-1.7,0.9c-2.6,1.3-5.2,2-7.7,2c-2.3,0-4.5-0.6-6.4-1.7
							c-4-2.4-6.3-6.9-6.5-12.5c-0.2-5,1.4-10.5,4.4-15.5c6.6-11.1,17.9-16.2,25.7-11.5c7.1,4.2,8.5,14.9,3.7,25.1l-7.2-4.1
							c2.8-6.5,2.1-12.3-0.7-14c-0.6-0.4-1.4-0.6-2.2-0.6c-3.5,0-8.6,3.2-12.2,9.2c-2.2,3.6-3.3,7.7-3.2,11.1c0.1,2.7,1,4.8,2.5,5.7
							c1.5,0.9,3.8,0.7,6.2-0.5c0.4-0.2,0.9-0.5,1.3-0.8C350.5,208,351.5,212.3,351.5,212.5z"/>
					</g>
					<g>
						<linearGradient id="SVGID_12_" gradientUnits="userSpaceOnUse" x1="330.7586" y1="191.1429" x2="352.7862" y2="191.1429">
							<stop  offset="0" style="stop-color:#A4ADFF"/>
							<stop  offset="1" style="stop-color:#AC85E5"/>
						</linearGradient>
						<path class="st15" d="M332,207.7c-1.6-1.4-3-15.8,5.5-25c8.5-9.2,10.9-8.3,13.3-8.3c2.4,0,2.5,1.1,1.1,2
							c-1.4,0.9-9,2.3-13.9,9c-4.9,6.8-5.6,13.2-5.4,16.8C332.8,205.8,332.8,208.5,332,207.7z"/>
						<linearGradient id="SVGID_13_" gradientUnits="userSpaceOnUse" x1="354.4724" y1="175.0397" x2="359.7446" y2="175.0397">
							<stop  offset="0" style="stop-color:#A4ADFF"/>
							<stop  offset="1" style="stop-color:#AC85E5"/>
						</linearGradient>
						<path class="st16" d="M355.7,173.7c1.1-0.1,3.3,1.5,3.9,2.3c0.6,0.8-2.7-0.4-3.9-0.2C354.5,176.1,353.6,173.9,355.7,173.7z"/>
					</g>
				</g>
				<g>
					<linearGradient id="SVGID_14_" gradientUnits="userSpaceOnUse" x1="304.7089" y1="191.5293" x2="317.3364" y2="191.5293">
						<stop  offset="0" style="stop-color:#DD62A6"/>
						<stop  offset="0.4007" style="stop-color:#A5539B"/>
						<stop  offset="0.8018" style="stop-color:#734592"/>
						<stop  offset="1" style="stop-color:#60408E"/>
					</linearGradient>
					<path class="st17" d="M306.4,194.3c2.4,4,6.4,6,8.9,4.5c2.6-1.5,2.7-6,0.3-10c-2.4-4-6.4-6-8.9-4.5
						C304.2,185.8,304,190.3,306.4,194.3z"/>
					<g>
						<linearGradient id="SVGID_15_" gradientUnits="userSpaceOnUse" x1="294.9256" y1="174.3148" x2="331.4855" y2="174.3148">
							<stop  offset="0" style="stop-color:#3D43B2"/>
							<stop  offset="1" style="stop-color:#9361CE"/>
						</linearGradient>
						<path class="st18" d="M317.2,192.9c-0.5,0.3-1.1,0.6-1.7,0.9c-2.6,1.3-5.2,2-7.7,2c-2.3,0-4.5-0.6-6.4-1.7
							c-4-2.4-6.3-6.9-6.5-12.5c-0.2-5,1.4-10.5,4.4-15.5c6.6-11.1,17.9-16.2,25.7-11.5c7.1,4.2,8.5,14.9,3.7,25.1l-7.2-4.1
							c2.8-6.5,2.1-12.3-0.7-14c-0.6-0.4-1.4-0.6-2.2-0.6c-3.5,0-8.6,3.2-12.2,9.2c-2.2,3.6-3.3,7.7-3.2,11.1c0.1,2.7,1,4.8,2.5,5.7
							c1.5,0.9,3.8,0.7,6.2-0.5c0.4-0.2,0.9-0.5,1.3-0.8C316.3,188.4,317.3,192.7,317.2,192.9z"/>
					</g>
					<g>
						<linearGradient id="SVGID_16_" gradientUnits="userSpaceOnUse" x1="296.5297" y1="171.6194" x2="318.5573" y2="171.6194">
							<stop  offset="0" style="stop-color:#A4ADFF"/>
							<stop  offset="1" style="stop-color:#AC85E5"/>
						</linearGradient>
						<path class="st19" d="M297.7,188.2c-1.6-1.4-3-15.8,5.5-25c8.5-9.2,10.9-8.3,13.3-8.3c2.4,0,2.5,1.1,1.1,2s-9,2.3-13.9,9
							c-4.9,6.8-5.6,13.2-5.4,16.8C298.5,186.3,298.6,188.9,297.7,188.2z"/>
						<linearGradient id="SVGID_17_" gradientUnits="userSpaceOnUse" x1="320.2434" y1="155.5162" x2="325.5157" y2="155.5162">
							<stop  offset="0" style="stop-color:#A4ADFF"/>
							<stop  offset="1" style="stop-color:#AC85E5"/>
						</linearGradient>
						<path class="st20" d="M321.5,154.2c1.1-0.1,3.3,1.5,3.9,2.3c0.6,0.8-2.7-0.4-3.9-0.2C320.3,156.5,319.4,154.4,321.5,154.2z"/>
					</g>
				</g>
				<g>
					<linearGradient id="SVGID_18_" gradientUnits="userSpaceOnUse" x1="268.8103" y1="170.6328" x2="281.4377" y2="170.6328">
						<stop  offset="0" style="stop-color:#DD62A6"/>
						<stop  offset="0.4007" style="stop-color:#A5539B"/>
						<stop  offset="0.8018" style="stop-color:#734592"/>
						<stop  offset="1" style="stop-color:#60408E"/>
					</linearGradient>
					<path class="st21" d="M270.5,173.4c2.4,4,6.4,6,8.9,4.5c2.6-1.5,2.7-6,0.3-10c-2.4-4-6.4-6-8.9-4.5
						C268.3,164.9,268.1,169.4,270.5,173.4z"/>
					<g>
						<linearGradient id="SVGID_19_" gradientUnits="userSpaceOnUse" x1="259.0269" y1="153.4183" x2="295.5869" y2="153.4183">
							<stop  offset="0" style="stop-color:#3D43B2"/>
							<stop  offset="1" style="stop-color:#9361CE"/>
						</linearGradient>
						<path class="st22" d="M281.3,172c-0.5,0.3-1.1,0.6-1.7,0.9c-2.6,1.3-5.2,2-7.7,2c-2.3,0-4.5-0.6-6.4-1.7
							c-4-2.4-6.3-6.9-6.5-12.5c-0.2-5,1.4-10.5,4.4-15.5c6.6-11.1,17.9-16.2,25.7-11.5c7.1,4.2,8.5,14.9,3.7,25.1l-7.2-4.1
							c2.8-6.5,2.1-12.3-0.7-14c-0.6-0.4-1.4-0.6-2.2-0.6c-3.5,0-8.6,3.2-12.2,9.2c-2.2,3.6-3.3,7.7-3.2,11.1c0.1,2.7,1,4.8,2.5,5.7
							c1.5,0.9,3.8,0.7,6.2-0.5c0.4-0.2,0.9-0.5,1.3-0.8C280.4,167.5,281.4,171.8,281.3,172z"/>
						<g>
							<linearGradient id="SVGID_20_" gradientUnits="userSpaceOnUse" x1="260.631" y1="150.6485" x2="282.6586" y2="150.6485">
								<stop  offset="0" style="stop-color:#A4ADFF"/>
								<stop  offset="1" style="stop-color:#AC85E5"/>
							</linearGradient>
							<path class="st23" d="M261.8,167.2c-1.6-1.4-3-15.8,5.5-25c8.5-9.2,10.9-8.3,13.3-8.3s2.5,1.1,1.1,2c-1.4,0.9-9,2.3-13.9,9
								c-4.9,6.8-5.6,13.2-5.4,16.8C262.6,165.3,262.7,168,261.8,167.2z"/>
							<linearGradient id="SVGID_21_" gradientUnits="userSpaceOnUse" x1="284.3448" y1="134.5454" x2="289.617" y2="134.5454">
								<stop  offset="0" style="stop-color:#A4ADFF"/>
								<stop  offset="1" style="stop-color:#AC85E5"/>
							</linearGradient>
							<path class="st24" d="M285.6,133.3c1.1-0.1,3.3,1.5,3.9,2.3c0.6,0.8-2.7-0.4-3.9-0.2C284.4,135.6,283.5,133.4,285.6,133.3z"
								/>
						</g>
					</g>
				</g>
				<g>
					<linearGradient id="SVGID_22_" gradientUnits="userSpaceOnUse" x1="235.6731" y1="151.4513" x2="248.3005" y2="151.4513">
						<stop  offset="0" style="stop-color:#DD62A6"/>
						<stop  offset="0.4007" style="stop-color:#A5539B"/>
						<stop  offset="0.8018" style="stop-color:#734592"/>
						<stop  offset="1" style="stop-color:#60408E"/>
					</linearGradient>
					<path class="st25" d="M237.4,154.2c2.4,4,6.4,6,8.9,4.5c2.6-1.5,2.7-6,0.3-10c-2.4-4-6.4-6-8.9-4.5
						C235.1,145.7,235,150.2,237.4,154.2z"/>
					<g>
						<linearGradient id="SVGID_23_" gradientUnits="userSpaceOnUse" x1="225.8897" y1="134.2368" x2="262.4497" y2="134.2368">
							<stop  offset="0" style="stop-color:#3D43B2"/>
							<stop  offset="1" style="stop-color:#9361CE"/>
						</linearGradient>
						<path class="st26" d="M248.2,152.8c-0.5,0.3-1.1,0.6-1.7,0.9c-2.6,1.3-5.2,2-7.7,2c-2.3,0-4.5-0.6-6.4-1.7
							c-4-2.4-6.3-6.9-6.5-12.5c-0.2-5,1.4-10.5,4.4-15.5c6.6-11.1,17.9-16.2,25.7-11.5c7.1,4.2,8.5,14.9,3.7,25.1l-7.2-4.1
							c2.8-6.5,2.1-12.3-0.7-14c-0.6-0.4-1.4-0.6-2.2-0.6c-3.5,0-8.6,3.2-12.2,9.2c-2.2,3.6-3.3,7.7-3.2,11.1c0.1,2.7,1,4.8,2.5,5.7
							c1.5,0.9,3.8,0.7,6.2-0.5c0.4-0.2,0.9-0.5,1.3-0.8C247.3,148.4,248.3,152.6,248.2,152.8z"/>
					</g>
					<g>
						<linearGradient id="SVGID_24_" gradientUnits="userSpaceOnUse" x1="227.4938" y1="131.5523" x2="249.5214" y2="131.5523">
							<stop  offset="0" style="stop-color:#A4ADFF"/>
							<stop  offset="1" style="stop-color:#AC85E5"/>
						</linearGradient>
						<path class="st27" d="M228.7,148.2c-1.6-1.4-3-15.8,5.5-25c8.5-9.2,10.9-8.3,13.3-8.3c2.4,0,2.5,1.1,1.1,2
							c-1.4,0.9-9,2.3-13.9,9c-4.9,6.8-5.6,13.2-5.4,16.8C229.5,146.2,229.6,148.9,228.7,148.2z"/>
						<linearGradient id="SVGID_25_" gradientUnits="userSpaceOnUse" x1="251.2076" y1="115.4491" x2="256.4798" y2="115.4491">
							<stop  offset="0" style="stop-color:#A4ADFF"/>
							<stop  offset="1" style="stop-color:#AC85E5"/>
						</linearGradient>
						<path class="st28" d="M252.5,114.2c1.1-0.1,3.3,1.5,3.9,2.3c0.6,0.8-2.7-0.4-3.9-0.2C251.2,116.5,250.4,114.4,252.5,114.2z"/>
					</g>
				</g>
				<g>
					<linearGradient id="SVGID_26_" gradientUnits="userSpaceOnUse" x1="198.5342" y1="129.9346" x2="211.1616" y2="129.9346">
						<stop  offset="0" style="stop-color:#DD62A6"/>
						<stop  offset="0.4007" style="stop-color:#A5539B"/>
						<stop  offset="0.8018" style="stop-color:#734592"/>
						<stop  offset="1" style="stop-color:#60408E"/>
					</linearGradient>
					<path class="st29" d="M200.2,132.7c2.4,4,6.4,6,8.9,4.5c2.6-1.5,2.7-6,0.3-10c-2.4-4-6.4-6-8.9-4.5
						C198,124.2,197.8,128.7,200.2,132.7z"/>
					<g>
						<linearGradient id="SVGID_27_" gradientUnits="userSpaceOnUse" x1="188.7508" y1="112.7201" x2="225.2781" y2="112.7201">
							<stop  offset="0" style="stop-color:#3D43B2"/>
							<stop  offset="1" style="stop-color:#9361CE"/>
						</linearGradient>
						<path class="st30" d="M211.1,131.3c-0.5,0.3-1.1,0.6-1.7,0.9c-2.6,1.3-5.2,2-7.7,2c-2.3,0-4.5-0.6-6.4-1.7
							c-4-2.4-6.3-6.9-6.5-12.5c-0.2-5,1.4-10.5,4.4-15.5c6.6-11.1,17.9-16.2,25.7-11.5c7.1,4.2,8.5,14.9,3.7,25.2l-7.1-4.1
							c2.8-6.5,2.1-12.3-0.7-14c-0.6-0.4-1.4-0.6-2.2-0.6c-3.5,0-8.6,3.2-12.2,9.2c-2.2,3.6-3.3,7.7-3.2,11.1c0.1,2.7,1,4.8,2.5,5.7
							c1.5,0.9,3.8,0.7,6.2-0.5c0.4-0.2,0.9-0.5,1.3-0.8C210.1,126.8,211.1,131.1,211.1,131.3z"/>
					</g>
					<g>
						<linearGradient id="SVGID_28_" gradientUnits="userSpaceOnUse" x1="189.9084" y1="109.4387" x2="211.936" y2="109.4387">
							<stop  offset="0" style="stop-color:#A4ADFF"/>
							<stop  offset="1" style="stop-color:#AC85E5"/>
						</linearGradient>
						<path class="st31" d="M191.1,126c-1.6-1.4-3-15.8,5.5-25c8.5-9.2,10.9-8.3,13.3-8.3s2.5,1.1,1.1,2c-1.4,0.9-9,2.3-13.9,9
							c-4.9,6.8-5.6,13.2-5.4,16.8C191.9,124.1,192,126.8,191.1,126z"/>
						<linearGradient id="SVGID_29_" gradientUnits="userSpaceOnUse" x1="213.6221" y1="93.3355" x2="218.8944" y2="93.3355">
							<stop  offset="0" style="stop-color:#A4ADFF"/>
							<stop  offset="1" style="stop-color:#AC85E5"/>
						</linearGradient>
						<path class="st32" d="M214.9,92c1.1-0.1,3.3,1.5,3.9,2.3c0.6,0.8-2.7-0.4-3.9-0.2C213.7,94.4,212.8,92.2,214.9,92z"/>
					</g>
				</g>
			</g>
			<linearGradient id="SVGID_30_" gradientUnits="userSpaceOnUse" x1="185.7794" y1="244.07" x2="333.8166" y2="244.07">
				<stop  offset="0" style="stop-color:#F779B8"/>
				<stop  offset="1" style="stop-color:#9361CE"/>
			</linearGradient>
			<path class="st33" d="M185.8,107.8v25.5v0.3v161.4l148,85.5C251.4,292.9,185.8,107.8,185.8,107.8z"/>
		</g>
		<g>
			<g>
				<linearGradient id="SVGID_31_" gradientUnits="userSpaceOnUse" x1="71.634" y1="261.6035" x2="201.3139" y2="261.6035">
					<stop  offset="0" style="stop-color:#FF9545"/>
					<stop  offset="1" style="stop-color:#FFC136"/>
				</linearGradient>
				<path class="st34" d="M199,225c-3.3-5.5-8.8-8.3-12.3-6.2L71.6,285.2l11.9,19.8l115-66.3C202.1,236.7,202.3,230.5,199,225z"/>
				<linearGradient id="SVGID_32_" gradientUnits="userSpaceOnUse" x1="78.5477" y1="266.3315" x2="201.3071" y2="266.3315">
					<stop  offset="0" style="stop-color:#FF9545"/>
					<stop  offset="1" style="stop-color:#FFC136"/>
				</linearGradient>
				<path class="st35" d="M83.6,305.1l115-66.3c3-1.8,3.6-6.4,1.7-11.2L78.5,296.7L83.6,305.1z"/>
				<path class="st36" d="M71.3,298.9c3.3,5.5,8.8,8.3,12.3,6.2c3.5-2.1,3.7-8.2,0.5-13.7c-3.3-5.5-8.8-8.3-12.3-6.2
					C68.2,287.2,68,293.4,71.3,298.9z"/>
				<path class="st37" d="M88.3,278c5-2.9,80.9-46.9,86.7-50.1c5.8-3.2,8.3-5,12.2-3.7c3.9,1.2-20.5,12.6-23.3,15.1
					c-2.8,2.5-56.9,29.8-63.4,34.7C94,278.9,84.6,280.1,88.3,278z"/>
			</g>
			<g>
				<linearGradient id="SVGID_33_" gradientUnits="userSpaceOnUse" x1="71.634" y1="292.3663" x2="94.7582" y2="292.3663">
					<stop  offset="0" style="stop-color:#3D43B2"/>
					<stop  offset="1" style="stop-color:#9361CE"/>
				</linearGradient>
				<path class="st38" d="M92.4,286.6c-3.3-5.5-8.8-8.3-12.3-6.2l-8.5,4.8l11.9,19.8l8.4-4.8C95.5,298.2,95.7,292.1,92.4,286.6z"/>
				<path class="st39" d="M83.6,305.1l8.4-4.8c3.1-1.9,3.6-7,1.4-12l-14.8,8.4L83.6,305.1z"/>
			</g>
			<linearGradient id="SVGID_34_" gradientUnits="userSpaceOnUse" x1="61.7627" y1="296.8131" x2="87.5413" y2="296.8131">
				<stop  offset="0" style="stop-color:#F779B8"/>
				<stop  offset="1" style="stop-color:#D83F6E"/>
			</linearGradient>
			<path class="st40" d="M85.2,290.7c-3.3-5.5-8.8-8.3-12.3-6.2l-8.3,4.7c0,0,0,0-0.1,0c0,0,0,0,0,0l-0.1,0l0,0
				c-3.4,2.2-3.6,8.2-0.3,13.7c3.3,5.5,8.8,8.3,12.3,6.2l8.4-4.8C88.3,302.3,88.5,296.2,85.2,290.7z"/>
			<linearGradient id="SVGID_35_" gradientUnits="userSpaceOnUse" x1="62.704" y1="300.9609" x2="87.5357" y2="300.9609">
				<stop  offset="0" style="stop-color:#F779B8"/>
				<stop  offset="1" style="stop-color:#D83F6E"/>
			</linearGradient>
			<path class="st41" d="M76.4,309.2l8.4-4.8c3.1-1.9,3.6-7,1.4-12l-9,5.1c-1.9,1.1-4,1.5-6.1,1.3l-8.3-0.7
				C65.5,308,72.5,310.6,76.4,309.2z"/>
			<path class="st42" d="M199,225c0.5,0.8,0.9,1.7,1.2,2.5L226,210c0-0.1-0.1-0.2-0.2-0.3c-0.3-0.3-0.7-0.4-1-0.3l-35.8,8.8
				C192.4,218.1,196.4,220.7,199,225z"/>
			<path class="st43" d="M200.2,237.2l25.9-26.6c0.1-0.1,0.1-0.4,0-0.6l-25.8,17.6C201.7,231.2,201.7,234.9,200.2,237.2z"/>
			<path class="st44" d="M195.3,217.5c0,0,24.6-6.9,25.6-6.8c1,0.1-1.8,1.1-2.9,1.5c-1.1,0.3-17.4,4.5-19.4,5.3
				C196.7,218.4,194.4,217.7,195.3,217.5z"/>
			<path class="st12" d="M227.7,208.9c0,0,0.1-0.1,0-0.2c0-0.1-0.1-0.1-0.2-0.1c0,0,0,0,0,0l0,0l-2.7,0.7c0.2-0.1,0.7,0,1,0.3
				c0.2,0.3,0.3,0.7,0.2,0.9L227.7,208.9z"/>
			<linearGradient id="SVGID_36_" gradientUnits="userSpaceOnUse" x1="63.2473" y1="299.3301" x2="77.1895" y2="299.3301">
				<stop  offset="0" style="stop-color:#F779B8"/>
				<stop  offset="1" style="stop-color:#D83F6E"/>
			</linearGradient>
			<path class="st45" d="M65.1,302.4c2.6,4.4,7,6.6,9.9,5c2.8-1.7,3-6.6,0.4-11c-2.6-4.4-7-6.6-9.9-5
				C62.7,293,62.5,297.9,65.1,302.4z"/>
		</g>
		<path class="st46" d="M155,240.4l-4.6-0.5c-1-0.1-1.4-1.2-0.8-2l0.1-0.1c1.7-2.1,4.1-3.4,6.8-3.7l0,0c1.1-0.1,5.7,0.5,7,1.4
			c1.1,0.7,3.3,6.9-0.2,7.1c-2,0.5-5-3.1-5.8-1.8c-0.3,0.4,0.6,1.6,0.1,3.1c-0.3,1.2-1.6,0-1.5-0.8C156.1,241.9,155,240.4,155,240.4
			z"/>
		<defs>
			<filter id="Adobe_OpacityMaskFilter" filterUnits="userSpaceOnUse" x="127.1" y="241.6" width="54.4" height="178.4">
				<feFlood  style="flood-color:white;flood-opacity:1" result="back"/>
				<feBlend  in="SourceGraphic" in2="back" mode="normal"/>
			</filter>
		</defs>
		<mask maskUnits="userSpaceOnUse" x="127.1" y="241.6" width="54.4" height="178.4" id="SVGID_37_">
			<g class="st47">
				<polygon points="126,280.6 137.5,273.9 130.3,270.1 120.4,275.6 				"/>
			</g>
		</mask>
		<g class="st48">
			<g>
				<path class="st49" d="M147.9,414.1c-0.3,0-0.5,0.3-0.6,0.6c-0.2,1.8-0.9,5.4,3,5.4c3.3,0.4,11.6-4.3,11.5-5.3
					c0.4-0.4-0.5-2.3-4.3-1.9c-1.7,0.2-3.3-0.2-6.6,0.7C149.9,413.8,148.6,414,147.9,414.1z"/>
				<path class="st50" d="M160.6,413.1c-2.3,1.7-7.9,4.5-10.4,4.2c-1.8,0-2.6-0.7-2.9-1.7c-0.2,1.9-0.3,4.5,3,4.5
					c3.3,0.4,11.6-4.3,11.5-5.3C162,414.4,161.8,413.6,160.6,413.1z"/>
				<path class="st46" d="M147.9,414.1c0,1.6,2.4,1.4,3.2,1.1c2.8-0.9,3.6-1.4,3.3-2c-0.8-0.5-1.5-1.2-1.5-2.1s0-5.6,0-5.6h-4.9
					V414.1z"/>
			</g>
			<g>
				<path class="st49" d="M130.3,403.3c-0.3,0-0.5,0.3-0.6,0.6c-0.2,1.8-0.9,5.4,3,5.4c3.3,0.4,11.6-4.3,11.5-5.3
					c0.4-0.4-0.5-2.3-4.3-1.9c-1.7,0.2-3.3-0.2-6.6,0.7C132.4,403,131,403.2,130.3,403.3z"/>
				<path class="st50" d="M142.9,402.2c-2.4,1.7-7.7,4.3-10.2,4c-2,0-2.7-0.9-3-2c-0.2,1.9-0.6,5,3,5c3.3,0.4,11.6-4.3,11.5-5.3
					C144.5,403.6,144.2,402.7,142.9,402.2z"/>
				<path class="st46" d="M130.3,403.3c0,1.6,2.4,1.4,3.2,1.1c2.8-0.9,3.6-1.4,3.3-2c-0.8-0.5-1.5-1.2-1.5-2.1c0-0.9,0-5.6,0-5.6
					h-4.9V403.3z"/>
			</g>
			<path class="st51" d="M135.1,273.7c-5.7-1-9,3.1-6.4,11.2C131.3,293,135.1,273.7,135.1,273.7z"/>
			<path class="st52" d="M130.4,322.9h6.6l0.6,2.9l6.8,1.3c0,0,9.2,0.4,11,2.6c3.2,23.9,1.7,37.5,1.7,37.5l-3.8,38.6
				c-0.2,1.2-5.1,2.9-5.7,1.1c-1.5-11.6-5.3-29.4-0.7-38.8c-2.9-10.1-4.2-20.5-4.2-20.5s-0.9-0.6-1.9-1.1l0.5,19l-5.3,30.3
				c-2.5,2.9-6.2,0.6-6.2,0.6c-0.1-16-0.6-29.8,1.9-35C132.6,352,123.3,331.6,130.4,322.9z"/>
			<path class="st53" d="M138.4,341.2c0,0,0.7,18.1,0.7,22.4c0,4.3-3.8,28.9-4.4,30.5c-0.5,1.2-3.7,1.5-4.9,1.6c0,0.3,0,0.5,0,0.8
				c0,0,0.7,0.5,1.8,0.7l4.6-2.5l5.1-29.1l-0.5-19C140.7,346.6,138.6,345.6,138.4,341.2z"/>
			<path class="st53" d="M144.3,327.2l-6.8-1.3l-0.6-2.9h-6.6c-2.3,2.8-2.9,6.9-2.6,11.4c4.1,3.1,10.7,5.7,22.4,5.6
				c0,0,2.5,10.2,2.8,20.4c0.4,10.2-1.6,39.5-1.3,41.6c0.3,2.2-0.1,3.3-3.4,3.5c-0.6,0-0.8,0.2-0.9,0.4c0,0.1,0,0.1,0,0.2
				c0.2,0.5,1,1.2,1.9,1.8c1.6-0.1,3.8-1.1,3.9-1.9l3.8-38.6c0,0,1.5-13.7-1.7-37.5C153.5,327.6,144.3,327.2,144.3,327.2z"/>
			<path class="st49" d="M147.1,276.9c-1.8,1.7-9.1,0.4-9-2.4c-1.7-0.7-2.9-1.2-4.6-0.8c-4.1,1.1-5.9,6.5-6.4,14.5
				c-0.5,9.4,2.8,11.4,2.5,20.9c-0.2,5.7-1.3,11.7-2.5,19.5c0,3.8,4.9,4.8,12.3,7.3c5.1,1.7,17.6-0.9,17.6-2.6
				c0-1.6-0.8-27.8,0-31.5c1.1-3,1.8-6,2.3-9.4c0.6-4.7-0.1-6.5-1.3-7.9C155.6,281.4,147.1,276.9,147.1,276.9z"/>
			<path class="st54" d="M130.6,282.2c-1.6,4.4-1,9.9,0.4,18c1.4,8.1-1,21.4-1.3,25.1c-0.3,3.7,8.4,6.4,10.9,6.5
				c2.5,0.2-5.4-5.6-5.1-12.8c0.3-7.2,0-15.7,1-20.2C137.5,294.3,132.5,276.8,130.6,282.2z"/>
			<path class="st55" d="M130.5,341.2c1,3.9,3.4,15.3,2.7,19.2c-0.7,3.9-2.3,9.4-2.3,14.9c0.1,5.5-1.1,14.8-0.5,16.9
				c0.6,2.1,0.9-1.5,1.3-6c0.4-4.5,3.2-21.7,3.2-25.4c0.1-3.6-0.9-17.7-2.4-19.6C131.5,338.5,129.8,338.6,130.5,341.2z"/>
			<path class="st55" d="M147.2,399.9c-1-2.4-2.5-17.7-0.9-23.9c1.6-6.2,1.7-9,1.7-10.6c-0.1-1.6-3.2-13.4-3.6-17
				c-0.4-3.6,0.8-4,2.6,3.7c1.8,7.7,2.6,10.9,2.8,13.9c0.2,3-2.3,19.2-2.2,24.6C147.6,396,148.2,402.6,147.2,399.9z"/>
			<path class="st56" d="M148.4,284.4c0-2.2,2.3-3.8,5-3.4c2.7,0.3,8.9,2.4,10,2.7c1.1,0.3,0.3,1-1.4,0.5c-1.7-0.5-6.3-2.6-8.8-1.8
				C150.7,283.3,148.4,286.7,148.4,284.4z"/>
			<g>
				<path class="st50" d="M133.1,274.9c-0.1,2.6,6.8,3.9,8.9,2.4c-2.1-0.4-3.9-1.5-3.8-2.8c-1.7-0.7-2.9-1.2-4.6-0.8
					c-0.6,0.1-1.1,0.4-1.6,0.7C132.3,274.6,132.7,274.7,133.1,274.9z"/>
				<path class="st50" d="M158,284.5c-2.5-3-10.9-7.6-10.9-7.6c-0.8,0.8-2.8,0.9-4.7,0.6c1.5,0.8,8.4,4.7,10.6,7.4
					c0.3,0.4,0.6,0.8,0.8,1.3c-2.6-1.7-7.5-4.3-6.9,0.2c0.7,5.4,4.5,8.1,6.9,9c-0.4,2.4-1.1,4.6-1.9,6.9c-0.8,3.8,0,30,0,31.5
					c0,0.9-3.9,2.2-8.2,2.8c5.7,0,13.2-1.9,13.2-3.2c0-1.6-0.8-27.8,0-31.5c1.1-3,1.8-6,2.3-9.4C159.9,287.7,159.2,285.9,158,284.5z
					"/>
			</g>
			<g>
				<path class="st46" d="M155.2,255c1.3,2.8,0,4.3,0.1,6.4c0,1.9,1.4,9.6-2.3,10.4c-2.6,0.6-4.3,0.3-4.3,0.3l-1.9,5.3
					c-1,2-9.6,1.1-8.9-3.1l0.4-3.7c-1.9-0.9-5.5-4.1-5.5-10.5c0-6.4,6.8-11.3,12.9-11.3C151.9,248.9,154.8,254.3,155.2,255z"/>
				<path class="st57" d="M149.8,263.1c-1-0.6-3.4,2.4-0.3,5.1c0.1,0.7-0.4,1.9-1.1,2.7c-0.8,0.9,0.7,0.9-1.4,2
					c-2.1,1.1-5.7,0.3-6.4,0.6c0-0.7-1.2-0.3-2.3-2.4c-1.4-1.9-3.4-1.9-5.1-5.7c0,0-1.2-2.2-1.2-4.4c0,0-0.6,1-0.5,2.8
					c0,0-2.1-6.2,2.9-10.2c0,0,1.1-1.7,2.1-1.9c2-0.9,1.7-2,5.7-3c2.8-0.7,3.9-3.5,3.3-4.6c0,0,1.7-1.2,5.6,0.6
					c3.8,1.1,6.2,7.1,4.5,11.3c-1.7,4.2-5.5,4-5.4,5.4C150.2,262.8,149.8,263.1,149.8,263.1z"/>
			</g>
			<path class="st46" d="M175.5,253.1l-3.4,31c0,0-2.7-0.4-7.9-0.4c-1.8,1-3.9,7.3,1.3,8.2c5.1,0.9,9.2,0.1,12.5-2.1
				c2.8-1.8,3.1-36.4,3.1-36.4c0.6-1.6,1.1-6-1.4-10.1c-1.3-1.1-5.1-2.3-7.3-1.1c-1.3,1,0.1,4.9,0.7,6.3c0.5,1.3-0.6,0.9-2,0.7
				s-1.8,1.1,1.3,2.2C173.5,251.8,173.9,253.2,175.5,253.1z"/>
			<path class="st51" d="M147.8,281.9c2.9-4.3,8.9-0.8,17.1,1.6c0.9,1.2,1.9,7,0.1,10.4c0,0-8.5-0.8-12.3-2
				C146.7,290.1,145.8,284.9,147.8,281.9z"/>
			<path class="st58" d="M154,290.8c-4.6-0.5-6.8-3.3-7.1-6.1c-0.3,2.8,1.4,6,5.8,7.4c3.7,1.2,12.3,2,12.3,2c0.6-1,0.9-2.3,1-3.6
				C164,290.5,157.4,291.1,154,290.8z"/>
			<path class="st59" d="M147.1,404.5c0.1,1,5.8,1.2,6.4-1.4c0.4-0.4,0.4,0.5,0.4,1.1c0,0.7-0.1,1.7-0.1,2c0,0.3-5.2,3.4-6.7,0.8
				C147,406.1,146.6,404.6,147.1,404.5z"/>
			<path class="st59" d="M129.6,394.7c0,1,5.6,1.9,6.5-0.5c0.4-0.3,0.3,0.5,0.2,1.1c-0.1,0.7-0.3,1.7-0.4,2
				c-0.1,0.3-5.6,2.7-6.8-0.2C129.2,396.2,129.1,394.7,129.6,394.7z"/>
			<path class="st60" d="M138,273.9l-0.3,0.4c-0.4,0.4-1.5,3,1,4.3c2.5,1.4,6.1,1.5,8.7-0.8c0.3-0.3-0.3-1-0.3-1
				c-0.7,0.5-3.6,1.9-7,0.5C139.3,277,137.8,275.5,138,273.9z"/>
		</g>
		<g>
			<linearGradient id="SVGID_38_" gradientUnits="userSpaceOnUse" x1="297.5111" y1="312.0427" x2="363.1094" y2="312.0427">
				<stop  offset="0" style="stop-color:#F779B8"/>
				<stop  offset="1" style="stop-color:#9361CE"/>
			</linearGradient>
			<path class="st61" d="M363.1,293c-14.9-23.5-38.7-35-54.2-25.9c-15.9,9.4-14.6,36.3,0.1,61.1c14.7,24.8,37.4,38.3,53.3,28.8
				c0.3-0.2,0.5-0.3,0.8-0.5V293z"/>
			<linearGradient id="SVGID_39_" gradientUnits="userSpaceOnUse" x1="363.1094" y1="324.7852" x2="372.4425" y2="324.7852">
				<stop  offset="0" style="stop-color:#F779B8"/>
				<stop  offset="1" style="stop-color:#9361CE"/>
			</linearGradient>
			<path class="st62" d="M372.4,296.9c-2.1-1.4-4.8-2.1-8.1-1.8c-0.8,0.1-0.8-1.4-1.3-2v63.5c3.8-6.5,6.9-12.9,9.3-18.9V296.9z"/>
			<g>
				<g>
					<linearGradient id="SVGID_40_" gradientUnits="userSpaceOnUse" x1="292.0499" y1="298.1665" x2="360.0291" y2="298.1665">
						<stop  offset="0" style="stop-color:#D79FF3"/>
						<stop  offset="1" style="stop-color:#48FFC2"/>
					</linearGradient>
					<path class="st63" d="M349.9,282.1c-14.2-24-38.2-36.1-53.6-27l-4.3,2.5l52.1,86.6l3.8-2.2C363.3,333,364.1,306.1,349.9,282.1z
						"/>
					<linearGradient id="SVGID_41_" gradientUnits="userSpaceOnUse" x1="280.4577" y1="300.7665" x2="356.2445" y2="300.7665">
						<stop  offset="0" style="stop-color:#995EBC"/>
						<stop  offset="1" style="stop-color:#48D8CD"/>
					</linearGradient>
					<path class="st64" d="M290.6,317.2c14.2,24,38.2,36.1,53.6,27c15.3-9.1,16.2-35.9,2-59.9c-14.2-24-38.2-36.1-53.6-27
						C277.2,266.4,276.3,293.2,290.6,317.2z"/>
					<path class="st53" d="M295.8,314.5c12.5,21.1,31.7,32.5,45.2,24.5c13.5-8,14.2-31.6,1.7-52.6c-12.5-21.1-33.6-31.7-47-23.7
						C282.2,270.6,283.3,293.4,295.8,314.5z"/>
					<linearGradient id="SVGID_42_" gradientUnits="userSpaceOnUse" x1="285.0707" y1="301.7033" x2="342.46" y2="301.7033">
						<stop  offset="0" style="stop-color:#683A89"/>
						<stop  offset="1" style="stop-color:#38B2A6"/>
					</linearGradient>
					<path class="st65" d="M295.7,262.6c0.5-0.3,1.1-0.5,1.6-0.8c-12,8.8-12.3,31.3-0.3,51.6c12,20.3,31.9,30.8,45.4,24.5
						c-0.5,0.4-0.9,0.7-1.5,1c-13.5,8-34.5-2.6-47-23.7C281.5,294.2,282.2,270.6,295.7,262.6z"/>
					<g>
						<g>
							<linearGradient id="SVGID_43_" gradientUnits="userSpaceOnUse" x1="297.558" y1="283.8952" x2="317.5009" y2="283.8952">
								<stop  offset="0" style="stop-color:#D79FF3"/>
								<stop  offset="1" style="stop-color:#48FFC2"/>
							</linearGradient>
							<path class="st66" d="M316.1,301.3c0.2,0,0.5-0.1,0.7-0.2c0.7-0.4,1-1.2,0.6-1.9l-17.1-32.1c-0.4-0.7-1.2-0.9-1.9-0.6
								c-0.7,0.4-1,1.2-0.6,1.9l17.1,32.1C315.1,301.1,315.6,301.3,316.1,301.3z"/>
						</g>
						<g>
							<linearGradient id="SVGID_44_" gradientUnits="userSpaceOnUse" x1="314.6688" y1="314.8517" x2="325.5074" y2="314.8517">
								<stop  offset="0" style="stop-color:#D79FF3"/>
								<stop  offset="1" style="stop-color:#48FFC2"/>
							</linearGradient>
							<path class="st67" d="M324.1,331.2c0.1,0,0.2,0,0.4,0c0.8-0.2,1.2-1,1-1.7l-8-29.8c-0.2-0.8-1-1.2-1.7-1
								c-0.8,0.2-1.2,1-1,1.7l8,29.8C322.9,330.8,323.5,331.2,324.1,331.2z"/>
						</g>
					</g>
					<g>
						<linearGradient id="SVGID_45_" gradientUnits="userSpaceOnUse" x1="312.9394" y1="301.5219" x2="321.3944" y2="301.5219">
							<stop  offset="0" style="stop-color:#D79FF3"/>
							<stop  offset="1" style="stop-color:#48FFC2"/>
						</linearGradient>
						<path class="st68" d="M320.2,299.5c-1.7-2.9-4.6-4.3-6.4-3.2l-0.8,0.5l6.2,10.4l0.8-0.4C321.8,305.6,321.9,302.4,320.2,299.5z
							"/>
						<linearGradient id="SVGID_46_" gradientUnits="userSpaceOnUse" x1="311.5527" y1="301.9257" x2="320.6178" y2="301.9257">
							<stop  offset="0" style="stop-color:#683A89"/>
							<stop  offset="1" style="stop-color:#38B2A6"/>
						</linearGradient>
						<path class="st69" d="M312.8,303.9c1.7,2.9,4.6,4.3,6.4,3.2c1.8-1.1,1.9-4.3,0.2-7.2c-1.7-2.9-4.6-4.3-6.4-3.2
							C311.2,297.8,311.1,301,312.8,303.9z"/>
					</g>
					<g>
						<g>
							<path class="st11" d="M317.2,277.9c0.3,0.2,0.6,0,0.6-0.4v-9.7c0-0.4-0.3-0.9-0.6-1.1c-0.3-0.2-0.6,0-0.6,0.4v9.7
								C316.6,277.2,316.8,277.7,317.2,277.9z"/>
						</g>
						<g>
							<path class="st11" d="M326,286.1c0.2,0.1,0.4,0.1,0.5-0.1l3.8-6.2c0.2-0.3,0.1-0.8-0.2-1.2c-0.3-0.4-0.7-0.5-0.8-0.2
								l-3.8,6.2c-0.2,0.3-0.1,0.8,0.2,1.2C325.8,285.9,325.9,286,326,286.1z"/>
						</g>
						<g>
							<path class="st11" d="M332.4,298.1c0.1,0.1,0.2,0.1,0.3,0.1l6.5-1.1c0.3,0,0.4-0.5,0.2-0.9c-0.2-0.5-0.5-0.8-0.8-0.8
								l-6.5,1.1c-0.3,0-0.4,0.5-0.2,0.9C332,297.7,332.2,298,332.4,298.1z"/>
						</g>
						<g>
							<path class="st11" d="M334.8,310.8l7.5,4.3c0.3,0.2,0.6,0,0.6-0.4c0-0.4-0.3-0.9-0.6-1.1l-7.5-4.3c-0.3-0.2-0.6,0-0.6,0.4
								C334.2,310.1,334.4,310.6,334.8,310.8z"/>
						</g>
						<g>
							<path class="st11" d="M338.9,329.5c0.2,0.1,0.4,0.1,0.5-0.1c0.2-0.3,0.1-0.8-0.2-1.2l-6.5-8.6c-0.3-0.4-0.7-0.5-0.8-0.2
								c-0.2,0.3-0.1,0.8,0.2,1.2l6.5,8.6C338.7,329.3,338.8,329.4,338.9,329.5z"/>
						</g>
						<g>
							<path class="st11" d="M329.7,336c0.1,0.1,0.2,0.1,0.3,0.1c0.3,0,0.4-0.5,0.2-0.9l-3.8-10.6c-0.2-0.5-0.5-0.8-0.8-0.8
								c-0.3,0-0.4,0.5-0.2,0.9l3.8,10.6C329.3,335.7,329.5,335.9,329.7,336z"/>
						</g>
						<g>
							<path class="st11" d="M317.2,333.2c0.3,0.2,0.6,0,0.6-0.4V323c0-0.4-0.3-0.9-0.6-1.1c-0.3-0.2-0.6,0-0.6,0.4v9.7
								C316.6,332.5,316.8,333,317.2,333.2z"/>
						</g>
						<g>
							<path class="st11" d="M304.6,321.6c0.2,0.1,0.4,0.1,0.5-0.1l3.8-6.2c0.2-0.3,0.1-0.8-0.2-1.2c-0.3-0.4-0.7-0.5-0.8-0.2
								l-3.8,6.2c-0.2,0.3-0.1,0.8,0.2,1.2C304.4,321.4,304.5,321.5,304.6,321.6z"/>
						</g>
						<g>
							<path class="st11" d="M295.4,304.4c0.1,0.1,0.2,0.1,0.3,0.1l6.5-1.1c0.3,0,0.4-0.5,0.2-0.9c-0.2-0.5-0.5-0.8-0.8-0.8
								l-6.5,1.1c-0.3,0-0.4,0.5-0.2,0.9C295,304,295.2,304.3,295.4,304.4z"/>
						</g>
						<g>
							<path class="st11" d="M292.1,286.2l7.5,4.3c0.3,0.2,0.6,0,0.6-0.4c0-0.4-0.3-0.9-0.6-1.1l-7.5-4.3c-0.3-0.2-0.6,0-0.6,0.4
								C291.5,285.6,291.7,286.1,292.1,286.2z"/>
						</g>
						<g>
							<path class="st11" d="M301.9,280.5c0.2,0.1,0.4,0.1,0.5-0.1c0.2-0.3,0.1-0.8-0.2-1.2l-6.5-8.6c-0.3-0.4-0.7-0.5-0.8-0.2
								c-0.2,0.3-0.1,0.8,0.2,1.2l6.5,8.6C301.7,280.4,301.8,280.5,301.9,280.5z"/>
						</g>
						<g>
							<path class="st11" d="M308.4,275.9c0.1,0.1,0.2,0.1,0.3,0.1c0.3,0,0.4-0.5,0.2-0.9l-3.8-10.6c-0.2-0.5-0.5-0.8-0.8-0.8
								c-0.3,0-0.4,0.5-0.2,0.9l3.8,10.6C308,275.5,308.2,275.8,308.4,275.9z"/>
						</g>
					</g>
				</g>
			</g>
		</g>
	</g>
</g>
<g id="DESIGNED_BY_FREEPIK">
</g>
</svg>
