<?xml version="1.0" encoding="utf-8"?>
<!-- Generator: Adobe Illustrator 22.0.0, SVG Export Plug-In . SVG Version: 6.00 Build 0)  -->
<svg version="1.1" id="Ńëîé_1" xmlns="http://www.w3.org/2000/svg" xmlns:xlink="http://www.w3.org/1999/xlink" x="0px" y="0px"
	 viewBox="0 0 719 637" style="enable-background:new 0 0 719 637;" xml:space="preserve">
<style type="text/css">
	.st0{opacity:0.5;}
	.st1{fill:url(#SVGID_1_);}
	.st2{fill:url(#SVGID_2_);}
	.st3{fill:#FFFFFF;}
	.st4{fill:url(#SVGID_3_);}
	.st5{fill:url(#SVGID_4_);}
	.st6{fill:#FD7207;}
	.st7{fill:#E82F00;}
	.st8{fill:url(#SVGID_5_);}
	.st9{fill:#DA1E00;}
	.st10{fill:#DB5126;}
	.st11{fill:url(#SVGID_6_);}
	.st12{fill:url(#SVGID_7_);}
	.st13{fill:url(#SVGID_8_);}
	.st14{opacity:0.2;}
	.st15{fill:url(#SVGID_9_);}
	.st16{fill:url(#SVGID_10_);}
	.st17{fill:url(#SVGID_11_);}
	.st18{fill:url(#SVGID_12_);}
	.st19{opacity:0.25;}
	.st20{fill:url(#SVGID_13_);}
	.st21{fill:url(#SVGID_14_);}
	.st22{opacity:0.3;fill:url(#SVGID_15_);}
	.st23{fill:url(#SVGID_16_);}
	.st24{fill:url(#SVGID_17_);}
	.st25{fill:url(#SVGID_18_);}
	.st26{fill:url(#SVGID_19_);}
	.st27{fill:url(#SVGID_20_);}
	.st28{fill:url(#SVGID_21_);}
	.st29{fill:url(#SVGID_22_);}
	.st30{fill:#3A9BD5;}
	.st31{opacity:0.5;fill:#0063AD;}
	.st32{opacity:0.3;}
	.st33{clip-path:url(#SVGID_24_);}
	.st34{fill:url(#SVGID_25_);}
	.st35{fill:url(#SVGID_26_);}
	.st36{fill:url(#SVGID_27_);}
	.st37{fill:url(#SVGID_28_);}
	.st38{fill:url(#SVGID_29_);}
	.st39{fill:url(#SVGID_30_);}
	.st40{fill:url(#SVGID_31_);}
	.st41{fill:url(#SVGID_32_);}
	.st42{fill:url(#SVGID_33_);}
	.st43{fill:url(#SVGID_34_);}
	.st44{opacity:0.3;fill:url(#SVGID_35_);}
	.st45{fill:url(#SVGID_36_);}
	.st46{fill:url(#SVGID_37_);}
	.st47{fill:url(#SVGID_38_);}
	.st48{fill:url(#SVGID_39_);}
</style>
<g class="st0">
	<g>
		<g>
			<linearGradient id="SVGID_1_" gradientUnits="userSpaceOnUse" x1="21.4961" y1="354.5888" x2="252.4581" y2="354.5888">
				<stop  offset="0.4032" style="stop-color:#FD5A05"/>
				<stop  offset="0.423" style="stop-color:#FA5505"/>
				<stop  offset="0.5505" style="stop-color:#EC3D03"/>
				<stop  offset="0.6846" style="stop-color:#E22C01"/>
				<stop  offset="0.8286" style="stop-color:#DC2100"/>
				<stop  offset="1" style="stop-color:#DA1E00"/>
			</linearGradient>
			<path class="st1" d="M252.5,174.5h-231V468h0.1c-0.2,2.5,1.2,4.9,4.3,6.7l99.5,57.4c6.4,3.7,17.7,3.3,25.1-1l95.9-55.4
				c3.8-2.2,5.9-5,6.1-7.7h0V174.5z"/>
			<linearGradient id="SVGID_2_" gradientUnits="userSpaceOnUse" x1="35.1032" y1="20.8738" x2="281.6715" y2="392.7122">
				<stop  offset="0.4032" style="stop-color:#FC8B04"/>
				<stop  offset="0.5099" style="stop-color:#FC7904"/>
				<stop  offset="0.6558" style="stop-color:#FD6805"/>
				<stop  offset="0.813" style="stop-color:#FD5D05"/>
				<stop  offset="1" style="stop-color:#FD5A05"/>
			</linearGradient>
			<path class="st2" d="M125.3,238.7l-99.5-57.4c-6.4-3.7-5.6-10.2,1.8-14.5l95.9-55.4c7.4-4.3,18.7-4.8,25.1-1l99.5,57.4
				c6.4,3.7,5.6,10.2-1.8,14.5l-95.9,55.4C143,242,131.8,242.4,125.3,238.7z"/>
			<path class="st3" d="M246.3,178l-95.9,55.4c-7.4,4.3-18.7,4.8-25.1,1L25.8,177c-2-1.2-3.3-2.7-3.9-4.2c-1.2,3.1,0.1,6.3,3.9,8.5
				l99.5,57.4c6.4,3.7,17.7,3.3,25.1-1l95.9-55.4c5.1-2.9,7-6.9,5.7-10.3C251.2,174.2,249.4,176.3,246.3,178z"/>
		</g>
		<g>
			<linearGradient id="SVGID_3_" gradientUnits="userSpaceOnUse" x1="179.5276" y1="491.2026" x2="410.4897" y2="491.2026">
				<stop  offset="0.4032" style="stop-color:#FD5A05"/>
				<stop  offset="0.423" style="stop-color:#FA5505"/>
				<stop  offset="0.5505" style="stop-color:#EC3D03"/>
				<stop  offset="0.6846" style="stop-color:#E22C01"/>
				<stop  offset="0.8286" style="stop-color:#DC2100"/>
				<stop  offset="1" style="stop-color:#DA1E00"/>
			</linearGradient>
			<path class="st4" d="M410.5,355.7h-231v204.5h0.1c-0.2,2.5,1.2,4.9,4.3,6.7l99.5,57.4c6.4,3.7,17.7,3.3,25.1-1l95.9-55.4
				c3.8-2.2,5.9-5,6.1-7.7h0V355.7z"/>
			<linearGradient id="SVGID_4_" gradientUnits="userSpaceOnUse" x1="193.1348" y1="202.0065" x2="439.7029" y2="573.8447">
				<stop  offset="0.4032" style="stop-color:#FC8B04"/>
				<stop  offset="0.5099" style="stop-color:#FC7904"/>
				<stop  offset="0.6558" style="stop-color:#FD6805"/>
				<stop  offset="0.813" style="stop-color:#FD5D05"/>
				<stop  offset="1" style="stop-color:#FD5A05"/>
			</linearGradient>
			<path class="st5" d="M283.4,419.8l-99.5-57.4c-6.4-3.7-5.6-10.2,1.8-14.5l95.9-55.4c7.4-4.3,18.7-4.8,25.1-1l99.5,57.4
				c6.4,3.7,5.6,10.2-1.8,14.5l-95.9,55.4C301.1,423.1,289.8,423.6,283.4,419.8z"/>
			<path class="st3" d="M404.4,359.2l-95.9,55.4c-7.4,4.3-18.7,4.8-25.1,1l-99.5-57.4c-2-1.2-3.3-2.7-3.9-4.2
				c-1.2,3.1,0.1,6.3,3.9,8.5l99.5,57.4c6.4,3.7,17.7,3.3,25.1-1l95.9-55.4c5.1-2.9,7-6.9,5.7-10.3
				C409.3,355.3,407.4,357.4,404.4,359.2z"/>
		</g>
	</g>
</g>
<g class="st0">
	<g>
		<g>
			<path class="st6" d="M506.1,57.8c-10.7-1.8-20.5-2.1-29.3-1.1l1.1-29.3l-37.2,45.4c-1.9,2-3.6,4.1-5.2,6.3l-0.1,0.1l0,0
				c-10.9,16-12.4,39.3-2.1,66.8c0.7,2,1.5,3.9,2.3,5.8l47.2,5.6c17-30.1,26.6-63.4,34.8-97.3C513.8,59.3,509.9,58.5,506.1,57.8z"/>
			<path class="st7" d="M659.1,184c-6.3-16.9-16.5-33.7-29.2-49.1l2.4-13.8l-38.7-48.6l-39.8,1.4c-11.9-5.9-24.1-10.6-36.2-13.7
				c-8.2,33.9-17.8,67.2-34.8,97.3l28.8,3.4c-0.3-0.6-0.5-1.2-0.7-1.8c-6.9-18.5,3.3-30.9,22.8-27.6c19.5,3.3,40.9,20.9,47.9,39.4
				c2.3,6.2,2.7,11.8,1.5,16.3l80.8,48.8C667.8,221.7,666.6,203.9,659.1,184z"/>
			
				<linearGradient id="SVGID_5_" gradientUnits="userSpaceOnUse" x1="489.0303" y1="101.7747" x2="765.1219" y2="101.7747" gradientTransform="matrix(0.7717 0.636 -0.636 0.7717 171.3707 -369.5295)">
				<stop  offset="0.4032" style="stop-color:#FC8B04"/>
				<stop  offset="0.5099" style="stop-color:#FC7904"/>
				<stop  offset="0.6558" style="stop-color:#FD6805"/>
				<stop  offset="0.813" style="stop-color:#FD5D05"/>
				<stop  offset="1" style="stop-color:#FD5A05"/>
			</linearGradient>
			<path class="st8" d="M551.1,113.1c-0.3-0.6-0.5-1.2-0.7-1.8c-6.9-18.5,3.3-30.9,22.8-27.6c19.5,3.3,40.9,20.9,47.9,39.4
				c2.3,6.2,2.7,11.8,1.5,16.3l80.8,48.8c4-14.3,2.8-32.1-4.7-52C676.4,76.9,607.9,20.4,545.6,10c-62.4-10.4-95,29.1-72.8,88.4
				c0.7,2,1.5,3.9,2.3,5.8L551.1,113.1z"/>
			<polygon class="st9" points="511.6,161 551.1,113.1 475.1,104.2 435.6,152 			"/>
			<polygon class="st9" points="583,187.3 622.4,139.4 703.3,188.1 663.8,236 			"/>
		</g>
		<g>
			<path class="st9" d="M703.5,221c0,0-56.2,6.2-56.9,5.9c-0.3-0.1-3.1,3.2-6.3,7.1l-49.5-29.9c-2.5,8.8-11.3,13.5-24.2,11.4
				c-5.5-0.9-11.2-3-16.7-5.9l-9,60.7c17.5,9.4,35.6,16,53.3,19c30.5,5.1,53.9-1.8,67.2-17.1l0,0L703.5,221z"/>
			<polygon class="st10" points="589.3,161.7 549.9,209.5 540.8,270.2 580.3,222.4 			"/>
			
				<linearGradient id="SVGID_6_" gradientUnits="userSpaceOnUse" x1="660.3582" y1="148.4293" x2="786.184" y2="148.4293" gradientTransform="matrix(0.7717 0.636 -0.636 0.7717 171.3707 -369.5295)">
				<stop  offset="0.4032" style="stop-color:#FC8B04"/>
				<stop  offset="0.5099" style="stop-color:#FC7904"/>
				<stop  offset="0.6558" style="stop-color:#FD6805"/>
				<stop  offset="0.813" style="stop-color:#FD5D05"/>
				<stop  offset="1" style="stop-color:#FD5A05"/>
			</linearGradient>
			<path class="st11" d="M580.3,222.4c17.5,9.4,35.6,16,53.3,19c41.3,6.9,69.6-8.1,77.5-36.3l-80.8-48.8
				c-2.5,8.8-11.3,13.5-24.2,11.4c-5.5-0.9-11.2-3-16.7-5.9L580.3,222.4z"/>
		</g>
		<g>
			
				<linearGradient id="SVGID_7_" gradientUnits="userSpaceOnUse" x1="525.0959" y1="224.8759" x2="712.2924" y2="224.8759" gradientTransform="matrix(0.7717 0.636 -0.636 0.7717 171.3707 -369.5295)">
				<stop  offset="0.3584" style="stop-color:#FD5A05"/>
				<stop  offset="0.3797" style="stop-color:#FA5505"/>
				<stop  offset="0.5167" style="stop-color:#EC3D03"/>
				<stop  offset="0.6609" style="stop-color:#E22C01"/>
				<stop  offset="0.8158" style="stop-color:#DC2100"/>
				<stop  offset="1" style="stop-color:#DA1E00"/>
			</linearGradient>
			<path class="st12" d="M469.2,113.8l-39.4,47.9C447,202,485,240.4,527.2,262.9l39.4-47.9L469.2,113.8z"/>
			
				<linearGradient id="SVGID_8_" gradientUnits="userSpaceOnUse" x1="537.2032" y1="173.1559" x2="676.8323" y2="173.1559" gradientTransform="matrix(0.7717 0.636 -0.636 0.7717 171.3707 -369.5295)">
				<stop  offset="0.4032" style="stop-color:#FC8B04"/>
				<stop  offset="0.5099" style="stop-color:#FC7904"/>
				<stop  offset="0.6558" style="stop-color:#FD6805"/>
				<stop  offset="0.813" style="stop-color:#FD5D05"/>
				<stop  offset="1" style="stop-color:#FD5A05"/>
			</linearGradient>
			<path class="st13" d="M566.6,215.1l9-60.7c-13.2-7.1-25.1-19.1-30.5-31.7l-76-9C486.4,154.1,524.5,192.5,566.6,215.1z"/>
			<g>
				<path class="st3" d="M624.1,137.4c1.3-4.5,0.9-10-1.5-16.3c-6.9-18.5-28.4-36.2-47.9-39.4c-10.4-1.7-18.1,1-22,6.7
					c4.3-4.3,11.3-6.2,20.4-4.7c19.5,3.3,40.9,20.9,47.9,39.4c2.3,6.2,2.7,11.8,1.5,16.3l80.8,48.8c0.2-0.9,0.4-1.8,0.6-2.6
					L624.1,137.4z"/>
				<path class="st3" d="M550.2,110.8l-73.5-8.7c-0.8-1.9-1.6-3.9-2.3-5.8c-10.8-29-8.5-53.3,3.9-69.3c-13.9,16-16.9,41-5.6,71.3
					c0.7,2,1.5,3.9,2.3,5.8l76,9c-0.3-0.6-0.5-1.2-0.7-1.8C550.3,111.1,550.3,111,550.2,110.8z"/>
			</g>
			<g>
				<path class="st3" d="M630.9,156.7l-0.7-0.4c-0.5,1.7-1.2,3.2-2.1,4.6C629.2,159.7,630.2,158.3,630.9,156.7z"/>
				<path class="st3" d="M635.2,239.3c-17.7-3-35.8-9.6-53.3-19l8.7-58.1c-0.4-0.2-0.8-0.4-1.3-0.6l-9,60.7
					c17.5,9.4,35.6,16,53.3,19c31.7,5.3,55.7-2.4,68.7-19C688.9,237.6,665.6,244.4,635.2,239.3z"/>
			</g>
			<path class="st3" d="M471.9,114.1l-2.7-0.3c17.2,40.4,55.3,78.7,97.4,101.3l0.4-2.7C526.2,190.1,489.4,153.2,471.9,114.1z"/>
		</g>
	</g>
</g>
<g class="st14">
	
		<linearGradient id="SVGID_9_" gradientUnits="userSpaceOnUse" x1="382.2147" y1="136.0345" x2="450.3854" y2="136.0345" gradientTransform="matrix(0.3477 -0.9376 0.9376 0.3477 82.8914 391.3995)">
		<stop  offset="0.4032" style="stop-color:#FD5A05"/>
		<stop  offset="0.423" style="stop-color:#FA5505"/>
		<stop  offset="0.5505" style="stop-color:#EC3D03"/>
		<stop  offset="0.6846" style="stop-color:#E22C01"/>
		<stop  offset="0.8286" style="stop-color:#DC2100"/>
		<stop  offset="1" style="stop-color:#DA1E00"/>
	</linearGradient>
	<path class="st15" d="M338.2,5.7l-23.7,63.9l39.2,14.5l0,0c0.7,0.3,1.5,0.2,2.3-0.5L382.1,62c1.7-1.4,2.7-4.6,2.3-7.1l-5.5-32.2
		c-0.2-1.3-0.8-2.1-1.5-2.5l0,0L338.2,5.7z"/>
	
		<linearGradient id="SVGID_10_" gradientUnits="userSpaceOnUse" x1="386.2311" y1="59.9559" x2="459.0077" y2="169.707" gradientTransform="matrix(0.3477 -0.9376 0.9376 0.3477 82.8914 391.3995)">
		<stop  offset="0.4032" style="stop-color:#FC8B04"/>
		<stop  offset="0.5099" style="stop-color:#FC7904"/>
		<stop  offset="0.6558" style="stop-color:#FD6805"/>
		<stop  offset="0.813" style="stop-color:#FD5D05"/>
		<stop  offset="1" style="stop-color:#FD5A05"/>
	</linearGradient>
	<path class="st16" d="M342.9,47.5l-26.1,21.6c-1.7,1.4-3.4,0.5-3.8-2l-5.5-32.2c-0.4-2.5,0.6-5.7,2.3-7.1l26.1-21.6
		c1.7-1.4,3.4-0.5,3.8,2l5.5,32.2C345.7,42.9,344.6,46.1,342.9,47.5z"/>
	<path class="st3" d="M338.6,7.8L344,40c0.4,2.5-0.6,5.7-2.3,7.1l-26.1,21.6c-0.5,0.4-1.1,0.6-1.6,0.6c0.7,0.6,1.7,0.6,2.8-0.2
		l26.1-21.6c1.7-1.4,2.7-4.6,2.3-7.1l-5.5-32.2c-0.3-1.7-1.2-2.6-2.3-2.6C338,6,338.4,6.8,338.6,7.8z"/>
</g>
<g class="st0">
	
		<linearGradient id="SVGID_11_" gradientUnits="userSpaceOnUse" x1="151.742" y1="518.438" x2="219.9127" y2="518.438" gradientTransform="matrix(0.3477 -0.9376 0.9376 0.3477 82.8914 391.3995)">
		<stop  offset="0.4032" style="stop-color:#FD5A05"/>
		<stop  offset="0.423" style="stop-color:#FA5505"/>
		<stop  offset="0.5505" style="stop-color:#EC3D03"/>
		<stop  offset="0.6846" style="stop-color:#E22C01"/>
		<stop  offset="0.8286" style="stop-color:#DC2100"/>
		<stop  offset="1" style="stop-color:#DA1E00"/>
	</linearGradient>
	<path class="st17" d="M616.6,354.8l-23.7,63.9l39.2,14.5l0,0c0.7,0.3,1.5,0.2,2.3-0.5l26.1-21.6c1.7-1.4,2.7-4.6,2.3-7.1l-5.5-32.2
		c-0.2-1.3-0.8-2.1-1.5-2.5l0,0L616.6,354.8z"/>
	
		<linearGradient id="SVGID_12_" gradientUnits="userSpaceOnUse" x1="155.7584" y1="442.3594" x2="228.535" y2="552.1104" gradientTransform="matrix(0.3477 -0.9376 0.9376 0.3477 82.8914 391.3995)">
		<stop  offset="0.4032" style="stop-color:#FC8B04"/>
		<stop  offset="0.5099" style="stop-color:#FC7904"/>
		<stop  offset="0.6558" style="stop-color:#FD6805"/>
		<stop  offset="0.813" style="stop-color:#FD5D05"/>
		<stop  offset="1" style="stop-color:#FD5A05"/>
	</linearGradient>
	<path class="st18" d="M621.3,396.6l-26.1,21.6c-1.7,1.4-3.4,0.5-3.8-2l-5.5-32.2c-0.4-2.5,0.6-5.7,2.3-7.1l26.1-21.6
		c1.7-1.4,3.4-0.5,3.8,2l5.5,32.2C624.1,392,623,395.2,621.3,396.6z"/>
	<path class="st3" d="M617,356.8l5.5,32.2c0.4,2.5-0.6,5.7-2.3,7.1l-26.1,21.6c-0.5,0.4-1.1,0.6-1.6,0.6c0.7,0.6,1.7,0.6,2.8-0.2
		l26.1-21.6c1.7-1.4,2.7-4.6,2.3-7.1l-5.5-32.2c-0.3-1.7-1.2-2.6-2.3-2.6C616.4,355.1,616.8,355.8,617,356.8z"/>
</g>
<g class="st19">
	
		<linearGradient id="SVGID_13_" gradientUnits="userSpaceOnUse" x1="-733.3179" y1="329.1071" x2="-703.8296" y2="329.1071" gradientTransform="matrix(0.6045 0.7966 -0.7966 0.6045 1201.3921 777.5505)">
		<stop  offset="0.4032" style="stop-color:#FD5A05"/>
		<stop  offset="0.423" style="stop-color:#FA5505"/>
		<stop  offset="0.5505" style="stop-color:#EC3D03"/>
		<stop  offset="0.6846" style="stop-color:#E22C01"/>
		<stop  offset="0.8286" style="stop-color:#DC2100"/>
		<stop  offset="1" style="stop-color:#DA1E00"/>
	</linearGradient>
	<path class="st20" d="M524.3,407.8l-17.8-23.5l-14.4,10.9l0,0c-0.3,0.2-0.4,0.5-0.3,1l1.8,14.6c0.1,0.9,1,2,2,2.5l13,5.5
		c0.5,0.2,1,0.2,1.3,0l0,0L524.3,407.8z"/>
	
		<linearGradient id="SVGID_14_" gradientUnits="userSpaceOnUse" x1="-731.5807" y1="296.198" x2="-700.0984" y2="343.6749" gradientTransform="matrix(0.6045 0.7966 -0.7966 0.6045 1201.3921 777.5505)">
		<stop  offset="0.4032" style="stop-color:#FC8B04"/>
		<stop  offset="0.5099" style="stop-color:#FC7904"/>
		<stop  offset="0.6558" style="stop-color:#FD6805"/>
		<stop  offset="0.813" style="stop-color:#FD5D05"/>
		<stop  offset="1" style="stop-color:#FD5A05"/>
	</linearGradient>
	<path class="st21" d="M508,399.8l-1.8-14.6c-0.1-0.9,0.6-1.4,1.6-0.9l13,5.5c1,0.4,1.9,1.5,2,2.5l1.8,14.6c0.1,0.9-0.6,1.4-1.6,0.9
		l-13-5.5C509,401.9,508.1,400.8,508,399.8z"/>
	<path class="st3" d="M523.5,407.4l-13-5.5c-1-0.4-1.9-1.5-2-2.5l-1.8-14.6c0-0.3,0-0.5,0.1-0.7c-0.4,0.1-0.6,0.5-0.6,1.1l1.8,14.6
		c0.1,0.9,1,2,2,2.5l13,5.5c0.7,0.3,1.2,0.2,1.5-0.2C524.3,407.6,523.9,407.6,523.5,407.4z"/>
</g>
<g>
	<g>
		<g>
			<g>
				<linearGradient id="SVGID_15_" gradientUnits="userSpaceOnUse" x1="399.5602" y1="317.7023" x2="604.0027" y2="317.7023">
					<stop  offset="0" style="stop-color:#59BDEF"/>
					<stop  offset="1" style="stop-color:#7BDAFF"/>
				</linearGradient>
				<path class="st22" d="M524.2,376.2l-123.7-71.4c-1.4-0.8-1.2-2.2,0.4-3.2l73-42.1c1.6-0.9,4.1-1,5.5-0.2L603,330.6
					c1.4,0.8,1.2,2.2-0.4,3.2l-73,42.1C528.1,376.9,525.6,377,524.2,376.2z"/>
				
					<linearGradient id="SVGID_16_" gradientUnits="userSpaceOnUse" x1="-1868.6017" y1="92.7694" x2="-1894.8472" y2="221.2648" gradientTransform="matrix(1 0 0 1 2450.7319 0)">
					<stop  offset="0" style="stop-color:#2573BA"/>
					<stop  offset="1" style="stop-color:#0063AD"/>
				</linearGradient>
				<path class="st23" d="M643.4,185.2l-143.2-82.7c-1-0.6-2-0.6-2.7-0.2l-3.1,1.8l1.8,0.7l-18.8,100.3c-0.3,1.8,0.8,4.2,2.6,5.2
					l143,82.5l-0.2,2.2l3.1-1.8l0,0c0.6-0.3,1.1-0.9,1.2-1.7l19-101.1C646.3,188.5,645.1,186.2,643.4,185.2z"/>
				
					<linearGradient id="SVGID_17_" gradientUnits="userSpaceOnUse" x1="-2061.6475" y1="287.549" x2="-1882.3834" y2="287.549" gradientTransform="matrix(1 0 0 1 2450.7319 0)">
					<stop  offset="0" style="stop-color:#3A9BD5"/>
					<stop  offset="0.3053" style="stop-color:#3A9BD5"/>
					<stop  offset="0.3555" style="stop-color:#3A9BD5"/>
					<stop  offset="0.5988" style="stop-color:#3999D4"/>
					<stop  offset="0.6883" style="stop-color:#3592CF"/>
					<stop  offset="0.7522" style="stop-color:#2F86C7"/>
					<stop  offset="0.8039" style="stop-color:#2676BC"/>
					<stop  offset="0.8102" style="stop-color:#2573BA"/>
				</linearGradient>
				<path class="st24" d="M620.4,296.6l-7.2,3.6l-136.8-79c-1.6-0.9-4.4-0.8-6.3,0.3l-79.4,45.9l-7.5-4.1l2.7,8.6l0,0
					c0.1,0.4,0.5,0.8,1,1.1l140.4,81c1.6,0.9,4.4,0.8,6.3-0.3l82.8-47.8c0.8-0.5,1.3-1,1.5-1.6l0,0L620.4,296.6z"/>
				
					<linearGradient id="SVGID_18_" gradientUnits="userSpaceOnUse" x1="-1842.9265" y1="228.3983" x2="-1980.7391" y2="136.7876" gradientTransform="matrix(1 0 0 1 2450.7319 0)">
					<stop  offset="0" style="stop-color:#59BDEF"/>
					<stop  offset="1" style="stop-color:#7BDAFF"/>
				</linearGradient>
				<path class="st25" d="M643.4,185.2l-143.2-82.7c-1-0.6-2-0.6-2.7-0.2l-3.1,1.8l1.8,0.7l-18.8,100.3c-0.3,1.8,0.8,4.2,2.6,5.2
					l71.9,41.5l93.3-64.9C644.7,186.2,644.1,185.6,643.4,185.2z"/>
				
					<linearGradient id="SVGID_19_" gradientUnits="userSpaceOnUse" x1="-1977.146" y1="145.8486" x2="-1808.0288" y2="252.7969" gradientTransform="matrix(1 0 0 1 2450.7319 0)">
					<stop  offset="0" style="stop-color:#3A9BD5"/>
					<stop  offset="1" style="stop-color:#2573BA"/>
				</linearGradient>
				<path class="st26" d="M620,294.8l-143.2-82.7c-1.8-1-2.9-3.3-2.6-5.2l19-101.1c0.3-1.8,2.1-2.5,3.8-1.5L640.2,187
					c1.8,1,2.9,3.3,2.6,5.2l-19,101.1C623.4,295.1,621.7,295.8,620,294.8z"/>
				<linearGradient id="SVGID_20_" gradientUnits="userSpaceOnUse" x1="453.6372" y1="175.7612" x2="750.3418" y2="243.0744">
					<stop  offset="0" style="stop-color:#59BDEF"/>
					<stop  offset="0.9173" style="stop-color:#78D8FE"/>
					<stop  offset="1" style="stop-color:#7BDAFF"/>
				</linearGradient>
				<path class="st27" d="M619.4,291.1l-140.8-81.3c-0.6-0.4-1-1.2-0.9-1.8l18.7-99.4c0.1-0.6,0.7-0.9,1.3-0.5l140.8,81.3
					c0.6,0.4,1,1.2,0.9,1.8l-18.7,99.4C620.6,291.2,620,291.4,619.4,291.1z"/>
				
					<linearGradient id="SVGID_21_" gradientUnits="userSpaceOnUse" x1="-1910.5468" y1="351.6365" x2="-1992.0106" y2="198.389" gradientTransform="matrix(1 0 0 1 2450.7319 0)">
					<stop  offset="0" style="stop-color:#59BDEF"/>
					<stop  offset="1" style="stop-color:#7BDAFF"/>
				</linearGradient>
				<path class="st28" d="M527.8,347.3l-143.6-82.9c-1.6-0.9-1.4-2.6,0.5-3.7l84.7-48.9c1.9-1.1,4.8-1.2,6.4-0.3l143.6,82.9
					c1.6,0.9,1.4,2.6-0.5,3.7L534.2,347C532.3,348.1,529.4,348.2,527.8,347.3z"/>
				
					<linearGradient id="SVGID_22_" gradientUnits="userSpaceOnUse" x1="-1910.5468" y1="351.6365" x2="-1992.0106" y2="198.389" gradientTransform="matrix(1 0 0 1 2450.7319 0)">
					<stop  offset="0" style="stop-color:#59BDEF"/>
					<stop  offset="1" style="stop-color:#7BDAFF"/>
				</linearGradient>
				<path class="st29" d="M527.8,347.3l-143.6-82.9c-1.6-0.9-1.4-2.6,0.5-3.7l84.7-48.9c1.9-1.1,4.8-1.2,6.4-0.3l143.6,82.9
					c1.6,0.9,1.4,2.6-0.5,3.7L534.2,347C532.3,348.1,529.4,348.2,527.8,347.3z"/>
				<path class="st3" d="M618.9,297.2l-84.7,48.9c-1.9,1.1-4.8,1.2-6.4,0.3l-143.6-82.9c-0.5-0.3-0.9-0.7-1-1.1
					c-0.2,0.8,0.1,1.5,1,2.1l143.6,82.9c1.6,0.9,4.5,0.8,6.4-0.3l84.7-48.9c1.3-0.7,1.8-1.7,1.5-2.6
					C620.2,296.1,619.7,296.7,618.9,297.2z"/>
			</g>
		</g>
	</g>
	<g>
		<g>
			<polygon class="st30" points="465,227.7 579.7,293.9 584.8,290.9 470.1,224.7 			"/>
		</g>
		<g>
			<polygon class="st30" points="452.5,234.9 560.1,297 565.2,294.1 457.6,231.9 			"/>
		</g>
		<g>
			<polygon class="st30" points="444.4,239.6 571.1,312.7 576.2,309.8 449.5,236.6 			"/>
		</g>
		<g>
			<polygon class="st30" points="436.2,244.3 562.9,317.4 568,314.5 441.3,241.3 			"/>
		</g>
		<g>
			<polygon class="st30" points="428.1,249 554.8,322.1 559.9,319.2 433.2,246 			"/>
		</g>
		<g>
			<polygon class="st30" points="586.7,297.9 591.8,300.8 596.9,297.9 591.8,295 			"/>
		</g>
		<g>
			<polygon class="st30" points="568.7,301.9 579.3,308.1 584.4,305.1 573.8,299 			"/>
		</g>
	</g>
	<ellipse class="st31" cx="510.3" cy="284.2" rx="53.2" ry="30.7"/>
	<g class="st32">
		<defs>
			<path id="SVGID_23_" class="st32" d="M619.4,291.1l-140.8-81.3c-0.6-0.4-1-1.2-0.9-1.8l18.7-99.4c0.1-0.6,0.7-0.9,1.3-0.5
				l140.8,81.3c0.6,0.4,1,1.2,0.9,1.8l-18.7,99.4C620.6,291.2,620,291.4,619.4,291.1z"/>
		</defs>
		<clipPath id="SVGID_24_">
			<use xlink:href="#SVGID_23_"  style="overflow:visible;"/>
		</clipPath>
		<g class="st33">
			<g>
				<path class="st6" d="M568.2,184.9c-4,2.3-7.3,4.9-9.9,7.6l-7.6-9.9l0.1,25c-0.1,1.2-0.1,2.3,0,3.5l0,0l0,0
					c0.8,8.2,6.5,16.3,17.4,22.5c0.8,0.4,1.6,0.9,2.4,1.3l17-11c-2.6-14.5-8.4-28-14.9-41.4C571.1,183.3,569.6,184.1,568.2,184.9z"
					/>
				<path class="st7" d="M652.6,184.9c-6.7-3.8-14.5-6.6-22.9-8.2l-2.9-5.2l-25.8-5.5l-12.7,11.3c-5.5,1.3-10.8,3-15.6,5.3
					c6.5,13.4,12.3,26.9,14.9,41.4l10.4-6.7c-0.2-0.1-0.5-0.3-0.7-0.4c-7.3-4.2-7.3-11,0-15.2c7.3-4.2,19.1-4.2,26.4,0
					c2.5,1.4,4.1,3.1,4.9,4.9l39.7-5.9C665.6,195,660.4,189.5,652.6,184.9z"/>
				<linearGradient id="SVGID_25_" gradientUnits="userSpaceOnUse" x1="550.6846" y1="178.4879" x2="668.1719" y2="178.4879">
					<stop  offset="0.4032" style="stop-color:#FC8B04"/>
					<stop  offset="0.5099" style="stop-color:#FC7904"/>
					<stop  offset="0.6558" style="stop-color:#FD6805"/>
					<stop  offset="0.813" style="stop-color:#FD5D05"/>
					<stop  offset="1" style="stop-color:#FD5A05"/>
				</linearGradient>
				<path class="st34" d="M597.9,190.9c-0.2-0.1-0.5-0.3-0.7-0.4c-7.3-4.2-7.3-11,0-15.2c7.3-4.2,19.1-4.2,26.4,0
					c2.5,1.4,4.1,3.1,4.9,4.9l39.7-5.9c-2.6-5.8-7.8-11.3-15.6-15.8c-23.3-13.5-61.1-13.5-84.4,0c-23.3,13.5-23.3,35.3,0,48.7
					c0.8,0.4,1.6,0.9,2.4,1.3L597.9,190.9z"/>
				<polygon class="st9" points="597.9,217.3 597.9,190.9 570.5,208.5 570.5,234.9 				"/>
				<polygon class="st9" points="628.4,206.6 628.4,180.2 668.2,174.4 668.2,200.8 				"/>
			</g>
			<g>
				<path class="st9" d="M677.1,185.1c0,0-16.8,17.2-17.1,17.3c-0.1,0-0.2,1.9-0.1,4l-24.4,3.6c1.6,3.6-0.1,7.5-4.9,10.3
					c-2.1,1.2-4.5,2-7.1,2.6l13.5,22.4c8.3-1.7,16-4.4,22.6-8.2c11.4-6.6,17.2-15.2,17.4-23.8h0V185.1z"/>
				<polygon class="st10" points="623.6,196.5 623.6,222.9 637,245.3 637,218.9 				"/>
				<linearGradient id="SVGID_26_" gradientUnits="userSpaceOnUse" x1="623.5914" y1="198.3401" x2="677.1349" y2="198.3401">
					<stop  offset="0.4032" style="stop-color:#FC8B04"/>
					<stop  offset="0.5099" style="stop-color:#FC7904"/>
					<stop  offset="0.6558" style="stop-color:#FD6805"/>
					<stop  offset="0.813" style="stop-color:#FD5D05"/>
					<stop  offset="1" style="stop-color:#FD5A05"/>
				</linearGradient>
				<path class="st35" d="M637,218.9c8.3-1.7,16-4.4,22.6-8.2c15.4-8.9,20.6-21.5,15.6-32.9l-39.7,5.9c1.6,3.6-0.1,7.5-4.9,10.3
					c-2.1,1.2-4.5,2-7.1,2.6L637,218.9z"/>
			</g>
			<g>
				<linearGradient id="SVGID_27_" gradientUnits="userSpaceOnUse" x1="566.0328" y1="230.8721" x2="645.6917" y2="230.8721">
					<stop  offset="0.3584" style="stop-color:#FD5A05"/>
					<stop  offset="0.3797" style="stop-color:#FA5505"/>
					<stop  offset="0.5167" style="stop-color:#EC3D03"/>
					<stop  offset="0.6609" style="stop-color:#E22C01"/>
					<stop  offset="0.8158" style="stop-color:#DC2100"/>
					<stop  offset="1" style="stop-color:#DA1E00"/>
				</linearGradient>
				<path class="st36" d="M571.2,213.3v26.4c16.6,8.6,39.5,10.9,59.4,6.9v-26.4L571.2,213.3z"/>
				<linearGradient id="SVGID_28_" gradientUnits="userSpaceOnUse" x1="571.1845" y1="208.8631" x2="630.6022" y2="208.8631">
					<stop  offset="0.4032" style="stop-color:#FC8B04"/>
					<stop  offset="0.5099" style="stop-color:#FC7904"/>
					<stop  offset="0.6558" style="stop-color:#FD6805"/>
					<stop  offset="0.813" style="stop-color:#FD5D05"/>
					<stop  offset="1" style="stop-color:#FD5A05"/>
				</linearGradient>
				<path class="st37" d="M630.6,220.2l-13.5-22.4c-6.2,1.2-13.4,0.5-18.6-2.2l-27.4,17.6C587.8,221.9,610.6,224.2,630.6,220.2z"/>
				<g>
					<path class="st3" d="M628.4,179.1c-0.8-1.8-2.4-3.5-4.9-4.9c-7.3-4.2-19.1-4.2-26.4,0c-3.9,2.2-5.7,5.2-5.4,8.2
						c0.2-2.6,2-5.1,5.4-7.1c7.3-4.2,19.1-4.2,26.4,0c2.5,1.4,4.1,3.1,4.9,4.9l39.7-5.9c-0.2-0.3-0.3-0.7-0.5-1L628.4,179.1z"/>
					<path class="st3" d="M597,190.4l-26.5,17c-0.8-0.4-1.6-0.8-2.4-1.3c-11.4-6.6-17.2-15.2-17.5-23.8c-0.2,9,5.6,18,17.5,24.9
						c0.8,0.4,1.6,0.9,2.4,1.3l27.4-17.6c-0.2-0.1-0.5-0.3-0.7-0.4C597.1,190.5,597,190.4,597,190.4z"/>
				</g>
				<g>
					<path class="st3" d="M635.9,183.6l-0.4,0.1c0.3,0.7,0.5,1.4,0.5,2.1C636.2,185,636.1,184.3,635.9,183.6z"/>
					<path class="st3" d="M659.7,209.6c-6.6,3.8-14.4,6.5-22.6,8.2l-12.9-21.4c-0.2,0-0.4,0.1-0.6,0.1l13.5,22.4
						c8.3-1.7,16-4.4,22.6-8.2c11.9-6.8,17.7-15.9,17.4-24.8C676.8,194.5,671,203,659.7,209.6z"/>
				</g>
				<path class="st3" d="M572.2,212.6l-1,0.6c16.6,8.6,39.5,10.9,59.4,6.9l-0.6-1C610.6,222.9,588.5,220.8,572.2,212.6z"/>
			</g>
		</g>
	</g>
	<g>
		<g>
			<path class="st6" d="M464.6,227.5c-4,2.3-7.3,4.9-9.9,7.6l-7.6-9.9l0.1,25c-0.1,1.2-0.1,2.3,0,3.5l0,0l0,0
				c0.8,8.2,6.5,16.3,17.4,22.5c0.8,0.4,1.6,0.9,2.4,1.3l17-11c-2.6-14.5-8.4-28-14.9-41.4C467.5,225.9,466,226.6,464.6,227.5z"/>
			<path class="st7" d="M549,227.5c-6.7-3.8-14.5-6.6-22.9-8.2l-2.9-5.2l-25.8-5.5l-12.7,11.3c-5.5,1.3-10.8,3-15.6,5.3
				c6.5,13.4,12.3,26.9,14.9,41.4l10.4-6.7c-0.2-0.1-0.5-0.3-0.7-0.4c-7.3-4.2-7.3-11,0-15.2c7.3-4.2,19.1-4.2,26.4,0
				c2.5,1.4,4.1,3.1,4.9,4.9l39.7-5.9C562,237.5,556.8,232,549,227.5z"/>
			<linearGradient id="SVGID_29_" gradientUnits="userSpaceOnUse" x1="447.0926" y1="221.0366" x2="564.58" y2="221.0366">
				<stop  offset="0.4032" style="stop-color:#FC8B04"/>
				<stop  offset="0.5099" style="stop-color:#FC7904"/>
				<stop  offset="0.6558" style="stop-color:#FD6805"/>
				<stop  offset="0.813" style="stop-color:#FD5D05"/>
				<stop  offset="1" style="stop-color:#FD5A05"/>
			</linearGradient>
			<path class="st38" d="M494.3,233.5c-0.2-0.1-0.5-0.3-0.7-0.4c-7.3-4.2-7.3-11,0-15.2c7.3-4.2,19.1-4.2,26.4,0
				c2.5,1.4,4.1,3.1,4.9,4.9l39.7-5.9c-2.6-5.8-7.8-11.3-15.6-15.8c-23.3-13.5-61.1-13.5-84.4,0c-23.3,13.5-23.3,35.3,0,48.7
				c0.8,0.4,1.6,0.9,2.4,1.3L494.3,233.5z"/>
			<polygon class="st9" points="494.3,259.9 494.3,233.5 466.9,251.1 466.9,277.5 			"/>
			<polygon class="st9" points="524.8,249.2 524.8,222.8 564.6,216.9 564.6,243.3 			"/>
		</g>
		<g>
			<path class="st9" d="M573.5,227.6c0,0-16.8,17.2-17.1,17.3c-0.1,0-0.2,1.9-0.1,4l-24.4,3.6c1.6,3.6-0.1,7.5-4.9,10.3
				c-2.1,1.2-4.5,2-7.1,2.6l13.5,22.4c8.3-1.7,16-4.4,22.6-8.2c11.4-6.6,17.2-15.2,17.4-23.8h0V227.6z"/>
			<polygon class="st10" points="520,239.1 520,265.5 533.5,287.8 533.5,261.4 			"/>
			<linearGradient id="SVGID_30_" gradientUnits="userSpaceOnUse" x1="519.9994" y1="240.8887" x2="573.5428" y2="240.8887">
				<stop  offset="0.4032" style="stop-color:#FC8B04"/>
				<stop  offset="0.5099" style="stop-color:#FC7904"/>
				<stop  offset="0.6558" style="stop-color:#FD6805"/>
				<stop  offset="0.813" style="stop-color:#FD5D05"/>
				<stop  offset="1" style="stop-color:#FD5A05"/>
			</linearGradient>
			<path class="st39" d="M533.5,261.4c8.3-1.7,16-4.4,22.6-8.2c15.4-8.9,20.6-21.5,15.6-32.9l-39.7,5.9c1.6,3.6-0.1,7.5-4.9,10.3
				c-2.1,1.2-4.5,2-7.1,2.6L533.5,261.4z"/>
		</g>
		<g>
			<linearGradient id="SVGID_31_" gradientUnits="userSpaceOnUse" x1="462.4409" y1="273.4208" x2="542.0997" y2="273.4208">
				<stop  offset="0.3584" style="stop-color:#FD5A05"/>
				<stop  offset="0.3797" style="stop-color:#FA5505"/>
				<stop  offset="0.5167" style="stop-color:#EC3D03"/>
				<stop  offset="0.6609" style="stop-color:#E22C01"/>
				<stop  offset="0.8158" style="stop-color:#DC2100"/>
				<stop  offset="1" style="stop-color:#DA1E00"/>
			</linearGradient>
			<path class="st40" d="M467.6,255.8v26.4c16.6,8.6,39.5,10.9,59.4,6.9v-26.4L467.6,255.8z"/>
			<linearGradient id="SVGID_32_" gradientUnits="userSpaceOnUse" x1="467.5925" y1="251.4117" x2="527.0102" y2="251.4117">
				<stop  offset="0.4032" style="stop-color:#FC8B04"/>
				<stop  offset="0.5099" style="stop-color:#FC7904"/>
				<stop  offset="0.6558" style="stop-color:#FD6805"/>
				<stop  offset="0.813" style="stop-color:#FD5D05"/>
				<stop  offset="1" style="stop-color:#FD5A05"/>
			</linearGradient>
			<path class="st41" d="M527,262.7l-13.5-22.4c-6.2,1.2-13.4,0.5-18.6-2.2l-27.4,17.6C484.2,264.4,507.1,266.7,527,262.7z"/>
			<g>
				<path class="st3" d="M524.8,221.7c-0.8-1.8-2.4-3.5-4.9-4.9c-7.3-4.2-19.1-4.2-26.4,0c-3.9,2.2-5.7,5.2-5.4,8.2
					c0.2-2.6,2-5.1,5.4-7.1c7.3-4.2,19.1-4.2,26.4,0c2.5,1.4,4.1,3.1,4.9,4.9l39.7-5.9c-0.2-0.3-0.3-0.7-0.5-1L524.8,221.7z"/>
				<path class="st3" d="M493.4,232.9l-26.5,17c-0.8-0.4-1.6-0.8-2.4-1.3c-11.4-6.6-17.2-15.2-17.5-23.8c-0.2,9,5.6,18,17.5,24.9
					c0.8,0.4,1.6,0.9,2.4,1.3l27.4-17.6c-0.2-0.1-0.5-0.3-0.7-0.4C493.5,233,493.5,233,493.4,232.9z"/>
			</g>
			<g>
				<path class="st3" d="M532.3,226.2l-0.4,0.1c0.3,0.7,0.5,1.4,0.5,2.1C532.6,227.6,532.5,226.9,532.3,226.2z"/>
				<path class="st3" d="M556.1,252.1c-6.6,3.8-14.4,6.5-22.6,8.2l-12.9-21.4c-0.2,0-0.4,0.1-0.6,0.1l13.5,22.4
					c8.3-1.7,16-4.4,22.6-8.2c11.9-6.8,17.7-15.9,17.4-24.8C573.2,237,567.4,245.6,556.1,252.1z"/>
			</g>
			<path class="st3" d="M468.6,255.2l-1,0.6c16.6,8.6,39.5,10.9,59.4,6.9l-0.6-1C507,265.5,484.9,263.3,468.6,255.2z"/>
		</g>
	</g>
</g>
<g class="st0">
	
		<linearGradient id="SVGID_33_" gradientUnits="userSpaceOnUse" x1="400.6064" y1="140.0901" x2="426.2852" y2="140.0901" gradientTransform="matrix(0.7842 0.6205 -0.6205 0.7842 184.6672 -225.403)">
		<stop  offset="0.4032" style="stop-color:#FD5A05"/>
		<stop  offset="0.423" style="stop-color:#FA5505"/>
		<stop  offset="0.5505" style="stop-color:#EC3D03"/>
		<stop  offset="0.6846" style="stop-color:#E22C01"/>
		<stop  offset="0.8286" style="stop-color:#DC2100"/>
		<stop  offset="1" style="stop-color:#DA1E00"/>
	</linearGradient>
	<path class="st42" d="M439.2,139.9L419.1,124l-9.8,12.3l0,0c-0.2,0.2-0.2,0.5-0.1,0.9l4.7,11.9c0.3,0.8,1.3,1.5,2.3,1.6l12.2,1.8
		c0.5,0.1,0.9,0,1.1-0.3l0,0L439.2,139.9z"/>
	
		<linearGradient id="SVGID_34_" gradientUnits="userSpaceOnUse" x1="402.1192" y1="111.4324" x2="429.5342" y2="152.7757" gradientTransform="matrix(0.7842 0.6205 -0.6205 0.7842 184.6672 -225.403)">
		<stop  offset="0.4032" style="stop-color:#FC8B04"/>
		<stop  offset="0.5099" style="stop-color:#FC7904"/>
		<stop  offset="0.6558" style="stop-color:#FD6805"/>
		<stop  offset="0.813" style="stop-color:#FD5D05"/>
		<stop  offset="1" style="stop-color:#FD5A05"/>
	</linearGradient>
	<path class="st43" d="M423.7,136.7l-4.7-11.9c-0.3-0.8,0.2-1.3,1.2-1.1l12.2,1.8c0.9,0.1,2,0.9,2.3,1.6l4.7,11.9
		c0.3,0.8-0.2,1.3-1.2,1.1l-12.2-1.8C425,138.2,424,137.5,423.7,136.7z"/>
	<path class="st3" d="M438.4,139.8l-12.2-1.8c-0.9-0.1-2-0.9-2.3-1.6l-4.7-11.9c-0.1-0.2-0.1-0.5,0-0.6c-0.3,0.2-0.4,0.6-0.2,1
		l4.7,11.9c0.3,0.8,1.3,1.5,2.3,1.6l12.2,1.8c0.6,0.1,1.1-0.1,1.2-0.5C439.1,139.8,438.8,139.8,438.4,139.8z"/>
</g>
<linearGradient id="SVGID_35_" gradientUnits="userSpaceOnUse" x1="700.9411" y1="345.9005" x2="753.6705" y2="425.4194" gradientTransform="matrix(0.9897 0.1429 -0.1429 0.9897 -42.7902 -112.0732)">
	<stop  offset="0" style="stop-color:#59BDEF"/>
	<stop  offset="1" style="stop-color:#7BDAFF"/>
</linearGradient>
<path class="st44" d="M613.9,379.3l-19.3-15.2c-1.2-1-0.9-2.3,0.8-3l22-8.8c1.7-0.7,4.1-0.4,5.3,0.5l19.3,15.2c1.2,1,0.9,2.3-0.8,3
	l-22,8.8C617.6,380.5,615.2,380.3,613.9,379.3z"/>
<g>
	
		<linearGradient id="SVGID_36_" gradientUnits="userSpaceOnUse" x1="697.4683" y1="364.7753" x2="746.8607" y2="364.7753" gradientTransform="matrix(0.9933 -0.1157 0.1157 0.9933 -142.1443 72.9636)">
		<stop  offset="0.4032" style="stop-color:#FD5A05"/>
		<stop  offset="0.423" style="stop-color:#FA5505"/>
		<stop  offset="0.5505" style="stop-color:#EC3D03"/>
		<stop  offset="0.6846" style="stop-color:#E22C01"/>
		<stop  offset="0.8286" style="stop-color:#DC2100"/>
		<stop  offset="1" style="stop-color:#DA1E00"/>
	</linearGradient>
	<path class="st45" d="M639.3,326.8l-49.1,5.7l3.5,30.1l0,0c0,0.5,0.4,1,1.1,1.3l22.6,9.7c1.5,0.6,3.8,0.3,5.3-0.8l19-14.1
		c0.8-0.6,1.1-1.2,1.1-1.8l0,0L639.3,326.8z"/>
	
		<linearGradient id="SVGID_37_" gradientUnits="userSpaceOnUse" x1="700.3782" y1="309.6532" x2="753.108" y2="389.1725" gradientTransform="matrix(0.9933 -0.1157 0.1157 0.9933 -142.1443 72.9636)">
		<stop  offset="0.4032" style="stop-color:#FC8B04"/>
		<stop  offset="0.5099" style="stop-color:#FC7904"/>
		<stop  offset="0.6558" style="stop-color:#FD6805"/>
		<stop  offset="0.813" style="stop-color:#FD5D05"/>
		<stop  offset="1" style="stop-color:#FD5A05"/>
	</linearGradient>
	<path class="st46" d="M613.9,343.5l-22.6-9.7c-1.5-0.6-1.4-2,0-3.1l19-14.1c1.5-1.1,3.9-1.5,5.3-0.8l22.6,9.7c1.5,0.6,1.4,2,0,3.1
		l-19,14.1C617.8,343.8,615.4,344.2,613.9,343.5z"/>
	<path class="st3" d="M638.1,327.7l-19,14.1c-1.5,1.1-3.9,1.5-5.3,0.8l-22.6-9.7c-0.5-0.2-0.8-0.5-0.9-0.8c-0.2,0.7,0.2,1.3,1,1.7
		l22.6,9.7c1.5,0.6,3.8,0.3,5.3-0.8l19-14.1c1-0.7,1.3-1.6,1-2.3C639.1,326.7,638.7,327.2,638.1,327.7z"/>
</g>
<g>
	<g>
		
			<linearGradient id="SVGID_38_" gradientUnits="userSpaceOnUse" x1="365.1566" y1="188.3319" x2="482.3083" y2="188.3319" gradientTransform="matrix(0.9022 0.4314 -0.4314 0.9022 72.3899 -157.2779)">
			<stop  offset="0" style="stop-color:#3A9BD5"/>
			<stop  offset="0.1172" style="stop-color:#3490CE"/>
			<stop  offset="0.367" style="stop-color:#2C80C3"/>
			<stop  offset="0.6442" style="stop-color:#2776BC"/>
			<stop  offset="1" style="stop-color:#2573BA"/>
		</linearGradient>
		<path class="st47" d="M384.1,158.3l-76.4-36.5l-22.4,46.8l0,0c-0.4,0.8-0.4,1.8,0.4,2.9l23.8,34.7c1.5,2.2,5.3,3.9,8.5,3.6
			l40.5-3.1c1.6-0.1,2.7-0.7,3.2-1.6l0,0L384.1,158.3z"/>
		
			<linearGradient id="SVGID_39_" gradientUnits="userSpaceOnUse" x1="337.6797" y1="93.8419" x2="428.068" y2="230.1523" gradientTransform="matrix(0.9022 0.4314 -0.4314 0.9022 72.3899 -157.2779)">
			<stop  offset="0" style="stop-color:#59BDEF"/>
			<stop  offset="1" style="stop-color:#7BDAFF"/>
		</linearGradient>
		<path class="st48" d="M332,159.4l-23.8-34.7c-1.5-2.2-0.2-4.3,2.9-4.5l40.5-3.1c3.1-0.2,6.9,1.4,8.5,3.6l23.8,34.7
			c1.5,2.2,0.2,4.3-2.9,4.5l-40.5,3.1C337.3,163.2,333.5,161.6,332,159.4z"/>
		<path class="st3" d="M381.6,158.4l-40.5,3.1c-3.1,0.2-6.9-1.4-8.5-3.6l-23.8-34.7c-0.5-0.7-0.7-1.4-0.6-2c-0.9,0.8-1,2.1-0.1,3.4
			l23.8,34.7c1.5,2.2,5.3,3.9,8.5,3.6l40.5-3.1c2.1-0.2,3.4-1.2,3.5-2.5C383.8,157.9,382.8,158.3,381.6,158.4z"/>
	</g>
</g>
<g>
	<polygon class="st3" points="518.5,142.6 511.9,138.8 512.2,137.4 518.8,141.2 	"/>
	<polygon class="st3" points="521.9,144.6 519.5,143.2 519.8,141.8 522.2,143.1 	"/>
	<polygon class="st3" points="524.5,146.1 522.9,145.2 523.2,143.7 524.8,144.7 	"/>
	<polygon class="st3" points="514.8,144.2 511.2,142.1 511.5,140.7 515.1,142.8 	"/>
	<polygon class="st3" points="520.2,147.3 515.8,144.8 516.1,143.3 520.5,145.9 	"/>
	<polygon class="st3" points="522.9,148.9 521.3,147.9 521.5,146.5 523.2,147.4 	"/>
	<polygon class="st3" points="525.4,150.3 523.8,149.4 524,147.9 525.7,148.9 	"/>
	<polygon class="st3" points="513.2,147 510.6,145.4 510.9,144 513.5,145.5 	"/>
	<polygon class="st3" points="515.1,148.1 514.2,147.5 514.5,146.1 515.4,146.6 	"/>
	<polygon class="st3" points="517.7,149.6 516.1,148.6 516.4,147.2 518,148.1 	"/>
	<polygon class="st3" points="519.5,154.3 509.9,148.8 510.2,147.3 519.8,152.9 	"/>
	<polygon class="st3" points="522.9,156.3 520.5,154.9 520.8,153.4 523.2,154.8 	"/>
	<polygon class="st3" points="511.9,153.6 509.3,152.1 509.6,150.6 512.2,152.1 	"/>
	<polygon class="st3" points="518,157.1 512.9,154.2 513.2,152.7 518.3,155.7 	"/>
	<polygon class="st3" points="520.6,158.6 519,157.7 519.3,156.2 520.9,157.2 	"/>
	<polygon class="st3" points="514,158.5 508.6,155.4 508.9,153.9 514.2,157 	"/>
	<polygon class="st3" points="518.8,161.3 515,159.1 515.2,157.6 519.1,159.8 	"/>
	<polygon class="st3" points="522.4,163.4 519.8,161.9 520.1,160.4 522.7,161.9 	"/>
	<polygon class="st3" points="509.8,159.8 508,158.7 508.3,157.3 510.1,158.3 	"/>
	<polygon class="st3" points="513.2,161.7 510.8,160.3 511.1,158.9 513.4,160.3 	"/>
	<polygon class="st3" points="518,164.5 514.2,162.3 514.5,160.8 518.3,163.1 	"/>
	<polygon class="st3" points="512.8,165.2 507.3,162 507.6,160.6 513.1,163.8 	"/>
	<polygon class="st3" points="519,168.8 513.8,165.8 514.1,164.3 519.3,167.3 	"/>
	<polygon class="st3" points="521.6,170.3 520,169.4 520.3,167.9 521.9,168.8 	"/>
	<polygon class="st3" points="524.2,171.8 522.5,170.8 522.8,169.4 524.4,170.3 	"/>
	<polygon class="st3" points="510,167.3 506.7,165.3 507,163.9 510.3,165.8 	"/>
	<polygon class="st3" points="529,148.7 533.6,151.4 533.9,149.9 529.3,147.3 	"/>
	<polygon class="st3" points="529.3,152.6 532.9,154.7 533.2,153.2 529.6,151.1 	"/>
	<polygon class="st3" points="529.7,156.5 532.3,158 532.6,156.5 530,155 	"/>
	<polygon class="st3" points="527.8,159.1 531.6,161.3 531.9,159.8 528.1,157.7 	"/>
	<polygon class="st3" points="528.4,163.1 531,164.6 531.3,163.2 528.6,161.7 	"/>
	<polygon class="st3" points="527,166 530.3,167.9 530.6,166.5 527.3,164.6 	"/>
	<polygon class="st3" points="527.9,170.2 529.7,171.2 530,169.8 528.2,168.8 	"/>
	<polygon class="st3" points="525.5,172.5 529,174.6 529.3,173.1 525.8,171.1 	"/>
	<polygon class="st3" points="525.1,176 528.4,177.9 528.7,176.4 525.3,174.5 	"/>
	<polygon class="st3" points="512.4,168.6 511,167.8 511.3,166.4 512.7,167.2 	"/>
	<polygon class="st3" points="516.6,171.1 513.4,169.2 513.7,167.8 516.8,169.6 	"/>
	<polygon class="st3" points="516.8,178.4 511.4,175.4 511.7,173.9 517.1,177 	"/>
	<polygon class="st3" points="520.4,180.5 518.3,179.3 518.6,177.9 520.7,179.1 	"/>
</g>
<g>
	<polygon class="st3" points="606.5,255.8 596.9,250.2 597.2,248.8 606.8,254.3 	"/>
	<polygon class="st3" points="609.9,257.7 607.5,256.4 607.8,254.9 610.2,256.3 	"/>
	<polygon class="st3" points="598.8,255 596.2,253.5 596.5,252.1 599.1,253.6 	"/>
	<polygon class="st3" points="605,258.6 599.9,255.6 600.1,254.2 605.2,257.1 	"/>
	<polygon class="st3" points="607.6,260.1 606,259.2 606.3,257.7 607.9,258.6 	"/>
	<polygon class="st3" points="596.7,261.2 594.9,260.2 595.2,258.7 597,259.8 	"/>
	<polygon class="st3" points="600.1,263.2 597.8,261.8 598,260.3 600.4,261.7 	"/>
	<polygon class="st3" points="605,266 601.1,263.7 601.4,262.3 605.3,264.5 	"/>
	<polygon class="st3" points="599.8,266.7 594.3,263.5 594.6,262 600.1,265.2 	"/>
	<polygon class="st3" points="606,270.2 600.8,267.3 601.1,265.8 606.3,268.8 	"/>
	<polygon class="st3" points="608.6,271.8 607,270.8 607.3,269.4 608.9,270.3 	"/>
</g>
</svg>
