<?xml version="1.0" encoding="utf-8"?>
<!-- Generator: Adobe Illustrator 22.0.0, SVG Export Plug-In . SVG Version: 6.00 Build 0)  -->
<svg version="1.1" xmlns="http://www.w3.org/2000/svg" xmlns:xlink="http://www.w3.org/1999/xlink" x="0px" y="0px"
	 viewBox="0 0 500 500" style="enable-background:new 0 0 500 500;" xml:space="preserve">
<style type="text/css">
	.st0{fill:#FFFFFF;}
	.st1{opacity:0.49;fill:url(#SVGID_1_);}
	.st2{opacity:0.49;fill:url(#SVGID_2_);}
	.st3{opacity:0.49;fill:url(#SVGID_3_);}
	.st4{opacity:0.49;fill:url(#SVGID_4_);}
	.st5{opacity:0.49;fill:url(#SVGID_5_);}
	.st6{opacity:0.49;fill:url(#SVGID_6_);}
	.st7{opacity:0.49;fill:url(#SVGID_7_);}
	.st8{opacity:0.49;fill:url(#SVGID_8_);}
	.st9{opacity:0.49;fill:url(#SVGID_9_);}
	.st10{opacity:0.49;fill:url(#SVGID_10_);}
	.st11{fill:#B2B3B4;}
	.st12{fill:#727577;}
	.st13{fill:#55595B;}
	.st14{fill:#D9D9D9;}
	.st15{fill:#EF3200;}
	.st16{fill:#FF6500;}
	.st17{fill:#86AABF;}
	.st18{enable-background:new    ;}
	.st19{fill:#460F00;}
	.st20{fill:#831C00;}
	.st21{fill:#29323C;}
	.st22{fill:#E8E8E8;}
	.st23{fill:#13D6EA;}
	.st24{fill:#069DAD;}
	.st25{fill:#11C5CE;}
	.st26{fill:#FBB77A;}
	.st27{fill:#101519;}
	.st28{fill:#801B00;}
	.st29{fill:#FF7900;}
	.st30{fill:#F4BD11;}
	.st31{fill:#737373;}
	.st32{fill:#555555;}
	.st33{fill:#838585;}
	.st34{fill:#999999;}
	.st35{fill:#717070;}
	.st36{fill:#939292;}
	.st37{fill:#F9CC4E;}
	.st38{fill:#FF8500;}
	.st39{fill:#F4F4F4;}
	.st40{fill:#EA4639;}
	.st41{fill:#D13428;}
	.st42{fill:#C99824;}
	.st43{fill:#BC150D;}
	.st44{fill:#E9321F;}
	.st45{fill:#F29F5C;}
	.st46{fill:#C41F16;}
	.st47{fill:#2E2E2E;}
	.st48{fill:#424242;}
	.st49{fill:#F2F6F5;}
	.st50{fill:#E1E5E4;}
	.st51{opacity:0.39;fill:#E1E5E4;}
	.st52{fill:#B2B7B7;}
	.st53{fill:#F29214;}
	.st54{fill:#F65A47;}
	.st55{fill:#353535;}
</style>
<g id="BACKGROUND">
	<rect class="st0" width="500" height="500"/>
</g>
<g id="OBJECTS">
	<g>
		<g>
			<linearGradient id="SVGID_1_" gradientUnits="userSpaceOnUse" x1="154.925" y1="312.6072" x2="97.9935" y2="249.5209">
				<stop  offset="0" style="stop-color:#FFFFFF"/>
				<stop  offset="0.1959" style="stop-color:#BDBDBD"/>
				<stop  offset="0.4126" style="stop-color:#7A7A7A"/>
				<stop  offset="0.6094" style="stop-color:#464646"/>
				<stop  offset="0.779" style="stop-color:#202020"/>
				<stop  offset="0.9149" style="stop-color:#090909"/>
				<stop  offset="1" style="stop-color:#000000"/>
			</linearGradient>
			<polygon class="st1" points="122.4,317.2 149,332.5 189.3,310.1 161.8,294.3 			"/>
			<linearGradient id="SVGID_2_" gradientUnits="userSpaceOnUse" x1="224.05" y1="342.875" x2="170.1347" y2="283.1308">
				<stop  offset="0" style="stop-color:#FFFFFF"/>
				<stop  offset="0.1959" style="stop-color:#BDBDBD"/>
				<stop  offset="0.4126" style="stop-color:#7A7A7A"/>
				<stop  offset="0.6094" style="stop-color:#464646"/>
				<stop  offset="0.779" style="stop-color:#202020"/>
				<stop  offset="0.9149" style="stop-color:#090909"/>
				<stop  offset="1" style="stop-color:#000000"/>
			</linearGradient>
			<polygon class="st2" points="198.3,342.7 226.8,358.8 251.6,345 222.5,328.6 			"/>
			<linearGradient id="SVGID_3_" gradientUnits="userSpaceOnUse" x1="250.1268" y1="395.2265" x2="188.3255" y2="326.744">
				<stop  offset="0" style="stop-color:#FFFFFF"/>
				<stop  offset="0.1959" style="stop-color:#BDBDBD"/>
				<stop  offset="0.4126" style="stop-color:#7A7A7A"/>
				<stop  offset="0.6094" style="stop-color:#464646"/>
				<stop  offset="0.779" style="stop-color:#202020"/>
				<stop  offset="0.9149" style="stop-color:#090909"/>
				<stop  offset="1" style="stop-color:#000000"/>
			</linearGradient>
			<polygon class="st3" points="213.1,401.7 241.7,417.8 289.1,391 260,374.6 			"/>
			<linearGradient id="SVGID_4_" gradientUnits="userSpaceOnUse" x1="194.289" y1="424.2218" x2="140.3737" y2="364.4776">
				<stop  offset="0" style="stop-color:#FFFFFF"/>
				<stop  offset="0.1959" style="stop-color:#BDBDBD"/>
				<stop  offset="0.4126" style="stop-color:#7A7A7A"/>
				<stop  offset="0.6094" style="stop-color:#464646"/>
				<stop  offset="0.779" style="stop-color:#202020"/>
				<stop  offset="0.9149" style="stop-color:#090909"/>
				<stop  offset="1" style="stop-color:#000000"/>
			</linearGradient>
			<polygon class="st4" points="168.5,424 197.1,440.1 221.9,426.4 192.8,410 			"/>
			<linearGradient id="SVGID_5_" gradientUnits="userSpaceOnUse" x1="393.8062" y1="419.3431" x2="252.7276" y2="263.0126">
				<stop  offset="0" style="stop-color:#FFFFFF"/>
				<stop  offset="0.1959" style="stop-color:#BDBDBD"/>
				<stop  offset="0.4126" style="stop-color:#7A7A7A"/>
				<stop  offset="0.6094" style="stop-color:#464646"/>
				<stop  offset="0.779" style="stop-color:#202020"/>
				<stop  offset="0.9149" style="stop-color:#090909"/>
				<stop  offset="1" style="stop-color:#000000"/>
			</linearGradient>
			<polygon class="st5" points="310.5,416.7 388,458.6 465.4,409 391.9,369.4 			"/>
			<linearGradient id="SVGID_6_" gradientUnits="userSpaceOnUse" x1="275.1511" y1="437.4279" x2="221.3779" y2="377.8413">
				<stop  offset="0" style="stop-color:#FFFFFF"/>
				<stop  offset="0.1959" style="stop-color:#BDBDBD"/>
				<stop  offset="0.4126" style="stop-color:#7A7A7A"/>
				<stop  offset="0.6094" style="stop-color:#464646"/>
				<stop  offset="0.779" style="stop-color:#202020"/>
				<stop  offset="0.9149" style="stop-color:#090909"/>
				<stop  offset="1" style="stop-color:#000000"/>
			</linearGradient>
			<polygon class="st6" points="247.5,435 276.1,451 300.6,437.4 271.5,421.1 			"/>
			<linearGradient id="SVGID_7_" gradientUnits="userSpaceOnUse" x1="457.1807" y1="175.5937" x2="339.8963" y2="138.4783">
				<stop  offset="0" style="stop-color:#FFFFFF"/>
				<stop  offset="0.1959" style="stop-color:#BDBDBD"/>
				<stop  offset="0.4126" style="stop-color:#7A7A7A"/>
				<stop  offset="0.6094" style="stop-color:#464646"/>
				<stop  offset="0.779" style="stop-color:#202020"/>
				<stop  offset="0.9149" style="stop-color:#090909"/>
				<stop  offset="1" style="stop-color:#000000"/>
			</linearGradient>
			<polygon class="st7" points="399.8,199.5 471.3,230.8 474.7,141.8 401.9,107.4 			"/>
			<linearGradient id="SVGID_8_" gradientUnits="userSpaceOnUse" x1="347.8107" y1="115.5516" x2="219.3421" y2="70.414">
				<stop  offset="0" style="stop-color:#FFFFFF"/>
				<stop  offset="0.1959" style="stop-color:#BDBDBD"/>
				<stop  offset="0.4126" style="stop-color:#7A7A7A"/>
				<stop  offset="0.6094" style="stop-color:#464646"/>
				<stop  offset="0.779" style="stop-color:#202020"/>
				<stop  offset="0.9149" style="stop-color:#090909"/>
				<stop  offset="1" style="stop-color:#000000"/>
			</linearGradient>
			<polygon class="st8" points="314.5,128.7 385.5,166.9 386.5,103.4 314.6,65.8 			"/>
			<linearGradient id="SVGID_9_" gradientUnits="userSpaceOnUse" x1="147.3126" y1="126.433" x2="33.8855" y2="86.5802">
				<stop  offset="0" style="stop-color:#FFFFFF"/>
				<stop  offset="0.1959" style="stop-color:#BDBDBD"/>
				<stop  offset="0.4126" style="stop-color:#7A7A7A"/>
				<stop  offset="0.6094" style="stop-color:#464646"/>
				<stop  offset="0.779" style="stop-color:#202020"/>
				<stop  offset="0.9149" style="stop-color:#090909"/>
				<stop  offset="1" style="stop-color:#000000"/>
			</linearGradient>
			<polygon class="st9" points="108.1,137.6 179.2,175.9 180.2,112.4 119.4,78.4 			"/>
			<linearGradient id="SVGID_10_" gradientUnits="userSpaceOnUse" x1="168.4032" y1="369.2879" x2="114.4878" y2="309.5437">
				<stop  offset="0" style="stop-color:#FFFFFF"/>
				<stop  offset="1" style="stop-color:#000000"/>
			</linearGradient>
			<polygon class="st10" points="142.6,369.1 171.2,385.2 196,371.4 166.9,355.1 			"/>
		</g>
		<g>
			<polygon class="st11" points="358.2,201.4 392.1,326.6 312.5,373.9 			"/>
			<polygon class="st11" points="361,211.6 320.6,369.1 312.5,373.9 358.2,201.4 			"/>
			<polygon class="st12" points="392.1,326.6 358.2,201.4 333.7,294.2 			"/>
			<polygon class="st13" points="368.5,313.6 392.1,326.6 358.2,201.4 348.3,238.9 			"/>
			<g>
				<polygon class="st14" points="358.2,201.4 347,243.7 312.5,373.9 117.9,260.8 152.4,130.6 163.6,88.3 				"/>
			</g>
			<g>
				<path class="st15" d="M311.3,265.8l-17.7-10.2c-1.4-0.8-2.1-2.5-1.7-4.1l4.8-18.3c0.6-2.3,3.3-3.4,5.3-2.2l17.7,10.2
					c1.4,0.8,2.1,2.5,1.7,4.1l-4.8,18.3C316.1,265.9,313.4,267,311.3,265.8z"/>
			</g>
			<g>
				<path class="st15" d="M301.1,302.1L283.4,292c-1.4-0.8-2.1-2.5-1.7-4.1l4.8-18.3c0.6-2.3,3.3-3.4,5.3-2.2l17.7,10.2
					c1.4,0.8,2.1,2.5,1.7,4.1l-4.8,18.3C305.9,302.2,303.2,303.3,301.1,302.1z"/>
			</g>
			<g>
				<path class="st15" d="M289.8,339l-17.7-10.2c-1.4-0.8-2.1-2.5-1.7-4.1l4.8-18.3c0.6-2.3,3.3-3.4,5.3-2.2l17.7,10.2
					c1.4,0.8,2.1,2.5,1.7,4.1l-4.8,18.3C294.5,339.1,291.9,340.2,289.8,339z"/>
			</g>
			<polygon class="st15" points="358.2,201.4 348.1,239.3 153.6,126.3 163.6,88.3 			"/>
			<polygon class="st15" points="358.2,201.4 348.1,239.3 153.6,126.3 163.6,88.3 			"/>
			<polygon class="st16" points="169.7,85.4 163.5,88.5 163.5,88.4 358.2,201.4 364.4,198.2 			"/>
			<polygon class="st16" points="163.5,88.4 163.5,88.4 163.5,88.5 			"/>
			<path class="st16" d="M324.6,175.1c-1.4,1.4-2.5,3-3.3,4.8l-5.4-3.2L163.5,88.4l6.2-3.1L319,171.9L324.6,175.1z"/>
			<polygon class="st17" points="358.2,201.4 358.2,201.4 358.2,201.4 			"/>
			<g>
				<g>
					<g>
						<g class="st18">
							<g>
								<polygon class="st16" points="326.1,211.1 310.2,201.8 310.2,184.4 326.1,193.7 								"/>
							</g>
							<g>
								<polygon class="st16" points="326.2,211.1 310.2,201.8 310.2,192.3 310.2,184.4 315.9,187.8 326.1,193.7 326.1,196.4 
									326.1,203.6 								"/>
							</g>
							<g>
								<polygon class="st16" points="326.1,196.4 325.2,193.1 326.1,193.7 								"/>
							</g>
							<g>
								<polygon class="st19" points="325.7,193.5 310.2,201.8 310.2,184.4 								"/>
							</g>
						</g>
					</g>
					<polygon class="st20" points="325.7,193.5 310.2,201.8 310.2,184.4 					"/>
				</g>
				<g>
					<path class="st11" d="M321.5,195.2c0.1,0,0.1,0.1,0.2,0.1c0.1,0,0.1,0.1,0.2,0.1c0,0,0.1,0.1,0.2,0.1c0.2,0.1,0.4,0.2,0.7,0.3
						c0.1,0.1,0.3,0.1,0.5,0.2c0.2,0.1,0.4,0.1,0.6,0.2c0,0,0.1,0,0.1,0c0,0,0,0,0,0c0,0,0,0,0.1,0c0,0,0,0,0,0
						c0.3,0.1,0.5,0.1,0.8,0.2c0,0,0.1,0,0.1,0c0.1,0,0.2,0,0.3,0c0.2,0,0.4,0.1,0.7,0.1c0.1,0,0.1,0,0.2,0l0-2.8l-0.9-0.5
						c-0.1,0-0.2,0.1-0.3,0.1c-0.1,0-0.2,0.1-0.3,0.1c-0.4,0.1-0.8,0.2-1.2,0.2c-0.4,0-0.7,0.1-1.1,0.1c-0.1,0-0.2,0-0.3,0
						c-0.2,0-0.5,0-0.7,0c-0.1,0-0.2,0-0.4,0c-0.2,0-0.5,0-0.7-0.1c-0.1,0-0.2,0-0.3,0c-0.2,0-0.4-0.1-0.6-0.1L321.5,195.2z"/>
					<path class="st11" d="M309,183.7c0-0.2,0-0.5,0.1-0.7c0-0.1,0-0.3,0-0.4c0-0.2,0-0.4,0.1-0.6c0-0.1,0-0.3,0.1-0.4
						c0-0.2,0.1-0.4,0.1-0.6c0-0.2,0.1-0.3,0.1-0.5c0-0.2,0.1-0.4,0.1-0.6c0-0.2,0.1-0.3,0.1-0.5c0-0.2,0.1-0.4,0.1-0.6
						c0-0.2,0.1-0.3,0.1-0.5c0.1-0.2,0.1-0.4,0.2-0.5c0.1-0.2,0.1-0.3,0.2-0.5c0.1-0.2,0.1-0.3,0.2-0.5c0.2-0.5,0.4-1,0.6-1.5
						c0-0.1,0.1-0.2,0.1-0.3c0.2-0.5,0.4-0.9,0.7-1.4c0-0.1,0.1-0.2,0.1-0.3c0.2-0.3,0.4-0.6,0.5-0.9c0.1-0.1,0.1-0.2,0.2-0.3
						c0.2-0.4,0.5-0.7,0.7-1.1c0.1-0.1,0.1-0.1,0.2-0.2c0.2-0.3,0.4-0.6,0.6-0.8c0.1-0.1,0.2-0.2,0.2-0.3c0.2-0.3,0.4-0.5,0.7-0.8
						c0.1-0.1,0.1-0.1,0.2-0.2c0.3-0.3,0.6-0.6,0.9-0.9c0.1-0.1,0.2-0.1,0.2-0.2c0.2-0.2,0.5-0.5,0.7-0.7c0.1-0.1,0.2-0.2,0.3-0.2
						c0.3-0.3,0.7-0.6,1-0.9c0,0,0.1,0,0.1-0.1c0.3-0.3,0.7-0.5,1-0.7c0.1-0.1,0.2-0.1,0.3-0.2c0.4-0.3,0.9-0.6,1.3-0.9
						c0.1,0,0.1-0.1,0.2-0.1c0.5-0.3,1-0.5,1.4-0.8c0.1,0,0.1,0,0.2-0.1c0.4-0.2,0.7-0.3,1.1-0.5c0.1,0,0.2-0.1,0.3-0.1
						c0.4-0.2,0.8-0.3,1.2-0.4c0,0,0.1,0,0.1,0c0.4-0.1,0.8-0.2,1.2-0.3c0.1,0,0.2-0.1,0.3-0.1c0.4-0.1,0.9-0.2,1.3-0.2
						c0.4-0.1,0.9-0.1,1.3-0.1c0.1,0,0.2,0,0.3,0c0.4,0,0.8,0,1.2,0c0.1,0,0.1,0,0.2,0c0.4,0,0.7,0,1.1,0.1c0.1,0,0.1,0,0.2,0
						c0.4,0,0.8,0.1,1.2,0.2c0.1,0,0.2,0,0.2,0c0.4,0.1,0.8,0.2,1.1,0.2c0.5,0.1,1,0.3,1.4,0.4c0.1,0,0.3,0.1,0.4,0.2
						c0.3,0.1,0.7,0.3,1,0.4c0.3,0.1,0.6,0.3,0.8,0.4l-5.1-2.8c-0.2-0.1-0.4-0.2-0.6-0.3c-0.1,0-0.2-0.1-0.2-0.1
						c-0.3-0.2-0.7-0.3-1-0.4c-0.1-0.1-0.3-0.1-0.4-0.2c-0.5-0.2-0.9-0.3-1.4-0.4c0,0,0,0,0,0c-0.4-0.1-0.7-0.2-1.1-0.2
						c-0.1,0-0.2,0-0.2,0c-0.4-0.1-0.8-0.1-1.2-0.2c-0.1,0-0.1,0-0.2,0c-0.4,0-0.7-0.1-1.1-0.1c-0.1,0-0.1,0-0.2,0
						c-0.4,0-0.8,0-1.2,0c-0.1,0-0.2,0-0.3,0c-0.4,0-0.8,0.1-1.3,0.1c-0.4,0.1-0.9,0.1-1.3,0.2c-0.1,0-0.2,0-0.3,0.1
						c-0.4,0.1-0.8,0.2-1.2,0.3c0,0-0.1,0-0.1,0c-0.4,0.1-0.8,0.3-1.2,0.4c-0.1,0-0.2,0.1-0.3,0.1c-0.4,0.1-0.7,0.3-1.1,0.5
						c0,0-0.1,0-0.1,0.1c0,0,0,0,0,0c-0.5,0.2-1,0.5-1.4,0.8c-0.1,0-0.1,0.1-0.2,0.1c-0.5,0.3-0.9,0.6-1.3,0.9c0,0-0.1,0-0.1,0.1
						c0,0-0.1,0.1-0.1,0.1c-0.3,0.2-0.7,0.5-1,0.7c0,0-0.1,0-0.1,0.1c-0.3,0.3-0.7,0.6-1,0.9c0,0-0.1,0.1-0.1,0.1
						c-0.1,0-0.1,0.1-0.2,0.1c-0.2,0.2-0.5,0.4-0.7,0.7c-0.1,0.1-0.2,0.1-0.2,0.2c-0.3,0.3-0.6,0.6-0.9,0.9c0,0,0,0,0,0
						c0,0-0.1,0.1-0.1,0.1c-0.2,0.3-0.4,0.5-0.7,0.8c-0.1,0.1-0.2,0.2-0.2,0.3c-0.2,0.3-0.4,0.5-0.6,0.8c0,0.1-0.1,0.1-0.1,0.2
						c0,0,0,0,0,0.1c-0.3,0.4-0.5,0.7-0.7,1.1c-0.1,0.1-0.1,0.2-0.2,0.3c-0.2,0.3-0.4,0.6-0.5,0.9c0,0.1-0.1,0.1-0.1,0.2
						c0,0,0,0.1,0,0.1c-0.2,0.5-0.5,0.9-0.7,1.4c0,0.1-0.1,0.2-0.1,0.3c-0.2,0.5-0.4,1-0.6,1.5c0,0,0,0,0,0
						c-0.1,0.2-0.1,0.3-0.2,0.5c-0.1,0.2-0.1,0.3-0.2,0.5c-0.1,0.2-0.1,0.4-0.2,0.5c0,0.2-0.1,0.3-0.1,0.5c-0.1,0.2-0.1,0.4-0.1,0.6
						c0,0.2-0.1,0.3-0.1,0.5c0,0.2-0.1,0.4-0.1,0.6c0,0.2-0.1,0.3-0.1,0.5c0,0.2-0.1,0.4-0.1,0.6c0,0.2-0.1,0.3-0.1,0.5
						c0,0.2-0.1,0.4-0.1,0.6c0,0.1,0,0.3,0,0.4c0,0.2,0,0.5,0,0.7c0,0.1,0,0.2,0,0.4c0,0.4,0,0.7,0,1.1c0,7.5,3.6,13.5,9,16.5
						l5.1,2.8c-5.4-3-9-9-9-16.5c0-0.4,0-0.7,0-1.1C309,183.9,309,183.8,309,183.7z"/>
					<g>
						<path class="st14" d="M328.5,161.3c-5.3,0.8-10.2,3.8-13.7,8c-1.2,1.5-2.3,3.2-3.2,4.9c-1.7,3.3-2.6,7-2.6,10.8
							c0,2.6,0.4,5,1.2,7.2c2.5,6.9,8.6,11.4,15.9,11.3l0-7.1c-4.9-0.3-8.9-3.7-10.1-8.7c-0.3-1.1-0.4-2.3-0.4-3.6
							c0-2.4,0.6-4.6,1.5-6.7c0.8-1.8,2-3.5,3.3-4.8c2.2-2.2,5.1-3.8,8.1-4.2c7.1-1,12.9,4.4,12.9,12.1c0,1.4-0.2,2.7-0.5,4l5.6,3.2
							c0.9-2.6,1.5-5.3,1.5-8.1C347.9,168,339.2,159.8,328.5,161.3z"/>
					</g>
					<g>
						<path class="st14" d="M323.9,196.1C323.9,196.1,323.9,196.1,323.9,196.1C324,196.1,324,196.1,323.9,196.1
							C324,196.1,324,196.1,323.9,196.1z M321.5,195.2c-0.9-0.5-1.7-1.1-2.4-1.8L321.5,195.2z"/>
					</g>
				</g>
			</g>
			<g>
				<g>
					<g>
						<g class="st18">
							<g>
								<polygon class="st16" points="284.1,186.7 268.2,177.5 268.2,160.1 284.1,169.4 								"/>
							</g>
							<g>
								<polygon class="st16" points="284.2,186.7 268.2,177.5 268.2,168 268.2,160.1 273.9,163.5 284.1,169.4 284.1,172.1 
									284.1,179.3 								"/>
							</g>
							<g>
								<polygon class="st16" points="284.1,172.1 283.2,168.8 284.1,169.4 								"/>
							</g>
							<g>
								<polygon class="st19" points="283.7,169.1 268.2,177.5 268.2,160.1 								"/>
							</g>
						</g>
					</g>
					<polygon class="st20" points="283.7,169.1 268.2,177.5 268.2,160.1 					"/>
				</g>
				<g>
					<path class="st11" d="M279.5,170.8c0.1,0,0.1,0.1,0.2,0.1c0.1,0,0.1,0.1,0.2,0.1c0,0,0.1,0.1,0.2,0.1c0.2,0.1,0.4,0.2,0.7,0.3
						c0.1,0.1,0.3,0.1,0.5,0.2c0.2,0.1,0.4,0.1,0.6,0.2c0,0,0.1,0,0.1,0c0,0,0,0,0,0c0,0,0,0,0.1,0c0,0,0,0,0,0
						c0.3,0.1,0.5,0.1,0.8,0.2c0,0,0.1,0,0.1,0c0.1,0,0.2,0,0.3,0c0.2,0,0.4,0.1,0.7,0.1c0.1,0,0.1,0,0.2,0l0-2.8l-0.9-0.5
						c-0.1,0-0.2,0.1-0.3,0.1c-0.1,0-0.2,0.1-0.3,0.1c-0.4,0.1-0.8,0.2-1.2,0.2c-0.4,0-0.7,0.1-1.1,0.1c-0.1,0-0.2,0-0.3,0
						c-0.2,0-0.5,0-0.7,0c-0.1,0-0.2,0-0.4,0c-0.2,0-0.5,0-0.7-0.1c-0.1,0-0.2,0-0.3,0c-0.2,0-0.4-0.1-0.6-0.1L279.5,170.8z"/>
					<path class="st11" d="M267,159.4c0-0.2,0-0.5,0.1-0.7c0-0.1,0-0.3,0-0.4c0-0.2,0-0.4,0.1-0.6c0-0.1,0-0.3,0.1-0.4
						c0-0.2,0.1-0.4,0.1-0.6c0-0.2,0.1-0.3,0.1-0.5c0-0.2,0.1-0.4,0.1-0.6c0-0.2,0.1-0.3,0.1-0.5c0-0.2,0.1-0.4,0.1-0.6
						c0-0.2,0.1-0.3,0.1-0.5c0.1-0.2,0.1-0.4,0.2-0.5c0.1-0.2,0.1-0.3,0.2-0.5c0.1-0.2,0.1-0.3,0.2-0.5c0.2-0.5,0.4-1,0.6-1.5
						c0-0.1,0.1-0.2,0.1-0.3c0.2-0.5,0.4-0.9,0.7-1.4c0-0.1,0.1-0.2,0.1-0.3c0.2-0.3,0.4-0.6,0.5-0.9c0.1-0.1,0.1-0.2,0.2-0.3
						c0.2-0.4,0.5-0.7,0.7-1.1c0.1-0.1,0.1-0.1,0.2-0.2c0.2-0.3,0.4-0.6,0.6-0.8c0.1-0.1,0.2-0.2,0.2-0.3c0.2-0.3,0.4-0.5,0.7-0.8
						c0.1-0.1,0.1-0.1,0.2-0.2c0.3-0.3,0.6-0.6,0.9-0.9c0.1-0.1,0.2-0.1,0.2-0.2c0.2-0.2,0.5-0.5,0.7-0.7c0.1-0.1,0.2-0.2,0.3-0.2
						c0.3-0.3,0.7-0.6,1-0.9c0,0,0.1,0,0.1-0.1c0.3-0.3,0.7-0.5,1-0.7c0.1-0.1,0.2-0.1,0.3-0.2c0.4-0.3,0.9-0.6,1.3-0.9
						c0.1,0,0.1-0.1,0.2-0.1c0.5-0.3,1-0.5,1.4-0.8c0.1,0,0.1,0,0.2-0.1c0.4-0.2,0.7-0.3,1.1-0.5c0.1,0,0.2-0.1,0.3-0.1
						c0.4-0.2,0.8-0.3,1.2-0.4c0,0,0.1,0,0.1,0c0.4-0.1,0.8-0.2,1.2-0.3c0.1,0,0.2-0.1,0.3-0.1c0.4-0.1,0.9-0.2,1.3-0.2
						c0.4-0.1,0.9-0.1,1.3-0.1c0.1,0,0.2,0,0.3,0c0.4,0,0.8,0,1.2,0c0.1,0,0.1,0,0.2,0c0.4,0,0.7,0,1.1,0.1c0.1,0,0.1,0,0.2,0
						c0.4,0,0.8,0.1,1.2,0.2c0.1,0,0.2,0,0.2,0c0.4,0.1,0.8,0.2,1.1,0.2c0.5,0.1,1,0.3,1.4,0.4c0.1,0,0.3,0.1,0.4,0.2
						c0.3,0.1,0.7,0.3,1,0.4c0.3,0.1,0.6,0.3,0.8,0.4l-5.1-2.8c-0.2-0.1-0.4-0.2-0.6-0.3c-0.1,0-0.2-0.1-0.2-0.1
						c-0.3-0.2-0.7-0.3-1-0.4c-0.1-0.1-0.3-0.1-0.4-0.2c-0.5-0.2-0.9-0.3-1.4-0.4c0,0,0,0,0,0c-0.4-0.1-0.7-0.2-1.1-0.2
						c-0.1,0-0.2,0-0.2,0c-0.4-0.1-0.8-0.1-1.2-0.2c-0.1,0-0.1,0-0.2,0c-0.4,0-0.7-0.1-1.1-0.1c-0.1,0-0.1,0-0.2,0
						c-0.4,0-0.8,0-1.2,0c-0.1,0-0.2,0-0.3,0c-0.4,0-0.8,0.1-1.3,0.1c-0.4,0.1-0.9,0.1-1.3,0.2c-0.1,0-0.2,0-0.3,0.1
						c-0.4,0.1-0.8,0.2-1.2,0.3c0,0-0.1,0-0.1,0c-0.4,0.1-0.8,0.3-1.2,0.4c-0.1,0-0.2,0.1-0.3,0.1c-0.4,0.1-0.7,0.3-1.1,0.5
						c0,0-0.1,0-0.1,0.1c0,0,0,0,0,0c-0.5,0.2-1,0.5-1.4,0.8c-0.1,0-0.1,0.1-0.2,0.1c-0.5,0.3-0.9,0.6-1.3,0.9c0,0-0.1,0-0.1,0.1
						c0,0-0.1,0.1-0.1,0.1c-0.3,0.2-0.7,0.5-1,0.7c0,0-0.1,0-0.1,0.1c-0.3,0.3-0.7,0.6-1,0.9c0,0-0.1,0.1-0.1,0.1
						c-0.1,0-0.1,0.1-0.2,0.1c-0.2,0.2-0.5,0.4-0.7,0.7c-0.1,0.1-0.2,0.1-0.2,0.2c-0.3,0.3-0.6,0.6-0.9,0.9c0,0,0,0,0,0
						c0,0-0.1,0.1-0.1,0.1c-0.2,0.3-0.4,0.5-0.7,0.8c-0.1,0.1-0.2,0.2-0.2,0.3c-0.2,0.3-0.4,0.5-0.6,0.8c0,0.1-0.1,0.1-0.1,0.2
						c0,0,0,0,0,0.1c-0.3,0.4-0.5,0.7-0.7,1.1c-0.1,0.1-0.1,0.2-0.2,0.3c-0.2,0.3-0.4,0.6-0.5,0.9c0,0.1-0.1,0.1-0.1,0.2
						c0,0,0,0.1,0,0.1c-0.2,0.5-0.5,0.9-0.7,1.4c0,0.1-0.1,0.2-0.1,0.3c-0.2,0.5-0.4,1-0.6,1.5c0,0,0,0,0,0
						c-0.1,0.2-0.1,0.3-0.2,0.5c-0.1,0.2-0.1,0.3-0.2,0.5c-0.1,0.2-0.1,0.4-0.2,0.5c0,0.2-0.1,0.3-0.1,0.5c-0.1,0.2-0.1,0.4-0.1,0.6
						c0,0.2-0.1,0.3-0.1,0.5c0,0.2-0.1,0.4-0.1,0.6c0,0.2-0.1,0.3-0.1,0.5c0,0.2-0.1,0.4-0.1,0.6c0,0.2-0.1,0.3-0.1,0.5
						c0,0.2-0.1,0.4-0.1,0.6c0,0.1,0,0.3,0,0.4c0,0.2,0,0.5,0,0.7c0,0.1,0,0.2,0,0.4c0,0.4,0,0.7,0,1.1c0,7.5,3.6,13.5,9,16.5
						l5.1,2.8c-5.4-3-9-9-9-16.5c0-0.4,0-0.7,0-1.1C267,159.6,267,159.5,267,159.4z"/>
					<g>
						<path class="st14" d="M286.5,137c-5.3,0.8-10.2,3.8-13.7,8c-1.2,1.5-2.3,3.2-3.2,4.9c-1.7,3.3-2.6,7-2.6,10.8
							c0,2.6,0.4,5,1.2,7.2c2.5,6.9,8.6,11.4,15.9,11.3l0-7.1c-4.9-0.3-8.9-3.7-10.1-8.7c-0.3-1.1-0.4-2.3-0.4-3.6
							c0-2.4,0.6-4.6,1.5-6.7c0.8-1.8,2-3.5,3.3-4.8c2.2-2.2,5.1-3.8,8.1-4.2c7.1-1,12.9,4.4,12.9,12.1c0,1.4-0.2,2.7-0.5,4l5.6,3.2
							c0.9-2.6,1.5-5.3,1.5-8.1C305.9,143.7,297.2,135.5,286.5,137z"/>
					</g>
					<g>
						<path class="st14" d="M281.9,171.8C281.9,171.8,281.9,171.8,281.9,171.8C282,171.8,282,171.8,281.9,171.8
							C282,171.8,282,171.8,281.9,171.8z M279.5,170.8c-0.9-0.5-1.7-1.1-2.4-1.8L279.5,170.8z"/>
					</g>
				</g>
			</g>
			<g>
				<g>
					<g>
						<g class="st18">
							<g>
								<polygon class="st16" points="242.1,162.4 226.2,153.1 226.1,135.7 242.1,145 								"/>
							</g>
							<g>
								<polygon class="st16" points="242.1,162.4 226.2,153.1 226.2,143.6 226.1,135.7 231.9,139.1 242.1,145 242.1,147.8 
									242.1,154.9 								"/>
							</g>
							<g>
								<polygon class="st16" points="242.1,147.7 241.2,144.4 242.1,145 								"/>
							</g>
							<g>
								<polygon class="st19" points="241.7,144.8 226.2,153.1 226.1,135.7 								"/>
							</g>
						</g>
					</g>
					<polygon class="st20" points="241.7,144.8 226.2,153.1 226.1,135.7 					"/>
				</g>
				<g>
					<path class="st11" d="M237.5,146.5c0.1,0,0.1,0.1,0.2,0.1c0.1,0,0.1,0.1,0.2,0.1c0,0,0.1,0.1,0.2,0.1c0.2,0.1,0.4,0.2,0.7,0.3
						c0.1,0.1,0.3,0.1,0.5,0.2c0.2,0.1,0.4,0.1,0.6,0.2c0,0,0.1,0,0.1,0c0,0,0,0,0,0c0,0,0,0,0.1,0c0,0,0,0,0,0
						c0.3,0.1,0.5,0.1,0.8,0.2c0,0,0.1,0,0.1,0c0.1,0,0.2,0,0.3,0c0.2,0,0.4,0.1,0.7,0.1c0.1,0,0.1,0,0.2,0l0-2.8l-0.9-0.5
						c-0.1,0-0.2,0.1-0.3,0.1c-0.1,0-0.2,0.1-0.3,0.1c-0.4,0.1-0.8,0.2-1.2,0.2c-0.4,0-0.7,0.1-1.1,0.1c-0.1,0-0.2,0-0.3,0
						c-0.2,0-0.5,0-0.7,0c-0.1,0-0.2,0-0.4,0c-0.2,0-0.5,0-0.7-0.1c-0.1,0-0.2,0-0.3,0c-0.2,0-0.4-0.1-0.6-0.1L237.5,146.5z"/>
					<path class="st11" d="M225,135c0-0.2,0-0.5,0.1-0.7c0-0.1,0-0.3,0-0.4c0-0.2,0-0.4,0.1-0.6c0-0.1,0-0.3,0.1-0.4
						c0-0.2,0.1-0.4,0.1-0.6c0-0.2,0.1-0.3,0.1-0.5c0-0.2,0.1-0.4,0.1-0.6c0-0.2,0.1-0.3,0.1-0.5c0-0.2,0.1-0.4,0.1-0.6
						c0-0.2,0.1-0.3,0.1-0.5c0.1-0.2,0.1-0.4,0.2-0.5c0.1-0.2,0.1-0.3,0.2-0.5c0.1-0.2,0.1-0.3,0.2-0.5c0.2-0.5,0.4-1,0.6-1.5
						c0-0.1,0.1-0.2,0.1-0.3c0.2-0.5,0.4-0.9,0.7-1.4c0-0.1,0.1-0.2,0.1-0.3c0.2-0.3,0.4-0.6,0.5-0.9c0.1-0.1,0.1-0.2,0.2-0.3
						c0.2-0.4,0.5-0.7,0.7-1.1c0.1-0.1,0.1-0.1,0.2-0.2c0.2-0.3,0.4-0.6,0.6-0.8c0.1-0.1,0.2-0.2,0.2-0.3c0.2-0.3,0.4-0.5,0.7-0.8
						c0.1-0.1,0.1-0.1,0.2-0.2c0.3-0.3,0.6-0.6,0.9-0.9c0.1-0.1,0.2-0.1,0.2-0.2c0.2-0.2,0.5-0.5,0.7-0.7c0.1-0.1,0.2-0.2,0.3-0.2
						c0.3-0.3,0.7-0.6,1-0.9c0,0,0.1,0,0.1-0.1c0.3-0.3,0.7-0.5,1-0.7c0.1-0.1,0.2-0.1,0.3-0.2c0.4-0.3,0.9-0.6,1.3-0.9
						c0.1,0,0.1-0.1,0.2-0.1c0.5-0.3,1-0.5,1.4-0.8c0.1,0,0.1,0,0.2-0.1c0.4-0.2,0.7-0.3,1.1-0.5c0.1,0,0.2-0.1,0.3-0.1
						c0.4-0.2,0.8-0.3,1.2-0.4c0,0,0.1,0,0.1,0c0.4-0.1,0.8-0.2,1.2-0.3c0.1,0,0.2-0.1,0.3-0.1c0.4-0.1,0.9-0.2,1.3-0.2
						c0.4-0.1,0.9-0.1,1.3-0.1c0.1,0,0.2,0,0.3,0c0.4,0,0.8,0,1.2,0c0.1,0,0.1,0,0.2,0c0.4,0,0.7,0,1.1,0.1c0.1,0,0.1,0,0.2,0
						c0.4,0,0.8,0.1,1.2,0.2c0.1,0,0.2,0,0.2,0c0.4,0.1,0.8,0.2,1.1,0.2c0.5,0.1,1,0.3,1.4,0.4c0.1,0,0.3,0.1,0.4,0.2
						c0.3,0.1,0.7,0.3,1,0.4c0.3,0.1,0.6,0.3,0.8,0.4l-5.1-2.8c-0.2-0.1-0.4-0.2-0.6-0.3c-0.1,0-0.2-0.1-0.2-0.1
						c-0.3-0.2-0.7-0.3-1-0.4c-0.1-0.1-0.3-0.1-0.4-0.2c-0.5-0.2-0.9-0.3-1.4-0.4c0,0,0,0,0,0c-0.4-0.1-0.7-0.2-1.1-0.2
						c-0.1,0-0.2,0-0.2,0c-0.4-0.1-0.8-0.1-1.2-0.2c-0.1,0-0.1,0-0.2,0c-0.4,0-0.7-0.1-1.1-0.1c-0.1,0-0.1,0-0.2,0
						c-0.4,0-0.8,0-1.2,0c-0.1,0-0.2,0-0.3,0c-0.4,0-0.8,0.1-1.3,0.1c-0.4,0.1-0.9,0.1-1.3,0.2c-0.1,0-0.2,0-0.3,0.1
						c-0.4,0.1-0.8,0.2-1.2,0.3c0,0-0.1,0-0.1,0c-0.4,0.1-0.8,0.3-1.2,0.4c-0.1,0-0.2,0.1-0.3,0.1c-0.4,0.1-0.7,0.3-1.1,0.5
						c0,0-0.1,0-0.1,0.1c0,0,0,0,0,0c-0.5,0.2-1,0.5-1.4,0.8c-0.1,0-0.1,0.1-0.2,0.1c-0.5,0.3-0.9,0.6-1.3,0.9c0,0-0.1,0-0.1,0.1
						c0,0-0.1,0.1-0.1,0.1c-0.3,0.2-0.7,0.5-1,0.7c0,0-0.1,0-0.1,0.1c-0.3,0.3-0.7,0.6-1,0.9c0,0-0.1,0.1-0.1,0.1
						c-0.1,0-0.1,0.1-0.2,0.1c-0.2,0.2-0.5,0.4-0.7,0.7c-0.1,0.1-0.2,0.1-0.2,0.2c-0.3,0.3-0.6,0.6-0.9,0.9c0,0,0,0,0,0
						c0,0-0.1,0.1-0.1,0.1c-0.2,0.3-0.4,0.5-0.7,0.8c-0.1,0.1-0.2,0.2-0.2,0.3c-0.2,0.3-0.4,0.5-0.6,0.8c0,0.1-0.1,0.1-0.1,0.2
						c0,0,0,0,0,0.1c-0.3,0.4-0.5,0.7-0.7,1.1c-0.1,0.1-0.1,0.2-0.2,0.3c-0.2,0.3-0.4,0.6-0.5,0.9c0,0.1-0.1,0.1-0.1,0.2
						c0,0,0,0.1,0,0.1c-0.2,0.5-0.5,0.9-0.7,1.4c0,0.1-0.1,0.2-0.1,0.3c-0.2,0.5-0.4,1-0.6,1.5c0,0,0,0,0,0
						c-0.1,0.2-0.1,0.3-0.2,0.5c-0.1,0.2-0.1,0.3-0.2,0.5c-0.1,0.2-0.1,0.4-0.2,0.5c0,0.2-0.1,0.3-0.1,0.5c-0.1,0.2-0.1,0.4-0.1,0.6
						c0,0.2-0.1,0.3-0.1,0.5c0,0.2-0.1,0.4-0.1,0.6c0,0.2-0.1,0.3-0.1,0.5c0,0.2-0.1,0.4-0.1,0.6c0,0.2-0.1,0.3-0.1,0.5
						c0,0.2-0.1,0.4-0.1,0.6c0,0.1,0,0.3,0,0.4c0,0.2,0,0.5,0,0.7c0,0.1,0,0.2,0,0.4c0,0.4,0,0.7,0,1.1c0,7.5,3.6,13.5,9,16.5
						l5.1,2.8c-5.4-3-9-9-9-16.5c0-0.4,0-0.7,0-1.1C225,135.2,225,135.1,225,135z"/>
					<g>
						<path class="st14" d="M244.5,112.7c-5.3,0.8-10.2,3.8-13.7,8c-1.2,1.5-2.3,3.2-3.2,4.9c-1.7,3.3-2.6,7-2.6,10.8
							c0,2.6,0.4,5,1.2,7.2c2.5,6.9,8.6,11.4,15.9,11.3l0-7.1c-4.9-0.3-8.9-3.7-10.1-8.7c-0.3-1.1-0.4-2.3-0.4-3.6
							c0-2.4,0.6-4.6,1.5-6.7c0.8-1.8,2-3.5,3.3-4.8c2.2-2.2,5.1-3.8,8.1-4.2c7.1-1,12.9,4.4,12.9,12.1c0,1.4-0.2,2.7-0.5,4l5.6,3.2
							c0.9-2.6,1.5-5.3,1.5-8.1C263.9,119.3,255.2,111.1,244.5,112.7z"/>
					</g>
					<g>
						<path class="st14" d="M239.9,147.4C239.9,147.4,239.9,147.4,239.9,147.4C239.9,147.4,240,147.4,239.9,147.4
							C240,147.4,239.9,147.4,239.9,147.4z M237.5,146.5c-0.9-0.5-1.7-1.1-2.4-1.8L237.5,146.5z"/>
					</g>
				</g>
			</g>
			<g>
				<g>
					<g>
						<g class="st18">
							<g>
								<polygon class="st16" points="199.9,137.9 184,128.6 183.9,111.2 199.8,120.5 								"/>
							</g>
							<g>
								<polygon class="st16" points="199.9,137.9 184,128.6 183.9,119.1 183.9,111.2 189.7,114.6 199.8,120.5 199.8,123.2 
									199.9,130.4 								"/>
							</g>
							<g>
								<polygon class="st16" points="199.8,123.2 198.9,119.9 199.8,120.5 								"/>
							</g>
							<g>
								<polygon class="st19" points="199.5,120.3 184,128.6 183.9,111.2 								"/>
							</g>
						</g>
					</g>
					<polygon class="st20" points="199.5,120.3 184,128.6 183.9,111.2 					"/>
				</g>
				<g>
					<path class="st11" d="M195.3,122c0.1,0,0.1,0.1,0.2,0.1c0.1,0,0.1,0.1,0.2,0.1c0,0,0.1,0.1,0.2,0.1c0.2,0.1,0.4,0.2,0.7,0.3
						c0.1,0.1,0.3,0.1,0.5,0.2c0.2,0.1,0.4,0.1,0.6,0.2c0,0,0.1,0,0.1,0c0,0,0,0,0,0c0,0,0,0,0.1,0c0,0,0,0,0,0
						c0.3,0.1,0.5,0.1,0.8,0.2c0,0,0.1,0,0.1,0c0.1,0,0.2,0,0.3,0c0.2,0,0.4,0.1,0.7,0.1c0.1,0,0.1,0,0.2,0l0-2.8l-0.9-0.5
						c-0.1,0-0.2,0.1-0.3,0.1c-0.1,0-0.2,0.1-0.3,0.1c-0.4,0.1-0.8,0.2-1.2,0.2c-0.4,0-0.7,0.1-1.1,0.1c-0.1,0-0.2,0-0.3,0
						c-0.2,0-0.5,0-0.7,0c-0.1,0-0.2,0-0.4,0c-0.2,0-0.5,0-0.7-0.1c-0.1,0-0.2,0-0.3,0c-0.2,0-0.4-0.1-0.6-0.1L195.3,122z"/>
					<path class="st11" d="M182.8,110.5c0-0.2,0-0.5,0.1-0.7c0-0.1,0-0.3,0-0.4c0-0.2,0-0.4,0.1-0.6c0-0.1,0-0.3,0.1-0.4
						c0-0.2,0.1-0.4,0.1-0.6c0-0.2,0.1-0.3,0.1-0.5c0-0.2,0.1-0.4,0.1-0.6c0-0.2,0.1-0.3,0.1-0.5c0-0.2,0.1-0.4,0.1-0.6
						c0-0.2,0.1-0.3,0.1-0.5c0.1-0.2,0.1-0.4,0.2-0.5c0.1-0.2,0.1-0.3,0.2-0.5c0.1-0.2,0.1-0.3,0.2-0.5c0.2-0.5,0.4-1,0.6-1.5
						c0-0.1,0.1-0.2,0.1-0.3c0.2-0.5,0.4-0.9,0.7-1.4c0-0.1,0.1-0.2,0.1-0.3c0.2-0.3,0.4-0.6,0.5-0.9c0.1-0.1,0.1-0.2,0.2-0.3
						c0.2-0.4,0.5-0.7,0.7-1.1c0.1-0.1,0.1-0.1,0.2-0.2c0.2-0.3,0.4-0.6,0.6-0.8c0.1-0.1,0.2-0.2,0.2-0.3c0.2-0.3,0.4-0.5,0.7-0.8
						c0.1-0.1,0.1-0.1,0.2-0.2c0.3-0.3,0.6-0.6,0.9-0.9c0.1-0.1,0.2-0.1,0.2-0.2c0.2-0.2,0.5-0.5,0.7-0.7c0.1-0.1,0.2-0.2,0.3-0.2
						c0.3-0.3,0.7-0.6,1-0.9c0,0,0.1,0,0.1-0.1c0.3-0.3,0.7-0.5,1-0.7c0.1-0.1,0.2-0.1,0.3-0.2c0.4-0.3,0.9-0.6,1.3-0.9
						c0.1,0,0.1-0.1,0.2-0.1c0.5-0.3,1-0.5,1.4-0.8c0.1,0,0.1,0,0.2-0.1c0.4-0.2,0.7-0.3,1.1-0.5c0.1,0,0.2-0.1,0.3-0.1
						c0.4-0.2,0.8-0.3,1.2-0.4c0,0,0.1,0,0.1,0c0.4-0.1,0.8-0.2,1.2-0.3c0.1,0,0.2-0.1,0.3-0.1c0.4-0.1,0.9-0.2,1.3-0.2
						c0.4-0.1,0.9-0.1,1.3-0.1c0.1,0,0.2,0,0.3,0c0.4,0,0.8,0,1.2,0c0.1,0,0.1,0,0.2,0c0.4,0,0.7,0,1.1,0.1c0.1,0,0.1,0,0.2,0
						c0.4,0,0.8,0.1,1.2,0.2c0.1,0,0.2,0,0.2,0c0.4,0.1,0.8,0.2,1.1,0.2c0.5,0.1,1,0.3,1.4,0.4c0.1,0,0.3,0.1,0.4,0.2
						c0.3,0.1,0.7,0.3,1,0.4c0.3,0.1,0.6,0.3,0.8,0.4l-5.1-2.8c-0.2-0.1-0.4-0.2-0.6-0.3c-0.1,0-0.2-0.1-0.2-0.1
						c-0.3-0.2-0.7-0.3-1-0.4c-0.1-0.1-0.3-0.1-0.4-0.2c-0.5-0.2-0.9-0.3-1.4-0.4c0,0,0,0,0,0c-0.4-0.1-0.7-0.2-1.1-0.2
						c-0.1,0-0.2,0-0.2,0c-0.4-0.1-0.8-0.1-1.2-0.2c-0.1,0-0.1,0-0.2,0c-0.4,0-0.7-0.1-1.1-0.1c-0.1,0-0.1,0-0.2,0
						c-0.4,0-0.8,0-1.2,0c-0.1,0-0.2,0-0.3,0c-0.4,0-0.8,0.1-1.3,0.1c-0.4,0.1-0.9,0.1-1.3,0.2c-0.1,0-0.2,0-0.3,0.1
						c-0.4,0.1-0.8,0.2-1.2,0.3c0,0-0.1,0-0.1,0c-0.4,0.1-0.8,0.3-1.2,0.4c-0.1,0-0.2,0.1-0.3,0.1c-0.4,0.1-0.7,0.3-1.1,0.5
						c0,0-0.1,0-0.1,0.1c0,0,0,0,0,0c-0.5,0.2-1,0.5-1.4,0.8c-0.1,0-0.1,0.1-0.2,0.1c-0.5,0.3-0.9,0.6-1.3,0.9c0,0-0.1,0-0.1,0.1
						c0,0-0.1,0.1-0.1,0.1c-0.3,0.2-0.7,0.5-1,0.7c0,0-0.1,0-0.1,0.1c-0.3,0.3-0.7,0.6-1,0.9c0,0-0.1,0.1-0.1,0.1
						c-0.1,0-0.1,0.1-0.2,0.1c-0.2,0.2-0.5,0.4-0.7,0.7c-0.1,0.1-0.2,0.1-0.2,0.2c-0.3,0.3-0.6,0.6-0.9,0.9c0,0,0,0,0,0
						c0,0-0.1,0.1-0.1,0.1c-0.2,0.3-0.4,0.5-0.7,0.8c-0.1,0.1-0.2,0.2-0.2,0.3c-0.2,0.3-0.4,0.5-0.6,0.8c0,0.1-0.1,0.1-0.1,0.2
						c0,0,0,0,0,0.1c-0.3,0.4-0.5,0.7-0.7,1.1c-0.1,0.1-0.1,0.2-0.2,0.3c-0.2,0.3-0.4,0.6-0.5,0.9c0,0.1-0.1,0.1-0.1,0.2
						c0,0,0,0.1,0,0.1c-0.2,0.5-0.5,0.9-0.7,1.4c0,0.1-0.1,0.2-0.1,0.3c-0.2,0.5-0.4,1-0.6,1.5c0,0,0,0,0,0
						c-0.1,0.2-0.1,0.3-0.2,0.5c-0.1,0.2-0.1,0.3-0.2,0.5c-0.1,0.2-0.1,0.4-0.2,0.5c0,0.2-0.1,0.3-0.1,0.5c-0.1,0.2-0.1,0.4-0.1,0.6
						c0,0.2-0.1,0.3-0.1,0.5c0,0.2-0.1,0.4-0.1,0.6c0,0.2-0.1,0.3-0.1,0.5c0,0.2-0.1,0.4-0.1,0.6c0,0.2-0.1,0.3-0.1,0.5
						c0,0.2-0.1,0.4-0.1,0.6c0,0.1,0,0.3,0,0.4c0,0.2,0,0.5,0,0.7c0,0.1,0,0.2,0,0.4c0,0.4,0,0.7,0,1.1c0,7.5,3.6,13.5,9,16.5
						l5.1,2.8c-5.4-3-9-9-9-16.5c0-0.4,0-0.7,0-1.1C182.8,110.7,182.8,110.6,182.8,110.5z"/>
					<g>
						<path class="st14" d="M202.2,88.2c-5.3,0.8-10.2,3.8-13.7,8c-1.2,1.5-2.3,3.2-3.2,4.9c-1.7,3.3-2.6,7-2.6,10.8
							c0,2.6,0.4,5,1.2,7.2c2.5,6.9,8.6,11.4,15.9,11.3l0-7.1c-4.9-0.3-8.9-3.7-10.1-8.7c-0.3-1.1-0.4-2.3-0.4-3.6
							c0-2.4,0.6-4.6,1.5-6.7c0.8-1.8,2-3.5,3.3-4.8c2.2-2.2,5.1-3.8,8.1-4.2c7.1-1,12.9,4.4,12.9,12.1c0,1.4-0.2,2.7-0.5,4l5.6,3.2
							c0.9-2.6,1.5-5.3,1.5-8.1C221.7,94.8,213,86.6,202.2,88.2z"/>
					</g>
					<g>
						<path class="st14" d="M197.7,122.9C197.7,122.9,197.7,122.9,197.7,122.9C197.7,122.9,197.7,122.9,197.7,122.9
							C197.7,122.9,197.7,122.9,197.7,122.9z M195.3,122c-0.9-0.5-1.7-1.1-2.4-1.8L195.3,122z"/>
					</g>
				</g>
			</g>
			<polygon class="st20" points="398.4,323.5 364.4,198.1 364.4,198.3 364.4,198.2 364.4,198.2 364.4,198.2 361.3,199.8 
				358.2,201.4 358.2,201.4 312.5,373.9 320.6,369.1 361,211.6 392.1,326.6 			"/>
			<g>
				<path class="st0" d="M213.4,209.7l-17.7-10.2c-1.4-0.8-2.1-2.5-1.7-4.1l4.8-18.3c0.6-2.3,3.3-3.4,5.3-2.2l17.7,10.2
					c1.4,0.8,2.1,2.5,1.7,4.1l-4.8,18.3C218.2,209.8,215.5,210.9,213.4,209.7z"/>
			</g>
			<g>
				<path class="st0" d="M246.1,228.4l-17.7-10.2c-1.4-0.8-2.1-2.5-1.7-4.1l4.8-18.3c0.6-2.3,3.3-3.4,5.3-2.2l17.7,10.2
					c1.4,0.8,2.1,2.5,1.7,4.1l-4.8,18.3C250.8,228.5,248.2,229.6,246.1,228.4z"/>
			</g>
			<g>
				<path class="st0" d="M278.7,247.1L261,236.9c-1.4-0.8-2.1-2.5-1.7-4.1l4.8-18.3c0.6-2.3,3.3-3.4,5.3-2.2l17.7,10.2
					c1.4,0.8,2.1,2.5,1.7,4.1l-4.8,18.3C283.4,247.2,280.8,248.3,278.7,247.1z"/>
			</g>
			<g>
				<path class="st0" d="M170.6,227.2L152.9,217c-1.4-0.8-2.1-2.5-1.7-4.1l4.8-18.3c0.6-2.3,3.3-3.4,5.3-2.2l17.7,10.2
					c1.4,0.8,2.1,2.5,1.7,4.1l-4.8,18.3C175.4,227.3,172.7,228.4,170.6,227.2z"/>
			</g>
			<g>
				<path class="st0" d="M203.2,246l-17.7-10.2c-1.4-0.8-2.1-2.5-1.7-4.1l4.8-18.3c0.6-2.3,3.3-3.4,5.3-2.2l17.7,10.2
					c1.4,0.8,2.1,2.5,1.7,4.1l-4.8,18.3C208,246.1,205.3,247.2,203.2,246z"/>
			</g>
			<g>
				<path class="st0" d="M235.9,264.7l-17.7-10.2c-1.4-0.8-2.1-2.5-1.7-4.1l4.8-18.3c0.6-2.3,3.3-3.4,5.3-2.2l17.7,10.2
					c1.4,0.8,2.1,2.5,1.7,4.1l-4.8,18.3C240.6,264.8,237.9,265.9,235.9,264.7z"/>
			</g>
			<g>
				<path class="st0" d="M268.5,283.4l-17.7-10.2c-1.4-0.8-2.1-2.5-1.7-4.1l4.8-18.3c0.6-2.3,3.3-3.4,5.3-2.2l17.7,10.2
					c1.4,0.8,2.1,2.5,1.7,4.1l-4.8,18.3C273.2,283.5,270.6,284.6,268.5,283.4z"/>
			</g>
			<g>
				<path class="st0" d="M159.3,264.1l-17.7-10.2c-1.4-0.8-2.1-2.5-1.7-4.1l4.8-18.3c0.6-2.3,3.3-3.4,5.3-2.2l17.7,10.2
					c1.4,0.8,2.1,2.5,1.7,4.1l-4.8,18.3C164,264.2,161.3,265.3,159.3,264.1z"/>
			</g>
			<g>
				<path class="st0" d="M191.9,282.9l-17.7-10.2c-1.4-0.8-2.1-2.5-1.7-4.1l4.8-18.3c0.6-2.3,3.3-3.4,5.3-2.2l17.7,10.2
					c1.4,0.8,2.1,2.5,1.7,4.1l-4.8,18.3C196.6,283,194,284.1,191.9,282.9z"/>
			</g>
			<g>
				<path class="st0" d="M224.5,301.6l-17.7-10.2c-1.4-0.8-2.1-2.5-1.7-4.1l4.8-18.3c0.6-2.3,3.3-3.4,5.3-2.2l17.7,10.2
					c1.4,0.8,2.1,2.5,1.7,4.1l-4.8,18.3C229.2,301.7,226.6,302.8,224.5,301.6z"/>
			</g>
			<g>
				<path class="st0" d="M257.1,320.3l-17.7-10.2c-1.4-0.8-2.1-2.5-1.7-4.1l4.8-18.3c0.6-2.3,3.3-3.4,5.3-2.2l17.7,10.2
					c1.4,0.8,2.1,2.5,1.7,4.1l-4.8,18.3C261.9,320.4,259.2,321.5,257.1,320.3z"/>
			</g>
			<g>
				<path class="st0" d="M180.8,190.9l-17.7-10.2c-1.4-0.8-2.1-2.5-1.7-4.1l4.8-18.3c0.6-2.3,3.3-3.4,5.3-2.2l17.7,10.2
					c1.4,0.8,2.1,2.5,1.7,4.1l-4.8,18.3C185.6,191,182.9,192.1,180.8,190.9z"/>
			</g>
			<g>
				<g>
					<path class="st21" d="M182,172.5l-9.8-5.3c-0.5-0.3-0.8-0.9-0.6-1.5l0,0c0.2-0.8,1.2-1.2,1.9-0.8l9.8,5.3
						c0.5,0.3,0.8,0.9,0.6,1.5l0,0C183.7,172.5,182.8,172.9,182,172.5z"/>
				</g>
				<g>
					<path class="st21" d="M180.1,178.2l-9.8-5.3c-0.5-0.3-0.8-0.9-0.6-1.5l0,0c0.2-0.8,1.2-1.2,1.9-0.8l9.8,5.3
						c0.5,0.3,0.8,0.9,0.6,1.5l0,0C181.7,178.3,180.8,178.7,180.1,178.2z"/>
				</g>
				<g>
					<path class="st21" d="M175.2,182.6l-4.8-2.6c-0.5-0.3-0.8-0.9-0.6-1.5l0,0c0.2-0.8,1.2-1.2,1.9-0.8l4.8,2.6
						c0.5,0.3,0.8,0.9,0.6,1.5l0,0C176.9,182.6,176,183,175.2,182.6z"/>
				</g>
			</g>
			<g>
				<g>
					<path class="st21" d="M204.6,226.9l-9.8-5.3c-0.5-0.3-0.8-0.9-0.6-1.5l0,0c0.2-0.8,1.2-1.2,1.9-0.8l9.8,5.3
						c0.5,0.3,0.8,0.9,0.6,1.5l0,0C206.3,226.9,205.3,227.3,204.6,226.9z"/>
				</g>
				<g>
					<path class="st21" d="M202.6,232.6l-9.8-5.3c-0.5-0.3-0.8-0.9-0.6-1.5l0,0c0.2-0.8,1.2-1.2,1.9-0.8l9.8,5.3
						c0.5,0.3,0.8,0.9,0.6,1.5l0,0C204.3,232.6,203.4,233,202.6,232.6z"/>
				</g>
				<g>
					<path class="st21" d="M197.8,236.9l-4.8-2.6c-0.5-0.3-0.8-0.9-0.6-1.5l0,0c0.2-0.8,1.2-1.2,1.9-0.8l4.8,2.6
						c0.5,0.3,0.8,0.9,0.6,1.5l0,0C199.5,237,198.5,237.4,197.8,236.9z"/>
				</g>
			</g>
			<g>
				<g>
					<path class="st21" d="M270.3,264.8l-9.8-5.3c-0.5-0.3-0.8-0.9-0.6-1.5l0,0c0.2-0.8,1.2-1.2,1.9-0.8l9.8,5.3
						c0.5,0.3,0.8,0.9,0.6,1.5l0,0C271.9,264.8,271,265.2,270.3,264.8z"/>
				</g>
				<g>
					<path class="st21" d="M268.3,270.6l-9.8-5.3c-0.5-0.3-0.8-0.9-0.6-1.5l0,0c0.2-0.8,1.2-1.2,1.9-0.8l9.8,5.3
						c0.5,0.3,0.8,0.9,0.6,1.5l0,0C270,270.6,269,271,268.3,270.6z"/>
				</g>
				<g>
					<path class="st21" d="M263.5,274.9l-4.8-2.6c-0.5-0.3-0.8-0.9-0.6-1.5l0,0c0.2-0.8,1.2-1.2,1.9-0.8l4.8,2.6
						c0.5,0.3,0.8,0.9,0.6,1.5l0,0C265.1,274.9,264.2,275.3,263.5,274.9z"/>
				</g>
			</g>
			<g>
				<g>
					<path class="st21" d="M226.1,282.3l-9.8-5.3c-0.5-0.3-0.8-0.9-0.6-1.5l0,0c0.2-0.8,1.2-1.2,1.9-0.8l9.8,5.3
						c0.5,0.3,0.8,0.9,0.6,1.5l0,0C227.8,282.3,226.9,282.7,226.1,282.3z"/>
				</g>
				<g>
					<path class="st21" d="M224.2,288l-9.8-5.3c-0.5-0.3-0.8-0.9-0.6-1.5l0,0c0.2-0.8,1.2-1.2,1.9-0.8l9.8,5.3
						c0.5,0.3,0.8,0.9,0.6,1.5l0,0C225.9,288,224.9,288.4,224.2,288z"/>
				</g>
				<g>
					<path class="st21" d="M219.3,292.3l-4.8-2.6c-0.5-0.3-0.8-0.9-0.6-1.5l0,0c0.2-0.8,1.2-1.2,1.9-0.8l4.8,2.6
						c0.5,0.3,0.8,0.9,0.6,1.5l0,0C221,292.4,220.1,292.8,219.3,292.3z"/>
				</g>
			</g>
			<g>
				<polygon class="st15" points="173.1,205.4 174.5,207.9 160.2,215.8 156.9,210.1 159.4,208.7 161.3,212 				"/>
			</g>
			<g>
				<polygon class="st15" points="195.6,260.2 197.1,262.8 182.8,270.7 179.5,265 182,263.6 183.9,266.8 				"/>
			</g>
			<g>
				<polygon class="st15" points="249,205.9 250.4,208.4 236.1,216.3 232.8,210.6 235.3,209.2 237.2,212.5 				"/>
			</g>
		</g>
		<g>
			<g>
				<polygon class="st22" points="70.2,272.1 70.2,285.7 121.1,315.7 159.8,292.4 159.8,278.3 107,250 				"/>
				<polygon class="st14" points="121.4,257.7 121.4,315.6 159.8,292.4 159.8,278.3 				"/>
				<g>
					<polygon class="st23" points="121.1,311.6 66.9,279.9 66.9,286.3 121.1,317.9 					"/>
				</g>
				<g>
					<path class="st24" d="M121.1,296.4l0,6.5l2-1.2l33.8-19.5l0,8.6l-35.8,20.7l0,6.3l39.3-22.7c1.5-0.8,2.6-2.9,2.6-4.6l0-15.4
						c0-1.7-1.2-2.4-2.7-1.5L121.1,296.4z"/>
				</g>
				<g>
					<polygon class="st23" points="121.1,296.4 66.9,264.8 66.9,271.3 121.1,302.9 					"/>
				</g>
				<path class="st25" d="M106.2,242.1C106.2,242.1,106.2,242.1,106.2,242.1c0.1-0.1,0.2-0.1,0.2-0.1c0,0,0,0,0.1,0c0,0,0,0,0,0
					c0,0,0,0,0,0c0,0,0.1,0,0.1,0c0,0,0.1,0,0.1,0c0,0,0,0,0,0c0,0,0,0,0,0c0,0,0,0,0.1,0c0,0,0.1,0,0.1,0c0,0,0,0,0.1,0
					c0,0,0,0,0,0c0,0,0,0,0,0c0,0,0.1,0,0.1,0c0,0,0,0,0.1,0c0,0,0,0,0,0c0,0,0,0,0,0c0,0,0.1,0,0.1,0c0,0,0,0,0.1,0c0,0,0,0,0,0
					c0,0,0,0,0,0c0.1,0,0.1,0,0.2,0c0,0,0,0,0,0c0,0,0,0,0,0c0.1,0,0.1,0,0.1,0c0,0,0,0,0,0c0.1,0,0.1,0.1,0.2,0.1l54.2,31.6
					c-0.1,0-0.1-0.1-0.2-0.1c-0.1,0-0.1,0-0.2,0c0,0,0,0,0,0c-0.1,0-0.1,0-0.2,0c0,0,0,0,0,0c-0.1,0-0.1,0-0.2,0c0,0,0,0,0,0
					c-0.1,0-0.1,0-0.2,0c0,0,0,0,0,0c-0.1,0-0.2,0-0.2,0.1c0,0,0,0,0,0c-0.1,0-0.2,0.1-0.3,0.1c0,0,0,0,0,0c-0.1,0-0.2,0.1-0.3,0.1
					l-39.3,22.7l-54.2-31.6L106.2,242.1z"/>
			</g>
			<g>
				<path class="st25" d="M117.3,203.6l-7.5-19.6c-2.7,1.1-4.9,3.4-5.6,6.3l-0.9,9.7c-0.3,2.7,1.6,5.1,4.2,5.7l8,0.2l4.5,0.1
					L117.3,203.6z"/>
				<g>
					<path class="st15" d="M145,192.1l-17.4-10c-1.4-0.8-2.1-2.5-1.7-4l4.7-18.1c0.6-2.3,3.2-3.4,5.3-2.2l17.4,10
						c1.4,0.8,2.1,2.5,1.7,4l-4.7,18.1C149.7,192.2,147,193.3,145,192.1z"/>
				</g>
				<path class="st26" d="M147.1,184.7l3.4-4.4c0.4-0.5,1.1-0.8,1.7-0.8c0.3,0,0.6,0.1,0.9,0.2c1.2,0.5,1.6,1.9,1,3
					c-1.1,2.1-2.8,5-3.5,5.7c-1,1.1-2.7,0.5-2.7,0.5l-6,14l-0.4,0.9c-0.6,0.9-1.6,1.5-2.7,1.6c-0.1,0-0.2,0-0.3,0
					c-0.2,0-0.3,0-0.5,0l-2.9-3.5l-0.1-0.1l0.1-0.1l6.3-10.3l3.2-5.1l1.8-4.1c0.2-0.4,0.5-0.8,1-0.9c0,0,0.6,0.2,0.5,0.9
					C147.9,183,147.1,184.7,147.1,184.7z"/>
				<g>
					<path class="st21" d="M125.1,270.7c0.3,1.9-4.2,2.9-7.4,4.4c-2.1,1-4.5,1.1-6.7,0.1c-1-0.4-1.9-0.9-2.2-1.3
						c-0.8-1,0.3-4.4,0.3-4.4c3-0.5,5.7-0.9,7.5-1.4c1-0.2,1.7-0.4,2.1-0.5C119.8,267.3,124.6,268,125.1,270.7z"/>
					<path class="st26" d="M115.1,270.9c-1.5,1.5-6.1-1.3-6.1-1.3c3-0.5,5.4-0.6,7.3-1C116.9,269.8,116.4,269.7,115.1,270.9z"/>
				</g>
				<g>
					<path class="st21" d="M142.3,276.1c0.3,2.1-4.6,3.2-8.2,4.8c-2.3,1.1-5,1.2-7.4,0.2c-1.1-0.5-2.1-1-2.4-1.4
						c-0.9-1.1,0.3-4.8,0.3-4.8c3.3-0.5,6.2-1,8.2-1.5c1.1-0.2,1.9-0.4,2.3-0.6C136.4,272.3,141.8,273.1,142.3,276.1z"/>
					<path class="st26" d="M131.3,276.3c-1.7,1.6-6.8-1.5-6.8-1.5c3.3-0.5,6-0.6,8-1.1C133.2,275.1,132.7,275,131.3,276.3z"/>
				</g>
				<polygon class="st27" points="109.7,217.1 109,269.6 116.4,269.6 123.7,231.6 116.5,215.7 				"/>
				<path class="st21" d="M115.6,219.6c0,0,2,14.2,4.7,17.7l4.3,37.6h8.2l0.2-52.5l-9.5-5.4L115.6,219.6z"/>
				<path class="st25" d="M133,222.5c0,0-0.1,0-0.1,0.1c-15.3,7.2-23.1-5.4-23.1-5.4l1.1-10.3l-1.1-10.6c0,0-0.5-6.8,0.1-12.2
					c0.9-0.6,1.9-1,3-1.3l3.5-0.8l10.2,1c0,0,6.3,2.6,7.1,4.3l4.2,8.9l4.5-7.5l5.7,2.8l-6.6,16.9c-1,2.2-4.1,2.5-5.4,0.4l-4-6.9
					L133,222.5z"/>
				<g>
					<path class="st26" d="M116.3,175.1C116.3,175.1,116.3,175.1,116.3,175.1C116.3,175.1,116.3,175.1,116.3,175.1z"/>
					<path class="st26" d="M117.8,176C117.9,176.1,117.9,176.1,117.8,176C117.9,176.1,117.9,176.1,117.8,176z"/>
					<path class="st26" d="M121.5,177.5c0,0,0.1,0,0.1,0C121.5,177.5,121.5,177.5,121.5,177.5z"/>
					<path class="st26" d="M115.9,174.8c0,0,0.1,0.1,0.1,0.1C116,174.8,115.9,174.8,115.9,174.8z"/>
					<path class="st26" d="M115.6,174.5c0,0,0.1,0,0.1,0.1C115.6,174.6,115.6,174.6,115.6,174.5z"/>
					<path class="st26" d="M115.4,174.4C115.4,174.4,115.4,174.4,115.4,174.4C115.4,174.4,115.4,174.4,115.4,174.4z"/>
					<path class="st26" d="M118.5,176.4C118.5,176.4,118.6,176.4,118.5,176.4C118.6,176.4,118.5,176.4,118.5,176.4z"/>
					<path class="st26" d="M123.1,177.7C123.1,177.7,123.1,177.7,123.1,177.7C123.1,177.7,123.1,177.7,123.1,177.7z"/>
					<path class="st26" d="M122.2,177.6c0.1,0,0.1,0,0.2,0C122.4,177.6,122.3,177.6,122.2,177.6z"/>
					<path class="st26" d="M125.6,181.6l-0.3-0.2C125.3,181.3,125.3,181.5,125.6,181.6z"/>
					<path class="st26" d="M115.5,174.5C115.5,174.5,115.5,174.5,115.5,174.5C115.5,174.5,115.5,174.5,115.5,174.5z"/>
					<path class="st26" d="M115.7,174.6c0.1,0,0.1,0.1,0.2,0.1C115.8,174.7,115.7,174.7,115.7,174.6z"/>
					<path class="st26" d="M116,174.8c0.1,0.1,0.2,0.1,0.3,0.2C116.2,175,116.1,174.9,116,174.8z"/>
					<path class="st26" d="M117.9,176.1c0.2,0.1,0.4,0.2,0.6,0.3C118.3,176.3,118.1,176.2,117.9,176.1z"/>
					<path class="st26" d="M124.6,177.4c-0.5,0.2-0.9,0.3-1.4,0.3C123.6,177.6,124.1,177.5,124.6,177.4L124.6,177.4z"/>
					<path class="st26" d="M121.6,177.5c0.2,0,0.4,0.1,0.7,0.1C122,177.6,121.8,177.6,121.6,177.5z"/>
					<path class="st26" d="M118.6,176.4c0.9,0.4,1.8,0.8,2.8,1C120.5,177.3,119.5,176.9,118.6,176.4z"/>
					<path class="st26" d="M123.1,177.7c-0.2,0-0.4,0-0.7,0C122.6,177.7,122.9,177.7,123.1,177.7z"/>
					<path class="st26" d="M116.3,175.1c0.4,0.3,0.9,0.6,1.5,0.9C117.3,175.7,116.7,175.4,116.3,175.1z"/>
					<path class="st26" d="M132.7,165l-2.7,1.8c0,0-6.5-1.2-5.5,10.6l0.7,3.9l0.3,0.2c-0.3-0.1-0.3-0.2-0.3-0.2s0.1,0.9,3.5-0.3
						C131.7,180.1,133.1,168.4,132.7,165z"/>
					<path class="st26" d="M125.3,181.3L125.3,181.3C125.3,181.4,125.3,181.4,125.3,181.3C125.3,181.3,125.3,181.3,125.3,181.3z"/>
					<path class="st26" d="M125.3,181.3l-0.7-3.9c-0.5,0.2-0.9,0.3-1.4,0.3c0,0,0,0-0.1,0c-0.2,0-0.4,0-0.7,0c-0.1,0-0.1,0-0.2,0
						c-0.2,0-0.4-0.1-0.7-0.1c0,0-0.1,0-0.1,0c-1-0.2-2-0.6-2.8-1c0,0-0.1,0-0.1,0c-0.2-0.1-0.4-0.2-0.6-0.3c0,0-0.1,0-0.1,0
						c-0.5-0.3-1-0.6-1.4-0.9v6.9c2.9,1.4,6.2,2.3,9.1,0.9L125.3,181.3z"/>
				</g>
				<path class="st21" d="M129.2,173h1.5c0,0-0.3-6.8,2.1-8c0,0-4.9-9.4-12.1-6.5c-7.2,2.9-8.1,9.5-7.6,14.6
					c0.6,6.1,4.8,8.1,6.4,8.2c1.6,0.1,7.5-1.3,9-5.5c0,0-3.1-1.7-2.1-3.6C127.3,170.3,127.9,168.3,129.2,173z"/>
			</g>
		</g>
		<g>
			<g>
				
					<ellipse transform="matrix(0.8722 -0.4892 0.4892 0.8722 -26.2376 214.4476)" class="st15" cx="397.2" cy="157.4" rx="28.6" ry="49.3"/>
				
					<ellipse transform="matrix(0.8722 -0.4892 0.4892 0.8722 -26.2377 214.4467)" class="st0" cx="397.2" cy="157.4" rx="22.7" ry="39.2"/>
				<path class="st14" d="M372.7,144c0.3-17.6,12.9-24.5,28.1-15.5c2.8,1.7,5.4,3.7,7.9,6.1c-3.3-3.7-7-6.9-10.9-9.2
					c-15.2-9.1-27.8-2.2-28.1,15.5c-0.3,14.4,7.8,31.5,19,42.3C379.1,172.5,372.4,157.1,372.7,144z"/>
				<path class="st28" d="M443.6,170.1c0-0.1,0-0.2,0-0.3c0-0.2,0-0.4,0-0.6c0-0.3,0-0.5,0-0.8c0-0.2,0-0.4,0-0.6c0-0.2,0-0.4,0-0.7
					c0-0.1,0-0.3,0-0.4c0-0.3-0.1-0.6-0.1-1c0-0.2,0-0.4-0.1-0.6c0-0.1,0-0.1,0-0.2c-0.1-0.6-0.1-1.2-0.2-1.8c0,0,0,0,0,0
					c0-0.1,0-0.2,0-0.2c-0.1-0.5-0.1-1-0.2-1.5c0-0.1,0-0.2,0-0.3c0-0.2-0.1-0.5-0.1-0.7c-0.1-0.3-0.1-0.6-0.2-0.9
					c0-0.2-0.1-0.3-0.1-0.5c-0.1-0.3-0.1-0.5-0.2-0.8c0-0.2-0.1-0.4-0.1-0.6c-0.1-0.2-0.1-0.5-0.2-0.7c-0.1-0.3-0.1-0.5-0.2-0.8
					c0-0.1-0.1-0.3-0.1-0.4c-0.1-0.3-0.2-0.7-0.3-1c-0.1-0.2-0.1-0.4-0.2-0.7c0-0.1,0-0.1-0.1-0.2c-0.2-0.6-0.4-1.2-0.6-1.8
					c0,0,0,0,0,0c0-0.1,0-0.1-0.1-0.2c-0.2-0.5-0.3-1.1-0.5-1.6c0-0.1-0.1-0.2-0.1-0.3c-0.1-0.2-0.1-0.4-0.2-0.6
					c-0.1-0.3-0.2-0.6-0.3-0.9c-0.1-0.2-0.1-0.4-0.2-0.5c-0.1-0.2-0.2-0.4-0.3-0.7c-0.1-0.2-0.1-0.3-0.2-0.5c-0.1-0.3-0.3-0.6-0.4-1
					c-0.1-0.2-0.1-0.4-0.2-0.5c0-0.1,0-0.1-0.1-0.2c-0.2-0.6-0.5-1.1-0.7-1.7c0,0,0,0,0-0.1c-0.1-0.2-0.2-0.3-0.2-0.5
					c-0.2-0.4-0.4-0.9-0.6-1.3c0-0.1-0.1-0.1-0.1-0.2c-0.2-0.4-0.4-0.7-0.5-1.1c-0.1-0.3-0.3-0.6-0.4-0.9c0-0.1-0.1-0.1-0.1-0.2
					c-0.5-0.9-1-1.8-1.5-2.7c0-0.1-0.1-0.2-0.1-0.2c-0.1-0.2-0.3-0.5-0.4-0.7c-0.2-0.4-0.4-0.7-0.6-1.1c-0.2-0.3-0.4-0.6-0.6-1
					c-0.2-0.4-0.4-0.7-0.7-1.1c-0.1-0.1-0.1-0.2-0.2-0.4c-0.1-0.1-0.2-0.2-0.2-0.3c-0.6-1-1.3-1.9-1.9-2.9c0,0,0,0,0,0c0,0,0,0,0,0
					c-0.5-0.7-0.9-1.3-1.4-1.9c0,0,0-0.1-0.1-0.1c-0.4-0.5-0.7-0.9-1.1-1.4c-0.1-0.1-0.1-0.2-0.2-0.3c0,0,0,0,0,0
					c-0.4-0.5-0.9-1.1-1.3-1.6c0,0,0-0.1-0.1-0.1c-0.1-0.2-0.3-0.3-0.4-0.5c-0.3-0.3-0.6-0.7-0.9-1c-0.1-0.1-0.1-0.1-0.2-0.2
					c-0.2-0.2-0.4-0.4-0.6-0.6c-0.2-0.2-0.4-0.5-0.7-0.7c-0.1-0.1-0.2-0.2-0.2-0.3c-0.2-0.2-0.4-0.4-0.6-0.7
					c-0.2-0.2-0.4-0.4-0.6-0.6c-0.1-0.1-0.2-0.2-0.3-0.3c-0.2-0.2-0.5-0.5-0.7-0.7c-0.2-0.2-0.3-0.3-0.5-0.5
					c-0.1-0.1-0.3-0.2-0.4-0.4c-0.2-0.2-0.5-0.4-0.7-0.6c-0.1-0.1-0.3-0.3-0.4-0.4c-0.2-0.1-0.3-0.3-0.5-0.4
					c-0.2-0.2-0.5-0.4-0.7-0.6c-0.1-0.1-0.2-0.2-0.4-0.3c-0.2-0.2-0.4-0.3-0.6-0.5c-0.2-0.2-0.4-0.3-0.7-0.5
					c-0.1-0.1-0.2-0.1-0.3-0.2c-0.3-0.2-0.5-0.4-0.8-0.6c-0.2-0.1-0.4-0.3-0.6-0.4c0,0-0.1-0.1-0.1-0.1c-0.5-0.3-1-0.7-1.5-1
					c0,0,0,0,0,0c0,0-0.1,0-0.1-0.1c-0.4-0.3-0.9-0.6-1.3-0.9c-0.1-0.1-0.2-0.1-0.3-0.2c-0.4-0.2-0.7-0.4-1.1-0.6
					c-0.1-0.1-0.3-0.1-0.4-0.2c-0.2-0.1-0.4-0.2-0.6-0.3c-0.1-0.1-0.3-0.2-0.4-0.2c-0.2-0.1-0.5-0.2-0.7-0.3
					c-0.2-0.1-0.3-0.2-0.5-0.2c-0.1,0-0.1-0.1-0.2-0.1c-0.5-0.2-0.9-0.4-1.4-0.6c0,0,0,0,0,0c-0.5-0.2-0.9-0.4-1.4-0.6
					c-0.1,0-0.1,0-0.2-0.1c-0.2-0.1-0.3-0.1-0.5-0.2c-0.2-0.1-0.5-0.2-0.7-0.2c-0.1,0-0.2-0.1-0.4-0.1c-0.2-0.1-0.4-0.1-0.6-0.2
					c-0.2,0-0.3-0.1-0.5-0.1c-0.2,0-0.3-0.1-0.5-0.1c-0.2-0.1-0.4-0.1-0.6-0.1c-0.1,0-0.2-0.1-0.3-0.1c-0.2,0-0.4-0.1-0.6-0.1
					c-0.2,0-0.5-0.1-0.7-0.1c-0.1,0-0.2,0-0.2,0c-0.2,0-0.4,0-0.6-0.1c-0.3,0-0.5-0.1-0.8-0.1c-0.1,0-0.1,0-0.2,0
					c-0.2,0-0.3,0-0.5,0c-0.3,0-0.6,0-0.9,0c-0.1,0-0.2,0-0.2,0c-0.1,0-0.3,0-0.4,0c-0.4,0-0.7,0-1.1,0c-0.1,0-0.2,0-0.3,0
					c-0.2,0-0.3,0-0.5,0c-0.1,0-0.2,0-0.3,0c-0.4,0-0.8,0.1-1.2,0.2c0,0,0,0,0,0c-0.1,0-0.2,0-0.3,0.1c-0.3,0.1-0.7,0.1-1,0.2
					c-0.2,0-0.3,0.1-0.5,0.1c-0.2,0.1-0.4,0.1-0.6,0.2c-0.1,0-0.1,0-0.2,0.1c-0.3,0.1-0.6,0.2-0.9,0.4c-0.1,0.1-0.3,0.1-0.4,0.2
					c-0.4,0.2-0.9,0.4-1.3,0.7l-11.7,6.5c0.4-0.2,0.9-0.5,1.3-0.7c0.1-0.1,0.3-0.1,0.4-0.2c0.3-0.1,0.6-0.3,0.9-0.4
					c0.3-0.1,0.5-0.2,0.8-0.2c0.2,0,0.3-0.1,0.5-0.1c0.3-0.1,0.7-0.2,1-0.2c0.1,0,0.2-0.1,0.3-0.1c0.4-0.1,0.8-0.1,1.3-0.2
					c0.1,0,0.2,0,0.3,0c0.3,0,0.5,0,0.8-0.1c0.4,0,0.7,0,1.1,0c0.2,0,0.4,0,0.6,0c0.3,0,0.6,0,0.9,0c0.2,0,0.5,0,0.7,0.1
					c0.3,0,0.5,0.1,0.8,0.1c0.3,0,0.5,0.1,0.8,0.1c0.2,0,0.5,0.1,0.7,0.1c0.3,0.1,0.6,0.1,0.9,0.2c0.2,0,0.4,0.1,0.6,0.1
					c0.3,0.1,0.6,0.2,1,0.3c0.2,0.1,0.4,0.1,0.6,0.2c0.4,0.1,0.7,0.2,1.1,0.3c0.2,0.1,0.3,0.1,0.5,0.2c0.5,0.2,1,0.4,1.6,0.6
					c0,0,0,0,0,0c0,0,0,0,0,0c0.5,0.2,1.1,0.5,1.6,0.7c0.2,0.1,0.3,0.2,0.5,0.2c0.4,0.2,0.8,0.4,1.1,0.6c0.2,0.1,0.4,0.2,0.6,0.3
					c0.5,0.3,1,0.6,1.5,0.9c0.6,0.3,1.1,0.7,1.7,1.1c0,0,0.1,0,0.1,0.1c0.5,0.4,1.1,0.7,1.6,1.1c0.2,0.1,0.4,0.3,0.6,0.4
					c0.4,0.3,0.7,0.5,1.1,0.8c0.2,0.2,0.4,0.3,0.7,0.5c0.3,0.3,0.6,0.5,1,0.8c0.2,0.2,0.5,0.4,0.7,0.6c0.3,0.3,0.6,0.5,0.9,0.8
					c0.2,0.2,0.5,0.4,0.7,0.6c0.3,0.3,0.6,0.5,0.9,0.8c0.2,0.2,0.5,0.4,0.7,0.7c0.3,0.3,0.6,0.6,0.9,0.9c0.2,0.2,0.4,0.4,0.6,0.7
					c0.3,0.3,0.6,0.6,0.9,1c0.2,0.2,0.4,0.4,0.6,0.6c0.3,0.4,0.7,0.8,1,1.2c0.1,0.2,0.3,0.3,0.4,0.5c0.5,0.6,0.9,1.1,1.4,1.7
					c0.1,0.1,0.1,0.2,0.2,0.3c0.4,0.5,0.8,1,1.1,1.5c0.5,0.6,1,1.3,1.4,1.9c0,0,0,0,0,0c0.7,0.9,1.3,1.9,1.9,2.9
					c0.1,0.2,0.3,0.5,0.4,0.7c0.2,0.4,0.4,0.7,0.7,1.1c0.2,0.3,0.4,0.6,0.6,1c0.2,0.4,0.4,0.7,0.6,1.1c0.2,0.3,0.4,0.6,0.5,0.9
					c0.5,0.9,1,1.8,1.5,2.7c0.2,0.3,0.3,0.7,0.5,1c0.2,0.4,0.4,0.7,0.5,1.1c0.2,0.5,0.5,1,0.7,1.5c0.1,0.2,0.2,0.3,0.2,0.5
					c0.3,0.6,0.6,1.3,0.9,2c0.1,0.2,0.1,0.3,0.2,0.5c0.2,0.5,0.4,1,0.6,1.5c0.1,0.2,0.2,0.4,0.3,0.7c0.2,0.5,0.4,0.9,0.5,1.4
					c0.1,0.2,0.1,0.4,0.2,0.6c0.2,0.6,0.4,1.2,0.6,1.9c0,0.1,0,0.1,0.1,0.2c0.2,0.7,0.4,1.4,0.6,2c0.1,0.2,0.1,0.4,0.2,0.7
					c0.1,0.5,0.3,0.9,0.4,1.4c0.1,0.3,0.1,0.5,0.2,0.8c0.1,0.4,0.2,0.9,0.3,1.3c0.1,0.3,0.1,0.5,0.2,0.8c0.1,0.4,0.2,0.9,0.3,1.3
					c0,0.2,0.1,0.5,0.1,0.7c0.1,0.6,0.2,1.2,0.3,1.7c0,0.1,0,0.2,0,0.3c0.1,0.7,0.2,1.3,0.2,2c0,0.2,0,0.4,0.1,0.6
					c0,0.5,0.1,0.9,0.1,1.4c0,0.2,0,0.5,0,0.7c0,0.4,0,0.9,0.1,1.3c0,0.2,0,0.4,0,0.6c0,0.6,0,1.3,0,1.9c0,0.7,0,1.3-0.1,1.9
					c0,0.2,0,0.4,0,0.5c0,0.4-0.1,0.9-0.1,1.3c0,0.2-0.1,0.5-0.1,0.7c0,0.4-0.1,0.7-0.1,1.1c0,0.3-0.1,0.5-0.1,0.8
					c-0.1,0.3-0.1,0.6-0.2,0.9c-0.1,0.3-0.1,0.6-0.2,0.8c-0.1,0.3-0.1,0.6-0.2,0.8c-0.1,0.3-0.2,0.6-0.3,1c-0.1,0.2-0.1,0.5-0.2,0.7
					c-0.1,0.4-0.3,0.7-0.4,1.1c-0.1,0.2-0.1,0.4-0.2,0.6c-0.2,0.6-0.5,1.2-0.8,1.8c-0.2,0.4-0.4,0.9-0.7,1.3c0,0,0,0,0,0
					c-0.2,0.4-0.5,0.8-0.8,1.2c-0.1,0.1-0.1,0.2-0.2,0.2c-0.2,0.3-0.4,0.6-0.6,0.8c-0.1,0.1-0.2,0.2-0.3,0.3
					c-0.2,0.2-0.4,0.5-0.6,0.7c-0.1,0.1-0.2,0.2-0.2,0.3c-0.3,0.3-0.6,0.6-0.9,0.9c0,0-0.1,0.1-0.1,0.1c-0.3,0.2-0.5,0.5-0.8,0.7
					c-0.1,0.1-0.2,0.2-0.3,0.2c-0.2,0.2-0.5,0.4-0.7,0.5c-0.1,0.1-0.2,0.1-0.3,0.2c-0.3,0.2-0.7,0.4-1,0.6l11.7-6.5
					c0.4-0.2,0.7-0.4,1-0.6c0.1-0.1,0.2-0.1,0.3-0.2c0.2-0.2,0.5-0.3,0.7-0.5c0.1-0.1,0.2-0.2,0.3-0.2c0.3-0.2,0.5-0.5,0.8-0.7
					c0,0,0.1-0.1,0.1-0.1c0.3-0.3,0.6-0.6,0.9-0.9c0.1-0.1,0.2-0.2,0.2-0.3c0.2-0.2,0.4-0.5,0.6-0.7c0.1-0.1,0.2-0.2,0.3-0.3
					c0.2-0.3,0.4-0.6,0.6-0.8c0.1-0.1,0.1-0.2,0.2-0.2c0,0,0,0,0-0.1c0.5-0.7,0.9-1.5,1.4-2.4c0,0,0,0,0-0.1
					c0.3-0.6,0.5-1.2,0.8-1.8c0-0.1,0-0.1,0.1-0.2c0.1-0.1,0.1-0.3,0.2-0.4c0.1-0.4,0.3-0.7,0.4-1.1c0-0.1,0.1-0.2,0.1-0.3
					c0-0.1,0.1-0.3,0.1-0.4c0.1-0.3,0.2-0.6,0.3-1c0-0.1,0.1-0.3,0.1-0.4c0-0.1,0.1-0.3,0.1-0.4c0.1-0.3,0.1-0.6,0.2-0.8
					c0-0.1,0.1-0.3,0.1-0.4c0-0.2,0.1-0.3,0.1-0.5c0-0.3,0.1-0.5,0.1-0.8c0-0.1,0-0.3,0.1-0.4c0-0.2,0.1-0.4,0.1-0.7
					c0-0.2,0.1-0.5,0.1-0.7c0-0.1,0-0.2,0-0.3c0-0.3,0.1-0.7,0.1-1c0-0.2,0-0.3,0-0.5c0,0,0-0.1,0-0.1c0-0.6,0.1-1.1,0.1-1.7
					c0,0,0-0.1,0-0.1C443.6,171.1,443.6,170.6,443.6,170.1z"/>
				<g>
					<path class="st19" d="M398.9,129.7c1.2,0.7,2.1,2.3,2,3.7c0,1.3-1,1.9-2.1,1.2c-1.2-0.7-2.1-2.3-2-3.7
						C396.8,129.5,397.8,129,398.9,129.7z"/>
				</g>
				<g>
					<path class="st19" d="M398,179.4c1.2,0.7,2.1,2.3,2,3.7c0,1.3-1,1.9-2.1,1.2c-1.2-0.7-2.1-2.3-2-3.7
						C395.9,179.2,396.9,178.7,398,179.4z"/>
				</g>
				<g>
					<path class="st19" d="M377.1,141.7c1.1,0.7,2.1,2.3,2,3.7c0,1.3-1,1.9-2.1,1.2c-1.2-0.7-2.1-2.3-2-3.7
						C375,141.6,375.9,141,377.1,141.7z"/>
				</g>
				<g>
					<path class="st19" d="M419.9,167.4c1.2,0.7,2.1,2.3,2,3.7c0,1.3-1,1.9-2.1,1.2c-1.1-0.7-2.1-2.3-2-3.7
						C417.8,167.2,418.8,166.7,419.9,167.4z"/>
				</g>
				<g>
					<path class="st28" d="M398.8,138.9c0.7,0.4,1.3,1.5,1.3,2.3l-0.3,17c0,0.4-0.1,0.7-0.4,0.9l-7.8,4.4c-0.3,0.1-0.6,0.1-0.9-0.1
						c-0.3-0.2-0.7-0.5-0.9-1c-0.5-0.9-0.5-1.8,0-2.1l7.4-4.2l0.3-16.4C397.5,138.8,398.1,138.5,398.8,138.9z"/>
				</g>
				<g>
					<path class="st15" d="M398.6,153.5c1.7,1,3,3.4,2.9,5.3c0,1.9-1.4,2.7-3.1,1.7c-1.7-1-3-3.4-2.9-5.3
						C395.5,153.2,396.9,152.5,398.6,153.5z"/>
				</g>
				<g>
					<path class="st0" d="M398.5,156c0.5,0.3,0.8,0.9,0.8,1.5c0,0.5-0.4,0.7-0.8,0.5c-0.5-0.3-0.8-0.9-0.8-1.5
						C397.7,155.9,398.1,155.7,398.5,156z"/>
				</g>
			</g>
			<g>
				<g>
					<g>
						<g>
							<polygon class="st15" points="251.1,31.7 250.9,92.5 314.3,129.1 314.6,68.3 							"/>
						</g>
						<polygon class="st14" points="251.1,52.7 251.1,52.9 250.9,92.5 314.3,129.1 314.5,89.3 						"/>
						<g>
							<polygon class="st20" points="314.3,129.1 317.7,127.2 318,66.3 314.6,68.3 							"/>
						</g>
						<g>
							<polygon class="st16" points="314.6,68.3 318,66.3 254.5,29.7 251.1,31.7 							"/>
						</g>
						<polygon class="st11" points="314.5,89.3 314.4,126.5 314.3,129.1 317.7,127.2 317.9,86.9 						"/>
					</g>
					<g>
						<g>
							<g>
								<g class="st18">
									<g>
										<polygon class="st16" points="303.7,76.8 295.4,72 295.4,62.9 303.7,67.7 										"/>
									</g>
									<g>
										<polygon class="st16" points="303.7,76.8 295.4,71.9 295.4,67 295.4,62.9 298.4,64.6 303.7,67.7 303.7,69.1 303.7,72.9 
																					"/>
									</g>
									<g>
										<polygon class="st16" points="303.7,69.1 303.2,67.4 303.7,67.7 										"/>
									</g>
									<g>
										<polygon class="st19" points="303.5,67.6 295.4,72 295.4,62.9 										"/>
									</g>
								</g>
							</g>
							<polygon class="st20" points="303.5,67.6 295.4,72 295.4,62.9 							"/>
						</g>
						<g>
							<path class="st11" d="M301.3,68.5c0,0,0.1,0,0.1,0.1c0,0,0.1,0,0.1,0c0,0,0.1,0,0.1,0c0.1,0.1,0.2,0.1,0.3,0.1
								c0.1,0,0.2,0.1,0.2,0.1c0.1,0,0.2,0.1,0.3,0.1c0,0,0,0,0.1,0c0,0,0,0,0,0c0,0,0,0,0,0c0,0,0,0,0,0c0.1,0,0.3,0.1,0.4,0.1
								c0,0,0,0,0.1,0c0,0,0.1,0,0.1,0c0.1,0,0.2,0,0.4,0c0,0,0.1,0,0.1,0l0-1.4l-0.5-0.3c-0.1,0-0.1,0-0.2,0c-0.1,0-0.1,0-0.2,0
								c-0.2,0-0.4,0.1-0.6,0.1c-0.2,0-0.4,0-0.6,0c-0.1,0-0.1,0-0.2,0c-0.1,0-0.2,0-0.4,0c-0.1,0-0.1,0-0.2,0c-0.1,0-0.2,0-0.4,0
								c-0.1,0-0.1,0-0.2,0c-0.1,0-0.2,0-0.3-0.1L301.3,68.5z"/>
							<path class="st11" d="M294.8,62.5c0-0.1,0-0.3,0-0.4c0-0.1,0-0.1,0-0.2c0-0.1,0-0.2,0-0.3c0-0.1,0-0.2,0-0.2
								c0-0.1,0-0.2,0.1-0.3c0-0.1,0-0.2,0-0.2c0-0.1,0-0.2,0.1-0.3c0-0.1,0-0.2,0.1-0.2c0-0.1,0-0.2,0.1-0.3c0-0.1,0-0.2,0.1-0.2
								c0-0.1,0.1-0.2,0.1-0.3c0-0.1,0.1-0.2,0.1-0.2c0-0.1,0.1-0.2,0.1-0.3c0.1-0.3,0.2-0.5,0.3-0.8c0,0,0-0.1,0.1-0.1
								c0.1-0.2,0.2-0.5,0.4-0.7c0,0,0.1-0.1,0.1-0.1c0.1-0.2,0.2-0.3,0.3-0.5c0,0,0.1-0.1,0.1-0.1c0.1-0.2,0.2-0.4,0.4-0.6
								c0,0,0.1-0.1,0.1-0.1c0.1-0.1,0.2-0.3,0.3-0.4c0-0.1,0.1-0.1,0.1-0.2c0.1-0.1,0.2-0.3,0.3-0.4c0,0,0.1-0.1,0.1-0.1
								c0.1-0.2,0.3-0.3,0.4-0.5c0,0,0.1-0.1,0.1-0.1c0.1-0.1,0.2-0.2,0.4-0.4c0,0,0.1-0.1,0.1-0.1c0.2-0.2,0.3-0.3,0.5-0.4
								c0,0,0,0,0,0c0.2-0.1,0.3-0.3,0.5-0.4c0,0,0.1-0.1,0.1-0.1c0.2-0.2,0.5-0.3,0.7-0.4c0,0,0.1,0,0.1-0.1
								c0.2-0.1,0.5-0.3,0.8-0.4c0,0,0.1,0,0.1,0c0.2-0.1,0.4-0.2,0.6-0.2c0.1,0,0.1,0,0.2-0.1c0.2-0.1,0.4-0.2,0.7-0.2
								c0,0,0,0,0.1,0c0.2-0.1,0.4-0.1,0.6-0.2c0.1,0,0.1,0,0.2,0c0.2,0,0.5-0.1,0.7-0.1c0.2,0,0.4-0.1,0.7-0.1c0,0,0.1,0,0.1,0
								c0.2,0,0.4,0,0.6,0c0,0,0.1,0,0.1,0c0.2,0,0.4,0,0.6,0c0,0,0.1,0,0.1,0c0.2,0,0.4,0,0.6,0.1c0,0,0.1,0,0.1,0
								c0.2,0,0.4,0.1,0.6,0.1c0.3,0.1,0.5,0.1,0.7,0.2c0.1,0,0.1,0.1,0.2,0.1c0.2,0.1,0.3,0.1,0.5,0.2c0.1,0.1,0.3,0.1,0.4,0.2
								l-2.7-1.5c-0.1-0.1-0.2-0.1-0.3-0.2c0,0-0.1,0-0.1-0.1c-0.2-0.1-0.3-0.2-0.5-0.2c-0.1,0-0.1-0.1-0.2-0.1
								c-0.2-0.1-0.5-0.2-0.7-0.2c0,0,0,0,0,0c-0.2,0-0.4-0.1-0.6-0.1c0,0-0.1,0-0.1,0c-0.2,0-0.4-0.1-0.6-0.1c0,0-0.1,0-0.1,0
								c-0.2,0-0.4,0-0.6,0c0,0-0.1,0-0.1,0c-0.2,0-0.4,0-0.6,0c0,0-0.1,0-0.1,0c-0.2,0-0.4,0-0.7,0.1c-0.2,0-0.5,0.1-0.7,0.1
								c-0.1,0-0.1,0-0.2,0c-0.2,0-0.4,0.1-0.6,0.2c0,0,0,0-0.1,0c-0.2,0.1-0.4,0.1-0.7,0.2c-0.1,0-0.1,0-0.2,0.1
								c-0.2,0.1-0.4,0.2-0.6,0.2c0,0,0,0-0.1,0c0,0,0,0,0,0c-0.3,0.1-0.5,0.3-0.8,0.4c0,0-0.1,0-0.1,0.1c-0.2,0.1-0.5,0.3-0.7,0.4
								c0,0,0,0-0.1,0c0,0,0,0-0.1,0.1c-0.2,0.1-0.3,0.2-0.5,0.4c0,0,0,0,0,0c-0.2,0.1-0.4,0.3-0.5,0.4c0,0,0,0-0.1,0.1
								c0,0-0.1,0.1-0.1,0.1c-0.1,0.1-0.2,0.2-0.4,0.4c0,0-0.1,0.1-0.1,0.1c-0.2,0.2-0.3,0.3-0.4,0.5c0,0,0,0,0,0c0,0,0,0.1-0.1,0.1
								c-0.1,0.1-0.2,0.3-0.3,0.4c0,0.1-0.1,0.1-0.1,0.2c-0.1,0.1-0.2,0.3-0.3,0.4c0,0,0,0.1-0.1,0.1c0,0,0,0,0,0
								c-0.1,0.2-0.3,0.4-0.4,0.6c0,0-0.1,0.1-0.1,0.1c-0.1,0.2-0.2,0.3-0.3,0.5c0,0,0,0.1-0.1,0.1c0,0,0,0,0,0
								c-0.1,0.2-0.2,0.5-0.4,0.7c0,0,0,0.1-0.1,0.1c-0.1,0.3-0.2,0.5-0.3,0.8c0,0,0,0,0,0c0,0.1-0.1,0.2-0.1,0.2
								c0,0.1-0.1,0.2-0.1,0.2c0,0.1-0.1,0.2-0.1,0.3c0,0.1-0.1,0.2-0.1,0.2c0,0.1,0,0.2-0.1,0.3c0,0.1,0,0.2-0.1,0.2
								c0,0.1,0,0.2-0.1,0.3c0,0.1,0,0.2,0,0.2c0,0.1,0,0.2-0.1,0.3c0,0.1,0,0.2,0,0.2c0,0.1,0,0.2,0,0.3c0,0.1,0,0.1,0,0.2
								c0,0.1,0,0.2,0,0.4c0,0.1,0,0.1,0,0.2c0,0.2,0,0.4,0,0.6c0,3.9,1.9,7.1,4.7,8.6l2.7,1.5c-2.8-1.5-4.7-4.7-4.7-8.6
								c0-0.2,0-0.4,0-0.6C294.8,62.6,294.8,62.5,294.8,62.5z"/>
							<g>
								<path class="st14" d="M304.9,50.8c-2.8,0.4-5.3,2-7.2,4.2c-0.6,0.8-1.2,1.6-1.7,2.6c-0.9,1.7-1.4,3.7-1.4,5.6
									c0,1.4,0.2,2.6,0.6,3.8c1.3,3.6,4.5,5.9,8.3,5.9l0-3.7c-2.6-0.1-4.6-1.9-5.3-4.5c-0.2-0.6-0.2-1.2-0.2-1.9
									c0-1.2,0.3-2.4,0.8-3.5c0.4-0.9,1-1.8,1.7-2.5c1.2-1.2,2.6-2,4.2-2.2c3.7-0.5,6.8,2.3,6.7,6.3c0,0.7-0.1,1.4-0.3,2.1
									l2.9,1.7c0.5-1.3,0.8-2.8,0.8-4.3C315.1,54.3,310.6,50,304.9,50.8z"/>
							</g>
							<g>
								<path class="st14" d="M302.6,69C302.6,69,302.6,69,302.6,69C302.6,69,302.6,69,302.6,69C302.6,69,302.6,69,302.6,69z
									 M301.3,68.5c-0.5-0.2-0.9-0.6-1.2-0.9L301.3,68.5z"/>
							</g>
						</g>
					</g>
					<g>
						<g>
							<g>
								<g class="st18">
									<g>
										<polygon class="st16" points="264.5,53.8 256.1,49 256.1,39.9 264.4,44.8 										"/>
									</g>
									<g>
										<polygon class="st16" points="264.5,53.8 256.1,49 256.1,44 256.1,39.9 259.1,41.7 264.4,44.8 264.4,46.2 264.4,49.9 
																					"/>
									</g>
									<g>
										<polygon class="st16" points="264.4,46.2 264,44.5 264.4,44.8 										"/>
									</g>
									<g>
										<polygon class="st19" points="264.2,44.6 256.1,49 256.1,39.9 										"/>
									</g>
								</g>
							</g>
							<polygon class="st20" points="264.2,44.6 256.1,49 256.1,39.9 							"/>
						</g>
						<g>
							<path class="st11" d="M262,45.5c0,0,0.1,0,0.1,0.1c0,0,0.1,0,0.1,0c0,0,0.1,0,0.1,0c0.1,0.1,0.2,0.1,0.3,0.1
								c0.1,0,0.2,0.1,0.2,0.1c0.1,0,0.2,0.1,0.3,0.1c0,0,0,0,0.1,0c0,0,0,0,0,0c0,0,0,0,0,0c0,0,0,0,0,0c0.1,0,0.3,0.1,0.4,0.1
								c0,0,0,0,0.1,0c0,0,0.1,0,0.1,0c0.1,0,0.2,0,0.4,0c0,0,0.1,0,0.1,0l0-1.4l-0.5-0.3c-0.1,0-0.1,0-0.2,0c-0.1,0-0.1,0-0.2,0
								c-0.2,0-0.4,0.1-0.6,0.1c-0.2,0-0.4,0-0.6,0c-0.1,0-0.1,0-0.2,0c-0.1,0-0.2,0-0.4,0c-0.1,0-0.1,0-0.2,0c-0.1,0-0.2,0-0.4,0
								c-0.1,0-0.1,0-0.2,0c-0.1,0-0.2,0-0.3-0.1L262,45.5z"/>
							<path class="st11" d="M255.5,39.5c0-0.1,0-0.3,0-0.4c0-0.1,0-0.1,0-0.2c0-0.1,0-0.2,0-0.3c0-0.1,0-0.2,0-0.2
								c0-0.1,0-0.2,0.1-0.3c0-0.1,0-0.2,0-0.2c0-0.1,0-0.2,0.1-0.3c0-0.1,0-0.2,0.1-0.2c0-0.1,0-0.2,0.1-0.3c0-0.1,0-0.2,0.1-0.2
								c0-0.1,0.1-0.2,0.1-0.3c0-0.1,0.1-0.2,0.1-0.2c0-0.1,0.1-0.2,0.1-0.3c0.1-0.3,0.2-0.5,0.3-0.8c0,0,0-0.1,0.1-0.1
								c0.1-0.2,0.2-0.5,0.4-0.7c0,0,0.1-0.1,0.1-0.1c0.1-0.2,0.2-0.3,0.3-0.5c0,0,0.1-0.1,0.1-0.1c0.1-0.2,0.2-0.4,0.4-0.6
								c0,0,0.1-0.1,0.1-0.1c0.1-0.1,0.2-0.3,0.3-0.4c0-0.1,0.1-0.1,0.1-0.2c0.1-0.1,0.2-0.3,0.3-0.4c0,0,0.1-0.1,0.1-0.1
								c0.1-0.2,0.3-0.3,0.4-0.5c0,0,0.1-0.1,0.1-0.1c0.1-0.1,0.2-0.2,0.4-0.4c0,0,0.1-0.1,0.1-0.1c0.2-0.2,0.4-0.3,0.5-0.4
								c0,0,0,0,0,0c0.2-0.1,0.3-0.3,0.5-0.4c0,0,0.1-0.1,0.1-0.1c0.2-0.2,0.5-0.3,0.7-0.4c0,0,0.1,0,0.1-0.1
								c0.2-0.1,0.5-0.3,0.8-0.4c0,0,0.1,0,0.1,0c0.2-0.1,0.4-0.2,0.6-0.2c0.1,0,0.1,0,0.2-0.1c0.2-0.1,0.4-0.2,0.7-0.2
								c0,0,0,0,0.1,0c0.2-0.1,0.4-0.1,0.6-0.2c0.1,0,0.1,0,0.2,0c0.2,0,0.5-0.1,0.7-0.1c0.2,0,0.4-0.1,0.7-0.1c0,0,0.1,0,0.1,0
								c0.2,0,0.4,0,0.6,0c0,0,0.1,0,0.1,0c0.2,0,0.4,0,0.6,0c0,0,0.1,0,0.1,0c0.2,0,0.4,0,0.6,0.1c0,0,0.1,0,0.1,0
								c0.2,0,0.4,0.1,0.6,0.1c0.3,0.1,0.5,0.1,0.7,0.2c0.1,0,0.1,0.1,0.2,0.1c0.2,0.1,0.3,0.1,0.5,0.2c0.1,0.1,0.3,0.1,0.4,0.2
								l-2.7-1.5c-0.1-0.1-0.2-0.1-0.3-0.2c0,0-0.1,0-0.1-0.1c-0.2-0.1-0.3-0.2-0.5-0.2c-0.1,0-0.1-0.1-0.2-0.1
								c-0.2-0.1-0.5-0.2-0.7-0.2c0,0,0,0,0,0c-0.2,0-0.4-0.1-0.6-0.1c0,0-0.1,0-0.1,0c-0.2,0-0.4-0.1-0.6-0.1c0,0-0.1,0-0.1,0
								c-0.2,0-0.4,0-0.6,0c0,0-0.1,0-0.1,0c-0.2,0-0.4,0-0.6,0c0,0-0.1,0-0.1,0c-0.2,0-0.4,0-0.7,0.1c-0.2,0-0.5,0.1-0.7,0.1
								c-0.1,0-0.1,0-0.2,0c-0.2,0-0.4,0.1-0.6,0.2c0,0,0,0-0.1,0c-0.2,0.1-0.4,0.1-0.7,0.2c-0.1,0-0.1,0-0.2,0.1
								c-0.2,0.1-0.4,0.2-0.6,0.2c0,0,0,0-0.1,0c0,0,0,0,0,0c-0.3,0.1-0.5,0.3-0.8,0.4c0,0-0.1,0-0.1,0.1c-0.2,0.1-0.5,0.3-0.7,0.4
								c0,0,0,0-0.1,0c0,0,0,0-0.1,0.1c-0.2,0.1-0.3,0.2-0.5,0.4c0,0,0,0,0,0c-0.2,0.1-0.4,0.3-0.5,0.4c0,0,0,0-0.1,0.1
								c0,0-0.1,0.1-0.1,0.1c-0.1,0.1-0.2,0.2-0.4,0.4c0,0-0.1,0.1-0.1,0.1c-0.2,0.2-0.3,0.3-0.4,0.5c0,0,0,0,0,0c0,0,0,0.1-0.1,0.1
								c-0.1,0.1-0.2,0.3-0.3,0.4c0,0.1-0.1,0.1-0.1,0.2c-0.1,0.1-0.2,0.3-0.3,0.4c0,0,0,0.1-0.1,0.1c0,0,0,0,0,0
								c-0.1,0.2-0.3,0.4-0.4,0.6c0,0-0.1,0.1-0.1,0.1c-0.1,0.2-0.2,0.3-0.3,0.5c0,0,0,0.1-0.1,0.1c0,0,0,0,0,0
								c-0.1,0.2-0.2,0.5-0.4,0.7c0,0,0,0.1-0.1,0.1c-0.1,0.3-0.2,0.5-0.3,0.8c0,0,0,0,0,0c0,0.1-0.1,0.2-0.1,0.2
								c0,0.1-0.1,0.2-0.1,0.2c0,0.1-0.1,0.2-0.1,0.3c0,0.1-0.1,0.2-0.1,0.2c0,0.1,0,0.2-0.1,0.3c0,0.1,0,0.2-0.1,0.2
								c0,0.1,0,0.2-0.1,0.3c0,0.1,0,0.2,0,0.2c0,0.1,0,0.2-0.1,0.3c0,0.1,0,0.2,0,0.2c0,0.1,0,0.2,0,0.3c0,0.1,0,0.1,0,0.2
								c0,0.1,0,0.2,0,0.4c0,0.1,0,0.1,0,0.2c0,0.2,0,0.4,0,0.6c0,3.9,1.9,7.1,4.7,8.6l2.7,1.5c-2.8-1.5-4.7-4.7-4.7-8.6
								c0-0.2,0-0.4,0-0.6C255.5,39.7,255.5,39.6,255.5,39.5z"/>
							<g>
								<path class="st14" d="M265.7,27.9c-2.8,0.4-5.3,2-7.2,4.2c-0.6,0.8-1.2,1.6-1.7,2.6c-0.9,1.7-1.4,3.7-1.4,5.6
									c0,1.4,0.2,2.6,0.6,3.8c1.3,3.6,4.5,5.9,8.3,5.9l0-3.7c-2.6-0.1-4.6-1.9-5.3-4.5c-0.2-0.6-0.2-1.2-0.2-1.9
									c0-1.2,0.3-2.4,0.8-3.5c0.4-0.9,1-1.8,1.7-2.5c1.2-1.2,2.6-2,4.2-2.2c3.7-0.5,6.8,2.3,6.7,6.3c0,0.7-0.1,1.4-0.3,2.1
									l2.9,1.7c0.5-1.3,0.8-2.8,0.8-4.3C275.8,31.4,271.3,27.1,265.7,27.9z"/>
							</g>
							<g>
								<path class="st14" d="M263.3,46C263.3,46,263.3,46,263.3,46C263.3,46,263.3,46,263.3,46C263.3,46,263.3,46,263.3,46z
									 M262,45.5c-0.5-0.2-0.9-0.6-1.2-0.9L262,45.5z"/>
							</g>
						</g>
					</g>
				</g>
				<g>
					<polygon class="st15" points="293.2,80.3 295.5,84.4 272.6,97.1 267.3,87.9 271.3,85.7 274.3,90.9 					"/>
				</g>
			</g>
			<g>
				<g class="st18">
					<path class="st29" d="M432,266.7c0-0.1,0-0.1,0-0.2c0-0.1,0-0.1,0-0.2s0-0.1,0-0.2c0-0.1,0-0.1,0-0.2c0,0,0,0,0,0c0,0,0,0,0,0
						c0-0.1,0-0.1,0-0.2c0-0.1,0-0.1,0-0.2c0-0.1,0-0.1-0.1-0.2c0-0.1,0-0.1-0.1-0.2c0-0.1,0-0.1-0.1-0.2c0,0,0,0,0,0c0,0,0,0,0,0
						c0-0.1,0-0.1-0.1-0.2c0-0.1,0-0.1-0.1-0.2c0-0.1,0-0.1-0.1-0.2c0-0.1-0.1-0.1-0.1-0.2c0-0.1,0-0.1-0.1-0.2c0,0,0,0,0,0
						c0,0,0,0,0,0c0-0.1-0.1-0.1-0.1-0.2c0-0.1-0.1-0.1-0.1-0.2c0-0.1-0.1-0.2-0.1-0.2c0-0.1-0.1-0.2-0.1-0.3c0,0,0,0,0,0
						c0,0,0,0,0-0.1c-0.1-0.2-0.2-0.3-0.3-0.5c-0.1-0.1-0.2-0.2-0.3-0.4c0,0,0,0,0,0c0,0,0,0,0,0c-0.1-0.1-0.1-0.2-0.2-0.2
						c-0.1-0.1-0.1-0.1-0.2-0.2c-0.1-0.1-0.1-0.1-0.2-0.2c-0.1-0.1-0.1-0.1-0.2-0.2c0,0,0,0,0,0c0,0,0,0,0,0c0,0-0.1-0.1-0.1-0.1
						c-0.1-0.1-0.1-0.1-0.2-0.2c-0.1-0.1-0.1-0.1-0.2-0.2c-0.1-0.1-0.1-0.1-0.2-0.2c0,0-0.1,0-0.1-0.1c0,0,0,0,0,0c0,0,0,0-0.1-0.1
						c-0.1,0-0.1-0.1-0.2-0.1c-0.1,0-0.1-0.1-0.2-0.1c-0.1,0-0.1-0.1-0.2-0.1c-0.1,0-0.1-0.1-0.2-0.1c0,0,0,0,0,0l-22.1-12.7
						c-0.2-0.1-0.4-0.3-0.6-0.4c0,0,0,0,0,0c-0.2-0.2-0.4-0.3-0.6-0.5c0,0,0,0,0,0c-0.2-0.2-0.4-0.4-0.6-0.6c0,0,0,0,0,0
						c-0.2-0.2-0.3-0.4-0.5-0.7c0,0,0-0.1-0.1-0.1c-0.2-0.2-0.3-0.5-0.4-0.7c0,0,0,0,0-0.1c-0.1-0.2-0.3-0.5-0.4-0.8c0,0,0,0,0,0
						c-0.1-0.3-0.2-0.5-0.3-0.8c0,0,0,0,0,0c-0.1-0.3-0.2-0.6-0.2-0.8l-0.7-3.2c0,0,0-0.1,0-0.1c0-0.1,0-0.1-0.1-0.2
						c0-0.1,0-0.1-0.1-0.2c0-0.1,0-0.1-0.1-0.2c0,0,0,0,0-0.1c0,0,0,0,0,0c0,0,0-0.1,0-0.1c0-0.1,0-0.1-0.1-0.2
						c0-0.1-0.1-0.1-0.1-0.2c0-0.1-0.1-0.1-0.1-0.2c0,0,0-0.1,0-0.1c0,0,0,0,0,0c0,0,0-0.1,0-0.1c0-0.1-0.1-0.1-0.1-0.2
						c0-0.1-0.1-0.2-0.1-0.2c0-0.1-0.1-0.1-0.1-0.2c0,0,0,0,0-0.1c0,0,0,0,0-0.1c-0.1-0.2-0.2-0.4-0.3-0.5c0,0-0.1-0.1-0.1-0.1
						c0,0,0-0.1-0.1-0.1c0-0.1-0.1-0.1-0.1-0.2c-0.1-0.1-0.1-0.2-0.2-0.2c-0.1-0.1-0.1-0.1-0.2-0.2c0,0,0,0,0-0.1c0,0,0,0,0,0
						c0,0-0.1-0.1-0.1-0.1c-0.1-0.1-0.1-0.1-0.2-0.2c-0.1-0.1-0.1-0.1-0.2-0.2c-0.1-0.1-0.1-0.1-0.2-0.2c0,0,0,0,0,0c0,0,0,0,0,0
						c-0.1-0.1-0.1-0.1-0.2-0.2c-0.1-0.1-0.1-0.1-0.2-0.2c-0.1-0.1-0.1-0.1-0.2-0.1c0,0,0,0-0.1-0.1c0,0,0,0,0,0c0,0-0.1,0-0.1-0.1
						c-0.1,0-0.1-0.1-0.2-0.1c-0.1,0-0.1-0.1-0.2-0.1c-0.1,0-0.1-0.1-0.2-0.1c0,0,0,0,0,0l-20.4-11.8c0,0-0.1,0-0.1-0.1
						c-0.1,0-0.1-0.1-0.2-0.1c0,0-0.1,0-0.1-0.1c0,0,0,0,0,0c0,0,0,0,0,0c-0.1,0-0.1,0-0.2-0.1c-0.1,0-0.1,0-0.2-0.1c0,0,0,0,0,0
						c0,0,0,0,0,0c0,0-0.1,0-0.1,0c-0.1,0-0.1,0-0.2,0c0,0-0.1,0-0.1,0c0,0,0,0,0,0c0,0,0,0-0.1,0c-0.1,0-0.1,0-0.2,0
						c0,0-0.1,0-0.1,0c0,0,0,0,0,0c0,0,0,0,0,0c-0.1,0-0.1,0-0.2,0c0,0-0.1,0-0.1,0c0,0,0,0-0.1,0c0,0,0,0-0.1,0c-0.1,0-0.2,0-0.2,0
						c0,0,0,0,0,0c0,0,0,0-0.1,0c-0.1,0-0.2,0-0.2,0.1c0,0,0,0,0,0c-0.1,0-0.2,0.1-0.3,0.1l-5.9,3.4c0.1-0.1,0.2-0.1,0.3-0.1
						c0.1,0,0.2-0.1,0.2-0.1c0,0,0,0,0,0c0.1,0,0.2,0,0.3,0c0,0,0,0,0.1,0c0.1,0,0.2,0,0.3,0c0,0,0,0,0,0c0.1,0,0.2,0,0.3,0.1
						c0,0,0,0,0,0c0.1,0,0.2,0.1,0.4,0.1c0,0,0,0,0,0c0.1,0,0.3,0.1,0.4,0.2c0,0,0,0,0,0c0.1,0.1,0.3,0.1,0.4,0.2l20.4,11.8
						c0.2,0.1,0.4,0.3,0.6,0.4c0,0,0,0,0,0c0.2,0.2,0.4,0.3,0.6,0.5c0,0,0,0,0,0c0.2,0.2,0.4,0.4,0.6,0.6c0,0,0,0,0,0
						c0.2,0.2,0.3,0.4,0.5,0.6c0,0,0,0.1,0.1,0.1c0.2,0.2,0.3,0.5,0.4,0.7c0,0,0,0,0,0.1c0.1,0.2,0.3,0.5,0.4,0.8c0,0,0,0,0,0
						c0.1,0.3,0.2,0.5,0.3,0.8c0,0,0,0,0,0c0.1,0.3,0.2,0.6,0.2,0.8l0.7,3.2c0,0,0,0.1,0,0.1c0,0.1,0,0.1,0.1,0.2
						c0,0.1,0,0.1,0.1,0.2c0,0.1,0,0.1,0.1,0.2c0,0,0,0,0,0.1c0,0,0,0,0,0c0,0,0,0.1,0,0.1c0,0.1,0,0.1,0.1,0.2
						c0,0.1,0.1,0.1,0.1,0.2c0,0.1,0.1,0.1,0.1,0.2c0,0,0,0.1,0,0.1c0,0,0,0,0,0c0,0,0,0.1,0,0.1c0,0.1,0.1,0.1,0.1,0.2
						c0,0.1,0.1,0.2,0.1,0.2c0,0.1,0.1,0.1,0.1,0.2c0,0,0,0,0,0.1c0,0,0,0,0,0.1c0.1,0.2,0.2,0.4,0.3,0.5c0,0,0.1,0.1,0.1,0.1
						c0,0,0,0.1,0.1,0.1c0,0.1,0.1,0.1,0.1,0.2c0.1,0.1,0.1,0.2,0.2,0.2c0.1,0.1,0.1,0.1,0.2,0.2c0,0,0,0,0.1,0.1c0,0,0,0,0,0
						c0,0,0.1,0.1,0.1,0.1c0.1,0.1,0.1,0.1,0.2,0.2c0.1,0.1,0.1,0.1,0.2,0.2c0.1,0.1,0.1,0.1,0.2,0.2c0,0,0,0,0,0c0,0,0,0,0,0
						c0.1,0.1,0.1,0.1,0.2,0.2c0.1,0.1,0.1,0.1,0.2,0.2c0.1,0.1,0.1,0.1,0.2,0.1c0,0,0,0,0.1,0.1c0,0,0,0,0,0c0,0,0.1,0,0.1,0.1
						c0.1,0,0.1,0.1,0.2,0.1c0.1,0,0.1,0.1,0.2,0.1c0.1,0,0.1,0.1,0.2,0.1c0,0,0,0,0,0l22.1,12.7c0.3,0.2,0.6,0.4,0.8,0.6
						c0,0,0,0,0,0c0.3,0.2,0.5,0.4,0.8,0.7c0,0,0,0,0,0c0.5,0.5,0.9,1.1,1.3,1.7c0,0,0,0,0,0c0.2,0.3,0.3,0.6,0.5,1c0,0,0,0,0,0
						c0.1,0.3,0.3,0.7,0.4,1c0,0,0,0,0,0c0.1,0.3,0.2,0.7,0.2,1c0,0,0,0,0,0c0.1,0.3,0.1,0.7,0.1,1l-0.1,30.9c0,0.3,0,0.6-0.1,0.9
						c0,0,0,0,0,0c-0.1,0.3-0.1,0.5-0.2,0.7c0,0,0,0,0,0c-0.1,0.2-0.2,0.3-0.3,0.5c0,0-0.1,0.1-0.1,0.1c-0.1,0.1-0.3,0.3-0.4,0.4
						l0,0c0,0,0,0,0,0l5.9-3.4c0.2-0.1,0.3-0.2,0.4-0.4c0,0,0.1-0.1,0.1-0.1c0-0.1,0.1-0.1,0.1-0.2c0.1-0.1,0.1-0.2,0.2-0.3
						c0,0,0,0,0,0c0,0,0,0,0,0c0-0.1,0.1-0.1,0.1-0.2c0-0.1,0-0.1,0.1-0.2c0-0.1,0-0.1,0.1-0.2c0,0,0-0.1,0-0.1c0,0,0,0,0,0
						c0,0,0-0.1,0-0.1c0-0.1,0-0.1,0-0.2c0-0.1,0-0.1,0-0.2c0-0.1,0-0.1,0-0.2c0-0.1,0-0.1,0-0.2c0,0,0,0,0,0l0.1-30.9
						C432,266.8,432,266.8,432,266.7z"/>
					<g>
						<path class="st30" d="M391.4,236.1c1.8,1,3.4,3.3,3.9,5.6l0.7,3.2c0.5,2.3,2.1,4.5,3.9,5.6l22.1,12.7c2.3,1.3,4.1,4.5,4.1,7.1
							l-0.1,30.9c0,2.6-1.8,3.6-4.1,2.3L370.9,274c-2.3-1.3-4.1-4.5-4.1-7.1l0.1-40.3c0-2.6,1.8-3.6,4.1-2.3L391.4,236.1z"/>
					</g>
				</g>
			</g>
			<g>
				<g>
					<g class="st18">
						<path class="st29" d="M137.6,104.7c0-0.2,0-0.4-0.1-0.6c0-0.3,0-0.5-0.1-0.8c0-0.2-0.1-0.4-0.1-0.6c0-0.1,0-0.2,0-0.3
							c-0.1-0.4-0.1-0.9-0.2-1.3c0-0.1,0-0.2-0.1-0.3c-0.1-0.3-0.1-0.5-0.2-0.8c-0.1-0.2-0.1-0.5-0.2-0.7c0-0.1-0.1-0.3-0.1-0.4
							c-0.1-0.2-0.1-0.4-0.2-0.6c-0.1-0.2-0.1-0.4-0.2-0.5c-0.1-0.2-0.2-0.5-0.3-0.7c-0.1-0.2-0.1-0.3-0.2-0.5
							c0-0.1-0.1-0.2-0.1-0.3c-0.2-0.5-0.4-0.9-0.6-1.4c0,0,0,0,0-0.1c0-0.1-0.1-0.1-0.1-0.2c-0.2-0.4-0.3-0.7-0.5-1.1
							c-0.1-0.1-0.1-0.3-0.2-0.4c-0.1-0.2-0.2-0.3-0.2-0.5c-0.1-0.1-0.1-0.3-0.2-0.4c-0.2-0.3-0.4-0.6-0.5-1
							c-0.1-0.1-0.1-0.2-0.2-0.3c0,0,0-0.1,0-0.1c-0.3-0.4-0.5-0.9-0.8-1.3c0-0.1-0.1-0.1-0.1-0.2c-0.1-0.2-0.2-0.3-0.3-0.5
							c-0.2-0.2-0.3-0.5-0.5-0.7c-0.1-0.1-0.2-0.3-0.3-0.4c-0.1-0.2-0.3-0.4-0.4-0.6c-0.1-0.1-0.2-0.3-0.3-0.4
							c-0.1-0.2-0.3-0.3-0.4-0.5c-0.2-0.2-0.4-0.5-0.6-0.7c-0.1-0.1-0.2-0.2-0.3-0.3c-0.3-0.3-0.6-0.6-0.8-0.9c0,0,0,0,0,0
							c-0.3-0.3-0.6-0.6-0.8-0.9c-0.1-0.1-0.2-0.2-0.3-0.3c-0.2-0.2-0.4-0.3-0.5-0.5c-0.3-0.3-0.6-0.5-0.9-0.8
							c-0.2-0.1-0.4-0.3-0.5-0.4c-0.3-0.3-0.7-0.5-1-0.7c-0.2-0.1-0.3-0.2-0.5-0.3c-0.5-0.3-1-0.7-1.5-0.9c-0.3-0.2-0.7-0.4-1-0.5
							c-0.1,0-0.2-0.1-0.3-0.1c-0.2-0.1-0.5-0.2-0.7-0.3c-0.1,0-0.1-0.1-0.2-0.1c0,0-0.1,0-0.1,0c-0.2-0.1-0.5-0.2-0.7-0.3
							c-0.1,0-0.1,0-0.2-0.1c-0.3-0.1-0.6-0.2-0.8-0.3c0,0,0,0,0,0c-0.1,0-0.3-0.1-0.4-0.1c-0.1,0-0.2,0-0.2-0.1
							c-0.2-0.1-0.5-0.1-0.7-0.1c0,0,0,0,0,0c-0.4-0.1-0.7-0.1-1-0.1c0,0-0.1,0-0.1,0c0,0-0.1,0-0.1,0c-0.3,0-0.6,0-0.9,0
							c0,0,0,0,0,0c0,0-0.1,0-0.1,0c-0.2,0-0.5,0-0.7,0.1c0,0-0.1,0-0.1,0c0,0-0.1,0-0.1,0c-0.3,0-0.5,0.1-0.8,0.2c0,0,0,0,0,0
							c0,0,0,0,0,0c-0.2,0.1-0.5,0.2-0.7,0.2c0,0-0.1,0-0.1,0c0,0-0.1,0-0.1,0.1c-0.2,0.1-0.4,0.2-0.6,0.3c0,0-0.1,0-0.1,0
							c0,0-0.1,0-0.1,0L97.8,86c0.1,0,0.1-0.1,0.2-0.1c0.2-0.1,0.4-0.2,0.6-0.3c0.1,0,0.1-0.1,0.2-0.1c0.2-0.1,0.5-0.2,0.7-0.2
							c0,0,0,0,0,0c0.3-0.1,0.5-0.1,0.8-0.2c0.1,0,0.1,0,0.2,0c0.2,0,0.5-0.1,0.7-0.1c0.1,0,0.1,0,0.2,0c0.3,0,0.6,0,0.9,0
							c0.1,0,0.1,0,0.2,0c0.3,0,0.7,0.1,1,0.1c0.2,0,0.5,0.1,0.7,0.1c0.1,0,0.2,0,0.2,0.1c0.2,0,0.3,0.1,0.5,0.1
							c0.3,0.1,0.6,0.2,0.8,0.3c0.1,0,0.1,0,0.2,0.1c0.2,0.1,0.5,0.2,0.7,0.3c0.1,0,0.2,0.1,0.3,0.1c0.2,0.1,0.5,0.2,0.7,0.3
							c0.1,0,0.2,0.1,0.3,0.1c0.3,0.2,0.7,0.3,1,0.5c0.5,0.3,1,0.6,1.5,0.9c0.2,0.1,0.3,0.2,0.5,0.3c0.3,0.2,0.7,0.5,1,0.7
							c0.2,0.1,0.4,0.3,0.5,0.4c0.3,0.2,0.6,0.5,0.9,0.8c0.2,0.2,0.4,0.3,0.5,0.5c0.4,0.4,0.8,0.8,1.2,1.2c0,0,0,0,0,0
							c0.4,0.4,0.7,0.8,1.1,1.3c0.2,0.2,0.4,0.5,0.6,0.7c0.2,0.3,0.5,0.6,0.7,0.9c0.1,0.2,0.3,0.4,0.4,0.6c0.3,0.4,0.5,0.7,0.8,1.1
							c0.1,0.2,0.2,0.3,0.3,0.5c0.3,0.5,0.7,1.1,1,1.6c0.1,0.1,0.1,0.2,0.2,0.3c0.3,0.5,0.5,0.9,0.8,1.4c0.1,0.2,0.2,0.3,0.2,0.5
							c0.2,0.5,0.5,1,0.7,1.5c0,0.1,0.1,0.1,0.1,0.2c0.2,0.6,0.5,1.1,0.7,1.7c0.1,0.2,0.1,0.3,0.2,0.5c0.1,0.4,0.3,0.8,0.4,1.2
							c0.1,0.2,0.1,0.4,0.2,0.6c0.1,0.4,0.2,0.7,0.3,1.1c0.1,0.3,0.1,0.5,0.2,0.8c0.1,0.5,0.2,1.1,0.3,1.6c0,0.1,0,0.2,0,0.3
							c0.1,0.5,0.1,0.9,0.2,1.4c0,0.2,0,0.4,0.1,0.6c0,0.6,0.1,1.2,0.1,1.7c0,13-4.6,18.7-8.8,21.1l13.2-7.6
							c4.2-2.4,8.7-8.1,8.8-21.1C137.7,105.8,137.7,105.3,137.6,104.7z"/>
						<g>
							<path class="st30" d="M108.9,87.1c-8.6-5-15.7-1-15.7,8.9c-0.1,21,14.8,40,15.5,41c0.8,0,15.7,0.7,15.7-22.9
								C124.6,104.1,117.6,92,108.9,87.1z"/>
						</g>
					</g>
				</g>
				<g class="st18">
					<g>
						<path class="st0" d="M108.5,95.6c4.9,2.8,8.8,9.6,8.8,15.2c0,5.6-4,7.9-8.9,5c-4.9-2.8-8.8-9.6-8.8-15.2
							C99.7,95.1,103.6,92.8,108.5,95.6z"/>
					</g>
				</g>
				<path class="st29" d="M103.2,104.2c0-5.6,4-7.9,8.9-5.1c0.4,0.2,0.8,0.5,1.2,0.8c-1.4-1.8-3-3.3-4.7-4.3
					c-4.9-2.8-8.8-0.6-8.9,5.1c0,5.1,3.3,11.3,7.6,14.4C104.8,111.9,103.2,107.8,103.2,104.2z"/>
			</g>
		</g>
		<g>
			<g>
				<g>
					<polygon class="st31" points="223.9,376.6 223.9,377.4 230.1,354.1 230.1,353.3 					"/>
				</g>
				<g>
					<polygon class="st32" points="223.9,376.6 223.9,377.4 230.1,354.1 230.1,353.3 					"/>
				</g>
				<g>
					<polygon class="st33" points="223.9,376.6 223.9,377.4 260,374.7 260,370.8 					"/>
				</g>
				<g>
					<polygon class="st30" points="230.1,353.3 223.9,376.6 260,370.8 					"/>
				</g>
				<g>
					<polygon class="st29" points="183.8,380.7 223.9,376.6 230.1,353.3 					"/>
				</g>
				<g>
					<polygon class="st34" points="183.8,380.7 183.9,384.6 223.9,377.4 223.9,376.6 					"/>
				</g>
				<g>
					<polygon class="st35" points="183.8,380.7 183.9,384.6 223.9,377.4 223.9,376.7 					"/>
				</g>
				<g>
					<polygon class="st29" points="213.2,397.8 213.2,401.7 260,374.7 260,370.8 					"/>
				</g>
				<path class="st36" d="M223.9,376.6"/>
				<line class="st36" x1="260" y1="370.8" x2="223.9" y2="376.6"/>
				<polygon class="st37" points="223.9,376.7 213.2,397.8 260,370.8 				"/>
				<g>
					<polygon class="st30" points="183.8,380.7 213.2,397.8 223.9,376.7 					"/>
				</g>
				<g>
					<polygon class="st38" points="183.8,380.7 183.9,384.6 213.2,401.7 213.2,397.8 					"/>
				</g>
			</g>
			<g>
				<g>
					<path class="st39" d="M192.6,402c0.9,0.5,0.9,1.4,0,2l-23,13.4c-0.9,0.5-2.5,0.5-3.4,0L143.1,404c-0.9-0.5-1-1.4,0-2l23-13.4
						c0.9-0.5,2.5-0.5,3.4,0L192.6,402z"/>
				</g>
				<path class="st14" d="M193.3,403c0,0.1,0,0.2,0,0.2c0,0,0,0,0,0c0,0.1-0.1,0.2-0.1,0.2c0,0,0,0,0,0c-0.1,0.1-0.1,0.1-0.2,0.2
					c0,0-0.1,0.1-0.2,0.1c-0.1,0-0.1,0.1-0.1,0.1l-23,13.3c-0.2,0.1-0.5,0.2-0.7,0.3c0,0-0.1,0-0.1,0c-0.3,0.1-0.5,0.1-0.8,0.1
					c0,0,0,0,0,0c-0.3,0-0.6,0-0.9-0.1c0,0,0,0,0,0c-0.3-0.1-0.5-0.2-0.8-0.3L143.1,404c-0.5-0.3-0.7-0.6-0.7-1l0,6.3
					c0,0.4,0.2,0.7,0.7,1l23.1,13.3c0.1,0.1,0.2,0.1,0.3,0.2c0.1,0,0.2,0.1,0.3,0.1c0,0,0.1,0,0.1,0c0,0,0,0,0,0c0,0,0.1,0,0.1,0
					c0.1,0,0.2,0,0.2,0c0.1,0,0.2,0,0.2,0c0.1,0,0.2,0,0.2,0c0,0,0.1,0,0.1,0c0,0,0,0,0,0c0,0,0.1,0,0.1,0c0.1,0,0.2,0,0.3,0
					c0.1,0,0.2,0,0.3,0c0,0,0.1,0,0.1,0c0,0,0.1,0,0.1,0c0.1,0,0.1,0,0.2-0.1c0.2-0.1,0.4-0.1,0.5-0.2l23-13.3c0,0,0,0,0,0
					c0,0,0.1-0.1,0.1-0.1c0.1,0,0.1-0.1,0.2-0.1c0,0,0,0,0,0c0.1-0.1,0.1-0.1,0.1-0.2c0,0,0,0,0,0c0,0,0,0,0,0c0,0,0,0,0-0.1
					c0,0,0-0.1,0.1-0.1c0,0,0,0,0,0c0,0,0,0,0,0c0,0,0-0.1,0-0.1c0,0,0-0.1,0-0.1c0,0,0,0,0,0l0,0L193.3,403z"/>
			</g>
			<g>
				<g>
					<path class="st40" d="M222,320.7c0.9,0.5,0.9,1.4,0,2L199,336c-0.9,0.5-2.5,0.5-3.4,0l-23.1-13.3c-0.9-0.5-1-1.4,0-2l23-13.4
						c0.9-0.5,2.5-0.5,3.4,0L222,320.7z"/>
				</g>
				<path class="st41" d="M222.7,321.7c0,0.1,0,0.2,0,0.2c0,0,0,0,0,0c0,0.1-0.1,0.2-0.1,0.2c0,0,0,0,0,0c-0.1,0.1-0.1,0.1-0.2,0.2
					c0,0-0.1,0.1-0.2,0.1c-0.1,0-0.1,0.1-0.2,0.1L199,336c-0.2,0.1-0.5,0.2-0.7,0.3c0,0-0.1,0-0.1,0c-0.3,0.1-0.5,0.1-0.8,0.1
					c0,0,0,0,0,0c-0.3,0-0.6,0-0.9-0.1c0,0,0,0,0,0c-0.3-0.1-0.5-0.2-0.8-0.3l-23.1-13.3c-0.5-0.3-0.7-0.6-0.7-1l0,6.3
					c0,0.4,0.2,0.7,0.7,1l23.1,13.3c0.1,0.1,0.2,0.1,0.3,0.2c0.1,0,0.2,0.1,0.3,0.1c0,0,0.1,0,0.1,0c0,0,0,0,0,0c0,0,0.1,0,0.1,0
					c0.1,0,0.2,0,0.2,0c0.1,0,0.2,0,0.2,0c0.1,0,0.2,0,0.2,0c0,0,0.1,0,0.1,0c0,0,0,0,0,0c0,0,0.1,0,0.1,0c0.1,0,0.2,0,0.3,0
					c0.1,0,0.2,0,0.3,0c0,0,0.1,0,0.1,0c0,0,0.1,0,0.1,0c0.1,0,0.1,0,0.2-0.1c0.2-0.1,0.4-0.1,0.5-0.2l23-13.3c0,0,0,0,0,0
					c0,0,0.1-0.1,0.1-0.1c0.1,0,0.1-0.1,0.2-0.1c0,0,0,0,0,0c0.1-0.1,0.1-0.1,0.1-0.2c0,0,0,0,0,0c0,0,0,0,0,0c0,0,0,0,0-0.1
					c0,0,0-0.1,0.1-0.1c0,0,0,0,0,0c0,0,0,0,0,0c0,0,0-0.1,0-0.1c0,0,0-0.1,0-0.1c0,0,0,0,0,0l0,0L222.7,321.7z"/>
			</g>
			<g>
				<g>
					<path class="st25" d="M223.2,311.1c0.9,0.5,0.9,1.4,0,2l-23,13.4c-0.9,0.5-2.5,0.5-3.4,0l-23.1-13.3c-0.9-0.5-1-1.4,0-2
						l23-13.4c0.9-0.5,2.5-0.5,3.4,0L223.2,311.1z"/>
				</g>
				<path class="st24" d="M223.9,312.1c0,0.1,0,0.2,0,0.2c0,0,0,0,0,0c0,0.1-0.1,0.2-0.1,0.2c0,0,0,0,0,0c-0.1,0.1-0.1,0.1-0.2,0.2
					c0,0-0.1,0.1-0.2,0.1c0,0-0.1,0.1-0.1,0.1l-23,13.3c-0.2,0.1-0.5,0.2-0.7,0.3c0,0-0.1,0-0.1,0c-0.3,0.1-0.5,0.1-0.8,0.1
					c0,0,0,0,0,0c-0.3,0-0.6,0-0.9-0.1c0,0,0,0,0,0c-0.3-0.1-0.5-0.2-0.8-0.3L173.7,313c-0.5-0.3-0.7-0.6-0.7-1l0,6.3
					c0,0.4,0.2,0.7,0.7,1l23.1,13.3c0.1,0.1,0.2,0.1,0.3,0.2c0.1,0,0.2,0.1,0.3,0.1c0,0,0.1,0,0.1,0c0,0,0,0,0,0c0,0,0.1,0,0.1,0
					c0.1,0,0.2,0,0.2,0c0.1,0,0.2,0,0.2,0c0.1,0,0.2,0,0.2,0c0,0,0.1,0,0.1,0c0,0,0,0,0,0c0,0,0.1,0,0.1,0c0.1,0,0.2,0,0.3,0
					c0.1,0,0.2,0,0.3,0c0,0,0.1,0,0.1,0c0,0,0.1,0,0.1,0c0.1,0,0.1,0,0.2-0.1c0.2-0.1,0.4-0.1,0.5-0.2l23-13.3c0,0,0,0,0,0
					c0,0,0.1-0.1,0.1-0.1c0.1,0,0.1-0.1,0.2-0.1c0,0,0,0,0,0c0.1-0.1,0.1-0.1,0.1-0.2c0,0,0,0,0,0c0,0,0,0,0,0c0,0,0,0,0-0.1
					c0,0,0-0.1,0.1-0.1c0,0,0,0,0,0c0,0,0,0,0,0c0,0,0-0.1,0-0.1c0,0,0-0.1,0-0.1c0,0,0,0,0,0l0,0L223.9,312.1z"/>
			</g>
			<g>
				<g>
					<path class="st40" d="M165.6,347.5c0.9,0.5,0.9,1.4,0,2l-23,13.4c-0.9,0.5-2.5,0.5-3.4,0l-23.1-13.3c-0.9-0.5-1-1.4,0-2
						l23-13.4c0.9-0.5,2.5-0.5,3.4,0L165.6,347.5z"/>
				</g>
				<path class="st41" d="M166.3,348.5c0,0.1,0,0.2,0,0.2c0,0,0,0,0,0c0,0.1-0.1,0.2-0.1,0.2c0,0,0,0,0,0c-0.1,0.1-0.1,0.1-0.2,0.2
					c0,0-0.1,0.1-0.2,0.1c-0.1,0-0.1,0.1-0.1,0.1l-23,13.3c-0.2,0.1-0.5,0.2-0.7,0.3c0,0-0.1,0-0.1,0c-0.3,0.1-0.5,0.1-0.8,0.1
					c0,0,0,0,0,0c-0.3,0-0.6,0-0.9-0.1c0,0,0,0,0,0c-0.3-0.1-0.5-0.2-0.8-0.3l-23.1-13.3c-0.5-0.3-0.7-0.6-0.7-1l0,6.3
					c0,0.4,0.2,0.7,0.7,1l23.1,13.3c0.1,0.1,0.2,0.1,0.3,0.2c0.1,0,0.2,0.1,0.3,0.1c0,0,0.1,0,0.1,0c0,0,0,0,0,0c0,0,0.1,0,0.1,0
					c0.1,0,0.2,0,0.2,0c0.1,0,0.2,0,0.2,0c0.1,0,0.2,0,0.2,0c0,0,0.1,0,0.1,0c0,0,0,0,0,0c0,0,0.1,0,0.1,0c0.1,0,0.2,0,0.3,0
					c0.1,0,0.2,0,0.3,0c0,0,0.1,0,0.1,0c0,0,0.1,0,0.1,0c0.1,0,0.1,0,0.2-0.1c0.2-0.1,0.4-0.1,0.5-0.2l23-13.3c0,0,0,0,0,0
					c0,0,0.1-0.1,0.1-0.1c0.1,0,0.1-0.1,0.2-0.1c0,0,0,0,0,0c0.1-0.1,0.1-0.1,0.1-0.2c0,0,0,0,0,0c0,0,0,0,0,0c0,0,0,0,0-0.1
					c0,0,0-0.1,0.1-0.1c0,0,0,0,0,0c0,0,0,0,0,0c0,0,0-0.1,0-0.1c0,0,0-0.1,0-0.1c0,0,0,0,0,0l0,0L166.3,348.5z"/>
			</g>
			<g>
				<g>
					<path class="st39" d="M271.1,413.1c0.9,0.5,0.9,1.4,0,2l-23,13.4c-0.9,0.5-2.5,0.5-3.4,0l-23.1-13.3c-0.9-0.5-1-1.4,0-2
						l23-13.4c0.9-0.5,2.5-0.5,3.4,0L271.1,413.1z"/>
				</g>
				<path class="st14" d="M271.8,414.1c0,0.1,0,0.2,0,0.2c0,0,0,0,0,0c0,0.1-0.1,0.2-0.1,0.2c0,0,0,0,0,0c-0.1,0.1-0.1,0.1-0.2,0.2
					c0,0-0.1,0.1-0.2,0.1c-0.1,0-0.1,0.1-0.1,0.1l-23,13.3c-0.2,0.1-0.5,0.2-0.7,0.3c0,0-0.1,0-0.1,0c-0.3,0.1-0.5,0.1-0.8,0.1
					c0,0,0,0,0,0c-0.3,0-0.6,0-0.9-0.1c0,0,0,0,0,0c-0.3-0.1-0.5-0.2-0.8-0.3l-23.1-13.3c-0.5-0.3-0.7-0.6-0.7-1l0,6.3
					c0,0.4,0.2,0.7,0.7,1l23.1,13.3c0.1,0.1,0.2,0.1,0.3,0.2c0.1,0,0.2,0.1,0.3,0.1c0,0,0.1,0,0.1,0c0,0,0,0,0,0c0,0,0.1,0,0.1,0
					c0.1,0,0.2,0,0.2,0c0.1,0,0.2,0,0.2,0c0.1,0,0.2,0,0.2,0c0,0,0.1,0,0.1,0c0,0,0,0,0,0c0,0,0.1,0,0.1,0c0.1,0,0.2,0,0.3,0
					c0.1,0,0.2,0,0.3,0c0,0,0.1,0,0.1,0c0,0,0.1,0,0.1,0c0.1,0,0.1,0,0.2-0.1c0.2-0.1,0.4-0.1,0.5-0.2l23-13.3c0,0,0,0,0,0
					c0,0,0.1-0.1,0.1-0.1c0.1,0,0.1-0.1,0.2-0.1c0,0,0,0,0,0c0.1-0.1,0.1-0.1,0.1-0.2c0,0,0,0,0,0c0,0,0,0,0,0c0,0,0,0,0-0.1
					c0,0,0-0.1,0.1-0.1c0,0,0,0,0,0c0,0,0,0,0,0c0,0,0-0.1,0-0.1c0,0,0-0.1,0-0.1c0,0,0,0,0,0l0,0L271.8,414.1z"/>
			</g>
			<g>
				<g>
					<path class="st42" d="M159.9,399.5"/>
					<path class="st0" d="M161.3,400.2"/>
					<g>
						<g>
							<polygon class="st43" points="156.4,402 158.2,399.9 159.6,400.1 159.6,404.4 156.5,406.3 							"/>
						</g>
						<path class="st26" d="M161.5,394.8c0,1.3,0.7,3.2,1.4,4.3c0.7,1.2,2.3,5.1,3.7,5.3c0,0,1.8,2.2,1.6,3c-0.3,1.2-2.8,1-3.5,1.1
							c-1.2,0.1-3.1-0.7-3.2-0.7c-0.1-0.1-1.5-2-1.5-2s-2.2-6.2-4.9-8v-25.9h6.4L161.5,394.8z"/>
						<path class="st44" d="M166.3,405.8"/>
						<path class="st44" d="M167.9,405.4c0.9,1,1.6,2.3,1.3,3.7c-0.1,0.7-0.5,1.4-1.3,1.8c0,0-1.5,1.3-5.9-1.5
							c-1.9-1.2-2.1-2.2-2.1-2.3c-0.3-2.1-1.7-4.2-2.9-5.7l-0.6,0.5l0.1,4.3l-1.1-0.2c0.1-1.3-0.5-8.2-0.3-8.7
							c0.8,0.3,1.7,0.8,2.1,1.4c2.1,3.5,2.7,5.5,2.8,5.6c0.7,1.8,1.9,2.5,2.5,2.8c6.9,2.8,4.1-2.7,4.1-2.7
							C166.7,404.4,167.2,404.7,167.9,405.4z"/>
					</g>
				</g>
				<g>
					<path class="st42" d="M171.6,394.1"/>
					<path class="st0" d="M173,394.8"/>
					<g>
						<g>
							<polygon class="st43" points="168.1,396.6 169.9,394.5 171.3,394.7 171.3,399 168.2,400.9 							"/>
						</g>
						<path class="st26" d="M173.2,389.4c0,1.3,0.7,3.2,1.4,4.3c0.7,1.2,2.3,5.1,3.7,5.3c0,0,1.8,2.2,1.6,3c-0.3,1.2-2.8,1-3.5,1.1
							c-1.2,0.1-3.1-0.7-3.2-0.7c-0.1-0.1-1.5-2-1.5-2s-2.2-6.2-4.9-8v-25.9h6.4L173.2,389.4z"/>
						<path class="st44" d="M178,400.4"/>
						<path class="st44" d="M179.6,400c0.9,1,1.6,2.3,1.3,3.7c-0.1,0.7-0.5,1.4-1.3,1.8c0,0-1.5,1.3-5.9-1.5
							c-1.9-1.2-2.1-2.2-2.1-2.3c-0.3-2.1-1.7-4.2-2.9-5.7l-0.6,0.5l0.1,4.3l-1.1-0.2c0.1-1.3-0.5-8.2-0.3-8.7
							c0.8,0.3,1.7,0.8,2.1,1.4c2.1,3.5,2.7,5.5,2.8,5.6c0.7,1.8,1.9,2.5,2.5,2.8c6.9,2.8,4.1-2.7,4.1-2.7
							C178.4,399,178.9,399.3,179.6,400z"/>
					</g>
				</g>
				<path class="st27" d="M173.6,348.4l0-1.5h-21.5L152,348l-0.6,6.1l-4.4,18.7l10.5,3.8c2.9,1,6,0.8,8.8-0.5c5-2.4,12.7-6,13.1-6.2
					C179.9,369.5,173.8,349,173.6,348.4C173.6,348.4,173.6,348.4,173.6,348.4z"/>
				<path class="st26" d="M169.9,324c0,0,1.2,8.5,2.1,9.2c0.9,0.7,12.5,8.2,12.5,8.2s1.2,2,2.3,2.7c1.1,0.7,5.5,3.9,6.5,2.8
					s1.8-3.6,1.8-3.6l-3.9-3.2c0,0,1.6,0.3,1.9-0.1c0.3-0.3-1.2-2-2.4-2.2c-1.2-0.2-4.6-0.8-4.6-0.8l-9.2-7l-2.4-6.9L169.9,324z"/>
				<path class="st0" d="M177.2,329.6l-1.9-8.1c0,0-1.1-7.9-4.8-8.6c-6.6,2.6-1.4,19.3,1.7,21.7l11.8,7l3.4-4.6L177.2,329.6z"/>
				<path class="st27" d="M160.8,290c0,0-7.4,1-7.1,13.4c0.3,12.4-1,15.2-1,15.2l11.3-0.2L160.8,290z"/>
				<g>
					<path class="st21" d="M170.2,312.9l-11.7-0.5c0,0-5.4,1.9-8.1,3.5c3.5,1.4,4.3,8.5,4.3,8.5l-2.5,10.8l-1.7,17.3
						c0,0,9.1,6.7,22.5-5.8l0.1-15.1c0-1.4-0.1-2.7-0.3-4C172.1,323.2,170.4,312.9,170.2,312.9z"/>
				</g>
				<g>
					<path class="st45" d="M158.5,305.4v7c0,0,5,17.8,8.7,17.2c0,0,2.3-5.5-0.2-15.5v-3.9L158.5,305.4z"/>
					<path class="st45" d="M167.5,328.7c-0.2,0.6-0.3,0.9-0.3,0.9c-0.2,0-0.4,0-0.6-0.1C166.6,329.6,167,329.3,167.5,328.7z"/>
					<path class="st46" d="M167.2,329.6c-0.2,0-0.4,0-0.6-0.1C166.8,329.6,167,329.6,167.2,329.6z"/>
					<path class="st26" d="M165.7,295.6c-4,0-7.2,3.2-7.2,7.3l0,2.6c0,4.2,3.2,7.5,7.3,7.5c4,0,7.2-3.4,7.2-7.5l0-2.6
						c0,0-0.3-3.7,0-4.9C173.2,296.9,165.7,295.6,165.7,295.6z"/>
					<path class="st27" d="M158.3,302.5l2.5,3l0.4-4.3c0,0,4.6-2.3,6.6-4.8c0,0,1.7,2.1,5,3.2c0,0,1.4-9.5-8-10
						c-9.4-0.5-13.1,8.8-8.4,14.8L158.3,302.5z"/>
					<path class="st26" d="M156.4,304.4c0-1,0.8-1.9,1.9-1.9c1,0,1.9,0.8,1.9,1.9c0,1-0.8,1.9-1.9,1.9
						C157.3,306.3,156.4,305.4,156.4,304.4z"/>
					<path class="st0" d="M161,320.1c1.8,5.1,3.9,9.9,6.2,9.5c0,0,1.6-3.9,0.6-11.1L161,320.1z"/>
				</g>
				<path class="st27" d="M166.6,329.6c-5.3-0.7-8.6-5.5-8.6-5.5l1.1-1.8l-3.3,0.1l0.5-9.2c1.2-0.5,2.2-0.8,2.2-0.8
					S163,328.3,166.6,329.6z"/>
				<path class="st27" d="M167.5,328.7c0.9-1,2.1-3.2,2.2-7.3l-0.6-1.3l0.9-1.5l-2.1-5.7l-1,0v1.3
					C168.9,321.8,168,326.8,167.5,328.7z"/>
				<g>
					<g>
						<g>
							<g>
								<polygon class="st47" points="169.2,346.4 169.2,347.1 184.3,338.4 184.3,337.7 								"/>
							</g>
							<g>
								<polygon class="st48" points="168.7,346.2 168.7,346.9 169.2,347.1 169.2,346.4 								"/>
							</g>
						</g>
						<path class="st49" d="M184.3,337.7l-0.4-0.3l-15.2,8.8l0,0l-0.8,0.5c-0.6,0.3-0.6,0.9,0,1.2l10.2,5.9c0.6,0.3,1.5,0.3,2.1,0
							l17.2-9.9c0.6-0.3,0.6-0.9,0-1.2l-10.2-5.9c-0.6-0.3-1.5-0.3-2.1,0l-1.2,0.7L184.3,337.7"/>
						<path class="st50" d="M195.5,343.4l-5.7-3.3c-0.1,0-0.2-0.1-0.3-0.1c0,0-0.1,0-0.1,0c-0.1,0-0.1,0-0.2,0c0,0,0,0,0,0
							c0,0-0.1,0-0.1,0c0,0,0,0,0,0l-15.8,9.1c-0.2,0.1-0.2,0.3-0.1,0.4c0,0,0,0,0.1,0l5.7,3.3c0.1,0,0.2,0.1,0.3,0.1c0,0,0,0,0.1,0
							c0.1,0,0.2,0,0.3,0c0,0,0,0,0,0c0,0,0.1,0,0.1-0.1l15.8-9.1c0.1-0.1,0.2-0.1,0.2-0.2c0,0,0-0.1,0-0.1
							C195.6,343.5,195.6,343.5,195.5,343.4C195.5,343.4,195.5,343.4,195.5,343.4z"/>
						<path class="st50" d="M167.5,347.3C167.5,347.3,167.5,347.3,167.5,347.3C167.5,347.3,167.5,347.4,167.5,347.3
							c0,0.1,0,0.1,0,0.1c0,0,0,0,0,0c0,0,0,0,0,0c0,0,0,0,0,0c0,0,0,0,0,0.1c0,0,0,0,0,0c0,0,0,0,0.1,0.1c0,0,0,0,0,0c0,0,0,0,0,0
							c0,0,0,0,0,0c0,0,0,0,0.1,0c0,0,0,0,0.1,0l10.2,5.9c0,0,0.1,0,0.1,0.1c0,0,0,0,0,0c0,0,0.1,0,0.1,0c0,0,0,0,0,0c0,0,0,0,0.1,0
							c0,0,0,0,0.1,0c0,0,0.1,0,0.1,0c0,0,0,0,0.1,0c0.1,0,0.1,0,0.2,0c0,0,0,0,0.1,0c0,0,0.1,0,0.1,0c0,0,0,0,0.1,0
							c0,0,0.1,0,0.1,0c0,0,0,0,0.1,0c0,0,0,0,0.1,0c0,0,0,0,0.1,0c0,0,0,0,0.1,0c0,0,0,0,0.1,0c0,0,0.1,0,0.1,0c0,0,0,0,0.1,0
							c0,0,0.1,0,0.1,0c0,0,0,0,0.1,0c0.1,0,0.1,0,0.2-0.1c0,0,0,0,0,0c0.1,0,0.1-0.1,0.2-0.1l17.2-9.9c0.2-0.1,0.4-0.3,0.4-0.4
							c0-0.1,0-0.1,0-0.2l0,0.7c0,0.2-0.1,0.4-0.4,0.6l-17.2,9.9c-0.1,0-0.1,0.1-0.2,0.1c0,0,0,0,0,0c0,0,0,0,0,0
							c-0.1,0-0.1,0-0.2,0.1c0,0,0,0,0,0c0,0,0,0,0,0c0,0-0.1,0-0.1,0c0,0,0,0,0,0c0,0,0,0,0,0c0,0-0.1,0-0.1,0c0,0,0,0,0,0
							c0,0,0,0,0,0c0,0,0,0-0.1,0c0,0,0,0,0,0c0,0,0,0,0,0c0,0,0,0-0.1,0c0,0,0,0,0,0c0,0,0,0,0,0c0,0-0.1,0-0.1,0c0,0,0,0,0,0
							c0,0,0,0,0,0c0,0-0.1,0-0.1,0c0,0,0,0,0,0c0,0,0,0,0,0c-0.1,0-0.1,0-0.2,0c0,0,0,0,0,0c0,0,0,0,0,0c0,0-0.1,0-0.1,0
							c0,0,0,0-0.1,0c0,0-0.1,0-0.1,0c0,0,0,0,0,0c0,0,0,0,0,0c0,0-0.1,0-0.1,0c0,0,0,0,0,0c0,0-0.1,0-0.1-0.1l-10.2-5.9
							c0,0,0,0,0,0c0,0,0,0,0,0c0,0,0,0-0.1,0c0,0,0,0,0,0c0,0,0,0,0,0c0,0,0,0,0,0c0,0,0,0,0,0c0,0,0,0-0.1-0.1c0,0,0,0,0,0
							c0,0,0,0,0,0c0,0,0,0,0-0.1c0,0,0,0,0,0c0,0,0,0,0,0c0,0,0,0,0,0c0,0,0,0,0,0c0,0,0,0,0,0c0,0,0,0,0,0c0,0,0,0,0,0
							c0,0,0,0,0,0c0,0,0,0,0,0c0,0,0,0,0,0c0,0,0,0,0,0L167.5,347.3C167.5,347.3,167.5,347.3,167.5,347.3z"/>
					</g>
					<g>
						<path class="st51" d="M173.8,344.1c-0.2,0.1-0.2,0.3,0,0.4l2.9,1.7c0.2,0.1,0.5,0.1,0.6,0l6-3.5c0.2-0.1,0.2-0.3,0-0.4
							l-2.9-1.7c-0.2-0.1-0.5-0.1-0.6,0L173.8,344.1z"/>
					</g>
					<g>
						<path class="st50" d="M178.6,341.5C178.6,341.5,178.6,341.5,178.6,341.5C178.6,341.5,178.6,341.5,178.6,341.5
							c0-0.1,0-0.1,0-0.1c0,0,0,0,0,0c0,0,0,0,0,0c0,0,0,0,0-0.1c0,0,0,0,0,0c0,0,0,0,0,0c0,0,0,0,0,0c0,0,0,0,0,0c0,0,0,0,0,0
							c0,0,0,0,0,0c0,0,0,0,0,0c0,0,0-0.1,0-0.1c0,0,0,0,0,0c0,0,0,0,0,0c0,0,0,0,0-0.1c0,0,0,0,0,0c0,0,0,0,0,0c0,0,0,0,0,0
							c0,0,0,0,0-0.1c0,0,0,0,0,0c0,0,0,0,0,0c0,0,0-0.1,0.1-0.1c0,0,0,0,0,0c0,0,0,0,0,0c0,0,0,0,0,0c0,0,0,0,0,0c0,0,0,0,0,0
							c0,0,0,0,0,0c0,0,0,0,0,0c0,0,0,0,0,0c0,0,0,0,0,0c0,0,0,0,0,0c0,0,0,0,0.1-0.1c0,0,0,0,0,0c0,0,0,0,0,0c0,0,0.1-0.1,0.1-0.1
							c0,0,0,0,0,0c0.1,0,0.1-0.1,0.2-0.1l17.2-9.9c0,0,0.1,0,0.1-0.1c0,0,0,0,0,0c0,0,0,0,0,0c0,0,0,0,0.1,0c0,0,0,0,0,0
							c0,0,0,0,0,0c0,0,0,0,0,0c0,0,0,0,0,0c0,0,0,0,0,0c0,0,0,0,0,0c0,0,0,0,0,0c0,0,0,0,0,0c0,0,0,0,0,0c0,0,0,0,0,0
							c0,0,0,0,0.1,0c0,0,0,0,0,0c0,0,0,0,0,0c0,0,0,0,0,0c0,0,0,0,0,0c0,0,0,0,0,0c0,0,0,0,0,0c0,0,0,0,0.1,0c0,0,0,0,0,0l0.6,0.4
							c0,0,0,0,0,0l0,0c0,0,0,0-0.1,0c0,0,0,0,0,0c0,0,0,0-0.1,0c0,0,0,0,0,0c0,0,0,0-0.1,0c0,0,0,0,0,0c0,0,0,0-0.1,0c0,0,0,0,0,0
							c0,0,0,0-0.1,0c0,0,0,0,0,0c0,0,0,0,0,0c0,0,0,0-0.1,0c0,0,0,0,0,0c0,0-0.1,0-0.1,0.1l-17.2,9.9c-0.1,0-0.1,0.1-0.2,0.1
							c0,0,0,0,0,0c0,0-0.1,0.1-0.1,0.1c0,0,0,0,0,0c0,0,0,0-0.1,0.1c0,0,0,0,0,0c0,0,0,0,0,0c0,0,0,0,0,0.1c0,0,0,0,0,0
							c0,0,0,0-0.1,0.1c0,0,0,0,0,0c0,0,0,0.1-0.1,0.1c0,0,0,0,0,0c0,0,0,0.1-0.1,0.1c0,0,0,0,0,0c0,0,0,0.1,0,0.1c0,0,0,0,0,0
							c0,0,0,0.1,0,0.1c0,0,0,0,0,0c0,0,0,0.1,0,0.1c0,0,0,0,0,0c0,0,0,0,0,0.1c0,0,0,0,0,0.1c0,0,0,0,0,0.1c0,0,0,0.1,0,0.1
							c0,0,0,0,0,0c0,0.1,0,0.1,0,0.2l0,11.9c0,0.3,0.1,0.6,0.3,0.7l-0.6-0.4c-0.2-0.1-0.3-0.3-0.3-0.7l0-11.9
							C178.5,341.7,178.5,341.6,178.6,341.5z"/>
						<g>
							<path class="st52" d="M197.4,330.4c0.6-0.3,1-0.1,1,0.6l0,11.9c0,0.7-0.5,1.4-1,1.8l-17.2,9.9c-0.6,0.3-1,0.1-1-0.6l0-11.9
								c0-0.7,0.5-1.4,1-1.8L197.4,330.4z"/>
						</g>
					</g>
					<path class="st39" d="M189.5,340.6c1-0.6,1.7-0.1,1.8,1c0,1.1-0.8,2.5-1.7,3c-1,0.6-1.7,0.1-1.8-1
						C187.8,342.5,188.6,341.2,189.5,340.6z"/>
				</g>
				<g>
					<path class="st26" d="M149.2,333.6c0,0,2,8.3,3,8.9c1,0.6,13.3,6.9,13.3,6.9s1.4,1.8,2.5,2.4c1.2,0.6,5.9,3.3,6.8,2.1
						c0.9-1.2,1.4-3.8,1.4-3.8l-4.2-2.7c0,0,1.6,0.1,1.9-0.3c0.3-0.4-1.4-1.8-2.6-1.9c-1.2-0.1-4.6-0.4-4.6-0.4l-9.8-6l-2.1-7.9
						L149.2,333.6z"/>
					<path class="st0" d="M156.9,338l-2.1-13.4c0,0-0.7-8-4.4-8.6c-6.6,2.6-2.2,23.9,0.9,26.3l13.1,7.5l2.3-5.9L156.9,338z"/>
				</g>
			</g>
		</g>
		<g>
			<g class="st18">
				<g>
					<polygon class="st53" points="365.9,341.8 365.7,384.7 338.1,368.8 338.4,325.8 					"/>
				</g>
				<g>
					<polygon class="st29" points="365.9,341.8 392.2,326.5 391.9,369.4 365.7,384.7 					"/>
				</g>
				<g>
					<polygon class="st37" points="338.4,325.8 364.6,310.6 392.2,326.5 365.9,341.8 					"/>
				</g>
			</g>
			<g class="st18">
				<g>
					<polygon class="st23" points="339.7,309.5 339.5,399.9 311.9,384 312.1,293.6 					"/>
				</g>
				<g>
					<polygon class="st24" points="339.7,309.5 366,294.3 365.7,384.7 339.5,399.9 					"/>
				</g>
				<g>
					<polygon class="st25" points="312.1,293.6 338.4,278.4 366,294.3 339.7,309.5 					"/>
				</g>
			</g>
			<g class="st18">
				<g>
					<polygon class="st54" points="310.7,379.5 310.5,416.7 280.1,399.2 280.3,362 					"/>
				</g>
				<g>
					<polygon class="st41" points="310.7,379.5 339.7,362.7 339.4,399.9 310.5,416.7 					"/>
				</g>
				<g>
					<polygon class="st40" points="280.3,362 309.2,345.1 339.7,362.7 310.7,379.5 					"/>
				</g>
			</g>
			<g>
				<g>
					<path class="st21" d="M312.4,332.4c0,0-0.8,7.2-1,7.5c-0.2,0.3-10.7,5.9-13.5,2.1c0,0-0.9-1.4,0.7-3c1.6-1.6,5.1-2.9,5.7-5.1
						c0.6-2.2,0.7-3.3,0.7-3.3l4,1.3l3.6-0.6L312.4,332.4z"/>
					<g>
						<path class="st55" d="M306.3,337.2c0.1,0.1,0.2,0.3,0.2,0.4c0,0.1-0.1,0.2-0.3,0.1L304,336c-0.1-0.1-0.2-0.3-0.2-0.4
							c0-0.1,0.1-0.2,0.3-0.1L306.3,337.2z"/>
						<path class="st55" d="M305.4,338.1c0.1,0.1,0.2,0.3,0.2,0.4c0,0.1-0.1,0.2-0.3,0.1l-2.1-1.8c-0.1-0.1-0.2-0.3-0.2-0.4
							c0-0.1,0.1-0.2,0.3-0.1L305.4,338.1z"/>
						<path class="st55" d="M304.2,338.9c0.1,0.1,0.2,0.3,0.2,0.4s-0.1,0.2-0.3,0.1l-2.1-1.8c-0.1-0.1-0.2-0.3-0.2-0.4
							c0-0.1,0.1-0.2,0.3-0.1L304.2,338.9z"/>
						<path class="st55" d="M302.9,339.9c0.1,0.1,0.2,0.3,0.2,0.4c0,0.1-0.1,0.2-0.3,0.1l-2.1-1.8c-0.1-0.1-0.2-0.3-0.2-0.4
							c0-0.1,0.1-0.2,0.3-0.1L302.9,339.9z"/>
					</g>
				</g>
				<path class="st27" d="M341.5,288.3c0,0-0.5,9.4-10.2,11.6c-5.9,1.3-11.9,10-11.9,10l-6.1,22.7l-9.4-1l7.3-29.8l17.3-14.8
					L341.5,288.3z"/>
				<g>
					<path class="st21" d="M325.6,339.4c0,0,0.4,7.2,0.3,7.5c-0.1,0.3-9.6,7.6-12.9,4.4c0,0-1.1-1.2,0.2-3c1.3-1.8,4.5-3.7,4.7-6
						c0.2-2.3,0.1-3.4,0.1-3.4l4.1,0.6l3.4-1.2L325.6,339.4z"/>
					<g>
						<path class="st55" d="M320.3,345.2c0.1,0.1,0.2,0.3,0.2,0.4c0,0.2-0.1,0.2-0.2,0.1l-2.4-1.4c-0.1-0.1-0.2-0.3-0.2-0.4
							c0-0.2,0.1-0.2,0.2-0.1L320.3,345.2z"/>
						<path class="st55" d="M319.6,346.2c0.1,0.1,0.2,0.3,0.2,0.4c0,0.2-0.1,0.2-0.2,0.1l-2.4-1.4c-0.1-0.1-0.2-0.3-0.2-0.4
							c0-0.2,0.1-0.2,0.2-0.1L319.6,346.2z"/>
						<path class="st55" d="M318.6,347.3c0.1,0.1,0.2,0.3,0.2,0.4c0,0.2-0.1,0.2-0.2,0.1l-2.4-1.4c-0.1-0.1-0.2-0.3-0.2-0.4
							c0-0.2,0.1-0.2,0.2-0.1L318.6,347.3z"/>
						<path class="st55" d="M317.5,348.5c0.1,0.1,0.2,0.3,0.2,0.4c0,0.2-0.1,0.2-0.2,0.1l-2.4-1.4c-0.1-0.1-0.2-0.3-0.2-0.4
							c0-0.2,0.1-0.2,0.2-0.1L317.5,348.5z"/>
					</g>
				</g>
				<path class="st21" d="M346.7,291.1c0,0,1.1,9.4-8.1,13.1c-5.6,2.3-10.1,11.8-10.1,11.8l-2.2,23.4L317,340l2.2-30.6l14.5-17.5
					L346.7,291.1z"/>
				<g>
					<path class="st26" d="M329.7,268.4c0,0-2.4,12.4-3.4,12.6c-1,0.1-9.3,3-9.3,3s-1.8,1-3,1.1c-1.2,0.1-4.2,0.3-4.5-1
						c-0.3-1.3,0.2-3.7,0.2-3.7l3.8-0.4c0,0-1.4-0.5-1.5-0.9c-0.1-0.4,1.8-1,2.9-0.7c1,0.4,2.8,1.3,2.8,1.3l5.4-1.9l1.2-12.2
						L329.7,268.4z"/>
					<g>
						<path class="st40" d="M349,259.8c-1.2-1.5-8.2-4.2-8.2-4.2l-10.3,0.5c-0.7,0-1.4,0.2-2,0.5c-1,5.4-1.1,16-1.1,16V288
							c1.9,2.5,5.4,5.1,9.1,6c5.7,1.4,10.7-2.2,10.7-2.2l-0.9-16.8L349,259.8z"/>
						<path class="st40" d="M327.2,257.4c-4,3.6-5.2,12.1-5.2,12.1l5.4,3c0,0,0.1-10.6,1.1-16C328,256.7,327.6,257,327.2,257.4z"/>
					</g>
					<path class="st40" d="M350.8,261.7l5,8.5l-7.6,5.6c0,0-3.6-8.6-4.5-10.1c0,0-2-5,1-6.8C344.7,258.8,347.8,257.3,350.8,261.7z"
						/>
				</g>
				<g>
					<g>
						<g>
							<g>
								<polygon class="st47" points="340.9,287.3 340.9,288.1 324.2,278.5 324.2,277.7 								"/>
							</g>
							<g>
								<polygon class="st48" points="341.4,287.1 341.4,287.8 340.9,288.1 340.9,287.3 								"/>
							</g>
						</g>
						<path class="st49" d="M324.2,277.7l0.5-0.3l16.7,9.6l0,0l0.9,0.5c0.6,0.4,0.6,1,0,1.3l-11.2,6.5c-0.6,0.4-1.7,0.4-2.3,0
							l-18.8-10.9c-0.6-0.4-0.6-1,0-1.3l11.2-6.5c0.6-0.4,1.7-0.4,2.3,0l1.3,0.7L324.2,277.7"/>
						<path class="st50" d="M312,284l6.2-3.6c0.1-0.1,0.2-0.1,0.3-0.1c0,0,0.1,0,0.1,0c0.1,0,0.2,0,0.2,0c0,0,0,0,0.1,0
							c0,0,0.1,0,0.1,0c0,0,0,0,0,0l17.3,10c0.2,0.1,0.2,0.3,0.1,0.4c0,0,0,0-0.1,0.1l-6.2,3.6c-0.1,0.1-0.2,0.1-0.3,0.1
							c0,0,0,0-0.1,0c-0.1,0-0.2,0-0.3,0c0,0,0,0-0.1,0c-0.1,0-0.1,0-0.1-0.1l-17.3-10c-0.1-0.1-0.2-0.2-0.2-0.2c0,0,0-0.1,0-0.1
							c0,0,0,0,0,0C312,284,312,284,312,284z"/>
						<path class="st50" d="M342.8,288.3C342.8,288.3,342.8,288.3,342.8,288.3C342.7,288.3,342.7,288.4,342.8,288.3
							c0,0.1,0,0.1,0,0.1c0,0,0,0,0,0c0,0,0,0,0,0.1c0,0,0,0,0,0c0,0,0,0,0,0.1c0,0,0,0,0,0c0,0,0,0-0.1,0.1c0,0,0,0,0,0
							c0,0,0,0,0,0c0,0,0,0,0,0c0,0,0,0-0.1,0c0,0,0,0-0.1,0l-11.2,6.5c0,0-0.1,0.1-0.2,0.1c0,0,0,0,0,0c0,0-0.1,0-0.1,0
							c0,0,0,0,0,0c0,0-0.1,0-0.1,0c0,0,0,0-0.1,0c0,0-0.1,0-0.1,0c0,0,0,0-0.1,0c-0.1,0-0.1,0-0.2,0c0,0,0,0-0.1,0c0,0-0.1,0-0.1,0
							c0,0,0,0-0.1,0c0,0-0.1,0-0.1,0c0,0,0,0-0.1,0c0,0-0.1,0-0.1,0c0,0,0,0-0.1,0c0,0-0.1,0-0.1,0c0,0,0,0-0.1,0c0,0-0.1,0-0.1,0
							c0,0,0,0-0.1,0c0,0-0.1,0-0.1,0c0,0,0,0-0.1,0c-0.1,0-0.1,0-0.2-0.1c0,0,0,0,0,0c-0.1,0-0.2-0.1-0.2-0.1l-18.8-10.9
							c-0.2-0.1-0.4-0.3-0.4-0.5c0-0.1,0-0.1,0-0.2l0,0.8c0,0.2,0.2,0.5,0.5,0.7l18.8,10.9c0.1,0,0.1,0.1,0.2,0.1c0,0,0,0,0,0
							c0,0,0,0,0,0c0.1,0,0.1,0,0.2,0.1c0,0,0,0,0,0c0,0,0,0,0,0c0,0,0.1,0,0.1,0c0,0,0,0,0,0c0,0,0,0,0,0c0,0,0.1,0,0.1,0
							c0,0,0,0,0,0c0,0,0,0,0,0c0,0,0.1,0,0.1,0c0,0,0,0,0,0c0,0,0,0,0,0c0,0,0.1,0,0.1,0c0,0,0,0,0,0c0,0,0,0,0,0c0,0,0.1,0,0.1,0
							c0,0,0,0,0,0c0,0,0,0,0,0c0,0,0.1,0,0.1,0c0,0,0,0,0,0c0,0,0,0,0,0c0.1,0,0.1,0,0.2,0c0,0,0,0,0,0c0,0,0,0,0.1,0
							c0,0,0.1,0,0.1,0c0,0,0,0,0.1,0c0,0,0.1,0,0.1,0c0,0,0,0,0,0c0,0,0,0,0,0c0,0,0.1,0,0.1,0c0,0,0,0,0,0c0.1,0,0.1,0,0.2-0.1
							l11.2-6.5c0,0,0,0,0,0c0,0,0,0,0,0c0,0,0,0,0.1,0c0,0,0,0,0,0c0,0,0,0,0,0c0,0,0,0,0,0c0,0,0,0,0,0c0,0,0,0,0.1-0.1
							c0,0,0,0,0,0c0,0,0,0,0,0c0,0,0,0,0-0.1c0,0,0,0,0,0c0,0,0,0,0,0c0,0,0,0,0-0.1c0,0,0,0,0,0c0,0,0,0,0,0c0,0,0,0,0,0
							c0,0,0,0,0,0c0,0,0,0,0,0c0,0,0,0,0-0.1c0,0,0,0,0,0c0,0,0,0,0,0L342.8,288.3C342.8,288.2,342.8,288.3,342.8,288.3z"/>
					</g>
					<g>
						<path class="st51" d="M335.9,284.7c0.2,0.1,0.2,0.3,0,0.4l-3.2,1.9c-0.2,0.1-0.5,0.1-0.7,0l-6.6-3.8c-0.2-0.1-0.2-0.3,0-0.4
							l3.2-1.9c0.2-0.1,0.5-0.1,0.7,0L335.9,284.7z"/>
					</g>
					<g>
						<path class="st50" d="M330.6,282C330.6,282,330.6,281.9,330.6,282C330.6,281.9,330.6,281.9,330.6,282c0-0.1,0-0.1,0-0.1
							c0,0,0,0,0,0c0,0,0,0,0,0c0,0,0,0,0-0.1c0,0,0,0,0-0.1c0,0,0,0,0,0c0,0,0,0,0,0c0,0,0,0,0,0c0,0,0,0,0-0.1c0,0,0,0,0,0
							c0,0,0,0,0,0c0,0,0-0.1,0-0.1c0,0,0,0,0,0c0,0,0,0,0,0c0,0,0-0.1,0-0.1c0,0,0,0,0,0c0,0,0,0,0,0c0,0,0,0,0,0c0,0,0,0,0-0.1
							c0,0,0,0,0,0c0,0,0,0,0,0c0,0,0-0.1-0.1-0.1c0,0,0,0,0,0c0,0,0,0,0,0c0,0,0,0,0-0.1c0,0,0,0,0,0c0,0,0,0,0,0c0,0,0,0,0,0
							c0,0,0,0,0,0c0,0,0,0,0-0.1c0,0,0,0,0,0c0,0,0,0,0,0c0,0,0-0.1-0.1-0.1c0,0,0,0,0,0c0,0,0,0,0,0c-0.1,0-0.1-0.1-0.2-0.1
							c0,0,0,0,0,0c-0.1,0-0.1-0.1-0.2-0.1l-18.9-10.9c0,0-0.1-0.1-0.1-0.1c0,0,0,0,0,0c0,0,0,0,0,0c0,0-0.1,0-0.1,0c0,0,0,0,0,0
							c0,0,0,0,0,0c0,0,0,0,0,0c0,0,0,0,0,0c0,0,0,0,0,0c0,0,0,0,0,0c0,0,0,0,0,0c0,0,0,0-0.1,0c0,0,0,0,0,0c0,0,0,0,0,0
							c0,0,0,0-0.1,0c0,0,0,0,0,0c0,0,0,0,0,0c0,0,0,0,0,0c0,0,0,0,0,0c0,0,0,0,0,0c0,0,0,0,0,0c0,0,0,0-0.1,0c0,0,0,0,0,0l-0.7,0.4
							c0,0,0,0,0,0l0,0c0,0,0,0,0.1,0c0,0,0,0,0,0c0,0,0,0,0.1,0c0,0,0,0,0,0c0,0,0.1,0,0.1,0c0,0,0,0,0,0c0,0,0,0,0.1,0
							c0,0,0,0,0,0c0,0,0,0,0.1,0c0,0,0,0,0,0c0,0,0,0,0.1,0c0,0,0.1,0,0.1,0c0,0,0,0,0,0c0,0,0.1,0,0.1,0.1l18.9,10.9
							c0.1,0,0.1,0.1,0.2,0.1c0,0,0,0,0,0c0.1,0,0.1,0.1,0.2,0.1c0,0,0,0,0,0c0,0,0.1,0.1,0.1,0.1c0,0,0,0,0,0c0,0,0,0,0,0.1
							c0,0,0,0,0.1,0.1c0,0,0,0,0,0c0,0,0,0.1,0.1,0.1c0,0,0,0,0,0c0,0,0,0.1,0.1,0.1c0,0,0,0,0,0c0,0,0,0.1,0.1,0.1c0,0,0,0,0,0
							c0,0,0,0.1,0.1,0.1c0,0,0,0,0,0c0,0,0,0.1,0,0.1c0,0,0,0,0,0c0,0,0,0.1,0,0.1c0,0,0,0,0,0c0,0,0,0.1,0,0.1c0,0,0,0,0,0.1
							c0,0,0,0,0,0.1c0,0,0,0.1,0,0.1c0,0,0,0,0,0c0,0.1,0,0.1,0,0.2l0,13c0,0.4-0.1,0.6-0.3,0.7l0.7-0.4c0.2-0.1,0.3-0.4,0.3-0.7
							l0-13C330.6,282.1,330.6,282,330.6,282z"/>
						<g>
							<path class="st52" d="M328.8,280.6c0.6,0.4,1.1,1.2,1.1,1.9l0,13c0,0.7-0.5,1-1.1,0.6l-18.9-10.9c-0.6-0.4-1.1-1.2-1.1-1.9
								l0-13c0-0.7,0.5-1,1.1-0.6L328.8,280.6z"/>
						</g>
					</g>
					<path class="st39" d="M318.6,281c-1.1-0.6-1.9-0.1-1.9,1.1c0,1.2,0.9,2.7,1.9,3.3c1.1,0.6,1.9,0.1,1.9-1.1
						C320.5,283,319.6,281.6,318.6,281z"/>
				</g>
				<path class="st26" d="M354.4,271.2l-5.2,3.8l1.8,4.5c0,0-8.8,3.9-12,5.4c-1.1,0-3.6,0-4.5,0c-1.1,0.1-2.6,1.4-2.3,1.8
					c0.3,0.3,1.6,0.2,1.7,0.2l-3.7,2.5c0,0,0.5,2.3,1.3,3.4c0.8,1.1,5.1-1.4,6.1-1.9c1-0.5,3.5-2.1,3.5-2.2l0-0.1
					c4-1.7,15.3-6,15.8-6.8C357.1,281.3,355.8,273.8,354.4,271.2z"/>
				<g>
					<path class="st45" d="M340.8,249v6.6c0,0-2.8,6.4-6.3,5.8c0,0-2-0.9-1.7-4.2v-3.7L340.8,249z"/>
					<path class="st26" d="M334,239.8c3.8,0,6.8,3.1,6.8,6.8l0,2.4c0,3.9-3.1,7.1-6.8,7.1c-3.8,0-6.8-3.2-6.8-7.1l0-2.4
						c0,0,0.3-3.5,0-4.6C326.9,240.9,334,239.8,334,239.8z"/>
					<path class="st55" d="M326.3,242c2.1,1.9,12.1,0.9,12.1,0.9l-0.1,5.9l0.7-0.3l0.4-1.2l2.3,1.5c2.3-2.3,3.4-4.4,3.6-6.3
						c0.6-3.9-2.8-7.4-6.8-7.2c-3.8,0.2-10.3,1.2-10.6-4.7C327.9,230.7,320.5,237,326.3,242z"/>
					<path class="st26" d="M342.5,248c0-1-0.8-1.8-1.8-1.8c-1,0-1.8,0.8-1.8,1.8c0,1,0.8,1.8,1.8,1.8
						C341.7,249.8,342.5,249,342.5,248z"/>
				</g>
			</g>
		</g>
		<g>
			<path class="st25" d="M166.3,46.4l1.6,4.4c0.4,1,1.2,1.8,2.2,2.2l4.4,1.6c0.3,0.1,0.3,0.5,0,0.6l-4.4,1.6c-1,0.4-1.8,1.2-2.2,2.2
				l-1.6,4.4c-0.1,0.3-0.5,0.3-0.6,0l-1.6-4.4c-0.4-1-1.2-1.8-2.2-2.2l-4.4-1.6c-0.3-0.1-0.3-0.5,0-0.6L162,53
				c1-0.4,1.8-1.2,2.2-2.2l1.6-4.4C165.9,46.1,166.2,46.1,166.3,46.4z"/>
			<path class="st30" d="M82.7,146.8l1.2,3.3c0.3,0.8,0.9,1.3,1.6,1.6l3.3,1.2c0.2,0.1,0.2,0.4,0,0.4l-3.3,1.2
				c-0.8,0.3-1.3,0.9-1.6,1.6l-1.2,3.3c-0.1,0.2-0.4,0.2-0.4,0l-1.2-3.3c-0.3-0.8-0.9-1.3-1.6-1.6l-3.3-1.2c-0.2-0.1-0.2-0.4,0-0.4
				l3.3-1.2c0.8-0.3,1.3-0.9,1.6-1.6l1.2-3.3C82.4,146.6,82.6,146.6,82.7,146.8z"/>
			<path class="st30" d="M354.4,92.1l1.1,3.1c0.3,0.7,0.8,1.3,1.5,1.5l3.1,1.1c0.2,0.1,0.2,0.3,0,0.4l-3.1,1.1
				c-0.7,0.3-1.3,0.8-1.5,1.5l-1.1,3.1c-0.1,0.2-0.3,0.2-0.4,0l-1.1-3.1c-0.3-0.7-0.8-1.3-1.5-1.5l-3.1-1.1c-0.2-0.1-0.2-0.3,0-0.4
				l3.1-1.1c0.7-0.3,1.3-0.8,1.5-1.5l1.1-3.1C354.1,91.9,354.4,91.9,354.4,92.1z"/>
			<path class="st25" d="M427.4,225.7l1.6,4.4c0.4,1,1.2,1.8,2.2,2.2l4.4,1.6c0.3,0.1,0.3,0.5,0,0.6l-4.4,1.6
				c-1,0.4-1.8,1.2-2.2,2.2l-1.6,4.4c-0.1,0.3-0.5,0.3-0.6,0l-1.6-4.4c-0.4-1-1.2-1.8-2.2-2.2l-4.4-1.6c-0.3-0.1-0.3-0.5,0-0.6
				l4.4-1.6c1-0.4,1.8-1.2,2.2-2.2l1.6-4.4C426.9,225.5,427.3,225.5,427.4,225.7z"/>
			<path class="st25" d="M89.4,332l1.7,4.5c0.4,1,1.2,1.9,2.2,2.2l4.5,1.7c0.3,0.1,0.3,0.5,0,0.6l-4.5,1.7c-1,0.4-1.9,1.2-2.2,2.2
				l-1.7,4.5c-0.1,0.3-0.5,0.3-0.6,0l-1.7-4.5c-0.4-1-1.2-1.9-2.2-2.2l-4.5-1.7c-0.3-0.1-0.3-0.5,0-0.6l4.5-1.7
				c1-0.4,1.9-1.2,2.2-2.2l1.7-4.5C88.9,331.7,89.3,331.7,89.4,332z"/>
			<path class="st30" d="M423.2,358.9l1.2,3.2c0.3,0.7,0.9,1.3,1.6,1.6l3.2,1.2c0.2,0.1,0.2,0.4,0,0.4l-3.2,1.2
				c-0.7,0.3-1.3,0.9-1.6,1.6l-1.2,3.2c-0.1,0.2-0.4,0.2-0.4,0l-1.2-3.2c-0.3-0.7-0.9-1.3-1.6-1.6l-3.2-1.2c-0.2-0.1-0.2-0.4,0-0.4
				l3.2-1.2c0.7-0.3,1.3-0.9,1.6-1.6l1.2-3.2C422.9,358.7,423.1,358.7,423.2,358.9z"/>
			<path class="st25" d="M374.6,400.5c0-2-1.6-3.6-3.6-3.6s-3.6,1.6-3.6,3.6c0,2,1.6,3.6,3.6,3.6S374.6,402.5,374.6,400.5z"/>
			<path class="st25" d="M228.8,72.7c0-2-1.6-3.6-3.6-3.6c-2,0-3.6,1.6-3.6,3.6s1.6,3.6,3.6,3.6C227.2,76.4,228.8,74.7,228.8,72.7z"
				/>
			<circle class="st25" cx="60.9" cy="234.9" r="4.3"/>
			<path class="st15" d="M99.6,205.5c0-1.5-1.2-2.7-2.7-2.7s-2.7,1.2-2.7,2.7c0,1.5,1.2,2.7,2.7,2.7S99.6,207,99.6,205.5z"/>
			<path class="st15" d="M412.4,316.9c0,1.2-1,2.1-2.1,2.1c-1.2,0-2.1-1-2.1-2.1s1-2.1,2.1-2.1C411.4,314.8,412.4,315.7,412.4,316.9
				z"/>
			<path class="st15" d="M340.7,134.7c0,1.2-1,2.1-2.1,2.1s-2.1-1-2.1-2.1c0-1.2,1-2.1,2.1-2.1S340.7,133.5,340.7,134.7z"/>
		</g>
	</g>
</g>
<g id="DESIGNED_BY_FREEPIK">
</g>
</svg>
