<?xml version="1.0" encoding="utf-8"?>
<!-- Generator: Adobe Illustrator 22.0.0, SVG Export Plug-In . SVG Version: 6.00 Build 0)  -->
<svg version="1.1" xmlns="http://www.w3.org/2000/svg" xmlns:xlink="http://www.w3.org/1999/xlink" x="0px" y="0px"
	 viewBox="0 0 500 500" style="enable-background:new 0 0 500 500;" xml:space="preserve">
<style type="text/css">
	.st0{clip-path:url(#SVGID_2_);}
	.st1{fill:url(#SVGID_3_);}
	.st2{fill:url(#SVGID_4_);}
	.st3{fill:#41315C;}
	.st4{fill:#261D36;}
	.st5{opacity:0.41;}
	.st6{fill:#FFFFFF;}
	.st7{fill:url(#SVGID_5_);}
	.st8{enable-background:new    ;}
	.st9{fill:url(#SVGID_6_);}
	.st10{fill:#DC7744;}
	.st11{fill:#FF9B30;}
	.st12{opacity:0.4;}
	.st13{fill:#C56A3D;}
	.st14{fill:#894A2A;}
	.st15{fill:#E4E0DD;}
	.st16{fill:#3C2827;}
	.st17{fill:#4D4D4D;}
	.st18{fill:#6F559B;}
	.st19{fill:#6C5496;}
	.st20{opacity:0.23;fill:#AD6827;}
	.st21{fill:#BF7425;}
	.st22{fill:#BCB1B0;}
	.st23{fill:#EFEBEA;}
	.st24{fill:#333333;}
	.st25{fill:#A0AFD5;}
	.st26{fill:#E5F0FF;}
	.st27{fill:#C4CFDB;}
	.st28{fill:#848B94;}
	.st29{fill:#A9B2BD;}
	.st30{opacity:0.1;fill:#FFFFFF;}
	.st31{fill:#BBBAB9;}
	.st32{fill:#9EA6B0;}
	.st33{fill:url(#SVGID_7_);}
	.st34{fill:#DCE7F5;}
	.st35{opacity:0.1;}
	.st36{fill:#FFBA70;}
	.st37{fill:#F3E9E5;}
	.st38{fill:#3E3057;}
	.st39{fill:#473763;}
	.st40{opacity:0.2;fill:#FFFFFF;}
	.st41{opacity:0.41;fill:#FFFFFF;}
	.st42{opacity:0.5;}
	.st43{fill:url(#SVGID_8_);}
	.st44{fill:#5B3A89;}
	.st45{fill:#AD6827;}
	.st46{fill:#CAE1FC;}
	.st47{fill:#8E98A7;}
	.st48{fill:#1C2122;}
	.st49{fill:#9A8E91;}
	.st50{fill:#A86621;}
	.st51{fill:#EB8F2C;}
	.st52{fill:#FFAC52;}
</style>
<g id="BACKGROUND">
	<g>
		<defs>
			<rect id="SVGID_1_" width="500" height="500"/>
		</defs>
		<clipPath id="SVGID_2_">
			<use xlink:href="#SVGID_1_"  style="overflow:visible;"/>
		</clipPath>
		<g class="st0">
			<linearGradient id="SVGID_3_" gradientUnits="userSpaceOnUse" x1="-5.7548" y1="294.4419" x2="508.5" y2="294.4419">
				<stop  offset="7.142870e-02" style="stop-color:#41315C"/>
				<stop  offset="0.9233" style="stop-color:#2D2240"/>
			</linearGradient>
			<polygon class="st1" points="508.5,508.9 -4.8,509.6 -5.8,377.1 506.7,79.3 			"/>
		</g>
	</g>
</g>
<g id="OBJECTS">
	<g>
		<linearGradient id="SVGID_4_" gradientUnits="userSpaceOnUse" x1="424.1877" y1="62.3463" x2="424.1877" y2="174.0277">
			<stop  offset="0" style="stop-color:#FF9B30"/>
			<stop  offset="1" style="stop-color:#FF9B30;stop-opacity:0"/>
		</linearGradient>
		<polygon class="st2" points="467.6,177.8 380.8,177.8 407,100.8 442.9,100.8 		"/>
		<path class="st3" d="M446,92c-0.3-4.1-2.5-7.9-5.1-10.9c-2.9-3.3-7-6.2-11.2-7.3c-5.2-1.4-10.6-0.4-15.2,2.4
			c-3.5,2.2-6.6,5.1-8.7,8.7c-2.1,3.6-2.7,7.4-2.3,11.5c0.4,3.5,2.4,6.2,5.3,8.1c7.2,4.7,17.3,5.2,25.4,2.8c3.7-1.1,7.6-2.9,10-6.1
			C446,98.7,446.3,95.1,446,92z"/>
		<g>
			<path class="st4" d="M446,92c-0.3-4.1-2.5-7.9-5.1-10.9c-2.9-3.3-7-6.2-11.2-7.3c-1.2-0.3-2.5-0.5-3.7-0.6v35.4
				c2.8-0.1,5.6-0.6,8.2-1.3c3.7-1.1,7.6-2.9,10-6.1C446,98.7,446.3,95.1,446,92z"/>
		</g>
		<g class="st5">
			<path class="st6" d="M431.8,76.1c-1.6-1-3.6-1.5-5.7-1.7c-1-0.1-1.9-0.1-2.9,0c-2,0.2-3.9,0.7-5.5,1.6c-4,2.2-4.1,5.9-0.3,8.1
				c3.8,2.3,10.1,2.4,14.1,0.1C435.4,82,435.6,78.4,431.8,76.1z"/>
		</g>
		<g>
			<linearGradient id="SVGID_5_" gradientUnits="userSpaceOnUse" x1="424.1874" y1="24.2735" x2="424.1874" y2="6.7828">
				<stop  offset="8.201060e-02" style="stop-color:#261D36"/>
				<stop  offset="1" style="stop-color:#261D36;stop-opacity:0"/>
			</linearGradient>
			<path class="st7" d="M423.3,7.4v72.4c0,0.5,0.4,0.9,0.9,0.9s0.9-0.4,0.9-0.9V7.4H423.3z"/>
		</g>
	</g>
	<g>
		<g>
			<g class="st8">
				<g>
					<linearGradient id="SVGID_6_" gradientUnits="userSpaceOnUse" x1="97.9177" y1="141.8542" x2="124.0908" y2="204.7095">
						<stop  offset="0" style="stop-color:#C4CFDB"/>
						<stop  offset="0.9894" style="stop-color:#C4CFDB;stop-opacity:0"/>
					</linearGradient>
					<polygon class="st9" points="156.2,57.9 156.4,171.9 44.2,236.7 43.9,122.7 					"/>
				</g>
			</g>
		</g>
		<g>
			<g>
				<g>
					<g class="st8">
						<g>
							<polygon class="st10" points="159.4,59.1 159.6,133.1 47.4,197.9 47.2,123.9 							"/>
						</g>
					</g>
				</g>
				<g>
					<polygon class="st4" points="154.4,69.2 154.6,129 53.8,187.1 53.6,127.3 					"/>
				</g>
			</g>
			<g>
				<g>
					<polygon class="st6" points="84.1,120 84.2,157.3 62.9,169.6 62.8,132.3 					"/>
				</g>
				<g>
					<polygon class="st6" points="149.1,82.9 149.2,120.1 127.9,132.5 127.8,95.2 					"/>
				</g>
				<g>
					<polygon class="st11" points="112.1,104.6 112.2,126.7 96.5,135.7 96.5,113.6 					"/>
				</g>
			</g>
		</g>
	</g>
	<g>
		<g class="st12">
			<g class="st8">
				<g>
					<polygon class="st3" points="457.4,310.4 230.2,442.4 83.7,358.1 310.8,226.1 					"/>
				</g>
			</g>
		</g>
		<g>
			<g>
				<g>
					<g class="st8">
						<g>
							<polygon class="st13" points="248.3,350.8 248.1,437.2 241,441.3 241.3,354.9 							"/>
						</g>
						<g>
							<polygon class="st14" points="241.3,354.9 241,441.3 234.7,437.7 234.9,351.2 							"/>
						</g>
						<g>
							<polygon class="st10" points="248.3,350.8 241.3,354.9 234.9,351.2 242,347.1 							"/>
						</g>
					</g>
				</g>
				<g>
					<g class="st8">
						<g>
							<polygon class="st13" points="419.3,252 419,338.5 412,342.6 412.2,256.1 							"/>
						</g>
						<g>
							<polygon class="st14" points="412.2,256.1 412,342.6 405.7,338.9 405.9,252.5 							"/>
						</g>
						<g>
							<polygon class="st10" points="419.3,252 412.2,256.1 405.9,252.5 412.9,248.4 							"/>
						</g>
					</g>
				</g>
			</g>
			<g>
				<g>
					<g class="st8">
						<g>
							<polygon class="st13" points="143.7,289.4 143.4,375.8 136.4,379.9 136.6,293.4 							"/>
						</g>
						<g>
							<polygon class="st14" points="136.6,293.4 136.4,379.9 130,376.3 130.3,289.8 							"/>
						</g>
						<g>
							<polygon class="st10" points="143.7,289.4 136.6,293.4 130.3,289.8 137.3,285.7 							"/>
						</g>
					</g>
				</g>
				<g>
					<g class="st8">
						<g>
							<polygon class="st13" points="314.6,190.6 314.4,277.1 307.4,281.2 307.6,194.7 							"/>
						</g>
						<g>
							<polygon class="st14" points="307.6,194.7 307.4,281.2 301,277.5 301.3,191 							"/>
						</g>
						<g>
							<polygon class="st10" points="314.6,190.6 307.6,194.7 301.3,191 308.3,187 							"/>
						</g>
					</g>
				</g>
			</g>
			<g>
				<g class="st8">
					<g>
						<polygon class="st13" points="440.8,235.9 440.8,241.9 213.7,373.9 213.7,367.9 						"/>
					</g>
					<g>
						<polygon class="st14" points="213.7,367.9 213.7,373.9 83.6,298.8 83.6,292.8 						"/>
					</g>
					<g>
						<polygon class="st10" points="440.8,235.9 213.7,367.9 83.6,292.8 310.8,160.8 						"/>
					</g>
					<g>
						<polygon class="st10" points="440.5,236.6 213.4,368.6 83.3,293.6 310.5,161.6 						"/>
					</g>
				</g>
			</g>
		</g>
		<g>
			<path class="st15" d="M329.3,223.3L329.3,223.3L329.3,223.3C329.3,223.3,329.3,223.3,329.3,223.3L294.2,203l0,0
				c-0.1-0.1-0.3-0.1-0.5,0l-3.7-0.8c0,0,0,0,0,0c0,0-0.1,0.1-0.1,0.1c0,0,0,0,0,0l2.5,2.8c0,0.2,0.1,0.4,0.3,0.4l0,0l35.1,20.2l0,0
				c0.2,0.2,0.5,0.2,0.9,0c0.6-0.3,1.1-1.2,1.1-1.8C329.6,223.7,329.5,223.5,329.3,223.3z"/>
			<g>
				<path class="st16" d="M292.8,203.9l-4-0.8c0,0,0,0,0,0c0,0-0.1,0.1-0.1,0.1c0,0,0,0,0,0l2.8,3.1L292.8,203.9z"/>
				<path class="st17" d="M288.8,203.1C288.8,203.1,288.8,203.1,288.8,203.1l3.4,2l0.7-1.2L288.8,203.1
					C288.8,203.1,288.8,203.1,288.8,203.1z"/>
				<g>
					<path class="st18" d="M293.1,203.9L293.1,203.9c-0.2-0.1-0.5-0.1-0.8,0.1c-0.6,0.3-1.1,1.2-1.1,1.8c0,0.3,0.1,0.6,0.3,0.7l0,0
						l35.1,20.2l1.6-2.5L293.1,203.9z"/>
					<path class="st19" d="M327.4,225.4l0.8-1.3l-35.2-20.3l0,0c-0.2-0.1-0.5-0.1-0.8,0.1c-0.3,0.2-0.6,0.5-0.7,0.8L327.4,225.4z"/>
					<path class="st16" d="M327.5,224.3c0.6-0.3,1.1-0.1,1.1,0.6c0,0.7-0.5,1.5-1.1,1.8s-1.1,0.1-1.1-0.6S326.9,224.6,327.5,224.3z"
						/>
				</g>
			</g>
		</g>
		<g>
			<path class="st15" d="M323.7,228L323.7,228L323.7,228C323.7,228,323.7,228,323.7,228l-35.2-20.3l0,0c-0.1-0.1-0.3-0.1-0.5,0
				l-3.7-0.8c0,0,0,0,0,0c0,0-0.1,0.1-0.1,0.1c0,0,0,0,0,0l2.5,2.8c0,0.2,0.1,0.4,0.3,0.4l0,0l35.1,20.2l0,0c0.2,0.2,0.5,0.2,0.9,0
				c0.6-0.3,1.1-1.2,1.1-1.8C324,228.4,323.9,228.1,323.7,228z"/>
			<g>
				<path class="st16" d="M287,208.5l-4-0.8c0,0,0,0,0,0c0,0-0.1,0.1-0.1,0.1c0,0,0,0,0,0l2.8,3.1L287,208.5z"/>
				<path class="st17" d="M282.9,207.7C282.9,207.7,282.9,207.7,282.9,207.7l3.4,2l0.7-1.2L282.9,207.7
					C283,207.7,283,207.7,282.9,207.7z"/>
				<g>
					<path class="st11" d="M287.2,208.5L287.2,208.5c-0.2-0.1-0.5-0.1-0.8,0.1c-0.6,0.3-1.1,1.2-1.1,1.8c0,0.3,0.1,0.6,0.3,0.7l0,0
						l35.1,20.2l1.6-2.5L287.2,208.5z"/>
					<path class="st20" d="M321.6,230l0.8-1.3l-35.2-20.3l0,0c-0.2-0.1-0.5-0.1-0.8,0.1c-0.3,0.2-0.6,0.5-0.7,0.8L321.6,230z"/>
					<path class="st16" d="M321.6,228.9c0.6-0.3,1.1-0.1,1.1,0.6c0,0.7-0.5,1.5-1.1,1.8c-0.6,0.3-1.1,0.1-1.1-0.6
						C320.6,230,321.1,229.2,321.6,228.9z"/>
				</g>
			</g>
		</g>
		<g>
			<g>
				<g class="st8">
					<g>
						<path class="st4" d="M335.3,251.2c1.5,0.8,1.5,2.2,0,3l-94,54.6c-1.4,0.8-3.8,0.8-5.2,0l-48-27.7c-1.5-0.8-1.5-2.2,0-3
							l94-54.6c1.4-0.8,3.8-0.8,5.2,0L335.3,251.2z"/>
					</g>
				</g>
			</g>
			<g class="st8">
				<g>
					<path class="st3" d="M335,249.7c1.5,0.8,1.5,2.2,0,3l-94,54.6c-1.4,0.8-3.8,0.8-5.2,0l-48-27.7c-1.5-0.8-1.5-2.2,0-3l94-54.6
						c1.4-0.8,3.8-0.8,5.2,0L335,249.7z"/>
				</g>
			</g>
		</g>
		<g>
			<path class="st15" d="M221.7,290.5l3.6-2.1l-3.1-1.8v-1.5l-10.8-6.3c-1.5-0.9-3.9-0.9-5.4,0c-0.8,0.4-1.1,1-1.1,1.6h0v1.7
				c0,0,0,0,0,0.1v0h0c0,0.5,0.4,1.1,1.1,1.5l10.8,6.3l1.2-0.7l3.7,2.1l3.6-2.1v-0.9L221.7,290.5z"/>
			<g>
				<g>
					<path class="st21" d="M206,281.5l10.8,6.3l5.4-3.1v1.8l-5.4,3.1l-10.8-6.3c-0.7-0.4-1.1-1-1.1-1.5h0v0c0,0,0,0,0-0.1V280h0
						C204.9,280.6,205.3,281.1,206,281.5z"/>
					<path class="st11" d="M216.8,287.8l-10.8-6.3c-1.5-0.9-1.5-2.3,0-3.1c1.5-0.9,3.9-0.9,5.4,0l10.8,6.3L216.8,287.8z"/>
					<polygon class="st21" points="206,283.3 206,281.5 216.8,287.8 216.8,289.5 					"/>
					<g>
						<g>
							<polygon class="st22" points="221.7,291 221.7,290.1 225.3,288 225.3,288.9 							"/>
							<polygon class="st16" points="221.8,290.2 221.8,290.8 225.2,288.8 225.2,288.2 							"/>
						</g>
						<g>
							<polygon class="st23" points="221.3,285.7 217.6,287.8 221.7,290.1 225.3,288 							"/>
							<polygon class="st16" points="222,287.2 221.6,287.4 222.3,287.8 222.7,287.6 							"/>
							<polygon class="st16" points="220.3,288.2 220.6,288 221.3,288.4 221,288.6 							"/>
						</g>
						<polygon class="st15" points="221.7,290.1 217.6,287.8 217.6,288.7 221.7,291 						"/>
					</g>
				</g>
			</g>
		</g>
		<g>
			<g>
				<path class="st3" d="M314,240.9c-1.1-7.1-15.9-14.6-23.8-12.4c-1.2,0.3-2.3,1.1-3.1,1.6c-2.6,1.6-2.4,4.5,0.7,6.3l13.3,7.7
					c3.1,1.8,7.8,2,10.4,0.4l0.7-0.4C313.7,243.2,314.2,242,314,240.9z"/>
				<g>
					<path class="st24" d="M314.1,239.8c0,0.9-0.6,1.8-1.8,2.5l-0.7,0.4c-2.7,1.5-7.3,1.4-10.4-0.4l-13.3-7.7
						c-1.6-0.9-2.5-2.2-2.6-3.3h0l0,1.1c0,1.2,0.9,2.4,2.6,3.3l13.3,7.7c3.1,1.8,7.8,2,10.4,0.4l0.7-0.4c1.2-0.7,1.8-1.6,1.8-2.6
						L314.1,239.8L314.1,239.8z"/>
					<g>
						<path class="st25" d="M314.1,239.5c0,0.1,0.3,1.7-2.5,3.2l0,0c-2.7,1.5-7.4,1.4-10.4-0.4l-13.3-7.7c-1.5-0.9-2.4-2-2.5-3.1
							c0,1.2,0.9,2.4,2.5,3.3l13.3,7.7c3.1,1.8,7.8,2,10.4,0.4l0.7-0.4c1.2-0.7,1.8-1.6,1.8-2.6L314.1,239.5z"/>
					</g>
					<path class="st26" d="M314,239.2c-1.1-7.1-15.9-14.6-23.8-12.4c-1.2,0.3-2.3,1.1-3.1,1.6c-2.6,1.6-2.4,4.5,0.7,6.3l13.3,7.7
						c3.1,1.8,7.8,2,10.4,0.4l0.7-0.4C313.7,241.5,314.3,240.3,314,239.2z"/>
				</g>
			</g>
			<g>
				<path class="st27" d="M314,239.2c-1.1-7.1-15.9-14.6-23.8-12.4c-0.8,0.2-1.5,0.6-2.2,1c3.2,0.3,9.4,1.2,15.8,5.4
					c4.5,2.9,7.4,6.4,9,8.8C313.8,241.1,314.2,240.1,314,239.2z"/>
			</g>
		</g>
		<g>
			<path class="st28" d="M363.6,227.2c-2.4-1.4-6.3-1.4-8.6,0l-9.2,5.3c-2.4,1.4-2.4,3.6,0,5l27,15.6c2.4,1.4,6.3,1.4,8.6,0l9.2-5.3
				c2.4-1.4,2.4-3.6,0-5L363.6,227.2z"/>
			<path class="st29" d="M361.4,228.9c-2.4-1.4-6.3-1.4-8.6,0l-9.2,5.3c-2.4,1.4-2.4,3.6,0,5l27,15.6c2.4,1.4,6.3,1.4,8.6,0l9.2-5.3
				c2.4-1.4,2.4-3.6,0-5L361.4,228.9z"/>
			<path class="st6" d="M343.5,237.6l27,15.6c2.4,1.4,6.3,1.4,8.6,0l9.2-5.3c2.4-1.4,2.4-3.6,0-5l-0.7-0.4l-26.3-15.2
				c-2.4-1.4-6.3-1.4-8.6,0l-7.6,4.4l-1.6,0.9C341.2,234,341.2,236.2,343.5,237.6z"/>
			<polygon class="st4" points="361.4,228.3 386.9,243 370.8,252.2 345.4,237.5 			"/>
			<g>
				<g>
					<path class="st4" d="M349.1,232.9c0,0,0.1,0,0.1,0l3.5-2c0.1-0.1,0.2-0.2,0.1-0.3c-0.1-0.1-0.2-0.2-0.3-0.1l-3.5,2
						c-0.1,0.1-0.2,0.2-0.1,0.3C349,232.8,349,232.9,349.1,232.9z"/>
				</g>
				<path class="st4" d="M353.3,229.8c0,0.3,0.3,0.5,0.7,0.5c0.4,0,0.7-0.2,0.7-0.5c0-0.3-0.3-0.5-0.7-0.5
					C353.6,229.3,353.3,229.5,353.3,229.8z"/>
			</g>
			<g>
				<path class="st4" d="M380.6,248.6c0-0.6,0.7-1.2,1.5-1.2c0.8,0,1.5,0.5,1.5,1.2c0,0.6-0.7,1.2-1.5,1.2
					C381.3,249.8,380.6,249.2,380.6,248.6z M380.8,248.6c0,0.5,0.6,0.9,1.3,0.9c0.7,0,1.3-0.4,1.3-0.9c0-0.5-0.6-0.9-1.3-0.9
					C381.4,247.7,380.8,248.1,380.8,248.6z"/>
			</g>
			<path class="st30" d="M345.1,231.7l39.4,12.7l3.2-1.9l-26.3-15.2c-2.4-1.4-6.3-1.4-8.6,0L345.1,231.7z"/>
		</g>
		<g>
			<path class="st18" d="M358.6,173.4c-5.2-3-13.7-3-18.9,0c-5.2,3-5.2,7.9,0.1,10.9c5.2,3,13.7,3,18.9,0
				C363.8,181.3,363.8,176.4,358.6,173.4z"/>
			<g>
				<g>
					<path class="st28" d="M364.5,216.7c-0.5,0.3-1,0.7-1.6,0.9c-0.2,0.1-0.4,0.2-0.6,0.3c-1.2,0.5-2.5,1-3.9,1.3
						c-0.6,0.2-1.3,0.3-1.9,0.4c-1.7,0.3-3.5,0.4-5.4,0.4c-0.6,0-1.2,0-1.9-0.1c-0.1,0-0.2,0-0.4,0c-2.1-0.2-4.1-0.6-6-1.2
						c-0.5-0.2-1-0.3-1.4-0.5c-0.3-0.1-0.5-0.2-0.8-0.4c0,0-0.1,0-0.1,0c-0.1-0.1-0.2-0.1-0.4-0.2c-5-2.5-6-6.3-3-9.3
						c0.4-0.4,0.9-0.8,1.5-1.2c0.1,0,0.1-0.1,0.2-0.1c0.2-0.1,0.4-0.3,0.7-0.4c0.2-0.1,0.4-0.2,0.6-0.3c1.8-0.9,3.9-1.5,6.1-1.9
						c0.7-0.1,1.4-0.2,2.1-0.3c0.6-0.1,1.2-0.1,1.9-0.1c2.5-0.1,5.1,0.1,7.5,0.6c0.6,0.1,1.2,0.3,1.8,0.5c1.1,0.3,2.1,0.7,3.1,1.2
						c0.7,0.4,1.4,0.8,1.9,1.2c0.6,0.5,1.1,0.9,1.5,1.4C368.4,211.4,367.8,214.4,364.5,216.7z"/>
				</g>
				<path class="st6" d="M362.5,178.9c0,1.6,0,3.2,0,4.7c0,3.5-0.1,26-0.1,28.1c0,1.7-0.8,3.2-2.1,4.3c-2.4,2.2-5.8,3.1-8.9,3.5
					c-3.1,0.3-6.4,0-9.4-1.1c-2.6-1-5.7-2.8-6.2-5.8c-0.1-0.6,0-31.2,0-33.5c0-0.1,0-0.2,0-0.3c0,4.4,5.4,6.6,9,7.3
					c4.4,0.9,9.5,0.5,13.5-1.7C360.4,183.4,362.5,181.4,362.5,178.9z"/>
				<g>
					<path class="st11" d="M349.2,187.5c-3.6,0-7.2-0.8-9.9-2.4c-2.8-1.6-4.4-3.9-4.4-6.3c0-2.4,1.5-4.6,4.3-6.2
						c5.4-3.2,14.3-3.2,19.8,0c2.8,1.6,4.4,3.9,4.4,6.3c0,2.4-1.5,4.6-4.3,6.2C356.4,186.7,352.8,187.5,349.2,187.5z M349.1,172
						c-3.2,0-6.5,0.7-9,2.1c-2.2,1.3-3.4,2.9-3.4,4.6c0,1.7,1.2,3.4,3.5,4.7c5,2.9,13,2.9,17.9,0c2.2-1.3,3.4-2.9,3.4-4.6
						c0-1.7-1.2-3.4-3.5-4.7C355.6,172.8,352.4,172,349.1,172z"/>
				</g>
				<g>
					<g>
						<path class="st4" d="M341.5,184.2c-0.2-0.1-0.4-0.2-0.6-0.3l-1.4-9.6l-4.6-31.5l0.6,0.2l4.5,30.8L341.5,184.2z"/>
						<g>
							<polygon class="st4" points="335.5,143 334.9,142.8 339.9,138.9 340.5,139.2 							"/>
						</g>
					</g>
					<path class="st3" d="M347.2,185.7c-2.1-0.2-4-0.7-5.7-1.5l-1.5-10.3l-4.5-30.8l5-3.9l4.7,32.7L347.2,185.7z"/>
				</g>
				<g>
					<path class="st4" d="M363.9,159.9l-3.3,16.2l-1.4,7.1c-0.4,0.3-0.7,0.5-1.2,0.7c-0.1,0.1-0.3,0.2-0.4,0.2l1.9-9.3l3.1-15.2
						c0,0,0,0.1,0.1,0.1c0,0,0.1,0.1,0.2,0.1c0,0,0,0,0,0c0.1,0,0.1,0.1,0.2,0.1c0.1,0,0.2,0,0.3,0.1c0,0,0,0,0,0c0.1,0,0.2,0,0.3,0
						h0.2c0,0,0.1,0,0.1,0c0,0,0,0,0,0C363.8,159.9,363.8,159.9,363.9,159.9C363.9,159.9,363.9,159.9,363.9,159.9z"/>
					<g>
						<path class="st31" d="M363.8,159.8c0.2,0.1,0,0.2-0.4,0.2c-0.4,0-0.8-0.1-0.9-0.3c-0.2-0.1,0-0.2,0.4-0.2
							C363.3,159.5,363.7,159.6,363.8,159.8z"/>
					</g>
				</g>
				<g>
					<path class="st4" d="M356.3,162.2l-0.2,3.1l-0.5,7.1l-1,12.6c-0.5,0.1-1,0.2-1.5,0.3l1-13.4l0.8-10c0,0,0,0.1,0.1,0.1
						c0,0,0.1,0,0.1,0.1c0,0,0,0,0.1,0c0,0,0,0,0,0c0,0,0,0,0,0c0,0,0,0,0,0c0,0,0,0,0,0c0,0,0,0,0,0c0,0,0,0,0,0h0c0,0,0,0,0,0
						c0,0,0,0,0,0h0c0,0,0,0,0,0h0c0,0,0,0,0,0h0.3c0,0,0.1,0,0.1,0c0,0,0,0,0.1,0c0,0,0,0,0,0c0,0,0,0,0,0c0,0,0,0,0,0
						C356.2,162.3,356.2,162.3,356.3,162.2C356.3,162.3,356.3,162.3,356.3,162.2C356.3,162.3,356.3,162.3,356.3,162.2
						C356.3,162.3,356.3,162.3,356.3,162.2C356.3,162.2,356.3,162.2,356.3,162.2L356.3,162.2C356.3,162.2,356.3,162.2,356.3,162.2
						C356.3,162.2,356.3,162.2,356.3,162.2z"/>
					<g>
						<path class="st31" d="M356.3,162.1c0.2,0.1,0,0.2-0.3,0.2c-0.4,0-0.8-0.1-1-0.2c-0.2-0.1,0-0.2,0.3-0.2
							C355.7,161.9,356.1,162,356.3,162.1z"/>
					</g>
				</g>
				<g>
					<path class="st11" d="M349,185.8c-0.5,0-1,0-1.4-0.1l-0.6-14.1l-0.7-14.6c0,0,0,0.1,0.1,0.1c0,0,0.1,0,0.1,0c0,0,0,0,0.1,0
						c0,0,0,0,0,0c0,0,0,0,0,0h0c0,0,0,0,0,0h0.1c0,0,0,0,0,0h0.2c0,0,0,0,0,0h0.1c0,0,0,0,0.1,0c0.1,0,0.1,0,0.2,0c0,0,0.1,0,0.1,0
						c0,0,0,0,0.1,0c0,0,0,0,0,0c0,0,0,0,0,0c0,0,0,0,0,0c0,0,0,0,0,0c0,0,0,0,0,0c0,0,0,0,0,0c0,0,0,0,0,0l0,0c0,0,0,0,0,0
						c0,0,0,0,0,0c0,0,0,0,0,0l0.7,14.5L349,185.8z"/>
					<g>
						<path class="st31" d="M347.6,156.9c0.2,0.1,0,0.2-0.3,0.3c-0.4,0.1-0.8,0-1,0c-0.2-0.1,0-0.2,0.3-0.3
							C347,156.8,347.4,156.8,347.6,156.9z"/>
					</g>
				</g>
				<g>
					<path class="st4" d="M342.6,184.7c-0.4-0.1-0.7-0.3-1.1-0.5c-0.2-0.1-0.4-0.2-0.6-0.3c0,0,0,0-0.1,0l-2.6-8.4l-3-9.7
						c0,0,0,0,0.1,0.1c0,0,0.1,0,0.1,0h0.1c0.1,0,0.2,0,0.2,0c0.1,0,0.2,0,0.3-0.1c0.1,0,0.2-0.1,0.3-0.1c0.1,0,0.1-0.1,0.1-0.1
						c0,0,0,0,0,0c0,0,0.1,0,0.1-0.1c0,0,0,0,0,0c0,0,0,0,0.1-0.1c0,0,0,0,0,0l2.8,9L342.6,184.7z"/>
					<g>
						<path class="st31" d="M336.5,165.3c0.2,0,0.1,0.2-0.2,0.4c-0.3,0.2-0.7,0.2-0.9,0.2c-0.2,0-0.1-0.2,0.2-0.4
							C335.8,165.3,336.3,165.2,336.5,165.3z"/>
					</g>
				</g>
				<g>
					<path class="st26" d="M358.3,184.5c-1.2,0.6-2.4,1.1-3.7,1.4v33c2.1-0.5,4.1-1.5,5.7-2.9c1.3-1.1,2.1-2.6,2.1-4.3
						c0-2.1,0.1-24.6,0.1-28.1c0-1.6,0-3.2,0-4.7C362.5,181.4,360.4,183.4,358.3,184.5z"/>
				</g>
			</g>
		</g>
		<g>
			<g>
				<g class="st8">
					<path class="st4" d="M153.7,281.5L127,297.1c-1.1,0.6-2.9,0.6-4,0l-6-3.5c-0.6-0.3-0.8-0.7-0.8-1.2l0,1.7
						c0,0.4,0.3,0.8,0.8,1.2l6,3.5c1.1,0.6,2.9,0.6,4,0l26.7-15.5c0.5-0.3,0.8-0.7,0.8-1.1l0-1.7
						C154.5,280.8,154.3,281.2,153.7,281.5z"/>
					<g>
						<path class="st3" d="M153.7,279.3c1.1,0.6,1.1,1.7,0,2.3L127,297.1c-1.1,0.6-2.9,0.6-4,0l-6-3.5c-1.1-0.6-1.1-1.7,0-2.3
							l26.7-15.5c1.1-0.6,2.9-0.6,4,0L153.7,279.3z"/>
					</g>
				</g>
			</g>
			<path class="st4" d="M149.5,266.3h-2.2v-24.9c0-0.6,0.5-1.1,1.1-1.1l0,0c0.6,0,1.1,0.5,1.1,1.1V266.3z"/>
			<g>
				<g class="st8">
					<path class="st27" d="M143.7,253.4c-0.6-0.4-1.5-0.3-2.4,0.2l-21,12.2c-1.9,1.1-3.4,3.7-3.4,5.9l0,15.7c0,1.1,0.4,1.8,1,2.2
						l5.8,3.4c-0.6-0.4-1-1.1-1-2.2l0-15.7c0-2.2,1.5-4.8,3.4-5.9l21-12.2c1-0.5,1.8-0.6,2.4-0.2L143.7,253.4z"/>
					<g>
						<path class="st6" d="M147.1,257c1.9-1.1,3.4-0.2,3.4,2l0,15.7c0,2.2-1.5,4.8-3.4,5.9l-21,12.2c-1.9,1.1-3.4,0.2-3.4-2l0-15.7
							c0-2.2,1.5-4.8,3.4-5.9L147.1,257z"/>
					</g>
				</g>
			</g>
			<g>
				<g>
					<path class="st11" d="M126.7,272c0.5-0.3,0.9-0.1,0.9,0.5c0,0.6-0.4,1.3-0.9,1.6c-0.5,0.3-0.9,0.1-0.9-0.5
						C125.8,273,126.2,272.3,126.7,272z"/>
					<path class="st11" d="M129.2,270.5c0.5-0.3,0.9-0.1,0.9,0.5c0,0.6-0.4,1.3-0.9,1.6c-0.5,0.3-0.9,0.1-0.9-0.5
						C128.3,271.5,128.7,270.8,129.2,270.5z"/>
					<path class="st11" d="M131.6,269c0.5-0.3,0.9-0.1,0.9,0.5c0,0.6-0.4,1.3-0.9,1.6c-0.5,0.3-0.9,0.1-0.9-0.5
						C130.7,270,131.1,269.3,131.6,269z"/>
					<path class="st18" d="M134.1,267.5c0.5-0.3,0.9-0.1,0.9,0.5c0,0.6-0.4,1.3-0.9,1.6c-0.5,0.3-0.9,0.1-0.9-0.5
						C133.1,268.5,133.6,267.8,134.1,267.5z"/>
					<path class="st18" d="M136.5,266c0.5-0.3,0.9-0.1,0.9,0.5c0,0.6-0.4,1.3-0.9,1.6c-0.5,0.3-0.9,0.1-0.9-0.5
						C135.6,267,136,266.3,136.5,266z"/>
					<path class="st18" d="M138.9,264.5c0.5-0.3,0.9-0.1,0.9,0.5c0,0.6-0.4,1.3-0.9,1.6c-0.5,0.3-0.9,0.1-0.9-0.5
						C138,265.5,138.4,264.8,138.9,264.5z"/>
					<path class="st18" d="M141.4,263c0.5-0.3,0.9-0.1,0.9,0.5c0,0.6-0.4,1.3-0.9,1.6c-0.5,0.3-0.9,0.1-0.9-0.5
						C140.5,264,140.9,263.3,141.4,263z"/>
				</g>
			</g>
		</g>
		<g>
			<g>
				<g>
					<path class="st32" d="M228.8,215c0,0-5,13.7,0,16.5c0.7,0.4,1.5,0.9,2.4,1.4c0,0,0,0,0,0l9.5,5.5c1.3,0.8,1.3,2,0,2.8
						l-13.3,7.7c-1.3,0.8-3.5,0.8-4.8,0l-6.8-4c0,0,0,0-0.1,0c-0.8-0.5-1.5-0.9-2.2-1.3l-0.3-0.2c0,0,0,0-0.1-0.1
						c-1.4-0.9-2.3-1.4-2.3-1.4s-4.2-3.1-4.2-14.1L228.8,215z"/>
					<path class="st26" d="M206.7,226.4c0,11,4.2,14.1,4.2,14.1s0.9,0.6,2.3,1.5c0,0,0,0,0.1,0.1l0.3,0.2c0.7,0.4,1.4,0.9,2.2,1.4
						c0,0,0,0,0.1,0l0.8,0.5l6,3.5c1.3,0.8,3.5,0.8,4.8,0l13.3-7.7c1.3-0.8,1.3-2,0-2.8l-6-3.5l-3.5-2c0,0,0,0,0,0
						c-0.9-0.5-1.7-1-2.4-1.4c-4.9-2.8-0.2-15.9,0-16.5c0,0,0,0,0,0h0L206.7,226.4z"/>
					<path class="st27" d="M206.7,226.4c0,11,4.2,14.1,4.2,14.1s0.9,0.6,2.3,1.5c0,0,0,0,0.1,0.1l0.3,0.2c0.7,0.4,1.4,0.9,2.2,1.4
						c0,0,0,0,0.1,0l0.8,0.5l18.1-10.4l-3.5-2c0,0,0,0,0,0c-0.9-0.5-1.7-1-2.4-1.4c-4.9-2.8-0.2-15.9,0-16.5l0,0L206.7,226.4z"/>
				</g>
				<g>
					<linearGradient id="SVGID_7_" gradientUnits="userSpaceOnUse" x1="236.5825" y1="230.2666" x2="255.0865" y2="230.2666">
						<stop  offset="0" style="stop-color:#A6B0BA"/>
						<stop  offset="0.2357" style="stop-color:#B0BAC5"/>
						<stop  offset="0.6446" style="stop-color:#CAD4E1"/>
						<stop  offset="1" style="stop-color:#E5F0FF"/>
					</linearGradient>
					<path class="st33" d="M245.5,253.6c-0.1,0-0.2,0-0.3-0.1l-6-4.2c-0.5-0.3-0.9-0.9-0.9-1.6c0-0.7,0.3-1.3,0.9-1.6l14.5-8.7
						c0.2-0.1,0.4-0.4,0.4-0.7c0-0.3-0.2-0.5-0.4-0.7l-15-8.7c-1.4-0.7-2.2-2.2-2.2-3.7l0.3-16.3c0-0.3,0.2-0.4,0.5-0.5
						c0.3,0,0.5,0.2,0.5,0.5l-0.3,16.3c0,1.2,0.7,2.3,1.7,2.9l15,8.7c0.5,0.3,0.9,0.8,0.9,1.5c0,0.6-0.3,1.2-0.8,1.5l-14.5,8.7
						c-0.3,0.2-0.5,0.5-0.5,0.8c0,0.3,0.2,0.6,0.5,0.8l6.1,4.2c0.2,0.1,0.3,0.4,0.1,0.6C245.8,253.5,245.7,253.6,245.5,253.6z"/>
				</g>
				<g>
					<g>
						<g class="st8">
							<g>
								<path class="st34" d="M265.4,107.9l3.5,2c-0.8-0.5-1.9-0.4-3.1,0.3l-3.5-2C263.5,107.5,264.6,107.4,265.4,107.9z"/>
							</g>
							<g>
								<path class="st27" d="M167.3,252.3l-3.5-2c-0.8-0.5-1.3-1.4-1.3-2.8l3.5,2C166,250.9,166.5,251.8,167.3,252.3z"/>
							</g>
							<g>
								<polygon class="st27" points="166,249.5 162.5,247.5 162.3,170.9 165.8,173 								"/>
							</g>
							<g>
								<polygon class="st27" points="170.2,165.5 166.6,163.4 262.3,108.2 265.8,110.2 								"/>
							</g>
							<g>
								<path class="st34" d="M165.8,173l-3.5-2c0-2.8,1.9-6.1,4.4-7.5l3.5,2C167.7,166.8,165.8,170.2,165.8,173z"/>
							</g>
							<g>
								<path class="st34" d="M265.8,110.2c2.4-1.4,4.4-0.3,4.4,2.5l0.2,76.5c0,2.8-1.9,6.1-4.4,7.5L170.4,252
									c-2.4,1.4-4.4,0.3-4.4-2.5l-0.2-76.5c0-2.8,1.9-6.1,4.4-7.5L265.8,110.2z"/>
							</g>
						</g>
					</g>
					<g>
						<path class="st4" d="M265.8,110.2c2.4-1.4,4.4-0.3,4.4,2.5l0.2,76.5c0,2.8-1.9,6.1-4.4,7.5l-95.6,55.2
							c-2.4,1.4-4.4,0.3-4.4-2.5l-0.2-76.5c0-2.8,1.9-6.1,4.4-7.5L265.8,110.2z"/>
					</g>
					<g>
						<path class="st26" d="M270.4,183.1l0,6.1c0,2.8-1.9,6.1-4.4,7.5L170.4,252c-2.4,1.4-4.4,0.3-4.4-2.5l0-6.1L270.4,183.1z"/>
					</g>
					<g>
						<g>
							<polygon class="st3" points="266.7,114.7 266.9,180.5 170.7,236 170.5,170.2 							"/>
						</g>
						<g class="st35">
							<g>
								<polygon class="st6" points="266.7,114.7 266.9,180.5 248.9,190.9 191.4,158.2 								"/>
							</g>
						</g>
					</g>
					<g>
						<polygon class="st36" points="265.5,192.7 265.5,207.9 254.4,214.3 254.4,199.1 						"/>
					</g>
					<g>
						<polygon class="st11" points="261.1,193.2 261.1,197.1 258.3,198.7 258.3,194.9 						"/>
					</g>
				</g>
			</g>
			<g>
				<g>
					<path class="st32" d="M302.5,250.6c0.8,0.5,0.9,1.3,0,1.8l-61.4,35.7c-0.8,0.5-2.2,0.5-3.1,0l-25-14.4c-0.8-0.5-0.9-1.3,0-1.8
						l61.4-35.7c0.8-0.5,2.2-0.5,3.1,0L302.5,250.6z"/>
				</g>
				<g>
					<path class="st26" d="M302.5,249.6c0.8,0.5,0.9,1.3,0,1.8L241.2,287c-0.8,0.5-2.2,0.5-3.1,0l-25-14.4c-0.8-0.5-0.9-1.3,0-1.8
						l61.4-35.7c0.8-0.5,2.2-0.5,3.1,0L302.5,249.6z"/>
				</g>
				<g>
					<g>
						<g>
							<path class="st29" d="M235.1,263.1c0.2,0.1,0.2,0.3,0,0.4l-3.2,1.9c-0.2,0.1-0.5,0.1-0.7,0l-1.7-1c-0.2-0.1-0.2-0.3,0-0.4
								l3.2-1.9c0.2-0.1,0.5-0.1,0.7,0L235.1,263.1z"/>
							<path class="st26" d="M231.5,265.7c-0.2,0-0.3,0-0.5-0.1l-1.7-1c-0.2-0.1-0.3-0.2-0.3-0.4c0-0.2,0.1-0.3,0.3-0.4l3.2-1.9
								c0.3-0.2,0.7-0.2,0.9,0l1.7,1c0.2,0.1,0.3,0.2,0.3,0.4c0,0.2-0.1,0.3-0.3,0.4l-3.2,1.9C231.9,265.6,231.7,265.7,231.5,265.7z
								 M229.6,264.2C229.6,264.2,229.6,264.2,229.6,264.2l1.7,1c0.1,0.1,0.4,0.1,0.5,0l3.2-1.9c0,0,0,0,0,0c0,0,0,0,0,0l-1.7-1
								c-0.1-0.1-0.4-0.1-0.5,0L229.6,264.2C229.6,264.2,229.6,264.2,229.6,264.2z"/>
						</g>
					</g>
					<g>
						<g>
							<path class="st29" d="M230.7,265.7c0.2,0.1,0.2,0.3,0,0.4l-3.2,1.9c-0.2,0.1-0.5,0.1-0.7,0l-1.7-1c-0.2-0.1-0.2-0.3,0-0.4
								l3.2-1.9c0.2-0.1,0.5-0.1,0.7,0L230.7,265.7z"/>
							<path class="st26" d="M227.1,268.2c-0.2,0-0.3,0-0.5-0.1l-1.7-1c-0.2-0.1-0.3-0.2-0.3-0.4c0-0.2,0.1-0.3,0.3-0.4l3.2-1.9
								c0.3-0.2,0.7-0.2,0.9,0l1.7,1c0.2,0.1,0.3,0.2,0.3,0.4c0,0.2-0.1,0.3-0.3,0.4l-3.2,1.9C227.5,268.2,227.3,268.2,227.1,268.2z
								 M225.2,266.8C225.2,266.8,225.2,266.8,225.2,266.8l1.7,1c0.1,0.1,0.4,0.1,0.5,0l3.2-1.9c0,0,0,0,0,0c0,0,0,0,0,0l-1.7-1
								c-0.1-0.1-0.4-0.1-0.5,0L225.2,266.8C225.2,266.7,225.2,266.8,225.2,266.8z"/>
						</g>
					</g>
					<g>
						<g>
							<path class="st29" d="M226.3,268.2c0.2,0.1,0.2,0.3,0,0.4l-3.2,1.9c-0.2,0.1-0.5,0.1-0.7,0l-1.7-1c-0.2-0.1-0.2-0.3,0-0.4
								l3.2-1.9c0.2-0.1,0.5-0.1,0.7,0L226.3,268.2z"/>
							<path class="st26" d="M222.7,270.8c-0.2,0-0.3,0-0.5-0.1l-1.7-1c-0.2-0.1-0.3-0.2-0.3-0.4c0-0.2,0.1-0.3,0.3-0.4l3.2-1.9
								c0.3-0.2,0.7-0.2,0.9,0l1.7,1c0.2,0.1,0.3,0.2,0.3,0.4c0,0.2-0.1,0.3-0.3,0.4l-3.2,1.9C223.1,270.8,222.9,270.8,222.7,270.8z
								 M220.8,269.3C220.8,269.3,220.8,269.3,220.8,269.3l1.7,1c0.1,0.1,0.4,0.1,0.5,0l3.2-1.9c0,0,0,0,0,0c0,0,0,0,0,0l-1.7-1
								c-0.1-0.1-0.4-0.1-0.5,0L220.8,269.3C220.8,269.3,220.8,269.3,220.8,269.3z"/>
						</g>
					</g>
					<g>
						<g>
							<path class="st29" d="M221.9,270.8c0.2,0.1,0.2,0.3,0,0.4l-3.2,1.9c-0.2,0.1-0.5,0.1-0.7,0l-1.7-1c-0.2-0.1-0.2-0.3,0-0.4
								l3.2-1.9c0.2-0.1,0.5-0.1,0.7,0L221.9,270.8z"/>
							<path class="st26" d="M218.3,273.4c-0.2,0-0.3,0-0.5-0.1l-1.7-1c-0.2-0.1-0.3-0.2-0.3-0.4c0-0.2,0.1-0.3,0.3-0.4l3.2-1.9
								c0.3-0.2,0.7-0.2,0.9,0l1.7,1c0.2,0.1,0.3,0.2,0.3,0.4c0,0.2-0.1,0.3-0.3,0.4l-3.2,1.9C218.7,273.3,218.5,273.4,218.3,273.4z
								 M216.4,271.9C216.4,271.9,216.4,271.9,216.4,271.9l1.7,1c0.1,0.1,0.4,0.1,0.5,0l3.2-1.9c0,0,0,0,0,0c0,0,0,0,0,0l-1.7-1
								c-0.1-0.1-0.4-0.1-0.5,0L216.4,271.9C216.4,271.9,216.4,271.9,216.4,271.9z"/>
						</g>
					</g>
					<g>
						<g>
							<path class="st29" d="M226,273.2c0.2,0.1,0.2,0.3,0,0.4l-3.2,1.9c-0.2,0.1-0.5,0.1-0.7,0l-3.2-1.8c-0.2-0.1-0.2-0.3,0-0.4
								l3.2-1.9c0.2-0.1,0.5-0.1,0.7,0L226,273.2z"/>
							<path class="st26" d="M222.5,275.8c-0.2,0-0.3,0-0.5-0.1l-3.2-1.8c-0.2-0.1-0.3-0.2-0.3-0.4c0-0.2,0.1-0.3,0.3-0.4l3.2-1.9
								c0.3-0.2,0.7-0.2,0.9,0l3.2,1.8c0.2,0.1,0.3,0.2,0.3,0.4c0,0.2-0.1,0.3-0.3,0.4l-3.2,1.9
								C222.8,275.7,222.7,275.8,222.5,275.8z M219,273.4C219,273.4,219.1,273.4,219,273.4l3.2,1.8c0.1,0.1,0.4,0.1,0.5,0l3.2-1.9
								c0,0,0,0,0,0c0,0,0,0,0,0l-3.2-1.8c-0.1-0.1-0.4-0.1-0.5,0L219,273.4C219.1,273.4,219,273.4,219,273.4z"/>
						</g>
					</g>
					<g>
						<g>
							<path class="st29" d="M241.8,273.7c0.2,0.1,0.2,0.3,0,0.4l-3.2,1.9c-0.2,0.1-0.5,0.1-0.7,0l-3.2-1.8c-0.2-0.1-0.2-0.3,0-0.4
								l3.2-1.9c0.2-0.1,0.5-0.1,0.7,0L241.8,273.7z"/>
							<path class="st26" d="M238.2,276.3c-0.2,0-0.3,0-0.5-0.1l-3.2-1.8c-0.2-0.1-0.3-0.2-0.3-0.4c0-0.2,0.1-0.3,0.3-0.4l3.2-1.9
								c0.3-0.2,0.7-0.2,0.9,0l3.2,1.8c0.2,0.1,0.3,0.2,0.3,0.4c0,0.2-0.1,0.3-0.3,0.4l-3.2,1.9
								C238.5,276.2,238.4,276.3,238.2,276.3z M234.8,273.9C234.8,273.9,234.8,273.9,234.8,273.9l3.2,1.8c0.1,0.1,0.4,0.1,0.5,0
								l3.2-1.9c0,0,0,0,0,0c0,0,0,0,0,0l-3.2-1.8c-0.1-0.1-0.4-0.1-0.5,0L234.8,273.9C234.8,273.9,234.8,273.9,234.8,273.9z"/>
						</g>
					</g>
					<g>
						<g>
							<path class="st29" d="M236.6,271.8c0.2,0.1,0.2,0.3,0,0.4l-3.2,1.9c-0.2,0.1-0.5,0.1-0.7,0l-3.2-1.8c-0.2-0.1-0.2-0.3,0-0.4
								l3.2-1.9c0.2-0.1,0.5-0.1,0.7,0L236.6,271.8z"/>
							<path class="st26" d="M233,274.4c-0.2,0-0.3,0-0.5-0.1l-3.2-1.8c-0.2-0.1-0.3-0.2-0.3-0.4c0-0.2,0.1-0.3,0.3-0.4l3.2-1.9
								c0.3-0.2,0.7-0.2,0.9,0l3.2,1.8c0.2,0.1,0.3,0.2,0.3,0.4c0,0.2-0.1,0.3-0.3,0.4l-3.2,1.9C233.3,274.4,233.2,274.4,233,274.4z
								 M229.6,272.1C229.6,272.1,229.6,272.1,229.6,272.1l3.2,1.8c0.1,0.1,0.4,0.1,0.5,0l3.2-1.9c0,0,0,0,0,0c0,0,0,0,0,0l-3.2-1.8
								c-0.1-0.1-0.4-0.1-0.5,0L229.6,272.1C229.6,272.1,229.6,272.1,229.6,272.1z"/>
						</g>
					</g>
					<g>
						<g>
							<path class="st29" d="M230.3,270.7c0.2,0.1,0.2,0.3,0,0.4l-3.2,1.9c-0.2,0.1-0.5,0.1-0.7,0l-3.2-1.8c-0.2-0.1-0.2-0.3,0-0.4
								l3.2-1.9c0.2-0.1,0.5-0.1,0.7,0L230.3,270.7z"/>
							<path class="st26" d="M226.7,273.3c-0.2,0-0.3,0-0.5-0.1l-3.2-1.8c-0.2-0.1-0.3-0.2-0.3-0.4c0-0.2,0.1-0.3,0.3-0.4l3.2-1.9
								c0.3-0.2,0.7-0.2,0.9,0l3.2,1.8c0.2,0.1,0.3,0.2,0.3,0.4c0,0.2-0.1,0.3-0.3,0.4l-3.2,1.9
								C227.1,273.3,226.9,273.3,226.7,273.3z M223.3,271C223.3,271,223.3,271,223.3,271l3.2,1.8c0.1,0.1,0.4,0.1,0.5,0l3.2-1.9
								c0,0,0,0,0,0c0,0,0,0,0,0l-3.2-1.8c-0.1-0.1-0.4-0.1-0.5,0L223.3,271C223.3,270.9,223.3,271,223.3,271z"/>
						</g>
					</g>
					<g>
						<g>
							<path class="st29" d="M256.6,269.9c0.2,0.1,0.2,0.3,0,0.4l-3.2,1.9c-0.2,0.1-0.5,0.1-0.7,0l-3.2-1.8c-0.2-0.1-0.2-0.3,0-0.4
								l3.2-1.9c0.2-0.1,0.5-0.1,0.7,0L256.6,269.9z"/>
							<path class="st26" d="M253,272.5c-0.2,0-0.3,0-0.5-0.1l-3.2-1.8c-0.2-0.1-0.3-0.2-0.3-0.4c0-0.2,0.1-0.3,0.3-0.4l3.2-1.9
								c0.3-0.2,0.7-0.2,0.9,0l3.2,1.8c0.2,0.1,0.3,0.2,0.3,0.4c0,0.2-0.1,0.3-0.3,0.4l-3.2,1.9C253.3,272.5,253.2,272.5,253,272.5z
								 M249.6,270.2C249.6,270.2,249.6,270.2,249.6,270.2l3.2,1.8c0.1,0.1,0.4,0.1,0.5,0l3.2-1.9c0,0,0,0,0,0c0,0,0,0,0,0l-3.2-1.8
								c-0.1-0.1-0.4-0.1-0.5,0L249.6,270.2C249.6,270.2,249.6,270.2,249.6,270.2z"/>
						</g>
					</g>
					<g>
						<g>
							<path class="st29" d="M260.8,267.5c0.2,0.1,0.2,0.3,0,0.4l-3.2,1.9c-0.2,0.1-0.5,0.1-0.7,0l-3.2-1.8c-0.2-0.1-0.2-0.3,0-0.4
								l3.2-1.9c0.2-0.1,0.5-0.1,0.7,0L260.8,267.5z"/>
							<path class="st26" d="M257.2,270.1c-0.2,0-0.3,0-0.5-0.1l-3.2-1.8c-0.2-0.1-0.3-0.2-0.3-0.4c0-0.2,0.1-0.3,0.3-0.4l3.2-1.9
								c0.3-0.2,0.7-0.2,0.9,0l3.2,1.8c0.2,0.1,0.3,0.2,0.3,0.4c0,0.2-0.1,0.3-0.3,0.4l-3.2,1.9C257.6,270,257.4,270.1,257.2,270.1z
								 M253.8,267.7C253.8,267.7,253.8,267.7,253.8,267.7l3.2,1.8c0.1,0.1,0.4,0.1,0.5,0l3.2-1.9c0,0,0,0,0,0c0,0,0,0,0,0l-3.2-1.8
								c-0.1-0.1-0.4-0.1-0.5,0L253.8,267.7C253.8,267.7,253.8,267.7,253.8,267.7z"/>
						</g>
					</g>
					<g class="st8">
						<g>
							<g>
								<path class="st29" d="M243,263.3c0.2,0.1,0.2,0.3,0,0.4l-3.2,1.9c-0.2,0.1-0.5,0.1-0.7,0l-3.2-1.8c-0.2-0.1-0.2-0.3,0-0.4
									l3.2-1.9c0.2-0.1,0.5-0.1,0.7,0L243,263.3z"/>
								<path class="st26" d="M239.4,265.9c-0.2,0-0.3,0-0.5-0.1l-3.2-1.8c-0.2-0.1-0.3-0.2-0.3-0.4c0-0.2,0.1-0.3,0.3-0.4l3.2-1.9
									c0.3-0.2,0.7-0.2,0.9,0l3.2,1.8c0.2,0.1,0.3,0.2,0.3,0.4c0,0.2-0.1,0.3-0.3,0.4l-3.2,1.9
									C239.8,265.9,239.6,265.9,239.4,265.9z M236,263.6C236,263.6,236,263.6,236,263.6l3.2,1.8c0.1,0.1,0.4,0.1,0.5,0l3.2-1.9
									c0,0,0,0,0,0c0,0,0,0,0,0l-3.2-1.8c-0.1-0.1-0.4-0.1-0.5,0L236,263.6C236,263.6,236,263.6,236,263.6z"/>
							</g>
						</g>
						<g>
							<g>
								<path class="st29" d="M249.3,264.5c0.2,0.1,0.2,0.3,0,0.4l-3.2,1.9c-0.2,0.1-0.5,0.1-0.7,0l-3.2-1.8c-0.2-0.1-0.2-0.3,0-0.4
									l3.2-1.9c0.2-0.1,0.5-0.1,0.7,0L249.3,264.5z"/>
								<path class="st26" d="M245.7,267c-0.2,0-0.3,0-0.5-0.1l-3.2-1.8c-0.2-0.1-0.3-0.2-0.3-0.4c0-0.2,0.1-0.3,0.3-0.4l3.2-1.9
									c0.3-0.2,0.7-0.2,0.9,0l3.2,1.8c0.2,0.1,0.3,0.2,0.3,0.4c0,0.2-0.1,0.3-0.3,0.4l-3.2,1.9C246,267,245.9,267,245.7,267z
									 M242.3,264.7C242.3,264.7,242.3,264.7,242.3,264.7l3.2,1.8c0.1,0.1,0.4,0.1,0.5,0l3.2-1.9c0,0,0,0,0,0c0,0,0,0,0,0
									l-3.2-1.8c-0.1-0.1-0.4-0.1-0.5,0L242.3,264.7C242.3,264.7,242.3,264.7,242.3,264.7z"/>
							</g>
						</g>
						<g>
							<g>
								<path class="st29" d="M238.7,265.8c0.2,0.1,0.2,0.3,0,0.4l-3.2,1.9c-0.2,0.1-0.5,0.1-0.7,0l-3.2-1.8c-0.2-0.1-0.2-0.3,0-0.4
									l3.2-1.9c0.2-0.1,0.5-0.1,0.7,0L238.7,265.8z"/>
								<path class="st26" d="M235.2,268.4c-0.2,0-0.3,0-0.5-0.1l-3.2-1.8c-0.2-0.1-0.3-0.2-0.3-0.4c0-0.2,0.1-0.3,0.3-0.4l3.2-1.9
									c0.3-0.2,0.7-0.2,0.9,0l3.2,1.8c0.2,0.1,0.3,0.2,0.3,0.4c0,0.2-0.1,0.3-0.3,0.4l-3.2,1.9
									C235.5,268.3,235.4,268.4,235.2,268.4z M231.7,266C231.7,266,231.8,266.1,231.7,266l3.2,1.8c0.1,0.1,0.4,0.1,0.5,0l3.2-1.9
									c0,0,0,0,0,0c0,0,0,0,0,0l-3.2-1.8c-0.1-0.1-0.4-0.1-0.5,0L231.7,266C231.8,266,231.7,266,231.7,266z"/>
							</g>
						</g>
						<g>
							<g>
								<path class="st29" d="M254.5,266.3c0.2,0.1,0.2,0.3,0,0.4l-3.2,1.9c-0.2,0.1-0.5,0.1-0.7,0l-3.2-1.8c-0.2-0.1-0.2-0.3,0-0.4
									l3.2-1.9c0.2-0.1,0.5-0.1,0.7,0L254.5,266.3z"/>
								<path class="st26" d="M250.9,268.9c-0.2,0-0.3,0-0.5-0.1l-3.2-1.8c-0.2-0.1-0.3-0.2-0.3-0.4c0-0.2,0.1-0.3,0.3-0.4l3.2-1.9
									c0.3-0.2,0.7-0.2,0.9,0l3.2,1.8c0.2,0.1,0.3,0.2,0.3,0.4c0,0.2-0.1,0.3-0.3,0.4l-3.2,1.9
									C251.3,268.8,251.1,268.9,250.9,268.9z M247.5,266.5C247.5,266.5,247.5,266.5,247.5,266.5l3.2,1.8c0.1,0.1,0.4,0.1,0.5,0
									l3.2-1.9c0,0,0,0,0,0c0,0,0,0,0,0l-3.2-1.8c-0.1-0.1-0.4-0.1-0.5,0L247.5,266.5C247.5,266.5,247.5,266.5,247.5,266.5z"/>
							</g>
						</g>
						<g>
							<g>
								<path class="st29" d="M245,266.9c0.2,0.1,0.2,0.3,0,0.4l-3.2,1.9c-0.2,0.1-0.5,0.1-0.7,0l-3.2-1.8c-0.2-0.1-0.2-0.3,0-0.4
									l3.2-1.9c0.2-0.1,0.5-0.1,0.7,0L245,266.9z"/>
								<path class="st26" d="M241.5,269.5c-0.2,0-0.3,0-0.5-0.1l-3.2-1.8c-0.2-0.1-0.3-0.2-0.3-0.4c0-0.2,0.1-0.3,0.3-0.4l3.2-1.9
									c0.3-0.2,0.7-0.2,0.9,0l3.2,1.8c0.2,0.1,0.3,0.2,0.3,0.4c0,0.2-0.1,0.3-0.3,0.4l-3.2,1.9
									C241.8,269.5,241.6,269.5,241.5,269.5z M238,267.2C238,267.2,238,267.2,238,267.2l3.2,1.8c0.1,0.1,0.4,0.1,0.5,0l3.2-1.9
									c0,0,0,0,0,0c0,0,0,0,0,0l-3.2-1.8c-0.1-0.1-0.4-0.1-0.5,0L238,267.2C238,267.2,238,267.2,238,267.2z"/>
							</g>
						</g>
						<g>
							<g>
								<path class="st29" d="M234.5,268.3c0.2,0.1,0.2,0.3,0,0.4l-3.2,1.9c-0.2,0.1-0.5,0.1-0.7,0l-3.2-1.8c-0.2-0.1-0.2-0.3,0-0.4
									l3.2-1.9c0.2-0.1,0.5-0.1,0.7,0L234.5,268.3z"/>
								<path class="st26" d="M230.9,270.8c-0.2,0-0.3,0-0.5-0.1l-3.2-1.8c-0.2-0.1-0.3-0.2-0.3-0.4c0-0.2,0.1-0.3,0.3-0.4l3.2-1.9
									c0.3-0.2,0.7-0.2,0.9,0l3.2,1.8c0.2,0.1,0.3,0.2,0.3,0.4c0,0.2-0.1,0.3-0.3,0.4l-3.2,1.9
									C231.3,270.8,231.1,270.8,230.9,270.8z M227.5,268.5C227.5,268.5,227.5,268.5,227.5,268.5l3.2,1.8c0.1,0.1,0.4,0.1,0.5,0
									l3.2-1.9c0,0,0,0,0,0c0,0,0,0,0,0l-3.2-1.8c-0.1-0.1-0.4-0.1-0.5,0L227.5,268.5C227.5,268.5,227.5,268.5,227.5,268.5z"/>
							</g>
						</g>
						<g>
							<g>
								<path class="st29" d="M250.2,268.7c0.2,0.1,0.2,0.3,0,0.4l-3.2,1.9c-0.2,0.1-0.5,0.1-0.7,0l-3.2-1.8c-0.2-0.1-0.2-0.3,0-0.4
									l3.2-1.9c0.2-0.1,0.5-0.1,0.7,0L250.2,268.7z"/>
								<path class="st26" d="M246.7,271.3c-0.2,0-0.3,0-0.5-0.1l-3.2-1.8c-0.2-0.1-0.3-0.2-0.3-0.4c0-0.2,0.1-0.3,0.3-0.4l3.2-1.9
									c0.3-0.2,0.7-0.2,0.9,0l3.2,1.8c0.2,0.1,0.3,0.2,0.3,0.4c0,0.2-0.1,0.3-0.3,0.4l-3.2,1.9C247,271.3,246.9,271.3,246.7,271.3
									z M243.2,269C243.2,269,243.3,269,243.2,269l3.2,1.8c0.1,0.1,0.4,0.1,0.5,0l3.2-1.9c0,0,0,0,0,0c0,0,0,0,0,0l-3.2-1.8
									c-0.1-0.1-0.4-0.1-0.5,0L243.2,269C243.3,269,243.2,269,243.2,269z"/>
							</g>
						</g>
						<g>
							<g>
								<path class="st29" d="M240.8,269.4c0.2,0.1,0.2,0.3,0,0.4l-3.2,1.9c-0.2,0.1-0.5,0.1-0.7,0l-3.2-1.8c-0.2-0.1-0.2-0.3,0-0.4
									l3.2-1.9c0.2-0.1,0.5-0.1,0.7,0L240.8,269.4z"/>
								<path class="st26" d="M237.2,272c-0.2,0-0.3,0-0.5-0.1l-3.2-1.8c-0.2-0.1-0.3-0.2-0.3-0.4c0-0.2,0.1-0.3,0.3-0.4l3.2-1.9
									c0.3-0.2,0.7-0.2,0.9,0l3.2,1.8c0.2,0.1,0.3,0.2,0.3,0.4c0,0.2-0.1,0.3-0.3,0.4l-3.2,1.9C237.6,271.9,237.4,272,237.2,272z
									 M233.8,269.6C233.8,269.6,233.8,269.6,233.8,269.6l3.2,1.8c0.1,0.1,0.4,0.1,0.5,0l3.2-1.9c0,0,0,0,0,0c0,0,0,0,0,0
									l-3.2-1.8c-0.1-0.1-0.4-0.1-0.5,0L233.8,269.6C233.8,269.6,233.8,269.6,233.8,269.6z"/>
							</g>
						</g>
						<g>
							<g>
								<path class="st29" d="M246,271.2c0.2,0.1,0.2,0.3,0,0.4l-3.2,1.9c-0.2,0.1-0.5,0.1-0.7,0l-3.2-1.8c-0.2-0.1-0.2-0.3,0-0.4
									l3.2-1.9c0.2-0.1,0.5-0.1,0.7,0L246,271.2z"/>
								<path class="st26" d="M242.4,273.8c-0.2,0-0.3,0-0.5-0.1l-3.2-1.8c-0.2-0.1-0.3-0.2-0.3-0.4c0-0.2,0.1-0.3,0.3-0.4l3.2-1.9
									c0.3-0.2,0.7-0.2,0.9,0l3.2,1.8c0.2,0.1,0.3,0.2,0.3,0.4c0,0.2-0.1,0.3-0.3,0.4l-3.2,1.9
									C242.8,273.8,242.6,273.8,242.4,273.8z M239,271.5C239,271.5,239,271.5,239,271.5l3.2,1.8c0.1,0.1,0.4,0.1,0.5,0l3.2-1.9
									c0,0,0,0,0,0c0,0,0,0,0,0l-3.2-1.8c-0.1-0.1-0.4-0.1-0.5,0L239,271.5C239,271.4,239,271.5,239,271.5z"/>
							</g>
						</g>
					</g>
					<g>
						<g>
							<path class="st29" d="M262,257.1c0.2,0.1,0.2,0.3,0,0.4l-3.2,1.9c-0.2,0.1-0.5,0.1-0.7,0l-3.2-1.8c-0.2-0.1-0.2-0.3,0-0.4
								l3.2-1.9c0.2-0.1,0.5-0.1,0.7,0L262,257.1z"/>
							<path class="st26" d="M258.4,259.7c-0.2,0-0.3,0-0.5-0.1l-3.2-1.8c-0.2-0.1-0.3-0.2-0.3-0.4c0-0.2,0.1-0.3,0.3-0.4l3.2-1.9
								c0.3-0.2,0.7-0.2,0.9,0l3.2,1.8c0.2,0.1,0.3,0.2,0.3,0.4c0,0.2-0.1,0.3-0.3,0.4l-3.2,1.9
								C258.7,259.6,258.6,259.7,258.4,259.7z M255,257.3C255,257.3,255,257.3,255,257.3l3.2,1.8c0.1,0.1,0.4,0.1,0.5,0l3.2-1.9
								c0,0,0,0,0,0c0,0,0,0,0,0l-3.2-1.8c-0.1-0.1-0.4-0.1-0.5,0L255,257.3C255,257.3,255,257.3,255,257.3z"/>
						</g>
					</g>
					<g>
						<g>
							<path class="st29" d="M277.8,257.6c0.2,0.1,0.2,0.3,0,0.4l-3.2,1.9c-0.2,0.1-0.5,0.1-0.7,0l-3.2-1.8c-0.2-0.1-0.2-0.3,0-0.4
								l3.2-1.9c0.2-0.1,0.5-0.1,0.7,0L277.8,257.6z"/>
							<path class="st26" d="M274.2,260.2c-0.2,0-0.3,0-0.5-0.1l-3.2-1.8c-0.2-0.1-0.3-0.2-0.3-0.4c0-0.2,0.1-0.3,0.3-0.4l3.2-1.9
								c0.3-0.2,0.7-0.2,0.9,0l3.2,1.8c0.2,0.1,0.3,0.2,0.3,0.4c0,0.2-0.1,0.3-0.3,0.4l-3.2,1.9
								C274.6,260.2,274.4,260.2,274.2,260.2z M270.8,257.9C270.8,257.9,270.8,257.9,270.8,257.9l3.2,1.8c0.1,0.1,0.4,0.1,0.5,0
								l3.2-1.9c0,0,0,0,0,0c0,0,0,0,0,0l-3.2-1.8c-0.1-0.1-0.4-0.1-0.5,0L270.8,257.9C270.8,257.8,270.8,257.8,270.8,257.9z"/>
						</g>
					</g>
					<g>
						<g>
							<path class="st29" d="M271.5,256.4c0.2,0.1,0.2,0.3,0,0.4l-3.2,1.9c-0.2,0.1-0.5,0.1-0.7,0l-3.2-1.8c-0.2-0.1-0.2-0.3,0-0.4
								l3.2-1.9c0.2-0.1,0.5-0.1,0.7,0L271.5,256.4z"/>
							<path class="st26" d="M267.9,259c-0.2,0-0.3,0-0.5-0.1l-3.2-1.8c-0.2-0.1-0.3-0.2-0.3-0.4c0-0.2,0.1-0.3,0.3-0.4l3.2-1.9
								c0.3-0.2,0.7-0.2,0.9,0l3.2,1.8c0.2,0.1,0.3,0.2,0.3,0.4c0,0.2-0.1,0.3-0.3,0.4l-3.2,1.9C268.3,259,268.1,259,267.9,259z
								 M264.5,256.7C264.5,256.7,264.5,256.7,264.5,256.7l3.2,1.8c0.1,0.1,0.4,0.1,0.5,0l3.2-1.9c0,0,0,0,0,0c0,0,0,0,0,0l-3.2-1.8
								c-0.1-0.1-0.4-0.1-0.5,0L264.5,256.7C264.5,256.6,264.5,256.6,264.5,256.7z"/>
						</g>
					</g>
					<g>
						<g>
							<path class="st29" d="M264.2,251c0.2,0.1,0.2,0.3,0,0.4l-3.2,1.9c-0.2,0.1-0.5,0.1-0.7,0l-3.2-1.8c-0.2-0.1-0.2-0.3,0-0.4
								l3.2-1.9c0.2-0.1,0.5-0.1,0.7,0L264.2,251z"/>
							<path class="st26" d="M260.6,253.6c-0.2,0-0.3,0-0.5-0.1l-3.2-1.8c-0.2-0.1-0.3-0.2-0.3-0.4c0-0.2,0.1-0.3,0.3-0.4l3.2-1.9
								c0.3-0.2,0.7-0.2,0.9,0l3.2,1.8c0.2,0.1,0.3,0.2,0.3,0.4c0,0.2-0.1,0.3-0.3,0.4l-3.2,1.9
								C260.9,253.6,260.8,253.6,260.6,253.6z M257.1,251.3C257.2,251.3,257.2,251.3,257.1,251.3l3.2,1.8c0.1,0.1,0.4,0.1,0.5,0
								l3.2-1.9c0,0,0,0,0,0c0,0,0,0,0,0l-3.2-1.8c-0.1-0.1-0.4-0.1-0.5,0L257.1,251.3C257.2,251.3,257.2,251.3,257.1,251.3z"/>
						</g>
					</g>
					<g>
						<g>
							<path class="st29" d="M268.4,248.6c0.2,0.1,0.2,0.3,0,0.4l-3.2,1.9c-0.2,0.1-0.5,0.1-0.7,0l-3.2-1.8c-0.2-0.1-0.2-0.3,0-0.4
								l3.2-1.9c0.2-0.1,0.5-0.1,0.7,0L268.4,248.6z"/>
							<path class="st26" d="M264.8,251.2c-0.2,0-0.3,0-0.5-0.1l-3.2-1.8c-0.2-0.1-0.3-0.2-0.3-0.4c0-0.2,0.1-0.3,0.3-0.4l3.2-1.9
								c0.3-0.2,0.7-0.2,0.9,0l3.2,1.8c0.2,0.1,0.3,0.2,0.3,0.4c0,0.2-0.1,0.3-0.3,0.4l-3.2,1.9C265.2,251.1,265,251.2,264.8,251.2z
								 M261.4,248.8C261.4,248.8,261.4,248.8,261.4,248.8l3.2,1.8c0.1,0.1,0.4,0.1,0.5,0l3.2-1.9c0,0,0,0,0,0c0,0,0,0,0,0l-3.2-1.8
								c-0.1-0.1-0.4-0.1-0.5,0L261.4,248.8C261.4,248.8,261.4,248.8,261.4,248.8z"/>
						</g>
					</g>
					<g>
						<g>
							<path class="st29" d="M270.4,252.2c0.2,0.1,0.2,0.3,0,0.4l-3.2,1.9c-0.2,0.1-0.5,0.1-0.7,0l-3.2-1.8c-0.2-0.1-0.2-0.3,0-0.4
								l3.2-1.9c0.2-0.1,0.5-0.1,0.7,0L270.4,252.2z"/>
							<path class="st26" d="M266.9,254.7c-0.2,0-0.3,0-0.5-0.1l-3.2-1.8c-0.2-0.1-0.3-0.2-0.3-0.4c0-0.2,0.1-0.3,0.3-0.4l3.2-1.9
								c0.3-0.2,0.7-0.2,0.9,0l3.2,1.8c0.2,0.1,0.3,0.2,0.3,0.4c0,0.2-0.1,0.3-0.3,0.4l-3.2,1.9C267.2,254.7,267,254.7,266.9,254.7z
								 M263.4,252.4C263.4,252.4,263.4,252.4,263.4,252.4l3.2,1.8c0.1,0.1,0.4,0.1,0.5,0l3.2-1.9c0,0,0,0,0,0c0,0,0,0,0,0l-3.2-1.8
								c-0.1-0.1-0.4-0.1-0.5,0L263.4,252.4C263.4,252.4,263.4,252.4,263.4,252.4z"/>
						</g>
					</g>
					<g>
						<g>
							<path class="st29" d="M266.2,254.6c0.2,0.1,0.2,0.3,0,0.4l-3.2,1.9c-0.2,0.1-0.5,0.1-0.7,0l-3.2-1.8c-0.2-0.1-0.2-0.3,0-0.4
								l3.2-1.9c0.2-0.1,0.5-0.1,0.7,0L266.2,254.6z"/>
							<path class="st26" d="M262.6,257.2c-0.2,0-0.3,0-0.5-0.1l-3.2-1.8c-0.2-0.1-0.3-0.2-0.3-0.4c0-0.2,0.1-0.3,0.3-0.4l3.2-1.9
								c0.3-0.2,0.7-0.2,0.9,0l3.2,1.8c0.2,0.1,0.3,0.2,0.3,0.4c0,0.2-0.1,0.3-0.3,0.4l-3.2,1.9C263,257.2,262.8,257.2,262.6,257.2z
								 M259.2,254.9C259.2,254.9,259.2,254.9,259.2,254.9l3.2,1.8c0.1,0.1,0.4,0.1,0.5,0l3.2-1.9c0,0,0,0,0,0c0,0,0,0,0,0l-3.2-1.8
								c-0.1-0.1-0.4-0.1-0.5,0L259.2,254.9C259.2,254.8,259.2,254.9,259.2,254.9z"/>
						</g>
					</g>
					<g class="st8">
						<g>
							<g>
								<path class="st29" d="M267.2,258.9c0.2,0.1,0.2,0.3,0,0.4l-3.2,1.9c-0.2,0.1-0.5,0.1-0.7,0l-3.2-1.8c-0.2-0.1-0.2-0.3,0-0.4
									l3.2-1.9c0.2-0.1,0.5-0.1,0.7,0L267.2,258.9z"/>
								<path class="st26" d="M263.7,261.5c-0.2,0-0.3,0-0.5-0.1l-3.2-1.8c-0.2-0.1-0.3-0.2-0.3-0.4c0-0.2,0.1-0.3,0.3-0.4l3.2-1.9
									c0.3-0.2,0.7-0.2,0.9,0l3.2,1.8c0.2,0.1,0.3,0.2,0.3,0.4c0,0.2-0.1,0.3-0.3,0.4l-3.2,1.9C264,261.4,263.8,261.5,263.7,261.5
									z M260.2,259.1C260.2,259.1,260.2,259.1,260.2,259.1l3.2,1.8c0.1,0.1,0.4,0.1,0.5,0l3.2-1.9c0,0,0,0,0,0c0,0,0,0,0,0
									l-3.2-1.8c-0.1-0.1-0.4-0.1-0.5,0L260.2,259.1C260.2,259.1,260.2,259.1,260.2,259.1z"/>
							</g>
						</g>
						<g>
							<g>
								<path class="st29" d="M273.5,260.1c0.2,0.1,0.2,0.3,0,0.4l-3.2,1.9c-0.2,0.1-0.5,0.1-0.7,0l-3.2-1.8c-0.2-0.1-0.2-0.3,0-0.4
									l3.2-1.9c0.2-0.1,0.5-0.1,0.7,0L273.5,260.1z"/>
								<path class="st26" d="M270,262.7c-0.2,0-0.3,0-0.5-0.1l-3.2-1.8c-0.2-0.1-0.3-0.2-0.3-0.4c0-0.2,0.1-0.3,0.3-0.4l3.2-1.9
									c0.3-0.2,0.7-0.2,0.9,0l3.2,1.8c0.2,0.1,0.3,0.2,0.3,0.4c0,0.2-0.1,0.3-0.3,0.4l-3.2,1.9C270.3,262.6,270.1,262.7,270,262.7
									z M266.5,260.3C266.5,260.3,266.5,260.3,266.5,260.3l3.2,1.8c0.1,0.1,0.4,0.1,0.5,0l3.2-1.9c0,0,0,0,0,0c0,0,0,0,0,0
									l-3.2-1.8c-0.1-0.1-0.4-0.1-0.5,0L266.5,260.3C266.5,260.3,266.5,260.3,266.5,260.3z"/>
							</g>
						</g>
						<g>
							<g>
								<path class="st29" d="M263,261.3c0.2,0.1,0.2,0.3,0,0.4l-3.2,1.9c-0.2,0.1-0.5,0.1-0.7,0l-3.2-1.8c-0.2-0.1-0.2-0.3,0-0.4
									l3.2-1.9c0.2-0.1,0.5-0.1,0.7,0L263,261.3z"/>
								<path class="st26" d="M259.4,263.9c-0.2,0-0.3,0-0.5-0.1l-3.2-1.8c-0.2-0.1-0.3-0.2-0.3-0.4c0-0.2,0.1-0.3,0.3-0.4l3.2-1.9
									c0.3-0.2,0.7-0.2,0.9,0l3.2,1.8c0.2,0.1,0.3,0.2,0.3,0.4c0,0.2-0.1,0.3-0.3,0.4l-3.2,1.9
									C259.8,263.9,259.6,263.9,259.4,263.9z M256,261.6C256,261.6,256,261.6,256,261.6l3.2,1.8c0.1,0.1,0.4,0.1,0.5,0l3.2-1.9
									c0,0,0,0,0,0c0,0,0,0,0,0l-3.2-1.8c-0.1-0.1-0.4-0.1-0.5,0L256,261.6C256,261.6,256,261.6,256,261.6z"/>
							</g>
						</g>
						<g>
							<g>
								<path class="st29" d="M269.3,262.5c0.2,0.1,0.2,0.3,0,0.4l-3.2,1.9c-0.2,0.1-0.5,0.1-0.7,0l-3.2-1.8c-0.2-0.1-0.2-0.3,0-0.4
									l3.2-1.9c0.2-0.1,0.5-0.1,0.7,0L269.3,262.5z"/>
								<path class="st26" d="M265.7,265.1c-0.2,0-0.3,0-0.5-0.1l-3.2-1.8c-0.2-0.1-0.3-0.2-0.3-0.4c0-0.2,0.1-0.3,0.3-0.4l3.2-1.9
									c0.3-0.2,0.7-0.2,0.9,0l3.2,1.8c0.2,0.1,0.3,0.2,0.3,0.4c0,0.2-0.1,0.3-0.3,0.4l-3.2,1.9
									C266.1,265.1,265.9,265.1,265.7,265.1z M262.3,262.8C262.3,262.8,262.3,262.8,262.3,262.8l3.2,1.8c0.1,0.1,0.4,0.1,0.5,0
									l3.2-1.9c0,0,0,0,0,0c0,0,0,0,0,0l-3.2-1.8c-0.1-0.1-0.4-0.1-0.5,0L262.3,262.8C262.3,262.8,262.3,262.8,262.3,262.8z"/>
							</g>
						</g>
					</g>
					<g class="st8">
						<g>
							<g>
								<path class="st29" d="M243.9,258c0.2,0.1,0.2,0.3,0,0.4l-3.2,1.9c-0.2,0.1-0.5,0.1-0.7,0l-1.7-1c-0.2-0.1-0.2-0.3,0-0.4
									l3.2-1.9c0.2-0.1,0.5-0.1,0.7,0L243.9,258z"/>
								<path class="st26" d="M240.4,260.6c-0.2,0-0.3,0-0.5-0.1l-1.7-1c-0.2-0.1-0.3-0.2-0.3-0.4c0-0.2,0.1-0.3,0.3-0.4l3.2-1.9
									c0.3-0.2,0.7-0.2,0.9,0l1.7,1c0.2,0.1,0.3,0.2,0.3,0.4c0,0.2-0.1,0.3-0.3,0.4l-3.2,1.9C240.7,260.5,240.5,260.6,240.4,260.6
									z M238.4,259.1C238.4,259.1,238.4,259.1,238.4,259.1l1.7,1c0.1,0.1,0.4,0.1,0.5,0l3.2-1.9c0,0,0,0,0,0c0,0,0,0,0,0l-1.7-1
									c-0.1-0.1-0.4-0.1-0.5,0L238.4,259.1C238.4,259.1,238.4,259.1,238.4,259.1z"/>
							</g>
						</g>
						<g>
							<g>
								<path class="st29" d="M251.4,258.4c0.2,0.1,0.2,0.3,0,0.4l-3.2,1.9c-0.2,0.1-0.5,0.1-0.7,0l-3.2-1.8c-0.2-0.1-0.2-0.3,0-0.4
									l3.2-1.9c0.2-0.1,0.5-0.1,0.7,0L251.4,258.4z"/>
								<path class="st26" d="M247.9,261c-0.2,0-0.3,0-0.5-0.1l-3.2-1.8c-0.2-0.1-0.3-0.2-0.3-0.4c0-0.2,0.1-0.3,0.3-0.4l3.2-1.9
									c0.3-0.2,0.7-0.2,0.9,0l3.2,1.8c0.2,0.1,0.3,0.2,0.3,0.4c0,0.2-0.1,0.3-0.3,0.4l-3.2,1.9C248.2,261,248.1,261,247.9,261z
									 M244.4,258.7C244.4,258.7,244.5,258.7,244.4,258.7l3.2,1.8c0.1,0.1,0.4,0.1,0.5,0l3.2-1.9c0,0,0,0,0,0c0,0,0,0,0,0
									l-3.2-1.8c-0.1-0.1-0.4-0.1-0.5,0L244.4,258.7C244.5,258.6,244.4,258.7,244.4,258.7z"/>
							</g>
						</g>
						<g>
							<g>
								<path class="st29" d="M257.7,259.5c0.2,0.1,0.2,0.3,0,0.4l-3.2,1.9c-0.2,0.1-0.5,0.1-0.7,0l-3.2-1.8c-0.2-0.1-0.2-0.3,0-0.4
									l3.2-1.9c0.2-0.1,0.5-0.1,0.7,0L257.7,259.5z"/>
								<path class="st26" d="M254.2,262.1c-0.2,0-0.3,0-0.5-0.1l-3.2-1.8c-0.2-0.1-0.3-0.2-0.3-0.4c0-0.2,0.1-0.3,0.3-0.4l3.2-1.9
									c0.3-0.2,0.7-0.2,0.9,0l3.2,1.8c0.2,0.1,0.3,0.2,0.3,0.4c0,0.2-0.1,0.3-0.3,0.4l-3.2,1.9
									C254.5,262.1,254.3,262.1,254.2,262.1z M250.7,259.8C250.7,259.8,250.7,259.8,250.7,259.8l3.2,1.8c0.1,0.1,0.4,0.1,0.5,0
									l3.2-1.9c0,0,0,0,0,0c0,0,0,0,0,0l-3.2-1.8c-0.1-0.1-0.4-0.1-0.5,0L250.7,259.8C250.7,259.8,250.7,259.8,250.7,259.8z"/>
							</g>
						</g>
						<g>
							<g>
								<path class="st29" d="M247.2,260.9c0.2,0.1,0.2,0.3,0,0.4l-3.2,1.9c-0.2,0.1-0.5,0.1-0.7,0l-3.2-1.8c-0.2-0.1-0.2-0.3,0-0.4
									l3.2-1.9c0.2-0.1,0.5-0.1,0.7,0L247.2,260.9z"/>
								<path class="st26" d="M243.7,263.5c-0.2,0-0.3,0-0.5-0.1l-3.2-1.8c-0.2-0.1-0.3-0.2-0.3-0.4c0-0.2,0.1-0.3,0.3-0.4l3.2-1.9
									c0.3-0.2,0.7-0.2,0.9,0l3.2,1.8c0.2,0.1,0.3,0.2,0.3,0.4c0,0.2-0.1,0.3-0.3,0.4l-3.2,1.9C244,263.4,243.8,263.5,243.7,263.5
									z M240.2,261.1C240.2,261.1,240.2,261.1,240.2,261.1l3.2,1.8c0.1,0.1,0.4,0.1,0.5,0l3.2-1.9c0,0,0,0,0,0c0,0,0,0,0,0
									l-3.2-1.8c-0.1-0.1-0.4-0.1-0.5,0L240.2,261.1C240.2,261.1,240.2,261.1,240.2,261.1z"/>
							</g>
						</g>
						<g>
							<g>
								<path class="st29" d="M253.5,262c0.2,0.1,0.2,0.3,0,0.4l-3.2,1.9c-0.2,0.1-0.5,0.1-0.7,0l-3.2-1.8c-0.2-0.1-0.2-0.3,0-0.4
									l3.2-1.9c0.2-0.1,0.5-0.1,0.7,0L253.5,262z"/>
								<path class="st26" d="M249.9,264.6c-0.2,0-0.3,0-0.5-0.1l-3.2-1.8c-0.2-0.1-0.3-0.2-0.3-0.4c0-0.2,0.1-0.3,0.3-0.4l3.2-1.9
									c0.3-0.2,0.7-0.2,0.9,0l3.2,1.8c0.2,0.1,0.3,0.2,0.3,0.4c0,0.2-0.1,0.3-0.3,0.4l-3.2,1.9
									C250.3,264.5,250.1,264.6,249.9,264.6z M246.5,262.2C246.5,262.3,246.5,262.3,246.5,262.2l3.2,1.8c0.1,0.1,0.4,0.1,0.5,0
									l3.2-1.9c0,0,0,0,0,0c0,0,0,0,0,0l-3.2-1.8c-0.1-0.1-0.4-0.1-0.5,0L246.5,262.2C246.5,262.2,246.5,262.2,246.5,262.2z"/>
							</g>
						</g>
						<g>
							<g>
								<path class="st29" d="M258.7,263.8c0.2,0.1,0.2,0.3,0,0.4l-3.2,1.9c-0.2,0.1-0.5,0.1-0.7,0l-3.2-1.8c-0.2-0.1-0.2-0.3,0-0.4
									l3.2-1.9c0.2-0.1,0.5-0.1,0.7,0L258.7,263.8z"/>
								<path class="st26" d="M255.2,266.4c-0.2,0-0.3,0-0.5-0.1l-3.2-1.8c-0.2-0.1-0.3-0.2-0.3-0.4c0-0.2,0.1-0.3,0.3-0.4l3.2-1.9
									c0.3-0.2,0.7-0.2,0.9,0l3.2,1.8c0.2,0.1,0.3,0.2,0.3,0.4c0,0.2-0.1,0.3-0.3,0.4l-3.2,1.9
									C255.5,266.4,255.3,266.4,255.2,266.4z M251.7,264.1C251.7,264.1,251.8,264.1,251.7,264.1l3.2,1.8c0.1,0.1,0.4,0.1,0.5,0
									l3.2-1.9c0,0,0,0,0,0c0,0,0,0,0,0l-3.2-1.8c-0.1-0.1-0.4-0.1-0.5,0L251.7,264.1C251.8,264,251.7,264.1,251.7,264.1z"/>
							</g>
						</g>
					</g>
					<g>
						<g>
							<path class="st29" d="M248.3,255.4c0.2,0.1,0.2,0.3,0,0.4l-3.2,1.9c-0.2,0.1-0.5,0.1-0.7,0l-1.7-1c-0.2-0.1-0.2-0.3,0-0.4
								l3.2-1.9c0.2-0.1,0.5-0.1,0.7,0L248.3,255.4z"/>
							<path class="st26" d="M244.8,258c-0.2,0-0.3,0-0.5-0.1l-1.7-1c-0.2-0.1-0.3-0.2-0.3-0.4c0-0.2,0.1-0.3,0.3-0.4l3.2-1.9
								c0.3-0.2,0.7-0.2,0.9,0l1.7,1c0.2,0.1,0.3,0.2,0.3,0.4c0,0.2-0.1,0.3-0.3,0.4l-3.2,1.9C245.1,258,244.9,258,244.8,258z
								 M242.8,256.5C242.8,256.5,242.8,256.5,242.8,256.5l1.7,1c0.1,0.1,0.4,0.1,0.5,0l3.2-1.9c0,0,0,0,0,0c0,0,0,0,0,0l-1.7-1
								c-0.1-0.1-0.4-0.1-0.5,0L242.8,256.5C242.8,256.5,242.8,256.5,242.8,256.5z"/>
						</g>
					</g>
					<g>
						<g>
							<path class="st29" d="M275.7,253.9c0.2,0.1,0.2,0.3,0,0.4l-3.2,1.9c-0.2,0.1-0.5,0.1-0.7,0l-3.2-1.8c-0.2-0.1-0.2-0.3,0-0.4
								l3.2-1.9c0.2-0.1,0.5-0.1,0.7,0L275.7,253.9z"/>
							<path class="st26" d="M272.2,256.5c-0.2,0-0.3,0-0.5-0.1l-3.2-1.8c-0.2-0.1-0.3-0.2-0.3-0.4c0-0.2,0.1-0.3,0.3-0.4l3.2-1.9
								c0.3-0.2,0.7-0.2,0.9,0l3.2,1.8c0.2,0.1,0.3,0.2,0.3,0.4c0,0.2-0.1,0.3-0.3,0.4l-3.2,1.9
								C272.5,256.5,272.3,256.5,272.2,256.5z M268.7,254.2C268.7,254.2,268.7,254.2,268.7,254.2l3.2,1.8c0.1,0.1,0.4,0.1,0.5,0
								l3.2-1.9c0,0,0,0,0,0c0,0,0,0,0,0l-3.2-1.8c-0.1-0.1-0.4-0.1-0.5,0L268.7,254.2C268.7,254.2,268.7,254.2,268.7,254.2z"/>
						</g>
					</g>
					<g>
						<g>
							<path class="st29" d="M300.5,249.8c0.2,0.1,0.2,0.3,0,0.4l-3.2,1.9c-0.2,0.1-0.5,0.1-0.7,0l-1.5-0.9c-0.2-0.1-0.2-0.3,0-0.4
								l3.2-1.9c0.2-0.1,0.5-0.1,0.7,0L300.5,249.8z"/>
							<path class="st26" d="M296.9,252.4c-0.2,0-0.3,0-0.5-0.1l-1.5-0.9c-0.2-0.1-0.3-0.2-0.3-0.4c0-0.2,0.1-0.3,0.3-0.4l3.2-1.9
								c0.3-0.2,0.7-0.2,0.9,0l1.5,0.9c0.2,0.1,0.3,0.2,0.3,0.4c0,0.2-0.1,0.3-0.3,0.4l-3.2,1.9
								C297.2,252.4,297.1,252.4,296.9,252.4z M295.1,251C295.1,251,295.1,251,295.1,251l1.6,0.9c0.1,0.1,0.4,0.1,0.5,0l3.2-1.9
								c0,0,0,0,0,0c0,0,0,0,0,0l-1.5-0.9c-0.1-0.1-0.4-0.1-0.5,0L295.1,251C295.1,251,295.1,251,295.1,251z"/>
						</g>
					</g>
					<g class="st8">
						<g>
							<g>
								<path class="st29" d="M287.4,242.3c0.2,0.1,0.2,0.3,0,0.4l-3.2,1.9c-0.2,0.1-0.5,0.1-0.7,0l-3.2-1.8c-0.2-0.1-0.2-0.3,0-0.4
									l3.2-1.9c0.2-0.1,0.5-0.1,0.7,0L287.4,242.3z"/>
								<path class="st26" d="M283.8,244.9c-0.2,0-0.3,0-0.5-0.1l-3.2-1.8c-0.2-0.1-0.3-0.2-0.3-0.4c0-0.2,0.1-0.3,0.3-0.4l3.2-1.9
									c0.3-0.2,0.7-0.2,0.9,0l3.2,1.8c0.2,0.1,0.3,0.2,0.3,0.4c0,0.2-0.1,0.3-0.3,0.4l-3.2,1.9C284.2,244.9,284,244.9,283.8,244.9
									z M280.4,242.6C280.4,242.6,280.4,242.6,280.4,242.6l3.2,1.8c0.1,0.1,0.4,0.1,0.5,0l3.2-1.9c0,0,0,0,0,0c0,0,0,0,0,0
									l-3.2-1.8c-0.1-0.1-0.4-0.1-0.5,0L280.4,242.6C280.4,242.5,280.4,242.6,280.4,242.6z"/>
							</g>
						</g>
						<g>
							<g>
								<path class="st29" d="M270.4,242.6c0.2,0.1,0.2,0.3,0,0.4l-3.2,1.9c-0.2,0.1-0.5,0.1-0.7,0l-1.7-1c-0.2-0.1-0.2-0.3,0-0.4
									l3.2-1.9c0.2-0.1,0.5-0.1,0.7,0L270.4,242.6z"/>
								<path class="st26" d="M266.8,245.2c-0.2,0-0.3,0-0.5-0.1l-1.7-1c-0.2-0.1-0.3-0.2-0.3-0.4c0-0.2,0.1-0.3,0.3-0.4l3.2-1.9
									c0.3-0.2,0.7-0.2,0.9,0l1.7,1c0.2,0.1,0.3,0.2,0.3,0.4c0,0.2-0.1,0.3-0.3,0.4l-3.2,1.9C267.1,245.2,267,245.2,266.8,245.2z
									 M264.8,243.7C264.8,243.7,264.9,243.7,264.8,243.7l1.7,1c0.1,0.1,0.4,0.1,0.5,0l3.2-1.9c0,0,0,0,0,0c0,0,0,0,0,0l-1.7-1
									c-0.1-0.1-0.4-0.1-0.5,0L264.8,243.7C264.9,243.7,264.8,243.7,264.8,243.7z"/>
							</g>
						</g>
						<g>
							<g>
								<path class="st29" d="M276.9,243.6c0.2,0.1,0.2,0.3,0,0.4l-3.2,1.9c-0.2,0.1-0.5,0.1-0.7,0l-3.2-1.8c-0.2-0.1-0.2-0.3,0-0.4
									l3.2-1.9c0.2-0.1,0.5-0.1,0.7,0L276.9,243.6z"/>
								<path class="st26" d="M273.3,246.2c-0.2,0-0.3,0-0.5-0.1l-3.2-1.8c-0.2-0.1-0.3-0.2-0.3-0.4c0-0.2,0.1-0.3,0.3-0.4l3.2-1.9
									c0.3-0.2,0.7-0.2,0.9,0l3.2,1.8c0.2,0.1,0.3,0.2,0.3,0.4c0,0.2-0.1,0.3-0.3,0.4l-3.2,1.9
									C273.6,246.2,273.5,246.2,273.3,246.2z M269.8,243.9C269.9,243.9,269.9,243.9,269.8,243.9l3.2,1.8c0.1,0.1,0.4,0.1,0.5,0
									l3.2-1.9c0,0,0,0,0,0c0,0,0,0,0,0l-3.2-1.8c-0.1-0.1-0.4-0.1-0.5,0L269.8,243.9C269.9,243.9,269.9,243.9,269.8,243.9z"/>
							</g>
						</g>
						<g>
							<g>
								<path class="st29" d="M283.1,244.8c0.2,0.1,0.2,0.3,0,0.4l-3.2,1.9c-0.2,0.1-0.5,0.1-0.7,0l-3.2-1.8c-0.2-0.1-0.2-0.3,0-0.4
									l3.2-1.9c0.2-0.1,0.5-0.1,0.7,0L283.1,244.8z"/>
								<path class="st26" d="M279.6,247.4c-0.2,0-0.3,0-0.5-0.1l-3.2-1.8c-0.2-0.1-0.3-0.2-0.3-0.4c0-0.2,0.1-0.3,0.3-0.4l3.2-1.9
									c0.3-0.2,0.7-0.2,0.9,0l3.2,1.8c0.2,0.1,0.3,0.2,0.3,0.4c0,0.2-0.1,0.3-0.3,0.4l-3.2,1.9
									C279.9,247.3,279.7,247.4,279.6,247.4z M276.1,245C276.1,245,276.2,245,276.1,245l3.2,1.8c0.1,0.1,0.4,0.1,0.5,0l3.2-1.9
									c0,0,0,0,0,0c0,0,0,0,0,0l-3.2-1.8c-0.1-0.1-0.4-0.1-0.5,0L276.1,245C276.1,245,276.1,245,276.1,245z"/>
							</g>
						</g>
						<g>
							<g>
								<path class="st29" d="M265.9,245.2c0.2,0.1,0.2,0.3,0,0.4l-3.2,1.9c-0.2,0.1-0.5,0.1-0.7,0l-1.7-1c-0.2-0.1-0.2-0.3,0-0.4
									l3.2-1.9c0.2-0.1,0.5-0.1,0.7,0L265.9,245.2z"/>
								<path class="st26" d="M262.4,247.8c-0.2,0-0.3,0-0.5-0.1l-1.7-1c-0.2-0.1-0.3-0.2-0.3-0.4c0-0.2,0.1-0.3,0.3-0.4l3.2-1.9
									c0.3-0.2,0.7-0.2,0.9,0l1.7,1c0.2,0.1,0.3,0.2,0.3,0.4c0,0.2-0.1,0.3-0.3,0.4l-3.2,1.9C262.7,247.7,262.6,247.8,262.4,247.8
									z M260.4,246.3C260.4,246.3,260.5,246.3,260.4,246.3l1.7,1c0.1,0.1,0.4,0.1,0.5,0l3.2-1.9c0,0,0,0,0,0c0,0,0,0,0,0l-1.7-1
									c-0.1-0.1-0.4-0.1-0.5,0L260.4,246.3C260.5,246.3,260.4,246.3,260.4,246.3z"/>
							</g>
						</g>
						<g>
							<g>
								<path class="st29" d="M272.6,246.1c0.2,0.1,0.2,0.3,0,0.4l-3.2,1.9c-0.2,0.1-0.5,0.1-0.7,0l-3.2-1.8c-0.2-0.1-0.2-0.3,0-0.4
									l3.2-1.9c0.2-0.1,0.5-0.1,0.7,0L272.6,246.1z"/>
								<path class="st26" d="M269.1,248.7c-0.2,0-0.3,0-0.5-0.1l-3.2-1.8c-0.2-0.1-0.3-0.2-0.3-0.4c0-0.2,0.1-0.3,0.3-0.4l3.2-1.9
									c0.3-0.2,0.7-0.2,0.9,0l3.2,1.8c0.2,0.1,0.3,0.2,0.3,0.4c0,0.2-0.1,0.3-0.3,0.4l-3.2,1.9
									C269.4,248.7,269.2,248.7,269.1,248.7z M265.6,246.4C265.6,246.4,265.6,246.4,265.6,246.4l3.2,1.8c0.1,0.1,0.4,0.1,0.5,0
									l3.2-1.9c0,0,0,0,0,0c0,0,0,0,0,0l-3.2-1.8c-0.1-0.1-0.4-0.1-0.5,0L265.6,246.4C265.6,246.3,265.6,246.3,265.6,246.4z"/>
							</g>
						</g>
						<g>
							<g>
								<path class="st29" d="M291.5,244.7c0.2,0.1,0.2,0.3,0,0.4l-6.3,3.7c-0.2,0.1-0.5,0.1-0.7,0l-3.2-1.8c-0.2-0.1-0.2-0.3,0-0.4
									l6.3-3.7c0.2-0.1,0.5-0.1,0.7,0L291.5,244.7z"/>
								<path class="st26" d="M284.8,249.2c-0.2,0-0.3,0-0.5-0.1l-3.2-1.8c-0.2-0.1-0.3-0.2-0.3-0.4c0-0.2,0.1-0.3,0.3-0.4l6.3-3.7
									c0.3-0.2,0.7-0.2,0.9,0l3.2,1.8c0.2,0.1,0.3,0.2,0.3,0.4c0,0.2-0.1,0.3-0.3,0.4l-6.3,3.7
									C285.1,249.1,284.9,249.2,284.8,249.2z M281.3,246.8C281.3,246.8,281.3,246.8,281.3,246.8l3.2,1.8c0.1,0.1,0.4,0.1,0.5,0
									l6.3-3.7c0,0,0,0,0,0c0,0,0,0,0,0l-3.2-1.8c-0.1-0.1-0.4-0.1-0.5,0L281.3,246.8C281.3,246.8,281.3,246.8,281.3,246.8z"/>
							</g>
						</g>
						<g>
							<g>
								<path class="st29" d="M278.9,247.2c0.2,0.1,0.2,0.3,0,0.4l-3.2,1.9c-0.2,0.1-0.5,0.1-0.7,0l-3.2-1.8c-0.2-0.1-0.2-0.3,0-0.4
									l3.2-1.9c0.2-0.1,0.5-0.1,0.7,0L278.9,247.2z"/>
								<path class="st26" d="M275.3,249.8c-0.2,0-0.3,0-0.5-0.1l-3.2-1.8c-0.2-0.1-0.3-0.2-0.3-0.4c0-0.2,0.1-0.3,0.3-0.4l3.2-1.9
									c0.3-0.2,0.7-0.2,0.9,0l3.2,1.8c0.2,0.1,0.3,0.2,0.3,0.4c0,0.2-0.1,0.3-0.3,0.4l-3.2,1.9
									C275.7,249.8,275.5,249.8,275.3,249.8z M271.9,247.5C271.9,247.5,271.9,247.5,271.9,247.5l3.2,1.8c0.1,0.1,0.4,0.1,0.5,0
									l3.2-1.9c0,0,0,0,0,0c0,0,0,0,0,0l-3.2-1.8c-0.1-0.1-0.4-0.1-0.5,0L271.9,247.5C271.9,247.5,271.9,247.5,271.9,247.5z"/>
							</g>
						</g>
						<g>
							<g>
								<path class="st29" d="M261.5,247.7c0.2,0.1,0.2,0.3,0,0.4l-3.2,1.9c-0.2,0.1-0.5,0.1-0.7,0l-1.7-1c-0.2-0.1-0.2-0.3,0-0.4
									l3.2-1.9c0.2-0.1,0.5-0.1,0.7,0L261.5,247.7z"/>
								<path class="st26" d="M258,250.3c-0.2,0-0.3,0-0.5-0.1l-1.7-1c-0.2-0.1-0.3-0.2-0.3-0.4c0-0.2,0.1-0.3,0.3-0.4l3.2-1.9
									c0.3-0.2,0.7-0.2,0.9,0l1.7,1c0.2,0.1,0.3,0.2,0.3,0.4c0,0.2-0.1,0.3-0.3,0.4l-3.2,1.9C258.3,250.3,258.1,250.3,258,250.3z
									 M256,248.8C256,248.8,256,248.9,256,248.8l1.7,1c0.1,0.1,0.4,0.1,0.5,0l3.2-1.9c0,0,0,0,0,0c0,0,0,0,0,0l-1.7-1
									c-0.1-0.1-0.4-0.1-0.5,0L256,248.8C256,248.8,256,248.8,256,248.8z"/>
							</g>
						</g>
						<g>
							<g>
								<path class="st29" d="M284.2,249c0.2,0.1,0.2,0.3,0,0.4l-3.2,1.9c-0.2,0.1-0.5,0.1-0.7,0l-3.2-1.8c-0.2-0.1-0.2-0.3,0-0.4
									l3.2-1.9c0.2-0.1,0.5-0.1,0.7,0L284.2,249z"/>
								<path class="st26" d="M280.7,251.6c-0.2,0-0.3,0-0.5-0.1l-3.2-1.8c-0.2-0.1-0.3-0.2-0.3-0.4c0-0.2,0.1-0.3,0.3-0.4l3.2-1.9
									c0.3-0.2,0.7-0.2,0.9,0l3.2,1.8c0.2,0.1,0.3,0.2,0.3,0.4c0,0.2-0.1,0.3-0.3,0.4l-3.2,1.9C281,251.6,280.8,251.6,280.7,251.6
									z M277.2,249.3C277.2,249.3,277.2,249.3,277.2,249.3l3.2,1.8c0.1,0.1,0.4,0.1,0.5,0l3.2-1.9c0,0,0,0,0,0c0,0,0,0,0,0
									l-3.2-1.8c-0.1-0.1-0.4-0.1-0.5,0L277.2,249.3C277.2,249.2,277.2,249.2,277.2,249.3z"/>
							</g>
						</g>
						<g>
							<g>
								<path class="st29" d="M295.7,247.1c0.2,0.1,0.2,0.3,0,0.4l-8.5,4.9c-0.2,0.1-0.5,0.1-0.7,0l-3.2-1.8c-0.2-0.1-0.2-0.3,0-0.4
									l8.5-4.9c0.2-0.1,0.5-0.1,0.7,0L295.7,247.1z"/>
								<path class="st26" d="M286.8,252.8c-0.2,0-0.3,0-0.5-0.1l-3.2-1.8c-0.2-0.1-0.3-0.2-0.3-0.4c0-0.2,0.1-0.3,0.3-0.4l8.5-4.9
									c0.3-0.2,0.7-0.2,0.9,0l3.2,1.8c0.2,0.1,0.3,0.2,0.3,0.4c0,0.2-0.1,0.3-0.3,0.4l-8.5,4.9C287.1,252.7,287,252.8,286.8,252.8
									z M283.4,250.4C283.4,250.4,283.4,250.4,283.4,250.4l3.2,1.8c0.1,0.1,0.4,0.1,0.5,0l8.5-4.9c0,0,0,0,0,0c0,0,0,0,0,0
									l-3.2-1.8c-0.1-0.1-0.4-0.1-0.5,0L283.4,250.4C283.4,250.4,283.4,250.4,283.4,250.4z"/>
							</g>
						</g>
						<g>
							<g>
								<path class="st29" d="M280,251.5c0.2,0.1,0.2,0.3,0,0.4l-3.2,1.9c-0.2,0.1-0.5,0.1-0.7,0l-3.2-1.8c-0.2-0.1-0.2-0.3,0-0.4
									l3.2-1.9c0.2-0.1,0.5-0.1,0.7,0L280,251.5z"/>
								<path class="st26" d="M276.4,254.1c-0.2,0-0.3,0-0.5-0.1l-3.2-1.8c-0.2-0.1-0.3-0.2-0.3-0.4c0-0.2,0.1-0.3,0.3-0.4l3.2-1.9
									c0.3-0.2,0.7-0.2,0.9,0l3.2,1.8c0.2,0.1,0.3,0.2,0.3,0.4c0,0.2-0.1,0.3-0.3,0.4l-3.2,1.9C276.7,254,276.6,254.1,276.4,254.1
									z M273,251.7C273,251.7,273,251.7,273,251.7l3.2,1.8c0.1,0.1,0.4,0.1,0.5,0l3.2-1.9c0,0,0,0,0,0c0,0,0,0,0,0l-3.2-1.8
									c-0.1-0.1-0.4-0.1-0.5,0L273,251.7C273,251.7,273,251.7,273,251.7z"/>
							</g>
						</g>
						<g>
							<g>
								<path class="st29" d="M286.3,252.7c0.2,0.1,0.2,0.3,0,0.4l-3.2,1.9c-0.2,0.1-0.5,0.1-0.7,0l-3.2-1.8c-0.2-0.1-0.2-0.3,0-0.4
									l3.2-1.9c0.2-0.1,0.5-0.1,0.7,0L286.3,252.7z"/>
								<path class="st26" d="M282.7,255.3c-0.2,0-0.3,0-0.5-0.1l-3.2-1.8c-0.2-0.1-0.3-0.2-0.3-0.4c0-0.2,0.1-0.3,0.3-0.4l3.2-1.9
									c0.3-0.2,0.7-0.2,0.9,0l3.2,1.8c0.2,0.1,0.3,0.2,0.3,0.4c0,0.2-0.1,0.3-0.3,0.4l-3.2,1.9C283,255.2,282.9,255.3,282.7,255.3
									z M279.3,252.9C279.3,252.9,279.3,252.9,279.3,252.9l3.2,1.8c0.1,0.1,0.4,0.1,0.5,0l3.2-1.9c0,0,0,0,0,0c0,0,0,0,0,0
									L283,251c-0.1-0.1-0.4-0.1-0.5,0L279.3,252.9C279.3,252.9,279.3,252.9,279.3,252.9z"/>
							</g>
						</g>
					</g>
					<g class="st8">
						<g>
							<g>
								<path class="st29" d="M257.1,250.3c0.2,0.1,0.2,0.3,0,0.4l-3.2,1.9c-0.2,0.1-0.5,0.1-0.7,0l-1.7-1c-0.2-0.1-0.2-0.3,0-0.4
									l3.2-1.9c0.2-0.1,0.5-0.1,0.7,0L257.1,250.3z"/>
								<path class="st26" d="M253.6,252.9c-0.2,0-0.3,0-0.5-0.1l-1.7-1c-0.2-0.1-0.3-0.2-0.3-0.4c0-0.2,0.1-0.3,0.3-0.4l3.2-1.9
									c0.3-0.2,0.7-0.2,0.9,0l1.7,1c0.2,0.1,0.3,0.2,0.3,0.4c0,0.2-0.1,0.3-0.3,0.4l-3.2,1.9C253.9,252.8,253.7,252.9,253.6,252.9
									z M251.6,251.4C251.6,251.4,251.6,251.4,251.6,251.4l1.7,1c0.1,0.1,0.4,0.1,0.5,0l3.2-1.9c0,0,0,0,0,0c0,0,0,0,0,0l-1.7-1
									c-0.1-0.1-0.4-0.1-0.5,0L251.6,251.4C251.6,251.4,251.6,251.4,251.6,251.4z"/>
							</g>
						</g>
						<g>
							<g>
								<path class="st29" d="M252.7,252.8c0.2,0.1,0.2,0.3,0,0.4l-3.2,1.9c-0.2,0.1-0.5,0.1-0.7,0l-1.7-1c-0.2-0.1-0.2-0.3,0-0.4
									l3.2-1.9c0.2-0.1,0.5-0.1,0.7,0L252.7,252.8z"/>
								<path class="st26" d="M249.2,255.4c-0.2,0-0.3,0-0.5-0.1l-1.7-1c-0.2-0.1-0.3-0.2-0.3-0.4c0-0.2,0.1-0.3,0.3-0.4l3.2-1.9
									c0.3-0.2,0.7-0.2,0.9,0l1.7,1c0.2,0.1,0.3,0.2,0.3,0.4c0,0.2-0.1,0.3-0.3,0.4l-3.2,1.9C249.5,255.4,249.3,255.4,249.2,255.4
									z M247.2,254C247.2,254,247.2,254,247.2,254l1.7,1c0.1,0.1,0.4,0.1,0.5,0l3.2-1.9c0,0,0,0,0,0c0,0,0,0,0,0l-1.7-1
									c-0.1-0.1-0.4-0.1-0.5,0L247.2,254C247.2,253.9,247.2,254,247.2,254z"/>
							</g>
						</g>
						<g>
							<g>
								<path class="st29" d="M259.9,253.5c0.2,0.1,0.2,0.3,0,0.4l-3.2,1.9c-0.2,0.1-0.5,0.1-0.7,0l-3.2-1.8c-0.2-0.1-0.2-0.3,0-0.4
									l3.2-1.9c0.2-0.1,0.5-0.1,0.7,0L259.9,253.5z"/>
								<path class="st26" d="M256.4,256.1c-0.2,0-0.3,0-0.5-0.1l-3.2-1.8c-0.2-0.1-0.3-0.2-0.3-0.4c0-0.2,0.1-0.3,0.3-0.4l3.2-1.9
									c0.3-0.2,0.7-0.2,0.9,0l3.2,1.8c0.2,0.1,0.3,0.2,0.3,0.4c0,0.2-0.1,0.3-0.3,0.4l-3.2,1.9C256.7,256,256.5,256.1,256.4,256.1
									z M252.9,253.7C252.9,253.7,252.9,253.8,252.9,253.7l3.2,1.8c0.1,0.1,0.4,0.1,0.5,0l3.2-1.9c0,0,0,0,0,0c0,0,0,0,0,0
									l-3.2-1.8c-0.1-0.1-0.4-0.1-0.5,0L252.9,253.7C252.9,253.7,252.9,253.7,252.9,253.7z"/>
							</g>
						</g>
					</g>
					<g>
						<g>
							<path class="st29" d="M255.7,256c0.2,0.1,0.2,0.3,0,0.4l-3.2,1.9c-0.2,0.1-0.5,0.1-0.7,0l-3.2-1.8c-0.2-0.1-0.2-0.3,0-0.4
								l3.2-1.9c0.2-0.1,0.5-0.1,0.7,0L255.7,256z"/>
							<path class="st26" d="M252.1,258.5c-0.2,0-0.3,0-0.5-0.1l-3.2-1.8c-0.2-0.1-0.3-0.2-0.3-0.4c0-0.2,0.1-0.3,0.3-0.4l3.2-1.9
								c0.3-0.2,0.7-0.2,0.9,0l3.2,1.8c0.2,0.1,0.3,0.2,0.3,0.4c0,0.2-0.1,0.3-0.3,0.4l-3.2,1.9
								C252.5,258.5,252.3,258.5,252.1,258.5z M248.7,256.2C248.7,256.2,248.7,256.2,248.7,256.2l3.2,1.8c0.1,0.1,0.4,0.1,0.5,0
								l3.2-1.9c0,0,0,0,0,0c0,0,0,0,0,0l-3.2-1.8c-0.1-0.1-0.4-0.1-0.5,0L248.7,256.2C248.7,256.2,248.7,256.2,248.7,256.2z"/>
						</g>
					</g>
					<g>
						<g>
							<path class="st29" d="M274.8,240c0.2,0.1,0.2,0.3,0,0.4l-3.2,1.9c-0.2,0.1-0.5,0.1-0.7,0l-1.7-1c-0.2-0.1-0.2-0.3,0-0.4
								l3.2-1.9c0.2-0.1,0.5-0.1,0.7,0L274.8,240z"/>
							<path class="st26" d="M271.2,242.6c-0.2,0-0.3,0-0.5-0.1l-1.7-1c-0.2-0.1-0.3-0.2-0.3-0.4c0-0.2,0.1-0.3,0.3-0.4l3.2-1.9
								c0.3-0.2,0.7-0.2,0.9,0l1.7,1c0.2,0.1,0.3,0.2,0.3,0.4c0,0.2-0.1,0.3-0.3,0.4l-3.2,1.9C271.5,242.6,271.4,242.6,271.2,242.6z
								 M269.2,241.2C269.3,241.2,269.3,241.2,269.2,241.2l1.7,1c0.1,0.1,0.4,0.1,0.5,0l3.2-1.9c0,0,0,0,0,0c0,0,0,0,0,0l-1.7-1
								c-0.1-0.1-0.4-0.1-0.5,0L269.2,241.2C269.3,241.1,269.3,241.1,269.2,241.2z"/>
						</g>
					</g>
					<g>
						<g>
							<path class="st29" d="M279.2,237.5c0.2,0.1,0.2,0.3,0,0.4l-3.2,1.9c-0.2,0.1-0.5,0.1-0.7,0l-1.7-1c-0.2-0.1-0.2-0.3,0-0.4
								l3.2-1.9c0.2-0.1,0.5-0.1,0.7,0L279.2,237.5z"/>
							<path class="st26" d="M275.6,240.1c-0.2,0-0.3,0-0.5-0.1l-1.7-1c-0.2-0.1-0.3-0.2-0.3-0.4c0-0.2,0.1-0.3,0.3-0.4l3.2-1.9
								c0.3-0.2,0.7-0.2,0.9,0l1.7,1c0.2,0.1,0.3,0.2,0.3,0.4c0,0.2-0.1,0.3-0.3,0.4l-3.2,1.9C275.9,240,275.8,240.1,275.6,240.1z
								 M273.7,238.6C273.7,238.6,273.7,238.6,273.7,238.6l1.7,1c0.1,0.1,0.4,0.1,0.5,0l3.2-1.9c0,0,0,0,0,0c0,0,0,0,0,0l-1.7-1
								c-0.1-0.1-0.4-0.1-0.5,0L273.7,238.6C273.7,238.6,273.7,238.6,273.7,238.6z"/>
						</g>
					</g>
					<g>
						<g>
							<path class="st29" d="M283.3,239.9c0.2,0.1,0.2,0.3,0,0.4l-5.3,3.1c-0.2,0.1-0.5,0.1-0.7,0l-3.2-1.8c-0.2-0.1-0.2-0.3,0-0.4
								l5.3-3.1c0.2-0.1,0.5-0.1,0.7,0L283.3,239.9z"/>
							<path class="st26" d="M277.6,243.7c-0.2,0-0.3,0-0.5-0.1l-3.2-1.8c-0.2-0.1-0.3-0.2-0.3-0.4c0-0.2,0.1-0.3,0.3-0.4l5.3-3.1
								c0.3-0.2,0.7-0.2,0.9,0l3.2,1.8c0.2,0.1,0.3,0.2,0.3,0.4c0,0.2-0.1,0.3-0.3,0.4l-5.3,3.1
								C277.9,243.7,277.8,243.7,277.6,243.7z M274.2,241.4C274.2,241.4,274.2,241.4,274.2,241.4l3.2,1.8c0.1,0.1,0.4,0.1,0.5,0
								l5.3-3.1c0,0,0,0,0,0c0,0,0,0,0,0l-3.2-1.8c-0.1-0.1-0.4-0.1-0.5,0L274.2,241.4C274.2,241.4,274.2,241.4,274.2,241.4z"/>
						</g>
					</g>
					<g>
						<g>
							<path class="st29" d="M274.7,249.7c0.2,0.1,0.2,0.3,0,0.4l-3.2,1.9c-0.2,0.1-0.5,0.1-0.7,0l-3.2-1.8c-0.2-0.1-0.2-0.3,0-0.4
								l3.2-1.9c0.2-0.1,0.5-0.1,0.7,0L274.7,249.7z"/>
							<path class="st26" d="M271.1,252.3c-0.2,0-0.3,0-0.5-0.1l-3.2-1.8c-0.2-0.1-0.3-0.2-0.3-0.4c0-0.2,0.1-0.3,0.3-0.4l3.2-1.9
								c0.3-0.2,0.7-0.2,0.9,0l3.2,1.8c0.2,0.1,0.3,0.2,0.3,0.4c0,0.2-0.1,0.3-0.3,0.4l-3.2,1.9
								C271.4,252.2,271.3,252.3,271.1,252.3z M267.7,249.9C267.7,249.9,267.7,250,267.7,249.9l3.2,1.8c0.1,0.1,0.4,0.1,0.5,0
								l3.2-1.9c0,0,0,0,0,0c0,0,0,0,0,0l-3.2-1.8c-0.1-0.1-0.4-0.1-0.5,0L267.7,249.9C267.7,249.9,267.7,249.9,267.7,249.9z"/>
						</g>
					</g>
					<g>
						<g>
							<path class="st29" d="M248.1,274.9c0.2,0.1,0.2,0.3,0,0.4l-3.2,1.9c-0.2,0.1-0.5,0.1-0.7,0l-3.2-1.8c-0.2-0.1-0.2-0.3,0-0.4
								l3.2-1.9c0.2-0.1,0.5-0.1,0.7,0L248.1,274.9z"/>
							<path class="st26" d="M244.5,277.5c-0.2,0-0.3,0-0.5-0.1l-3.2-1.8c-0.2-0.1-0.3-0.2-0.3-0.4c0-0.2,0.1-0.3,0.3-0.4l3.2-1.9
								c0.3-0.2,0.7-0.2,0.9,0l3.2,1.8c0.2,0.1,0.3,0.2,0.3,0.4c0,0.2-0.1,0.3-0.3,0.4l-3.2,1.9
								C244.9,277.4,244.7,277.5,244.5,277.5z M241.1,275.1C241.1,275.1,241.1,275.1,241.1,275.1l3.2,1.8c0.1,0.1,0.4,0.1,0.5,0
								l3.2-1.9c0,0,0,0,0,0c0,0,0,0,0,0l-3.2-1.8c-0.1-0.1-0.4-0.1-0.5,0L241.1,275.1C241.1,275.1,241.1,275.1,241.1,275.1z"/>
						</g>
					</g>
					<g>
						<g>
							<path class="st29" d="M243.3,283.1c0.2,0.1,0.2,0.3,0,0.4l-3.2,1.9c-0.2,0.1-0.5,0.1-0.7,0l-3.7-2.2c-0.2-0.1-0.2-0.3,0-0.4
								l3.2-1.9c0.2-0.1,0.5-0.1,0.7,0L243.3,283.1z"/>
							<path class="st26" d="M239.7,285.7c-0.2,0-0.3,0-0.5-0.1l-3.7-2.2c-0.2-0.1-0.3-0.2-0.3-0.4c0-0.2,0.1-0.3,0.3-0.4l3.2-1.9
								c0.3-0.2,0.7-0.2,0.9,0l3.7,2.2c0.2,0.1,0.3,0.2,0.3,0.4c0,0.2-0.1,0.3-0.3,0.4l-3.2,1.9C240,285.6,239.9,285.7,239.7,285.7z
								 M235.7,283C235.7,283,235.7,283,235.7,283l3.8,2.2c0.1,0.1,0.4,0.1,0.5,0l3.2-1.9c0,0,0,0,0,0c0,0,0,0,0,0l-3.7-2.2
								c-0.1-0.1-0.4-0.1-0.5,0L235.7,283C235.7,283,235.7,283,235.7,283z"/>
						</g>
					</g>
					<g>
						<g>
							<path class="st29" d="M257,275.1c0.2,0.1,0.2,0.3,0,0.4l-4.1,2.4c-0.2,0.1-0.5,0.1-0.7,0l-3.7-2.2c-0.2-0.1-0.2-0.3,0-0.4
								l4.1-2.4c0.2-0.1,0.5-0.1,0.7,0L257,275.1z"/>
							<path class="st26" d="M252.5,278.2c-0.2,0-0.3,0-0.5-0.1l-3.7-2.2c-0.2-0.1-0.3-0.2-0.3-0.4c0-0.2,0.1-0.3,0.3-0.4l4.1-2.4
								c0.3-0.2,0.7-0.2,0.9,0l3.7,2.2c0.2,0.1,0.3,0.2,0.3,0.4c0,0.2-0.1,0.3-0.3,0.4l-4.1,2.4
								C252.8,278.2,252.7,278.2,252.5,278.2z M248.5,275.6C248.5,275.6,248.5,275.6,248.5,275.6l3.8,2.2c0.1,0.1,0.4,0.1,0.5,0
								l4.1-2.4c0,0,0,0,0,0c0,0,0,0,0,0l-3.7-2.2c-0.1-0.1-0.4-0.1-0.5,0L248.5,275.6C248.5,275.6,248.5,275.6,248.5,275.6z"/>
						</g>
					</g>
					<g>
						<g>
							<path class="st29" d="M251.8,278.1c0.2,0.1,0.2,0.3,0,0.4l-3.2,1.9c-0.2,0.1-0.5,0.1-0.7,0l-3.7-2.2c-0.2-0.1-0.2-0.3,0-0.4
								l3.2-1.9c0.2-0.1,0.5-0.1,0.7,0L251.8,278.1z"/>
							<path class="st26" d="M248.2,280.7c-0.2,0-0.3,0-0.5-0.1l-3.7-2.2c-0.2-0.1-0.3-0.2-0.3-0.4c0-0.2,0.1-0.3,0.3-0.4l3.2-1.9
								c0.3-0.2,0.7-0.2,0.9,0l3.7,2.2c0.2,0.1,0.3,0.2,0.3,0.4c0,0.2-0.1,0.3-0.3,0.4l-3.2,1.9
								C248.6,280.7,248.4,280.7,248.2,280.7z M244.2,278C244.2,278.1,244.2,278.1,244.2,278l3.8,2.2c0.1,0.1,0.4,0.1,0.5,0l3.2-1.9
								c0,0,0,0,0,0c0,0,0,0,0,0l-3.7-2.2c-0.1-0.1-0.4-0.1-0.5,0L244.2,278C244.2,278,244.2,278,244.2,278z"/>
						</g>
					</g>
					<g>
						<g>
							<path class="st29" d="M243.9,277.3c0.2,0.1,0.2,0.3,0,0.4l-8.5,4.9c-0.2,0.1-0.5,0.1-0.7,0l-3.2-1.8c-0.2-0.1-0.2-0.3,0-0.4
								l8.5-4.9c0.2-0.1,0.5-0.1,0.7,0L243.9,277.3z"/>
							<path class="st26" d="M235,283c-0.2,0-0.3,0-0.5-0.1l-3.2-1.8c-0.2-0.1-0.3-0.2-0.3-0.4c0-0.2,0.1-0.3,0.3-0.4l8.5-4.9
								c0.3-0.2,0.7-0.2,0.9,0l3.2,1.8c0.2,0.1,0.3,0.2,0.3,0.4c0,0.2-0.1,0.3-0.3,0.4l-8.5,4.9C235.3,282.9,235.2,283,235,283z
								 M231.5,280.6C231.6,280.7,231.6,280.7,231.5,280.6l3.2,1.8c0.1,0.1,0.4,0.1,0.5,0l8.5-4.9c0,0,0,0,0,0c0,0,0,0,0,0l-3.2-1.8
								c-0.1-0.1-0.4-0.1-0.5,0L231.5,280.6C231.6,280.6,231.6,280.6,231.5,280.6z"/>
						</g>
					</g>
					<g>
						<g>
							<path class="st29" d="M247.5,280.6c0.2,0.1,0.2,0.3,0,0.4l-3.2,1.9c-0.2,0.1-0.5,0.1-0.7,0l-3.7-2.2c-0.2-0.1-0.2-0.3,0-0.4
								l3.2-1.9c0.2-0.1,0.5-0.1,0.7,0L247.5,280.6z"/>
							<path class="st26" d="M244,283.2c-0.2,0-0.3,0-0.5-0.1l-3.7-2.2c-0.2-0.1-0.3-0.2-0.3-0.4c0-0.2,0.1-0.3,0.3-0.4l3.2-1.9
								c0.3-0.2,0.7-0.2,0.9,0l3.7,2.2c0.2,0.1,0.3,0.2,0.3,0.4c0,0.2-0.1,0.3-0.3,0.4l-3.2,1.9C244.3,283.2,244.1,283.2,244,283.2z
								 M239.9,280.5C239.9,280.5,240,280.5,239.9,280.5l3.8,2.2c0.1,0.1,0.4,0.1,0.5,0l3.2-1.9c0,0,0,0,0,0c0,0,0,0,0,0l-3.7-2.2
								c-0.1-0.1-0.4-0.1-0.5,0L239.9,280.5C240,280.5,239.9,280.5,239.9,280.5z"/>
						</g>
					</g>
					<g>
						<g>
							<path class="st29" d="M296.2,252.3c0.2,0.1,0.2,0.3,0,0.4l-3.2,1.9c-0.2,0.1-0.5,0.1-0.7,0l-3.7-2.2c-0.2-0.1-0.2-0.3,0-0.4
								l3.2-1.9c0.2-0.1,0.5-0.1,0.7,0L296.2,252.3z"/>
							<path class="st26" d="M292.7,254.9c-0.2,0-0.3,0-0.5-0.1l-3.7-2.2c-0.2-0.1-0.3-0.2-0.3-0.4c0-0.2,0.1-0.3,0.3-0.4l3.2-1.9
								c0.3-0.2,0.7-0.2,0.9,0l3.7,2.2c0.2,0.1,0.3,0.2,0.3,0.4c0,0.2-0.1,0.3-0.3,0.4l-3.2,1.9C293,254.9,292.8,254.9,292.7,254.9z
								 M288.6,252.2C288.6,252.2,288.7,252.2,288.6,252.2l3.8,2.2c0.1,0.1,0.4,0.1,0.5,0l3.2-1.9c0,0,0,0,0,0c0,0,0,0,0,0l-3.7-2.2
								c-0.1-0.1-0.4-0.1-0.5,0L288.6,252.2C288.7,252.2,288.6,252.2,288.6,252.2z"/>
						</g>
					</g>
					<g>
						<g>
							<path class="st29" d="M292,254.8c0.2,0.1,0.2,0.3,0,0.4l-3.2,1.9c-0.2,0.1-0.5,0.1-0.7,0l-1.5-0.9c-0.2-0.1-0.2-0.3,0-0.4
								l3.2-1.9c0.2-0.1,0.5-0.1,0.7,0L292,254.8z"/>
							<path class="st26" d="M288.5,257.3c-0.2,0-0.3,0-0.5-0.1l-1.5-0.9c-0.2-0.1-0.3-0.2-0.3-0.4c0-0.2,0.1-0.3,0.3-0.4l3.2-1.9
								c0.3-0.2,0.7-0.2,0.9,0l1.5,0.9c0.2,0.1,0.3,0.2,0.3,0.4c0,0.2-0.1,0.3-0.3,0.4l-3.2,1.9
								C288.8,257.3,288.6,257.3,288.5,257.3z M286.6,255.9C286.6,255.9,286.6,255.9,286.6,255.9l1.6,0.9c0.1,0.1,0.4,0.1,0.5,0
								l3.2-1.9c0,0,0,0,0,0c0,0,0,0,0,0l-1.5-0.9c-0.1-0.1-0.4-0.1-0.5,0L286.6,255.9C286.6,255.9,286.6,255.9,286.6,255.9z"/>
						</g>
					</g>
					<g>
						<g>
							<path class="st29" d="M282,255.1c0.2,0.1,0.2,0.3,0,0.4l-3.2,1.9c-0.2,0.1-0.5,0.1-0.7,0l-3.2-1.8c-0.2-0.1-0.2-0.3,0-0.4
								l3.2-1.9c0.2-0.1,0.5-0.1,0.7,0L282,255.1z"/>
							<path class="st26" d="M278.5,257.7c-0.2,0-0.3,0-0.5-0.1l-3.2-1.8c-0.2-0.1-0.3-0.2-0.3-0.4c0-0.2,0.1-0.3,0.3-0.4l3.2-1.9
								c0.3-0.2,0.7-0.2,0.9,0l3.2,1.8c0.2,0.1,0.3,0.2,0.3,0.4c0,0.2-0.1,0.3-0.3,0.4l-3.2,1.9
								C278.8,257.7,278.6,257.7,278.5,257.7z M275,255.4C275,255.4,275,255.4,275,255.4l3.2,1.8c0.1,0.1,0.4,0.1,0.5,0l3.2-1.9
								c0,0,0,0,0,0c0,0,0,0,0,0l-3.2-1.8c-0.1-0.1-0.4-0.1-0.5,0L275,255.4C275,255.4,275,255.4,275,255.4z"/>
						</g>
					</g>
					<g>
						<g>
							<path class="st29" d="M283.4,259.8c0.2,0.1,0.2,0.3,0,0.4l-4.1,2.4c-0.2,0.1-0.5,0.1-0.7,0l-3.7-2.2c-0.2-0.1-0.2-0.3,0-0.4
								l4.1-2.4c0.2-0.1,0.5-0.1,0.7,0L283.4,259.8z"/>
							<path class="st26" d="M278.9,262.9c-0.2,0-0.3,0-0.5-0.1l-3.7-2.2c-0.2-0.1-0.3-0.2-0.3-0.4c0-0.2,0.1-0.3,0.3-0.4l4.1-2.4
								c0.3-0.2,0.7-0.2,0.9,0l3.7,2.2c0.2,0.1,0.3,0.2,0.3,0.4c0,0.2-0.1,0.3-0.3,0.4l-4.1,2.4
								C279.2,262.9,279.1,262.9,278.9,262.9z M274.9,260.2C274.9,260.2,274.9,260.2,274.9,260.2l3.8,2.2c0.1,0.1,0.4,0.1,0.5,0
								l4.1-2.4c0,0,0,0,0,0c0,0,0,0,0,0l-3.7-2.2c-0.1-0.1-0.4-0.1-0.5,0L274.9,260.2C274.9,260.2,274.9,260.2,274.9,260.2z"/>
						</g>
					</g>
					<g>
						<g>
							<path class="st29" d="M287.8,257.2c0.2,0.1,0.2,0.3,0,0.4l-3.2,1.9c-0.2,0.1-0.5,0.1-0.7,0l-3.7-2.2c-0.2-0.1-0.2-0.3,0-0.4
								l3.2-1.9c0.2-0.1,0.5-0.1,0.7,0L287.8,257.2z"/>
							<path class="st26" d="M284.2,259.8c-0.2,0-0.3,0-0.5-0.1l-3.7-2.2c-0.2-0.1-0.3-0.2-0.3-0.4c0-0.2,0.1-0.3,0.3-0.4l3.2-1.9
								c0.3-0.2,0.7-0.2,0.9,0l3.7,2.2c0.2,0.1,0.3,0.2,0.3,0.4c0,0.2-0.1,0.3-0.3,0.4l-3.2,1.9
								C284.6,259.8,284.4,259.8,284.2,259.8z M280.2,257.1C280.2,257.1,280.2,257.1,280.2,257.1l3.8,2.2c0.1,0.1,0.4,0.1,0.5,0
								l3.2-1.9c0,0,0,0,0,0c0,0,0,0,0,0l-3.7-2.2c-0.1-0.1-0.4-0.1-0.5,0L280.2,257.1C280.2,257.1,280.2,257.1,280.2,257.1z"/>
						</g>
					</g>
					<g>
						<g>
							<path class="st29" d="M265.1,265c0.2,0.1,0.2,0.3,0,0.4l-3.2,1.9c-0.2,0.1-0.5,0.1-0.7,0l-3.2-1.8c-0.2-0.1-0.2-0.3,0-0.4
								l3.2-1.9c0.2-0.1,0.5-0.1,0.7,0L265.1,265z"/>
							<path class="st26" d="M261.5,267.6c-0.2,0-0.3,0-0.5-0.1l-3.2-1.8c-0.2-0.1-0.3-0.2-0.3-0.4c0-0.2,0.1-0.3,0.3-0.4l3.2-1.9
								c0.3-0.2,0.7-0.2,0.9,0l3.2,1.8c0.2,0.1,0.3,0.2,0.3,0.4c0,0.2-0.1,0.3-0.3,0.4l-3.2,1.9
								C261.8,267.5,261.7,267.6,261.5,267.6z M258,265.3C258.1,265.3,258.1,265.3,258,265.3l3.2,1.8c0.1,0.1,0.4,0.1,0.5,0l3.2-1.9
								c0,0,0,0,0,0c0,0,0,0,0,0l-3.2-1.8c-0.1-0.1-0.4-0.1-0.5,0L258,265.3C258.1,265.2,258.1,265.2,258,265.3z"/>
						</g>
					</g>
					<g>
						<g>
							<path class="st29" d="M278.2,262.8c0.2,0.1,0.2,0.3,0,0.4l-20.1,11.7c-0.2,0.1-0.5,0.1-0.7,0l-3.7-2.2
								c-0.2-0.1-0.2-0.3,0-0.4l20.1-11.7c0.2-0.1,0.5-0.1,0.7,0L278.2,262.8z"/>
							<path class="st26" d="M257.7,275.2c-0.2,0-0.3,0-0.5-0.1l-3.7-2.2c-0.2-0.1-0.3-0.2-0.3-0.4c0-0.2,0.1-0.3,0.3-0.4l20.1-11.7
								c0.3-0.2,0.7-0.2,0.9,0l3.7,2.2c0.2,0.1,0.3,0.2,0.3,0.4c0,0.2-0.1,0.3-0.3,0.4l-20.1,11.7
								C258.1,275.2,257.9,275.2,257.7,275.2z M253.7,272.5C253.7,272.5,253.7,272.5,253.7,272.5l3.8,2.2c0.1,0.1,0.4,0.1,0.5,0
								l20.1-11.7c0,0,0,0,0,0c0,0,0,0,0,0l-3.7-2.2c-0.1-0.1-0.4-0.1-0.5,0L253.7,272.5C253.7,272.5,253.7,272.5,253.7,272.5z"/>
						</g>
					</g>
					<g>
						<g>
							<path class="st29" d="M252.3,272.4c0.2,0.1,0.2,0.3,0,0.4l-3.2,1.9c-0.2,0.1-0.5,0.1-0.7,0l-3.2-1.8c-0.2-0.1-0.2-0.3,0-0.4
								l3.2-1.9c0.2-0.1,0.5-0.1,0.7,0L252.3,272.4z"/>
							<path class="st26" d="M248.8,275c-0.2,0-0.3,0-0.5-0.1l-3.2-1.8c-0.2-0.1-0.3-0.2-0.3-0.4c0-0.2,0.1-0.3,0.3-0.4l3.2-1.9
								c0.3-0.2,0.7-0.2,0.9,0l3.2,1.8c0.2,0.1,0.3,0.2,0.3,0.4c0,0.2-0.1,0.3-0.3,0.4l-3.2,1.9C249.1,274.9,248.9,275,248.8,275z
								 M245.3,272.6C245.3,272.7,245.3,272.7,245.3,272.6l3.2,1.8c0.1,0.1,0.4,0.1,0.5,0l3.2-1.9c0,0,0,0,0,0c0,0,0,0,0,0l-3.2-1.8
								c-0.1-0.1-0.4-0.1-0.5,0L245.3,272.6C245.3,272.6,245.3,272.6,245.3,272.6z"/>
						</g>
					</g>
					<g>
						<g>
							<path class="st29" d="M237.5,276.1c0.2,0.1,0.2,0.3,0,0.4l-6.3,3.7c-0.2,0.1-0.5,0.1-0.7,0l-3.2-1.8c-0.2-0.1-0.2-0.3,0-0.4
								l6.3-3.7c0.2-0.1,0.5-0.1,0.7,0L237.5,276.1z"/>
							<path class="st26" d="M230.8,280.6c-0.2,0-0.3,0-0.5-0.1l-3.2-1.8c-0.2-0.1-0.3-0.2-0.3-0.4c0-0.2,0.1-0.3,0.3-0.4l6.3-3.7
								c0.3-0.2,0.7-0.2,0.9,0l3.2,1.8c0.2,0.1,0.3,0.2,0.3,0.4c0,0.2-0.1,0.3-0.3,0.4l-6.3,3.7C231.1,280.5,231,280.6,230.8,280.6z
								 M227.4,278.2C227.4,278.2,227.4,278.2,227.4,278.2l3.2,1.8c0.1,0.1,0.4,0.1,0.5,0l6.3-3.7c0,0,0,0,0,0c0,0,0,0,0,0l-3.2-1.8
								c-0.1-0.1-0.4-0.1-0.5,0L227.4,278.2C227.4,278.2,227.4,278.2,227.4,278.2z"/>
						</g>
					</g>
					<g>
						<g>
							<path class="st29" d="M232.2,274.3c0.2,0.1,0.2,0.3,0,0.4l-5.3,3.1c-0.2,0.1-0.5,0.1-0.7,0l-3.2-1.8c-0.2-0.1-0.2-0.3,0-0.4
								l5.3-3.1c0.2-0.1,0.5-0.1,0.7,0L232.2,274.3z"/>
							<path class="st26" d="M226.6,278.1c-0.2,0-0.3,0-0.5-0.1l-3.2-1.8c-0.2-0.1-0.3-0.2-0.3-0.4c0-0.2,0.1-0.3,0.3-0.4l5.3-3.1
								c0.3-0.2,0.7-0.2,0.9,0l3.2,1.8c0.2,0.1,0.3,0.2,0.3,0.4c0,0.2-0.1,0.3-0.3,0.4l-5.3,3.1
								C226.9,278.1,226.8,278.1,226.6,278.1z M223.2,275.8C223.2,275.8,223.2,275.8,223.2,275.8l3.2,1.8c0.1,0.1,0.4,0.1,0.5,0
								l5.3-3.1c0,0,0,0,0,0c0,0,0,0,0,0l-3.2-1.8c-0.1-0.1-0.4-0.1-0.5,0L223.2,275.8C223.2,275.8,223.2,275.8,223.2,275.8z"/>
						</g>
					</g>
					<g>
						<g>
							<path class="st29" d="M239.5,260.5c0.2,0.1,0.2,0.3,0,0.4l-3.2,1.9c-0.2,0.1-0.5,0.1-0.7,0l-1.7-1c-0.2-0.1-0.2-0.3,0-0.4
								l3.2-1.9c0.2-0.1,0.5-0.1,0.7,0L239.5,260.5z"/>
							<path class="st26" d="M235.9,263.1c-0.2,0-0.3,0-0.5-0.1l-1.7-1c-0.2-0.1-0.3-0.2-0.3-0.4c0-0.2,0.1-0.3,0.3-0.4l3.2-1.9
								c0.3-0.2,0.7-0.2,0.9,0l1.7,1c0.2,0.1,0.3,0.2,0.3,0.4c0,0.2-0.1,0.3-0.3,0.4l-3.2,1.9C236.3,263.1,236.1,263.1,235.9,263.1z
								 M234,261.6C234,261.6,234,261.7,234,261.6l1.7,1c0.1,0.1,0.4,0.1,0.5,0l3.2-1.9c0,0,0,0,0,0c0,0,0,0,0,0l-1.7-1
								c-0.1-0.1-0.4-0.1-0.5,0L234,261.6C234,261.6,234,261.6,234,261.6z"/>
						</g>
					</g>
				</g>
			</g>
		</g>
		<g>
			<g>
				<g>
					<path class="st28" d="M198.5,314.7c5.2,3,5.2,7.8,0.1,10.8c-5.1,3-13.5,3-18.7,0c-5.2-3-5.2-7.8-0.1-10.8
						C185,311.8,193.4,311.8,198.5,314.7z"/>
				</g>
				<g>
					<g>
						<path class="st37" d="M190.5,298.9c0.1,0,0.1,0.1,0,0.2c-0.1,0-0.2,0-0.3,0c-0.1,0-0.1-0.1,0-0.2
							C190.2,298.9,190.4,298.9,190.5,298.9z"/>
					</g>
					<g>
						<g>
							<g class="st8">
								<path class="st38" d="M199.7,300.3c-0.4,0.1-0.8,0.2-1.2,0.5c-0.2,0.2-0.4,0.4-0.6,0.6c0.6-0.3,1.3-0.6,2-0.6
									c0.7,0,1,0.2,1.3,0.8c0.6,1.3,0.5,2.9,0.3,4.3c-0.4,2.1-1.3,4.2-2.5,6c-1,1.4-2.2,2.7-3.7,3.6c0.1-0.1,1,0.6,1.1,0.6
									c0.6,0.3,1.1,0.7,1.7,1c0.1,0,0.2,0.1,0.2,0.1c0.4,0,1.1-0.7,1.4-1c1-0.9,1.9-2,2.6-3.2c1.5-2.5,2.6-5.5,2.3-8.4
									c-0.1-1.3-0.6-2.6-1.7-3.5C202.1,300.2,200.9,300,199.7,300.3z"/>
							</g>
						</g>
						<g>
							<path class="st18" d="M198.4,299.9c3.7-2.1,7.2-0.1,7.2,4.9c0,5-3.5,11.1-7.2,13.2c0-0.1,0-0.9,0-1c3.2-1.8,6.3-7.3,6.3-11.8
								c0-4.5-3.2-6.3-6.4-4.4C198.4,300.8,198.4,300,198.4,299.9z"/>
						</g>
						<g>
							<path class="st39" d="M205.8,303.3c-0.2-1.6-0.8-3-1.9-4.2c-0.7-0.7-1.8-1.4-2.7-1.7c-0.4-0.1-0.8-0.2-1.2-0.3
								c-0.2,0-0.4-0.1-0.6-0.1c-0.1,0-0.4,0-0.2,0c-1.4,0-2.6,0.4-3.8,1c0.1,0,0.8,0.4,0.8,0.5c0.6,0.4,1.2,0.7,1.8,1.1
								c0.1,0.1,0.2,0.1,0.3,0.2c0.3,0.1,0.4,0,0.7-0.2c0.6-0.3,1.4-0.5,2.1-0.6c3.2-0.2,4.7,3,4.7,5.7c0,2.6-0.9,5.2-2.1,7.5
								c-0.7,1.3-1.5,2.5-2.5,3.6c-0.5,0.5-0.9,1-1.5,1.4c-0.2,0.2-0.5,0.4-0.8,0.5c-0.3,0.2-0.5,0.5-0.8,0.7
								c3.9-2.3,6.6-6.8,7.5-11.2C205.8,306,205.9,304.6,205.8,303.3z"/>
						</g>
					</g>
					<g>
						<path class="st11" d="M198.7,298.5l-0.1,22c0,1.9-1.3,3.9-3.8,5.4c-5.1,3-13.5,3-18.7,0c-2.6-1.5-3.9-3.5-3.9-5.5l0.1-22
							c0,2,1.3,3.9,3.9,5.5c5.2,3,13.6,3,18.7,0C197.4,302.4,198.7,300.4,198.7,298.5z"/>
					</g>
					<g>
						<g>
							<path class="st6" d="M194.8,293c5.2,3,5.2,7.8,0.1,10.8c-5.1,3-13.5,3-18.7,0c-5.2-3-5.2-7.8-0.1-10.8
								C181.2,290,189.6,290,194.8,293z"/>
						</g>
					</g>
					<g>
						<path class="st4" d="M194.8,303.8c0.6-0.4,1.2-0.8,1.6-1.2c0.6-2-0.4-4.2-3.1-5.8c-4.4-2.5-11.5-2.5-15.8,0
							c-2.7,1.6-3.7,3.7-3.1,5.7c0.5,0.4,1.1,0.8,1.7,1.2C181.3,306.8,189.7,306.8,194.8,303.8z"/>
					</g>
					<g class="st12">
						<path class="st18" d="M194.9,303.7c-1.2,0.7-2.6,1.3-4.1,1.6v22c1.5-0.4,2.9-0.9,4.1-1.6c2.6-1.5,3.8-3.4,3.8-5.4l0.1-22
							C198.7,300.3,197.5,302.3,194.9,303.7z"/>
					</g>
					<path class="st40" d="M193.4,296.9c-3.7-2.1-9.3-2.5-13.6-1c5.7,0.3,10.1,2.6,10.1,5.3c0,2.1-2.6,3.9-6.4,4.8
						c4,0.4,8.3-0.3,11.4-2.1c0.6-0.4,1.2-0.8,1.6-1.2C197.1,300.6,196.1,298.5,193.4,296.9z"/>
					<path class="st40" d="M180.7,298.7c0,0.3-0.4,0.5-0.8,0.5c-0.5,0-0.8-0.2-0.8-0.5s0.4-0.5,0.8-0.5
						C180.3,298.2,180.7,298.4,180.7,298.7z"/>
					<path class="st40" d="M181.8,301.2c0,0.3-0.4,0.5-0.9,0.5c-0.5,0-0.9-0.2-0.9-0.5c0-0.3,0.4-0.5,0.9-0.5
						C181.4,300.7,181.8,300.9,181.8,301.2z"/>
					<path class="st41" d="M185.5,299.4c0,0.4-0.6,0.7-1.3,0.7s-1.3-0.3-1.3-0.7s0.6-0.7,1.3-0.7S185.5,299,185.5,299.4z"/>
					<g>
						<path class="st3" d="M185.5,292.4L185.5,292.4c3.3,0,6.3,0.7,8.6,2c2,1.2,3.1,2.6,3.1,4.1c0,1.4-1.1,2.9-3.1,4
							c-2.3,1.3-5.3,2-8.5,2c-3.3,0-6.3-0.7-8.6-2c-2-1.2-3.1-2.6-3.1-4.1c0-1.4,1.1-2.9,3.1-4C179.2,293.1,182.2,292.4,185.5,292.4
							 M185.5,290.8c-3.4,0-6.8,0.7-9.3,2.2c-5.1,3-5.1,7.8,0.1,10.8c2.6,1.5,6,2.2,9.4,2.2c3.4,0,6.8-0.7,9.3-2.2
							c5.1-3,5.1-7.8-0.1-10.8C192.2,291.5,188.9,290.8,185.5,290.8L185.5,290.8z"/>
					</g>
				</g>
			</g>
			<g class="st42">
				<linearGradient id="SVGID_8_" gradientUnits="userSpaceOnUse" x1="184.053" y1="288.4948" x2="184.053" y2="229.7977">
					<stop  offset="0" style="stop-color:#FFFFFF;stop-opacity:0"/>
					<stop  offset="0.3677" style="stop-color:#FFFFFF"/>
					<stop  offset="0.9947" style="stop-color:#FFFFFF"/>
				</linearGradient>
				<path class="st43" d="M190.3,231c-1.3,0.4-2.6,0.8-3.6,1.5c-1,0.7-1.8,1.5-2.4,2.4c-1.1,1.8-1.4,4-1.4,6.3
					c0,2.3,0.7,4.4,1.6,6.6c0.4,1.1,1,2.2,1.5,3.3l1.7,3.5c1.2,2.4,2.5,5,3.4,8c0.5,1.5,0.8,3.1,1.1,4.7c0,0.4,0.1,0.8,0.1,1.2
					l0,0.6l0,0.6c0,0.7,0,1.5,0,2.2c-0.1,3-0.5,5.9-1.4,8.9c-0.5,1.5-1.1,2.9-1.8,4.2c-0.8,1.3-1.8,2.6-3,3.5l-0.7-0.4
					c0.2-2.9-0.1-5.4-0.5-8c-0.4-2.5-0.9-5.1-1.4-7.6l-0.4-1.9l-0.1-0.5l-0.1-0.4l-0.2-0.8c-0.3-1-0.7-2.1-1.1-3.2
					c-0.8-2.2-1.9-4.6-3-7.2c-1.1-2.6-2.1-5.5-2.6-8.6c-0.6-3.1-0.5-6.6,0.3-9.7c0.4-1.6,0.9-3.1,1.7-4.6c0.8-1.5,1.9-2.9,3.3-3.9
					c1.4-1.1,3-1.7,4.6-1.9c0.8-0.1,1.6-0.1,2.3-0.1c0.8,0.1,1.5,0.2,2.2,0.4L190.3,231z"/>
			</g>
		</g>
		<g>
			<g>
				<path class="st28" d="M325.2,181.8c5,2.9,5,7.6-0.1,10.5c-5.1,2.9-13.2,2.9-18.2,0c-5-2.9-5-7.6,0.1-10.5
					C312,179,320.2,178.9,325.2,181.8z"/>
				<path class="st6" d="M323.4,189.2c0,0,0-21,0-21h-25.8l0,21c0,1.9,1.2,3.8,3.7,5.3c5,2.9,13.2,2.9,18.2,0
					C322.1,193,323.4,191.1,323.4,189.2L323.4,189.2L323.4,189.2z"/>
				<path class="st26" d="M323.4,168.3h-8.7v28c1.8-0.4,3.5-0.9,4.9-1.8c2.5-1.5,3.8-3.4,3.8-5.3h0v0
					C323.4,189.2,323.4,168.3,323.4,168.3z"/>
				<path class="st44" d="M319.6,162.9c5,2.9,5,7.6-0.1,10.5c-5.1,2.9-13.2,2.9-18.2,0c-5-2.9-5-7.6,0.1-10.5
					C306.5,160.1,314.6,160,319.6,162.9z"/>
				<path class="st4" d="M319.6,166.4c-5-2.9-13.2-2.9-18.2,0c-1.8,1-2.9,2.3-3.4,3.6c0.5,1.3,1.6,2.5,3.4,3.5
					c5,2.9,13.2,2.9,18.2,0c1.8-1,2.9-2.3,3.4-3.6C322.5,168.6,321.4,167.4,319.6,166.4z"/>
				<path class="st3" d="M319.6,162.9c0.9,0.4,1.8,0.8,2.5,1.5c0.8,0.7,1.4,1.6,1.7,2.6c0.3,1.1,0.3,2.3-0.1,3.3
					c-0.4,1.1-1.1,2-1.8,2.7c-1.6,1.5-3.5,2.4-5.4,3c-2,0.6-4,0.9-6,0.9c-2,0-4.1-0.3-6.1-0.9c-2-0.6-3.9-1.5-5.5-3
					c-0.8-0.8-1.5-1.7-1.8-2.7c-0.4-1.1-0.4-2.3-0.1-3.3c0.4-1,1-1.9,1.8-2.6c0.8-0.7,1.7-1.1,2.5-1.5c-0.7,0.6-1.4,1.3-2,2
					c-0.5,0.7-0.9,1.6-1,2.4c-0.3,1.7,0.7,3.1,2,4.1c1.4,1,3,1.7,4.7,2.1c1.7,0.4,3.5,0.6,5.3,0.6c1.8,0,3.6-0.2,5.3-0.7
					c1.7-0.4,3.4-1.2,4.7-2.1c1.3-1,2.3-2.5,2.1-4.1c-0.1-0.8-0.5-1.6-1-2.4C321.1,164.2,320.4,163.6,319.6,162.9z"/>
			</g>
			<g>
				<path class="st11" d="M296.7,147.7c-1-1.2-2-2.6-2.1-4.2c-0.1-1.6,1-3.4,2.7-3.4c1.5,0,2.6,1.4,3.7,2.5c1.1,1.1,3,1.9,4,0.8
					c1-1.1,0.1-2.8-0.8-4c-1.5-2-3-4.1-4.5-6.1c-1.2-1.6-3.2-4.6-1.5-6.5c0.9-1,2.7-1.2,3.8-0.3c1,0.8,2.1,3.1,3.7,2.1
					c0.9-0.5,0.9-1.8,0.3-2.7c-0.4-0.7-1.2-1.3-1.7-2c-0.6-0.7-1.1-1.5-1.5-2.4c-0.9-1.9-3.3-8.6,0.2-9.3c1.1-0.2,4,3,4.6,2.1
					c0.8-1.3-0.5-8.3,3.4-12.2c1.2-1.2,2.6-2.8,4.5-2.5c1.9,0.3,2.9,2.5,2.7,4.4c-0.2,1.9-1.4,3.5-2.7,5c-1.2,1.5-2.5,2.9-3.1,4.7
					c-0.9,2.9,2.2,4.4,3.2,1.1c0.3-0.8,0.5-1.7,1-2.3c1.3-1.3,3.2,0.1,3.4,1.6c0.1,1.4-0.7,2.8-1.8,3.8c-1,1-2.2,1.9-2.9,3.2
					c-0.7,1.3-0.7,3.1,0.4,3.9c2.3,1.8,5.7-1.6,7.5,1.5c0.8,1.4,0.4,3.3-0.7,4.5c-1.9,2.3-5.3,2.8-6.2,6c-0.5,1.7,0.5,3.5,2.3,3.7
					c2.2,0.3,3.3-2.6,5.5-2.1c1.3,0.2,2,1.7,1.9,3c-0.5,4.9-4.9,9.6-8.6,12.5c-1.9,1.5-4.1,2.6-6.6,2.8c-2.9,0.2-4.8-1.1-7-2.7
					C301.4,152.5,298.9,150.2,296.7,147.7z"/>
				<path class="st45" d="M318.9,145.3c-0.2-0.2-0.5-0.2-0.7,0l0,0c-1,0.9-2.2,1.6-3.4,2.2c-1.1,0.5-2.3,0.9-3.5,1.2l-0.2-14.1
					c0,0,0,0,0.1,0l0,0c1.2-0.4,2.5-0.9,3.6-1.6c1.1-0.7,2.1-1.5,3-2.5c0.2-0.2,0.2-0.4,0-0.6c-0.2-0.2-0.5-0.2-0.7,0
					c-1.7,1.5-3.8,2.5-6,3l-0.1-11.7c0-0.2-0.2-0.5-0.5-0.5c-0.3,0-0.5,0.2-0.5,0.5l-0.2,16.2c-0.9-0.5-1.8-1-2.6-1.7
					c-1-0.8-1.9-1.7-2.7-2.8c-0.1-0.2-0.4-0.2-0.6-0.1c-0.2,0.1-0.3,0.4-0.2,0.6c0.7,1.2,1.5,2.3,2.5,3.2c1,1,2.1,1.8,3.3,2.5
					c0,0,0.1,0,0.1,0c0,0,0.1,0,0.1,0l-0.1,12.7c-1.3-0.5-2.6-1.1-3.8-1.8c-1.4-0.8-2.8-1.7-3.8-2.8l0,0c-0.2-0.2-0.4-0.2-0.6-0.1
					c-0.2,0.2-0.2,0.4-0.1,0.6c0.5,0.7,1.2,1.3,1.8,1.9c0.7,0.5,1.3,1,2.1,1.5c1.4,0.9,2.9,1.8,4.5,2.5l-0.2,16.6c0,0,0,0,0,0
					c0,0.6,0.5,1,1,1s1-0.5,1-1l-0.2-20c0,0,0,0,0.1,0c1.4-0.5,2.7-1.1,4-1.8c1.3-0.7,2.5-1.6,3.5-2.7
					C319,145.8,319,145.5,318.9,145.3z"/>
			</g>
		</g>
	</g>
	<g>
		<g class="st12">
			<g>
				<path class="st3" d="M383.6,402.3c14.5,8.4,14.6,22,0.2,30.4c-14.4,8.4-37.9,8.4-52.4,0c-14.5-8.4-14.6-22-0.2-30.3
					C345.6,393.9,369.1,393.9,383.6,402.3z"/>
			</g>
		</g>
		<g>
			<g>
				<path class="st46" d="M365.7,403.3c-0.3,0.4-0.7,0.8-1.3,1.1c14.7-4,27.7,1.5,31.7,3.4h0c-1.9-2.1-4.7-4-8.2-5.7c0,0,0,0,0,0
					c-7.6-2.9-18.5-3.2-23.5-1.9l-0.1,0.1C365.7,401.3,366.3,402.3,365.7,403.3z"/>
				<path class="st47" d="M364.4,404.5c1.2,0.6,2.4,1.4,3.6,2.2c3.9-0.9,10.9-0.9,14.4-0.5c2.2,0.2,5.2,1.1,7.9,2.1l0.4,0
					c0,0-0.1,0.1-0.1,0.1c-0.6,0.6-1,1.4-1,2.3c0,1.9,1.7,3.5,3.9,3.5c2.1,0,3.8-1.6,3.8-3.5c0-1.1-0.6-2.1-1.5-2.8l0.3,0
					C392,406,379.1,400.5,364.4,404.5z"/>
				<path class="st46" d="M357.3,405.6c-0.4,0-0.8-0.1-1.2-0.1c-2-0.3-3.7-0.9-4.7-1.6h0c-1.6,0.8-3.2,1.6-4.6,2.6
					c-7.2,4.7-12.4,11.6-15.4,19.7c0.5,0.2,0.9,0.3,1.4,0.5c1.3,0.4,2.6,0.8,4,1.2c0.2-0.1,0.4-0.3,0.7-0.4c0.3-0.8,0.7-1.5,1.2-2.4
					c3.9-7.2,11.6-16.6,18.2-19.2C356.9,405.7,357.1,405.7,357.3,405.6c6.4,3.8,15.8,11.9,19.8,21.2c0.3,0.8,0.6,1.5,0.9,2.3
					c1.8-0.4,3.6-0.8,5.3-1.3c0.1,0,0.1,0,0.1,0c-1.1-6.5-7.9-15.7-15.3-21c-1.2-0.9-2.4-1.6-3.6-2.2
					C362.7,405.3,360.1,405.8,357.3,405.6z"/>
				<path class="st47" d="M378,429.2c-0.1,0-0.1-0.1-0.2-0.1c0,0,0.1,0,0.1,0c-0.2-0.8-0.5-1.5-0.9-2.3c-4-9.2-13.4-17.4-19.8-21.1
					c-0.2,0.1-0.3,0.1-0.5,0.2c-6.7,2.6-14.4,12-18.2,19.2c-0.4,0.8-0.8,1.6-1.2,2.4c-0.1,0.2-0.2,0.4-0.3,0.6
					c-0.2-0.1-0.3-0.1-0.5-0.1c-1.4-0.4-2.7-0.8-4-1.2c-0.4,0.6-0.6,1.3-0.6,2c0,2.2,2,4,4.5,4c2.4,0,4.3-1.7,4.4-3.9
					c0-0.1,0-0.1,0-0.2c0-0.9-0.4-1.8-0.9-2.5c0,0-0.1-0.1-0.1-0.1c0.1-0.1,0.2-0.1,0.2-0.1c1.4-2.4,6.4-8.1,7.8-9.6
					c2.8-3,5.6-5.5,8.6-7.7c0,0,0,0,0,0c3.7,2.4,8,4.9,10.8,8.1c2.7,3.1,6.1,7.9,8.3,11.1c0.1,0,0.1,0.1,0.2,0.1c0,0,0,0.1-0.1,0.1
					c-0.3,0.5-0.5,1-0.6,1.6c0,0.2,0,0.3,0,0.5c0,2.2,2,4,4.4,4c2.5,0,4.4-1.8,4.4-4.1c0-0.9-0.3-1.7-0.8-2.3
					c-1.7,0.5-3.4,0.9-5.3,1.3C377.9,429.1,377.9,429.1,378,429.2z"/>
				<path class="st48" d="M378,429.2c0,0,0-0.1,0-0.2c0,0-0.1,0-0.1,0C377.8,429.1,377.9,429.1,378,429.2z"/>
				<path class="st46" d="M356.9,401.8c-0.6-0.1-1.1-0.2-1.5-0.3l0-1.6c-0.6,0.2-1.2,0.4-1.5,0.7c-0.1,0.1-0.1,0.1-0.2,0.2
					c-0.5,0.7,0.3,1.5,1.7,2c0.4,0.1,0.9,0.3,1.5,0.3c1.7,0.2,3.4,0,4.5-0.5c0.4-0.2,0.7-0.4,0.9-0.7c0.3-0.4,0.2-0.8-0.2-1.2
					c-0.2-0.2-0.4-0.3-0.7-0.5l0,1C360.3,401.8,358.6,402,356.9,401.8z"/>
				<path class="st47" d="M361.4,398.2l0-2.3c-1.3-0.1-2.6-0.2-3.9-0.2C358.4,396,360,397.1,361.4,398.2z"/>
				<path class="st47" d="M355.4,395.7l0,2.8l0,0.6c-0.6,0.1-1.1,0.2-1.6,0.3c0,0-0.1,0-0.1,0c-0.2,0.1-0.5,0.1-0.7,0.2h0
					c-1.3,0.4-2.3,1-2.7,1.7c-0.6,0.9-0.1,1.9,1,2.6h0c1.1,0.7,2.7,1.3,4.7,1.6c0.4,0,0.8,0.1,1.2,0.1c2.8,0.2,5.5-0.2,7.1-1.1
					c0.6-0.3,1.1-0.7,1.3-1.1c0.6-1,0-2.1-1.4-2.9c-0.6-0.3-1.3-0.6-2.1-0.9c-0.2-0.1-0.5-0.1-0.8-0.2V399l0-0.8
					c-1.4-1-3-2.2-3.9-2.5c1.3,0.1,2.6,0.1,3.9,0.2l0-5.4l-6,3.4L355.4,395.7z M362.1,400.8c0.3,0.4,0.4,0.8,0.2,1.2
					c-0.2,0.3-0.5,0.5-0.9,0.7c-1.1,0.5-2.8,0.7-4.5,0.5c-0.6-0.1-1.1-0.2-1.5-0.3c-1.4-0.5-2.1-1.3-1.7-2c0.1-0.1,0.1-0.2,0.2-0.2
					c0.3-0.3,0.8-0.6,1.5-0.7l0,1.6c0.4,0.1,0.9,0.3,1.5,0.3c1.7,0.2,3.4,0,4.5-0.5l0-1C361.7,400.5,361.9,400.7,362.1,400.8z"/>
				<path class="st46" d="M355.4,399.1l0-0.6c-0.7,0.2-1.3,0.5-1.6,0.8C354.3,399.2,354.8,399.1,355.4,399.1z"/>
				<path class="st46" d="M353.7,399.3c0,0,0.1,0,0.1,0c0.3-0.4,0.9-0.6,1.6-0.8l0-2.8c-1,0-2,0-3,0l-0.9,0.5
					C352.6,396.8,353.3,398,353.7,399.3z"/>
				<path class="st47" d="M353,399.5c0.2-0.1,0.5-0.1,0.7-0.2c-0.4-1.3-1.1-2.5-2.2-3.2l-0.8,0.5c0,0.7,0,1.7,0,2.1c0,0,0,0,0,0
					c0.1,0.2,0.2,0.3,0.3,0.5l0,0.1C351.6,399.4,352.3,399.5,353,399.5L353,399.5z"/>
				<path class="st46" d="M320.9,405.5c12.9-3.7,27.1-2.4,30.3-1.7c-1.1-0.8-1.6-1.7-1-2.6c0.5-0.7,1.4-1.3,2.7-1.7
					c-0.7-0.1-1.4-0.1-2.1-0.2c-9.5-0.8-19.8,0-29.9,4c-1.4,1-2.6,2.1-3.6,3.2l0.1,0l0.7,0c0.2-0.2,0.4-0.4,0.6-0.5
					C319.4,405.8,320.2,405.5,320.9,405.5z"/>
				<path class="st47" d="M320.9,405.5c-0.7,0.2-1.4,0.4-2.1,0.6c-0.2,0.1-0.4,0.3-0.6,0.5c-0.6,0.6-1,1.4-1,2.4
					c0,1.9,1.7,3.5,3.9,3.5c2.1,0,3.8-1.6,3.8-3.5c0-0.6-0.2-1.1-0.4-1.6c0-0.1-0.1-0.1-0.1-0.2l1,0.1c2.8-0.4,5.7-0.6,8.4-0.8
					c4-0.5,9-0.8,13,0.1c1.5-0.9,3-1.8,4.6-2.6C348.1,403.1,333.8,401.8,320.9,405.5z"/>
				<path class="st49" d="M337.4,427.4c-0.3,0.2-0.6,0.3-0.7,0.4c0.2,0,0.3,0.1,0.5,0.1C337.2,427.8,337.3,427.6,337.4,427.4z"/>
				<path class="st49" d="M320.9,405.5c-0.8,0-1.5,0.3-2.1,0.6C319.5,405.9,320.2,405.7,320.9,405.5z"/>
				<path class="st49" d="M317.5,406.6C317.5,406.6,317.5,406.6,317.5,406.6L317.5,406.6C317.5,406.6,317.5,406.6,317.5,406.6z"/>
				<polygon class="st21" points="344.5,343.6 310,362.2 341.3,377.5 				"/>
				<path class="st21" d="M311.1,374.9c0.1,1.2,0.3,2.4,0.7,3.4l37.2,19.3l-0.1-3.6L311.1,374.9z"/>
				<path class="st50" d="M349,393.7l0,0.3l-0.1-0.1l0.1,3.6l1.6-0.9l0.8-0.5l0.9-0.5l3-1.7l6-3.4l27.8-15.9
					c1.5-0.9,2.5-2.4,2.5-4.2l0-0.9l0,0L349,393.7z"/>
				<path class="st51" d="M349.1,385.9L349,387l0,0l0,7.1l42.7-24.7l0,0c1.4-0.8,2.2-2.3,2.1-3.9l-0.3-5.4L349.1,385.9z"/>
				<path class="st11" d="M349.5,381.2l-38.6-18.5l-0.9-0.5c0,0-2.8,0.5-3,5c-0.3,4.5,1.4,6.2,1.4,6.2l2.8,1.4l37.9,19.3
					C349,390.4,349,387.3,349.5,381.2z"/>
				<path class="st11" d="M398.2,298.3c0.1-1.7-0.2-3.1-0.8-4v0c-1.3-1.9-3.7-2.3-6.7-0.8l-28.1,14.7c-4,2.1-7.6,7.7-8.1,12.5
					l-5.4,65.3l43.5-25.3c1.1-0.7,1.9-1.9,2-3.2L398.2,298.3z"/>
				<path class="st36" d="M343.8,357.6c0.3,0.1,0.5,0.3,0.7,0.5c0,0,0,0,0,0c1.7,0.9,0.8,5.9-1.3,7.1c-0.3,0.2-0.7,0.3-1,0.5
					l-1.1,10.5l0.2,1.3l0.1,0.1l7.7,9.5l0,0l0.1-1.1l5.4-65.3c0.5-4.8,4.1-10.3,8.1-12.5l28.1-14.7c2.9-1.5,5.4-1.1,6.7,0.8
					c-1.4-3.7-11.6-5.1-14.8-3.3l-27.2,14.6c-3.9,2.1-7.5,7.6-7.9,12.3l-2.7,24.7l-0.1,1.2l-1.5,13.6L343.8,357.6z"/>
				<path class="st11" d="M333.2,364.1l3,1.5c0.7,0.3,1.6,0.5,2.5,0.5c1.1,0,2.4-0.2,3.5-0.6c0.4-0.1,0.7-0.3,1-0.5
					c2.1-1.1,3-6.1,1.3-7.1c0.9,0.9,0.4,2.2-1.3,3.2c-2.1,1.2-5.3,1.4-7,0.5l-27.5-13.9c-0.7-0.4-1.1-0.8-1.1-1.3
					c-0.1,1.5-0.2,4.5,1.1,5.2l11.4,5.8l2.3,1.2L333.2,364.1z"/>
				<path class="st52" d="M308.7,347.8l27.5,13.9c1.8,0.9,4.9,0.7,7-0.5c1.8-1,2.2-2.3,1.3-3.2c0,0,0,0,0,0
					c-0.2-0.2-0.4-0.3-0.7-0.5l-0.8-0.4l-11.9-6l-14.9-7.5c-0.7-0.4-1.7-0.6-2.8-0.6c-1.4,0-3,0.4-4.2,1c-0.9,0.5-1.4,1-1.7,1.6
					c0,0,0,0,0,0.1c0,0.1-0.1,0.4-0.1,0.7C307.6,347,308,347.5,308.7,347.8z"/>
			</g>
			<polygon class="st11" points="326.5,382.2 321.3,379.3 321.3,356.6 326.5,359.5 			"/>
		</g>
	</g>
</g>
<g id="DESIGNED_BY_FREEPIK">
</g>
</svg>
